<svg width="420" height="350" viewBox="0 0 420 350" fill="none" xmlns="http://www.w3.org/2000/svg">
<g clip-path="url(#clip0_738_8914)">
<mask id="mask0_738_8914" style="mask-type:luminance" maskUnits="userSpaceOnUse" x="63" y="64" width="251" height="228">
<path d="M313.056 64.1187H63.5V291.209H313.056V64.1187Z" fill="white"/>
</mask>
<g mask="url(#mask0_738_8914)">
<path d="M201.625 290.941C198.477 290.979 195.324 290.188 192.494 288.584C186.838 285.383 181.183 282.176 175.528 278.969C140.919 259.35 106.31 239.727 71.7004 220.108C69.4942 218.86 68.2405 216.417 68.5149 213.893C69.3274 206.414 70.1345 198.935 70.947 191.456C71.4636 191.574 71.9802 191.692 72.4967 191.811H74.154C75.3539 192.069 76.5538 192.327 77.7537 192.58C77.1941 192.343 76.6076 192.064 75.9996 191.741C75.2086 191.321 74.4984 190.891 73.8688 190.471C72.9864 189.949 72.1039 189.422 71.2215 188.9C72.3407 178.547 73.4653 168.194 74.5845 157.836C115.678 180.855 156.771 203.874 197.864 226.893C198.698 227.356 199.655 227.496 200.565 227.302C200.92 248.513 201.27 269.725 201.625 290.941Z" fill="#A29D80"/>
<path d="M201.625 290.941C198.477 290.979 195.324 290.188 192.494 288.584C186.838 285.383 181.183 282.176 175.528 278.969C140.919 259.35 106.31 239.727 71.7004 220.108C69.4942 218.86 68.2405 216.417 68.5149 213.893C69.3274 206.414 70.1345 198.935 70.947 191.456C71.4636 191.574 71.9802 191.692 72.4967 191.811H74.154C75.3539 192.069 76.5538 192.327 77.7537 192.58C77.1941 192.343 76.6076 192.064 75.9996 191.741C75.2086 191.321 74.4984 190.891 73.8688 190.471C72.9864 189.949 72.1039 189.422 71.2215 188.9C72.3407 178.547 73.4653 168.194 74.5845 157.836C115.678 180.855 156.771 203.874 197.864 226.893C198.698 227.356 199.655 227.496 200.565 227.302C200.92 248.513 201.27 269.725 201.625 290.941Z" stroke="#231F20" stroke-width="0.538079" stroke-linecap="round" stroke-linejoin="round"/>
<path d="M303.429 233.226C299.787 235.395 296.149 237.563 292.506 239.726C271.333 252.328 250.16 264.93 228.992 277.532C225.688 279.501 222.379 281.47 219.069 283.434C216.293 285.092 213.516 286.744 210.74 288.395C207.931 290.069 204.783 290.914 201.625 290.941C201.27 269.724 200.92 248.513 200.565 227.302C200.958 227.221 201.345 227.076 201.706 226.872C235.05 207.732 268.4 188.593 301.745 169.448L306.588 227.092C306.792 229.567 305.571 231.951 303.429 233.226Z" fill="#383A37"/>
<path d="M292.506 239.727C271.333 252.329 250.16 264.931 228.992 277.532C225.688 279.502 222.379 281.471 219.069 283.435C219.123 281.67 219.172 279.905 219.22 278.146C243.428 263.542 267.636 248.944 291.844 234.346C292.065 236.143 292.286 237.935 292.506 239.727Z" fill="#8E8557"/>
<path d="M292.506 239.727C271.333 252.329 250.16 264.931 228.992 277.532C225.688 279.502 222.379 281.471 219.069 283.435C219.123 281.67 219.172 279.905 219.22 278.146C243.428 263.542 267.636 248.944 291.844 234.346C292.065 236.143 292.286 237.935 292.506 239.727Z" stroke="#231F20" stroke-width="0.538079" stroke-linecap="round" stroke-linejoin="round"/>
<path d="M303.429 233.226C299.232 235.723 295.041 238.22 290.844 240.716C289.972 229.53 289.1 218.343 288.234 207.156C287.217 207.732 270.725 217.057 253.216 226.958C252.715 227.243 241.394 233.646 240.894 233.931C239.775 232.731 237.967 232.457 236.546 233.264C235.131 234.071 234.448 235.755 234.9 237.321L218.203 246.77C218.989 258.699 219.774 270.623 220.56 282.552C217.288 284.5 214.017 286.448 210.74 288.395C207.931 290.069 204.783 290.914 201.625 290.941C201.27 269.724 200.92 248.513 200.565 227.302C200.958 227.221 201.345 227.076 201.706 226.872C206.581 224.074 211.461 221.275 216.336 218.477C239.559 205.144 262.783 191.816 286.006 178.482C291.253 175.474 296.499 172.461 301.745 169.448C303.359 188.663 304.974 207.877 306.588 227.092C306.792 229.567 305.571 231.951 303.429 233.226Z" fill="#FCF7DB"/>
<path d="M303.429 233.226C299.232 235.723 295.041 238.22 290.844 240.716C289.972 229.53 289.1 218.343 288.234 207.156C276.563 213.759 264.887 220.355 253.216 226.958C248.717 228.249 243.46 230.154 237.854 233.016C229.261 237.396 222.771 242.524 218.203 246.77C218.989 258.699 219.774 270.623 220.56 282.552C217.288 284.5 214.017 286.448 210.74 288.395C207.931 290.069 204.783 290.914 201.625 290.941C201.27 269.724 200.92 248.513 200.565 227.302C200.958 227.221 201.345 227.076 201.706 226.872C206.581 224.074 211.461 221.275 216.336 218.477C239.559 205.144 262.783 191.816 286.006 178.482C291.253 175.474 296.499 172.461 301.745 169.448C303.359 188.663 304.974 207.877 306.588 227.092C306.792 229.567 305.571 231.951 303.429 233.226Z" stroke="#231F20" stroke-width="0.538079" stroke-linecap="round" stroke-linejoin="round"/>
<path d="M303.429 233.226C299.787 235.395 296.149 237.563 292.506 239.726C271.333 252.328 250.16 264.93 228.992 277.532C225.688 279.501 222.379 281.47 219.069 283.434C216.293 285.092 213.516 286.744 210.74 288.395C207.931 290.069 204.783 290.914 201.625 290.941C201.27 269.724 200.92 248.513 200.565 227.302C200.958 227.221 201.345 227.076 201.706 226.872C235.05 207.732 268.4 188.593 301.745 169.448L306.588 227.092C306.792 229.567 305.571 231.951 303.429 233.226Z" stroke="#231F20" stroke-width="0.538079" stroke-linecap="round" stroke-linejoin="round"/>
<path d="M294.508 238.537C293.287 239.264 292.065 239.99 290.844 240.717C289.229 219.968 287.615 199.231 286.006 178.482C287.282 177.751 288.557 177.019 289.832 176.287C291.393 197.041 292.948 217.789 294.508 238.537Z" fill="#508A17"/>
<path d="M294.508 238.537C293.287 239.264 292.065 239.99 290.844 240.717C289.229 219.968 287.615 199.231 286.006 178.482C287.282 177.751 288.557 177.019 289.832 176.287C291.393 197.041 292.948 217.789 294.508 238.537Z" stroke="#231F20" stroke-width="0.538079" stroke-linecap="round" stroke-linejoin="round"/>
<path d="M288.234 207.157C272.312 216.159 256.396 225.161 240.48 234.168C239.974 233.894 239.581 233.856 239.285 233.894C238.994 233.931 238.779 234.044 238.343 234.007C237.741 233.958 237.579 233.689 237.256 233.781C236.95 233.861 236.934 234.136 236.487 234.868C235.9 235.809 235.588 235.885 235.513 236.412C235.492 236.552 235.486 236.735 235.54 236.961C229.761 240.232 223.982 243.498 218.203 246.77C217.896 242.051 217.584 237.337 217.272 232.624C216.96 227.905 216.648 223.191 216.336 218.478C239.559 205.144 262.783 191.816 286.006 178.482C286.749 188.044 287.491 197.6 288.234 207.157Z" fill="#FFFDF3"/>
<path d="M220.63 233.302C241.733 221.195 262.837 209.094 283.945 196.987C283.666 197.66 283.391 198.327 283.111 199C282.396 200.732 281.121 202.18 279.496 203.111C262.272 212.979 245.042 222.853 227.819 232.721C225.639 233.969 223.024 234.185 220.667 233.313L220.63 233.297V233.302Z" fill="#DFDBBD"/>
<path d="M220.398 227.986C241.502 215.879 262.605 203.778 283.714 191.671C283.434 192.343 283.16 193.011 282.88 193.683C282.164 195.416 280.889 196.863 279.264 197.794C262.04 207.663 244.811 217.536 227.587 227.405C225.408 228.653 222.793 228.868 220.436 227.997L220.398 227.98V227.986Z" fill="#DFDBBD"/>
<path d="M288.234 207.157C272.312 216.159 256.396 225.161 240.48 234.168C239.974 233.894 239.581 233.856 239.285 233.894C238.994 233.931 238.779 234.044 238.343 234.007C237.741 233.958 237.579 233.689 237.256 233.781C236.95 233.861 236.934 234.136 236.487 234.868C235.9 235.809 235.588 235.885 235.513 236.412C235.492 236.552 235.486 236.735 235.54 236.961C229.761 240.232 223.982 243.498 218.203 246.77C217.896 242.051 217.584 237.337 217.272 232.624C216.96 227.905 216.648 223.191 216.336 218.478C239.559 205.144 262.783 191.816 286.006 178.482C286.421 183.75 286.83 189.023 287.239 194.291C287.572 198.58 287.906 202.868 288.234 207.157Z" stroke="#231F20" stroke-width="0.538079" stroke-linecap="round" stroke-linejoin="round"/>
<path d="M310.801 137.954C267.362 113.595 223.923 89.2417 180.489 64.8829C179.343 64.2426 177.955 64.2211 176.787 64.8237L65.8676 122.425C63.1234 123.851 63.0588 127.763 65.76 129.275C111.002 154.618 156.243 179.962 201.485 205.311C202.679 205.978 204.138 205.967 205.327 205.289L310.833 144.723C313.454 143.222 313.438 139.434 310.801 137.954ZM300.432 143.911C268.25 162.383 236.062 180.855 203.879 199.333C202.792 199.957 201.458 199.962 200.366 199.349C158.961 176.158 117.561 152.961 76.161 129.77C73.6859 128.387 73.745 124.809 76.2579 123.501L177.766 70.791C178.832 70.2368 180.102 70.2583 181.151 70.8448C220.899 93.132 260.652 115.419 300.4 137.712C302.816 139.062 302.832 142.533 300.432 143.911Z" fill="#FFFDF3"/>
<path d="M310.801 137.954C267.362 113.595 223.923 89.2417 180.489 64.8829C179.343 64.2426 177.955 64.2211 176.787 64.8237L65.8676 122.425C63.1234 123.851 63.0588 127.763 65.76 129.275C111.002 154.618 156.243 179.962 201.485 205.311C202.679 205.978 204.138 205.967 205.327 205.289L310.833 144.723C313.454 143.222 313.438 139.434 310.801 137.954ZM300.432 143.911C268.25 162.383 236.062 180.855 203.879 199.333C202.792 199.957 201.458 199.962 200.366 199.349C158.961 176.158 117.561 152.961 76.161 129.77C73.6859 128.387 73.745 124.809 76.2579 123.501L177.766 70.791C178.832 70.2368 180.102 70.2583 181.151 70.8448C220.899 93.1321 260.652 115.419 300.4 137.712C302.816 139.062 302.832 142.533 300.432 143.911Z" stroke="#231F20" stroke-width="0.538079" stroke-linecap="round" stroke-linejoin="round"/>
<path d="M300.432 143.911C296.951 145.907 293.475 147.903 289.993 149.905C290.386 148.549 289.886 146.972 288.481 146.187C252.629 126.084 216.777 105.982 180.925 85.879C180.457 85.6153 179.935 85.4808 179.418 85.47C179.44 80.4444 179.461 75.4134 179.488 70.3877C180.064 70.4038 180.634 70.5545 181.151 70.8451C220.899 93.1323 260.652 115.42 300.4 137.712C302.816 139.063 302.832 142.533 300.432 143.911Z" fill="#FCF7DB"/>
<path d="M300.432 143.911C296.951 145.907 293.475 147.903 289.993 149.905C290.386 148.549 289.886 146.972 288.481 146.187C252.629 126.084 216.777 105.982 180.925 85.879C180.457 85.6153 179.935 85.4808 179.418 85.47C179.44 80.4444 179.461 75.4134 179.488 70.3877C180.064 70.4038 180.634 70.5545 181.151 70.8451C220.899 93.1323 260.652 115.42 300.4 137.712C302.816 139.063 302.832 142.533 300.432 143.911Z" stroke="#231F20" stroke-width="0.538079" stroke-linecap="round" stroke-linejoin="round"/>
<path d="M289.994 149.905C261.292 166.375 232.581 182.851 203.879 199.333C202.792 199.957 201.458 199.962 200.366 199.349C161.898 177.804 123.431 156.249 84.9694 134.704C85.2545 134.161 85.7065 133.693 86.3199 133.375L177.874 85.8304C178.358 85.5775 178.891 85.4591 179.418 85.4699C179.935 85.4807 180.457 85.6152 180.925 85.8788C216.777 105.981 252.629 126.084 288.482 146.187C289.886 146.972 290.386 148.549 289.994 149.905Z" fill="#A6A183"/>
<path d="M179.488 70.3883C179.461 75.4139 179.44 80.445 179.418 85.4706C178.891 85.4599 178.358 85.5783 177.874 85.8312L86.32 133.376C85.7065 133.693 85.2546 134.161 84.9694 134.705C82.0315 133.058 79.0989 131.417 76.161 129.771C73.6859 128.388 73.7451 124.81 76.2579 123.502L177.766 70.7919C178.305 70.5121 178.896 70.3775 179.488 70.3883Z" fill="#DFDBBD"/>
<path d="M289.994 149.905C261.292 166.375 232.581 182.851 203.879 199.333C202.792 199.957 201.458 199.962 200.366 199.349C161.898 177.804 123.431 156.249 84.9694 134.704C85.2545 134.161 85.7065 133.693 86.3199 133.375L177.874 85.8304C178.358 85.5775 178.891 85.4591 179.418 85.4699C179.935 85.4807 180.457 85.6152 180.925 85.8788C216.777 105.981 252.629 126.084 288.482 146.187C289.886 146.972 290.386 148.549 289.994 149.905Z" stroke="#231F20" stroke-width="0.538079" stroke-linecap="round" stroke-linejoin="round"/>
<path d="M179.488 70.3883C179.461 75.4139 179.44 80.445 179.418 85.4706C178.891 85.4599 178.358 85.5783 177.874 85.8312L113.498 119.262L103.081 124.67L91.6954 130.583L87.2885 132.87L86.32 133.376C85.7065 133.693 85.2546 134.161 84.9694 134.705C84.1031 134.221 83.2368 133.736 82.3705 133.247C81.9669 133.021 81.558 132.795 81.1544 132.569C79.4917 131.638 77.8291 130.702 76.161 129.771C73.6859 128.388 73.7451 124.81 76.2579 123.502L177.766 70.7919C178.305 70.5121 178.896 70.3775 179.488 70.3883Z" stroke="#231F20" stroke-width="0.538079" stroke-linecap="round" stroke-linejoin="round"/>
<path d="M124.12 129.904C122.14 130.055 120.165 130.206 118.185 130.356C113.972 130.679 109.764 131.002 105.551 131.319C101.397 131.637 97.2376 131.954 93.0836 132.272C91.3133 132.406 89.5484 132.541 87.7781 132.675C86.137 132.805 84.5012 132.928 82.8601 133.052" stroke="white" stroke-width="0.403559" stroke-linecap="round" stroke-linejoin="round"/>
<path d="M117.679 116.728C116.512 117.233 115.344 117.739 114.176 118.25C110.657 119.778 107.133 121.307 103.614 122.835C99.7235 124.524 95.8332 126.214 91.9429 127.903C88.5099 129.394 85.077 130.884 81.644 132.375" stroke="white" stroke-width="0.403559" stroke-linecap="round" stroke-linejoin="round"/>
<path d="M119.826 146.252C118.411 145.8 117.001 145.342 115.586 144.89C111.965 143.728 108.338 142.566 104.717 141.403C100.934 140.193 97.1569 138.977 93.3742 137.766L88.4507 136.184" stroke="white" stroke-width="0.403559" stroke-linecap="round" stroke-linejoin="round"/>
<path d="M90.7214 124.921C90.7913 125.287 90.8936 125.712 91.0657 126.164C91.3294 126.875 91.6576 127.434 91.9482 127.854C91.9482 127.87 91.9428 127.886 91.9428 127.902C91.8782 128.414 91.8298 129.339 92.1849 130.388C92.1903 130.415 92.1957 130.437 92.2065 130.464C92.4809 131.238 92.8791 131.798 93.175 132.153C93.1535 132.18 93.1212 132.218 93.0835 132.272C92.7984 132.659 92.1204 133.73 92.2818 135.177C92.4378 136.56 93.2665 137.416 93.514 137.652C93.4817 137.679 93.4333 137.717 93.3741 137.765C93.1965 137.916 92.9221 138.174 92.6369 138.529" stroke="white" stroke-width="0.403559" stroke-linecap="round" stroke-linejoin="round"/>
<path d="M101.112 117.152C101.284 118.034 101.596 119.164 102.188 120.396C102.651 121.36 103.162 122.134 103.625 122.742C103.619 122.769 103.619 122.802 103.614 122.834C103.571 123.286 103.544 123.84 103.571 124.48C103.592 125.315 103.705 126.288 103.98 127.338C104.41 128.995 105.094 130.265 105.632 131.099C105.605 131.169 105.578 131.244 105.551 131.319C105.228 132.18 104.932 133.192 104.728 134.338C104.238 137.168 104.55 139.579 104.911 141.182C104.851 141.247 104.787 141.322 104.717 141.403C104.34 141.85 103.856 142.56 103.598 143.534C103.501 143.894 103.447 144.244 103.425 144.578" stroke="white" stroke-width="0.403559" stroke-linecap="round" stroke-linejoin="round"/>
<path d="M110.749 109.953C110.776 110.937 110.937 112.53 111.69 114.322C112.465 116.146 113.52 117.394 114.219 118.099C114.209 118.142 114.192 118.196 114.176 118.25C114.117 118.465 114.047 118.739 113.988 119.068C113.746 120.3 113.584 122.258 114.289 124.465C115.328 127.72 117.588 129.474 118.357 130.018C118.298 130.131 118.244 130.244 118.185 130.357C117.561 131.6 116.942 133.09 116.458 134.823C115.355 138.761 115.435 142.216 115.699 144.524C115.661 144.643 115.624 144.766 115.586 144.89C115.225 146.085 114.892 147.613 114.795 149.415C114.768 149.943 114.763 150.448 114.779 150.933" stroke="white" stroke-width="0.403559" stroke-linecap="round" stroke-linejoin="round"/>
<path d="M312.781 141.597C312.776 150.325 312.77 159.042 312.77 167.769C312.787 167.99 312.787 168.216 312.77 168.442V168.469H312.765C312.652 169.653 312.012 170.793 310.833 171.471C275.664 191.66 240.496 211.849 205.327 232.032C204.643 232.425 203.874 232.592 203.115 232.538V205.801C203.874 205.849 204.643 205.677 205.327 205.29L310.833 144.723C312.055 144.024 312.7 142.824 312.781 141.597Z" fill="#FCF7DB"/>
<path d="M203.115 205.801V232.538C202.55 232.5 201.996 232.339 201.485 232.054C156.243 206.71 111.002 181.367 65.7599 156.023C64.3609 155.238 63.7098 153.806 63.7852 152.413C63.7852 143.653 63.7744 134.887 63.7744 126.127C63.8551 127.365 64.5116 128.581 65.7599 129.275C111.002 154.619 156.243 179.962 201.485 205.311C201.996 205.596 202.55 205.758 203.115 205.801Z" fill="#DFDBBD"/>
<path d="M312.781 141.597C312.776 150.325 312.77 159.042 312.77 167.769C312.787 167.99 312.787 168.216 312.77 168.442V168.469H312.765C312.652 169.653 312.012 170.793 310.833 171.471C275.664 191.66 240.496 211.849 205.327 232.032C204.138 232.715 202.679 232.721 201.485 232.054C156.243 206.71 111.002 181.367 65.7599 156.023C64.3609 155.238 63.7098 153.806 63.7852 152.413C63.7852 143.653 63.7744 134.887 63.7744 126.127C63.8551 127.365 64.5116 128.581 65.7599 129.275C111.002 154.619 156.243 179.962 201.485 205.311C202.679 205.978 204.138 205.968 205.327 205.29L310.833 144.723C312.055 144.024 312.7 142.824 312.781 141.597Z" stroke="#231F20" stroke-width="0.538079" stroke-linecap="round" stroke-linejoin="round"/>
<path d="M248.658 224.149C252.484 221.916 256.304 219.683 260.13 217.456C260.13 219.527 259.027 221.443 257.241 222.487C255.341 223.59 253.447 224.698 251.548 225.801C250.273 226.544 248.669 225.629 248.658 224.149Z" fill="#DFDBBD"/>
<path d="M248.658 224.149C252.484 221.916 256.304 219.683 260.13 217.456C260.13 219.527 259.027 221.443 257.241 222.487C255.341 223.59 253.447 224.698 251.548 225.801C250.273 226.544 248.669 225.629 248.658 224.149Z" stroke="#231F20" stroke-width="0.538079" stroke-linecap="round" stroke-linejoin="round"/>
<path d="M220.398 227.62C241.502 215.513 262.605 203.412 283.714 191.305" stroke="#231F20" stroke-width="0.538079" stroke-linecap="round" stroke-linejoin="round"/>
<path d="M220.63 233.302C241.733 221.195 262.837 209.094 283.945 196.987" stroke="#231F20" stroke-width="0.538079" stroke-linecap="round" stroke-linejoin="round"/>
<path d="M178.762 237.284C177.298 238.936 175.867 240.55 174.463 242.132C172.768 242.89 171.1 243.638 169.458 244.376C169.259 246.636 169.066 248.852 168.872 251.021C170.449 253.345 172.014 255.648 173.559 257.924C176.109 258.64 178.681 259.366 181.285 260.098C183.034 258.204 184.831 256.256 186.677 254.255C186.828 252.345 186.984 250.402 187.14 248.427C188.888 248.148 190.659 247.862 192.451 247.577C190.546 246.705 188.646 245.839 186.758 244.973C186.09 242.578 185.407 240.146 184.718 237.676C182.711 237.542 180.726 237.413 178.756 237.278L178.762 237.284Z" fill="#E3DFC1"/>
<path d="M170.341 248.405C174.527 250.767 178.713 253.135 182.9 255.497" stroke="white" stroke-width="0.538079" stroke-linecap="round" stroke-linejoin="round"/>
<path d="M175.377 246.345V251.01" stroke="white" stroke-width="0.538079" stroke-linecap="round" stroke-linejoin="round"/>
<path d="M176.459 245.796C179.537 247.534 182.614 249.272 185.692 251.01" stroke="white" stroke-width="0.538079" stroke-linecap="round" stroke-linejoin="round"/>
<path d="M178.762 237.284C177.298 238.936 175.867 240.55 174.463 242.132C172.768 242.89 171.1 243.638 169.458 244.376C169.259 246.636 169.066 248.852 168.872 251.021C170.449 253.345 172.014 255.648 173.559 257.924C176.109 258.64 178.681 259.366 181.285 260.098C183.034 258.204 184.831 256.256 186.677 254.255C186.828 252.345 186.984 250.402 187.14 248.427C188.888 248.148 190.659 247.862 192.451 247.577C190.546 246.705 188.646 245.839 186.758 244.973C186.09 242.578 185.407 240.146 184.718 237.676C182.711 237.542 180.726 237.413 178.756 237.278L178.762 237.284Z" stroke="#231F20" stroke-width="0.538079" stroke-linecap="round" stroke-linejoin="round"/>
<path d="M175.797 256.945C178.003 257.564 180.225 258.188 182.469 258.823C182.071 259.253 181.678 259.679 181.291 260.098C178.686 259.366 176.109 258.645 173.564 257.924C172.014 255.648 170.454 253.345 168.877 251.021C169.066 248.847 169.259 246.636 169.458 244.376C171.1 243.638 172.773 242.89 174.468 242.126C175.867 240.55 177.304 238.93 178.767 237.278C179.192 237.305 179.623 237.338 180.053 237.364C178.918 238.645 177.804 239.91 176.706 241.147C175.006 241.906 173.338 242.654 171.697 243.391C171.498 245.651 171.304 247.868 171.11 250.036C172.692 252.366 174.253 254.664 175.797 256.945Z" fill="#A6A183"/>
<path d="M175.797 256.945C178.003 257.564 180.225 258.188 182.469 258.823C182.071 259.253 181.678 259.679 181.291 260.098C178.686 259.366 176.109 258.645 173.564 257.924C172.014 255.648 170.454 253.345 168.877 251.021C169.066 248.847 169.259 246.636 169.458 244.376C171.1 243.638 172.773 242.89 174.468 242.126C175.867 240.55 177.304 238.93 178.767 237.278C179.192 237.305 179.623 237.338 180.053 237.364C178.918 238.645 177.804 239.91 176.706 241.147C175.006 241.906 173.338 242.654 171.697 243.391C171.498 245.651 171.304 247.868 171.11 250.036C172.692 252.366 174.253 254.664 175.797 256.945Z" stroke="#231F20" stroke-width="0.538079" stroke-linecap="round" stroke-linejoin="round"/>
<mask id="mask1_738_8914" style="mask-type:luminance" maskUnits="userSpaceOnUse" x="88" y="245" width="46" height="36">
<path d="M133.23 245.991H88.7898V280.864H133.23V245.991Z" fill="white"/>
</mask>
<g mask="url(#mask1_738_8914)">
<path d="M96.1776 249.558C104.948 244.806 118.723 245.253 126.913 250.445C131.11 253.098 133.047 256.499 132.762 259.819C132.762 259.953 132.74 260.088 132.718 260.228C132.697 260.357 132.675 260.486 132.649 260.615C132.605 260.857 132.546 261.094 132.471 261.325C132.428 261.503 132.369 261.67 132.31 261.837C132.304 261.858 132.299 261.88 132.288 261.896C132.223 262.084 132.143 262.262 132.057 262.445C132.057 262.455 132.051 262.466 132.041 262.482C131.96 262.66 131.879 262.832 131.782 263.015C131.675 263.209 131.551 263.402 131.427 263.601C131.346 263.736 131.26 263.865 131.169 263.989L130.97 264.263C130.867 264.403 130.76 264.543 130.641 264.678C130.491 264.861 130.329 265.038 130.168 265.21C130.012 265.366 129.861 265.528 129.705 265.684C129.684 265.695 129.668 265.716 129.651 265.732C129.468 265.904 129.275 266.077 129.081 266.238C128.731 266.539 128.344 266.835 127.94 267.126C127.87 267.174 127.795 267.223 127.72 267.277C127.569 267.379 127.413 267.481 127.252 267.583C126.961 267.772 126.665 267.955 126.353 268.127C117.905 272.899 104.222 272.754 95.7471 267.691C93.0406 266.071 91.2057 264.161 90.2318 262.154C90.1672 262.02 90.108 261.88 90.0488 261.745C89.9843 261.578 89.9143 261.406 89.8605 261.239C89.7529 260.965 89.6776 260.685 89.6076 260.4C89.5699 260.238 89.543 260.077 89.5108 259.921C89.4892 259.77 89.4731 259.63 89.457 259.485C89.4408 259.34 89.4247 259.205 89.4193 259.065V259.028C89.3978 258.813 89.4031 258.608 89.4193 258.393C89.4193 258.129 89.4462 257.866 89.4892 257.602C89.5054 257.467 89.5323 257.338 89.5538 257.204C89.6076 256.94 89.6722 256.676 89.7529 256.418C89.7959 256.289 89.839 256.154 89.8874 256.031C89.9789 255.762 90.0973 255.503 90.221 255.245C90.3448 254.998 90.4793 254.745 90.6353 254.492C90.8613 254.104 91.1196 253.738 91.4156 253.378C91.5178 253.249 91.6093 253.136 91.7169 253.023C91.8191 252.904 91.9321 252.781 92.0451 252.662C92.1527 252.549 92.2603 252.436 92.3787 252.323C92.3787 252.323 92.3787 252.318 92.3895 252.307C93.4064 251.312 94.6656 250.386 96.1937 249.563H96.1776V249.558Z" fill="#383A37"/>
<path d="M96.1776 249.558C104.948 244.806 118.723 245.253 126.913 250.445C131.11 253.098 133.047 256.499 132.762 259.819C132.762 259.953 132.74 260.088 132.718 260.228C132.697 260.357 132.675 260.486 132.649 260.615C132.605 260.857 132.546 261.094 132.471 261.325C132.428 261.503 132.369 261.67 132.31 261.837C132.304 261.858 132.299 261.88 132.288 261.896C132.223 262.084 132.143 262.262 132.057 262.445C132.057 262.455 132.051 262.466 132.041 262.482C131.96 262.66 131.879 262.832 131.782 263.015C131.675 263.209 131.551 263.402 131.427 263.601C131.346 263.736 131.26 263.865 131.169 263.989L130.97 264.263C130.867 264.403 130.76 264.543 130.641 264.678C130.491 264.861 130.329 265.038 130.168 265.21C130.012 265.366 129.861 265.528 129.705 265.684C129.684 265.695 129.668 265.716 129.651 265.732C129.468 265.904 129.275 266.077 129.081 266.238C128.731 266.539 128.344 266.835 127.94 267.126C127.87 267.174 127.795 267.223 127.72 267.277C127.569 267.379 127.413 267.481 127.252 267.583C126.961 267.772 126.665 267.955 126.353 268.127C117.905 272.899 104.222 272.754 95.7471 267.691C93.0406 266.071 91.2057 264.161 90.2318 262.154C90.1672 262.02 90.108 261.88 90.0488 261.745C89.9843 261.578 89.9143 261.406 89.8605 261.239C89.7529 260.965 89.6776 260.685 89.6076 260.4C89.5699 260.238 89.543 260.077 89.5108 259.921C89.4892 259.77 89.4731 259.63 89.457 259.485C89.4408 259.34 89.4247 259.205 89.4193 259.065V259.028C89.3978 258.813 89.4031 258.608 89.4193 258.393C89.4193 258.129 89.4462 257.866 89.4892 257.602C89.5054 257.467 89.5323 257.338 89.5538 257.204C89.6076 256.94 89.6722 256.676 89.7529 256.418C89.7959 256.289 89.839 256.154 89.8874 256.031C89.9789 255.762 90.0973 255.503 90.221 255.245C90.3448 254.998 90.4793 254.745 90.6353 254.492C90.8613 254.104 91.1196 253.738 91.4156 253.378C91.5178 253.249 91.6093 253.136 91.7169 253.023C91.8191 252.904 91.9321 252.781 92.0451 252.662C92.1527 252.549 92.2603 252.436 92.3787 252.323C92.3787 252.323 92.3787 252.318 92.3895 252.307C93.4064 251.312 94.6656 250.386 96.1937 249.563H96.1776V249.558Z" stroke="#231F20" stroke-width="0.538079" stroke-miterlimit="10"/>
<path d="M105.26 255.272C106.041 254.852 106.923 254.53 107.859 254.32C110.458 253.722 113.461 253.927 115.823 254.885C116.339 255.094 116.829 255.337 117.276 255.622C119.39 256.962 120.036 258.796 119.24 260.405C118.852 261.191 118.12 261.928 117.055 262.531C113.757 264.392 108.408 264.339 105.094 262.359C104.539 262.025 104.082 261.664 103.711 261.282C101.844 259.335 102.371 256.843 105.266 255.277H105.26V255.272Z" fill="#F9D917"/>
<path d="M105.26 255.272C106.041 254.852 106.923 254.53 107.859 254.32C110.458 253.722 113.461 253.927 115.823 254.885C116.339 255.094 116.829 255.337 117.276 255.622C119.39 256.962 120.036 258.796 119.24 260.405C118.852 261.191 118.12 261.928 117.055 262.531C113.757 264.392 108.408 264.339 105.094 262.359C104.539 262.025 104.082 261.664 103.711 261.282C101.844 259.335 102.371 256.843 105.266 255.277H105.26V255.272Z" stroke="#231F20" stroke-width="0.538079" stroke-miterlimit="10"/>
<path d="M108.29 255.96C109.35 255.455 110.528 255.202 111.68 255.266C112.901 255.336 114.101 255.761 115.129 256.445C116.754 257.532 117.943 259.248 118.061 261.185C117.728 261.863 117.103 262.493 116.183 263.009C113.348 264.613 108.758 264.564 105.911 262.864C105.438 262.579 105.04 262.267 104.722 261.938C104.674 261.594 104.663 261.244 104.69 260.884C104.841 258.645 106.363 256.881 108.295 255.96H108.29Z" fill="#E7E6D7"/>
<path d="M108.29 255.96C109.35 255.455 110.528 255.202 111.68 255.266C112.901 255.336 114.101 255.761 115.129 256.445C116.754 257.532 117.943 259.248 118.061 261.185C117.728 261.863 117.103 262.493 116.183 263.009C113.348 264.613 108.758 264.564 105.911 262.864C105.438 262.579 105.04 262.267 104.722 261.938C104.674 261.594 104.663 261.244 104.69 260.884C104.841 258.645 106.363 256.881 108.295 255.96H108.29Z" stroke="#231F20" stroke-width="0.538079" stroke-miterlimit="10"/>
<path d="M132.961 263.94C132.95 265.431 132.885 266.846 132.783 268.175C132.783 268.39 132.778 268.605 132.756 268.815C132.756 268.95 132.735 269.084 132.713 269.224C132.692 269.348 132.67 269.482 132.643 269.612C132.595 269.848 132.541 270.085 132.466 270.322C132.423 270.499 132.358 270.666 132.304 270.833C132.304 270.855 132.293 270.876 132.283 270.892C132.218 271.081 132.137 271.258 132.051 271.441C132.051 271.452 132.051 271.463 132.035 271.479C131.954 271.656 131.874 271.834 131.771 272.011C131.664 272.205 131.54 272.399 131.411 272.598C131.336 272.732 131.25 272.862 131.153 272.985L130.954 273.26C130.846 273.394 130.738 273.54 130.625 273.674C130.475 273.857 130.319 274.035 130.152 274.207C130.001 274.368 129.845 274.524 129.689 274.68C129.668 274.691 129.651 274.707 129.641 274.729C129.458 274.901 129.264 275.073 129.07 275.235C128.721 275.536 128.333 275.832 127.93 276.117C127.854 276.165 127.784 276.214 127.709 276.268C127.558 276.37 127.402 276.472 127.241 276.569C126.95 276.757 126.654 276.94 126.342 277.112C117.894 281.885 104.211 281.745 95.7364 276.677C93.0298 275.057 91.195 273.147 90.221 271.14C90.1565 271.005 90.0973 270.865 90.0381 270.731C89.9735 270.564 89.9036 270.392 89.8498 270.23C89.7422 269.956 89.6668 269.676 89.5969 269.391C89.5592 269.23 89.5323 269.068 89.5054 268.912C89.4839 268.761 89.4677 268.622 89.4516 268.476C89.1987 266.717 89.0265 264.645 89.0749 262.331C89.1126 260.776 89.2364 259.34 89.4247 258.054C89.4247 258.167 89.4086 258.28 89.4086 258.393C89.3924 258.608 89.387 258.812 89.4086 259.028C89.4086 259.038 89.4139 259.049 89.4086 259.065C89.4086 259.205 89.4301 259.34 89.4462 259.485C89.4624 259.625 89.4839 259.77 89.5 259.921C89.5323 260.072 89.5592 260.238 89.5915 260.394C89.6614 260.68 89.7422 260.959 89.8444 261.234C89.8982 261.401 89.9682 261.567 90.0327 261.734C90.0919 261.874 90.1511 262.009 90.2157 262.143C91.1896 264.15 93.0244 266.066 95.731 267.68C104.206 272.749 117.894 272.889 126.337 268.116C126.654 267.938 126.945 267.761 127.235 267.572C127.397 267.475 127.553 267.368 127.704 267.271C127.779 267.223 127.854 267.169 127.924 267.12C128.328 266.83 128.71 266.539 129.065 266.238C129.264 266.076 129.452 265.904 129.635 265.732C129.651 265.716 129.668 265.694 129.684 265.684C129.727 265.641 129.764 265.598 129.808 265.555C129.926 265.436 130.039 265.323 130.146 265.21C130.313 265.038 130.475 264.86 130.62 264.677C130.733 264.543 130.841 264.403 130.948 264.258L131.147 263.983C131.239 263.865 131.325 263.73 131.406 263.596C131.529 263.402 131.653 263.209 131.766 263.009C131.863 262.832 131.944 262.66 132.03 262.482C132.035 262.466 132.041 262.455 132.046 262.444C132.132 262.261 132.213 262.084 132.277 261.89C132.288 261.874 132.299 261.853 132.299 261.836C132.358 261.664 132.417 261.497 132.46 261.32C132.536 261.088 132.595 260.852 132.638 260.61C132.665 260.475 132.686 260.346 132.708 260.222C132.729 260.082 132.745 259.948 132.751 259.813C132.778 259.501 132.788 259.189 132.772 258.877C132.891 260.448 132.961 262.138 132.95 263.93L132.961 263.94Z" fill="#0B1107"/>
<path d="M132.961 263.94C132.95 265.431 132.885 266.846 132.783 268.175C132.783 268.39 132.778 268.605 132.756 268.815C132.756 268.95 132.735 269.084 132.713 269.224C132.692 269.348 132.67 269.482 132.643 269.612C132.595 269.848 132.541 270.085 132.466 270.322C132.423 270.499 132.358 270.666 132.304 270.833C132.304 270.855 132.293 270.876 132.283 270.892C132.218 271.081 132.137 271.258 132.051 271.441C132.051 271.452 132.051 271.463 132.035 271.479C131.954 271.656 131.874 271.834 131.771 272.011C131.664 272.205 131.54 272.399 131.411 272.598C131.336 272.732 131.25 272.862 131.153 272.985L130.954 273.26C130.846 273.394 130.738 273.54 130.625 273.674C130.475 273.857 130.319 274.035 130.152 274.207C130.001 274.368 129.845 274.524 129.689 274.68C129.668 274.691 129.651 274.707 129.641 274.729C129.458 274.901 129.264 275.073 129.07 275.235C128.721 275.536 128.333 275.832 127.93 276.117C127.854 276.165 127.784 276.214 127.709 276.268C127.558 276.37 127.402 276.472 127.241 276.569C126.95 276.757 126.654 276.94 126.342 277.112C117.894 281.885 104.211 281.745 95.7364 276.677C93.0298 275.057 91.195 273.147 90.221 271.14C90.1565 271.005 90.0973 270.865 90.0381 270.731C89.9735 270.564 89.9036 270.392 89.8498 270.23C89.7422 269.956 89.6668 269.676 89.5969 269.391C89.5592 269.23 89.5323 269.068 89.5054 268.912C89.4839 268.761 89.4677 268.622 89.4516 268.476C89.1987 266.717 89.0265 264.645 89.0749 262.331C89.1126 260.776 89.2364 259.34 89.4247 258.054C89.4247 258.167 89.4086 258.28 89.4086 258.393C89.3924 258.608 89.387 258.812 89.4086 259.028C89.4086 259.038 89.4139 259.049 89.4086 259.065C89.4086 259.205 89.4301 259.34 89.4462 259.485C89.4624 259.625 89.4839 259.77 89.5 259.921C89.5323 260.072 89.5592 260.238 89.5915 260.394C89.6614 260.68 89.7422 260.959 89.8444 261.234C89.8982 261.401 89.9682 261.567 90.0327 261.734C90.0919 261.874 90.1511 262.009 90.2157 262.143C91.1896 264.15 93.0244 266.066 95.731 267.68C104.206 272.749 117.894 272.889 126.337 268.116C126.654 267.938 126.945 267.761 127.235 267.572C127.397 267.475 127.553 267.368 127.704 267.271C127.779 267.223 127.854 267.169 127.924 267.12C128.328 266.83 128.71 266.539 129.065 266.238C129.264 266.076 129.452 265.904 129.635 265.732C129.651 265.716 129.668 265.694 129.684 265.684C129.727 265.641 129.764 265.598 129.808 265.555C129.926 265.436 130.039 265.323 130.146 265.21C130.313 265.038 130.475 264.86 130.62 264.677C130.733 264.543 130.841 264.403 130.948 264.258L131.147 263.983C131.239 263.865 131.325 263.73 131.406 263.596C131.529 263.402 131.653 263.209 131.766 263.009C131.863 262.832 131.944 262.66 132.03 262.482C132.035 262.466 132.041 262.455 132.046 262.444C132.132 262.261 132.213 262.084 132.277 261.89C132.288 261.874 132.299 261.853 132.299 261.836C132.358 261.664 132.417 261.497 132.46 261.32C132.536 261.088 132.595 260.852 132.638 260.61C132.665 260.475 132.686 260.346 132.708 260.222C132.729 260.082 132.745 259.948 132.751 259.813C132.778 259.501 132.788 259.189 132.772 258.877C132.891 260.448 132.961 262.138 132.95 263.93L132.961 263.94Z" stroke="#231F20" stroke-width="0.538079" stroke-miterlimit="10"/>
</g>
</g>
</g>
<g clip-path="url(#clip1_738_8914)">
<path d="M99.3039 248.375C98.8411 238.41 105.228 226.196 113.461 221.079C117.674 218.453 121.575 218.184 124.443 219.884C124.567 219.949 124.68 220.019 124.793 220.099C124.9 220.169 125.008 220.25 125.11 220.331C125.309 220.476 125.498 220.632 125.67 220.799C125.81 220.917 125.933 221.041 126.063 221.17C126.079 221.186 126.095 221.197 126.106 221.213C126.245 221.353 126.375 221.504 126.498 221.66C126.509 221.665 126.514 221.676 126.525 221.692C126.654 221.843 126.773 221.993 126.891 222.16C127.02 222.343 127.139 222.537 127.262 222.736C127.349 222.865 127.429 223 127.499 223.14L127.661 223.436C127.741 223.586 127.822 223.748 127.892 223.909C127.989 224.124 128.08 224.345 128.166 224.571C128.242 224.781 128.317 224.985 128.392 225.195C128.392 225.217 128.403 225.243 128.414 225.265C128.489 225.502 128.559 225.749 128.624 225.997C128.742 226.443 128.844 226.917 128.925 227.407C128.936 227.493 128.952 227.579 128.963 227.67C128.99 227.848 129.017 228.036 129.033 228.224C129.076 228.569 129.113 228.913 129.135 229.274C129.764 238.954 123.69 251.217 115.441 256.651C112.81 258.384 110.286 259.207 108.058 259.212C107.908 259.212 107.757 259.207 107.612 259.202C107.429 259.191 107.251 259.175 107.074 259.153C106.783 259.132 106.498 259.078 106.207 259.013C106.046 258.976 105.89 258.927 105.739 258.89C105.594 258.841 105.459 258.798 105.325 258.75C105.19 258.701 105.061 258.653 104.932 258.599C104.921 258.594 104.911 258.594 104.9 258.583C104.701 258.507 104.512 258.416 104.324 258.308C104.087 258.19 103.861 258.05 103.641 257.899C103.528 257.83 103.42 257.749 103.313 257.668C103.097 257.507 102.893 257.329 102.694 257.146C102.592 257.049 102.495 256.952 102.403 256.856C102.204 256.656 102.016 256.436 101.838 256.215C101.666 256 101.499 255.763 101.343 255.516C101.096 255.144 100.875 254.752 100.676 254.327C100.606 254.181 100.541 254.041 100.488 253.896C100.423 253.751 100.358 253.595 100.305 253.444C100.251 253.299 100.192 253.154 100.143 252.998C100.143 252.998 100.14 252.992 100.132 252.981C99.6751 251.631 99.3899 250.097 99.3146 248.365L99.3039 248.375Z" fill="#383A37"/>
<path d="M99.3039 248.375C98.8411 238.41 105.228 226.196 113.461 221.079C117.674 218.453 121.575 218.184 124.443 219.884C124.567 219.949 124.68 220.019 124.793 220.099C124.9 220.169 125.008 220.25 125.11 220.331C125.309 220.476 125.498 220.632 125.67 220.799C125.81 220.917 125.933 221.041 126.063 221.17C126.079 221.186 126.095 221.197 126.106 221.213C126.245 221.353 126.375 221.504 126.498 221.66C126.509 221.665 126.514 221.676 126.525 221.692C126.654 221.843 126.773 221.993 126.891 222.16C127.02 222.343 127.139 222.537 127.262 222.736C127.349 222.865 127.429 223 127.499 223.14L127.661 223.436C127.741 223.586 127.822 223.748 127.892 223.909C127.989 224.124 128.08 224.345 128.166 224.571C128.242 224.781 128.317 224.985 128.392 225.195C128.392 225.217 128.403 225.243 128.414 225.265C128.489 225.502 128.559 225.749 128.624 225.997C128.742 226.443 128.844 226.917 128.925 227.407C128.936 227.493 128.952 227.579 128.963 227.67C128.99 227.848 129.017 228.036 129.033 228.224C129.076 228.569 129.113 228.913 129.135 229.274C129.764 238.954 123.69 251.217 115.441 256.651C112.81 258.384 110.286 259.207 108.058 259.212C107.908 259.212 107.757 259.207 107.612 259.202C107.429 259.191 107.251 259.175 107.074 259.153C106.783 259.132 106.498 259.078 106.207 259.013C106.046 258.976 105.89 258.927 105.739 258.89C105.594 258.841 105.459 258.798 105.325 258.75C105.19 258.701 105.061 258.653 104.932 258.599C104.921 258.594 104.911 258.594 104.9 258.583C104.701 258.507 104.512 258.416 104.324 258.308C104.087 258.19 103.861 258.05 103.641 257.899C103.528 257.83 103.42 257.749 103.313 257.668C103.097 257.507 102.893 257.329 102.694 257.146C102.592 257.049 102.495 256.952 102.403 256.856C102.204 256.656 102.016 256.436 101.838 256.215C101.666 256 101.499 255.763 101.343 255.516C101.096 255.144 100.875 254.752 100.676 254.327C100.606 254.181 100.541 254.041 100.488 253.896C100.423 253.751 100.358 253.595 100.305 253.444C100.251 253.299 100.192 253.154 100.143 252.998C100.143 252.998 100.14 252.992 100.132 252.981C99.6751 251.631 99.3899 250.097 99.3146 248.365L99.3039 248.375Z" stroke="#231F20" stroke-width="0.538079" stroke-miterlimit="10"/>
<path d="M108.397 242.673C108.36 241.785 108.451 240.849 108.666 239.918C109.258 237.319 110.749 234.704 112.632 232.993C113.046 232.616 113.477 232.282 113.923 232.008C116.049 230.684 117.981 230.9 119.089 232.32C119.632 233.009 119.977 233.988 120.052 235.21C120.3 238.992 117.921 243.787 114.698 245.907C114.16 246.262 113.633 246.52 113.127 246.687C110.56 247.521 108.548 245.966 108.392 242.678L108.397 242.673Z" fill="#F9D917"/>
<path d="M108.397 242.673C108.36 241.785 108.451 240.849 108.666 239.918C109.258 237.319 110.749 234.704 112.632 232.993C113.046 232.616 113.477 232.282 113.923 232.008C116.049 230.684 117.981 230.9 119.089 232.32C119.632 233.009 119.977 233.988 120.052 235.21C120.3 238.992 117.921 243.787 114.698 245.907C114.16 246.262 113.633 246.52 113.127 246.687C110.56 247.521 108.548 245.966 108.392 242.678L108.397 242.673Z" stroke="#231F20" stroke-width="0.538079" stroke-miterlimit="10"/>
<path d="M110.334 240.245C110.334 239.067 110.625 237.899 111.179 236.893C111.771 235.822 112.68 234.929 113.741 234.3C115.425 233.304 117.491 232.981 119.288 233.718C119.751 234.31 120.047 235.15 120.117 236.204C120.327 239.454 118.287 243.571 115.522 245.395C115.059 245.701 114.607 245.917 114.171 246.062C113.843 245.954 113.52 245.814 113.208 245.637C111.26 244.528 110.329 242.392 110.34 240.251L110.334 240.245Z" fill="#E7E6D7"/>
<path d="M110.334 240.245C110.334 239.067 110.625 237.899 111.179 236.893C111.771 235.822 112.68 234.929 113.741 234.3C115.425 233.304 117.491 232.981 119.288 233.718C119.751 234.31 120.047 235.15 120.117 236.204C120.327 239.454 118.287 243.571 115.522 245.395C115.059 245.701 114.607 245.917 114.171 246.062C113.843 245.954 113.52 245.814 113.208 245.637C111.26 244.528 110.329 242.392 110.34 240.251L110.334 240.245Z" stroke="#231F20" stroke-width="0.538079" stroke-miterlimit="10"/>
<path d="M128.242 221.493C129.581 222.15 130.83 222.822 131.981 223.49C132.175 223.581 132.363 223.683 132.546 223.791C132.67 223.856 132.778 223.926 132.896 224.006C132.998 224.076 133.111 224.157 133.219 224.238C133.413 224.383 133.601 224.534 133.779 224.706C133.918 224.819 134.042 224.948 134.166 225.077C134.187 225.093 134.198 225.104 134.209 225.125C134.349 225.265 134.478 225.416 134.602 225.572C134.613 225.583 134.618 225.588 134.629 225.599C134.752 225.75 134.876 225.9 134.995 226.067C135.124 226.25 135.242 226.449 135.366 226.643C135.452 226.772 135.527 226.901 135.603 227.041L135.764 227.337C135.839 227.493 135.925 227.654 135.995 227.81C136.098 228.026 136.189 228.246 136.27 228.472C136.345 228.677 136.42 228.887 136.496 229.096C136.496 229.118 136.507 229.139 136.517 229.161C136.593 229.403 136.663 229.645 136.727 229.898C136.851 230.345 136.942 230.818 137.029 231.308C137.039 231.394 137.055 231.48 137.066 231.572C137.093 231.755 137.12 231.937 137.136 232.126C137.179 232.47 137.217 232.815 137.238 233.175C137.868 242.855 131.793 255.123 123.544 260.553C120.913 262.285 118.389 263.108 116.162 263.114C116.011 263.114 115.86 263.108 115.715 263.103C115.538 263.092 115.349 263.076 115.177 263.055C114.887 263.033 114.601 262.979 114.311 262.92C114.149 262.882 113.993 262.834 113.837 262.796C113.697 262.748 113.558 262.705 113.423 262.656C111.728 262.118 109.786 261.376 107.73 260.327C106.347 259.616 105.11 258.879 104.028 258.153C104.125 258.207 104.227 258.266 104.329 258.314C104.518 258.422 104.701 258.513 104.9 258.589C104.911 258.589 104.927 258.589 104.932 258.599C105.061 258.658 105.19 258.702 105.325 258.75C105.459 258.798 105.594 258.841 105.739 258.89C105.89 258.928 106.051 258.976 106.207 259.014C106.493 259.073 106.783 259.127 107.074 259.148C107.246 259.17 107.429 259.18 107.612 259.197C107.762 259.207 107.913 259.213 108.058 259.207C110.291 259.202 112.81 258.379 115.441 256.646C123.684 251.217 129.764 238.949 129.135 229.269C129.113 228.908 129.081 228.569 129.033 228.219C129.017 228.031 128.99 227.848 128.963 227.665C128.952 227.574 128.936 227.488 128.925 227.401C128.839 226.917 128.742 226.438 128.624 225.992C128.565 225.744 128.495 225.497 128.414 225.255C128.408 225.233 128.398 225.212 128.392 225.19C128.371 225.131 128.349 225.077 128.333 225.023C128.279 224.867 128.226 224.716 128.166 224.566C128.086 224.34 127.994 224.119 127.897 223.909C127.822 223.748 127.747 223.587 127.666 223.436L127.505 223.14C127.435 223.005 127.354 222.871 127.268 222.742C127.144 222.543 127.026 222.349 126.896 222.166C126.778 221.999 126.66 221.854 126.531 221.698C126.52 221.682 126.509 221.676 126.504 221.671C126.375 221.515 126.251 221.364 126.106 221.224C126.095 221.208 126.084 221.192 126.068 221.181C125.939 221.052 125.815 220.923 125.675 220.81C125.503 220.638 125.309 220.487 125.115 220.342C125.008 220.261 124.9 220.18 124.793 220.111C124.674 220.03 124.561 219.954 124.443 219.895C124.174 219.734 123.894 219.594 123.609 219.47C125.078 220.046 126.627 220.713 128.242 221.504V221.493Z" fill="#0B1107"/>
<path d="M128.242 221.493C129.581 222.15 130.83 222.822 131.981 223.49C132.175 223.581 132.363 223.683 132.546 223.791C132.67 223.856 132.778 223.926 132.896 224.006C132.998 224.076 133.111 224.157 133.219 224.238C133.413 224.383 133.601 224.534 133.779 224.706C133.918 224.819 134.042 224.948 134.166 225.077C134.187 225.093 134.198 225.104 134.209 225.125C134.349 225.265 134.478 225.416 134.602 225.572C134.613 225.583 134.618 225.588 134.629 225.599C134.752 225.75 134.876 225.9 134.995 226.067C135.124 226.25 135.242 226.449 135.366 226.643C135.452 226.772 135.527 226.901 135.603 227.041L135.764 227.337C135.839 227.493 135.925 227.654 135.995 227.81C136.098 228.026 136.189 228.246 136.27 228.472C136.345 228.677 136.42 228.887 136.496 229.096C136.496 229.118 136.507 229.139 136.517 229.161C136.593 229.403 136.663 229.645 136.727 229.898C136.851 230.345 136.942 230.818 137.029 231.308C137.039 231.394 137.055 231.48 137.066 231.572C137.093 231.755 137.12 231.937 137.136 232.126C137.179 232.47 137.217 232.815 137.238 233.175C137.868 242.855 131.793 255.123 123.544 260.553C120.913 262.285 118.389 263.108 116.162 263.114C116.011 263.114 115.86 263.108 115.715 263.103C115.538 263.092 115.349 263.076 115.177 263.055C114.887 263.033 114.601 262.979 114.311 262.92C114.149 262.882 113.993 262.834 113.837 262.796C113.697 262.748 113.558 262.705 113.423 262.656C111.728 262.118 109.786 261.376 107.73 260.327C106.347 259.616 105.11 258.879 104.028 258.153C104.125 258.207 104.227 258.266 104.329 258.314C104.518 258.422 104.701 258.513 104.9 258.589C104.911 258.589 104.927 258.589 104.932 258.599C105.061 258.658 105.19 258.702 105.325 258.75C105.459 258.798 105.594 258.841 105.739 258.89C105.89 258.928 106.051 258.976 106.207 259.014C106.493 259.073 106.783 259.127 107.074 259.148C107.246 259.17 107.429 259.18 107.612 259.197C107.762 259.207 107.913 259.213 108.058 259.207C110.291 259.202 112.81 258.379 115.441 256.646C123.684 251.217 129.764 238.949 129.135 229.269C129.113 228.908 129.081 228.569 129.033 228.219C129.017 228.031 128.99 227.848 128.963 227.665C128.952 227.574 128.936 227.488 128.925 227.401C128.839 226.917 128.742 226.438 128.624 225.992C128.565 225.744 128.495 225.497 128.414 225.255C128.408 225.233 128.398 225.212 128.392 225.19C128.371 225.131 128.349 225.077 128.333 225.023C128.279 224.867 128.226 224.716 128.166 224.566C128.086 224.34 127.994 224.119 127.897 223.909C127.822 223.748 127.747 223.587 127.666 223.436L127.505 223.14C127.435 223.005 127.354 222.871 127.268 222.742C127.144 222.543 127.026 222.349 126.896 222.166C126.778 221.999 126.66 221.854 126.531 221.698C126.52 221.682 126.509 221.676 126.504 221.671C126.375 221.515 126.251 221.364 126.106 221.224C126.095 221.208 126.084 221.192 126.068 221.181C125.939 221.052 125.815 220.923 125.675 220.81C125.503 220.638 125.309 220.487 125.115 220.342C125.008 220.261 124.9 220.18 124.793 220.111C124.674 220.03 124.561 219.954 124.443 219.895C124.174 219.734 123.894 219.594 123.609 219.47C125.078 220.046 126.627 220.713 128.242 221.504V221.493Z" stroke="#231F20" stroke-width="0.538079" stroke-miterlimit="10"/>
</g>
<g clip-path="url(#clip2_738_8914)">
<path d="M347.035 140.864C333.303 108.799 297.322 92.1243 266.436 103.446C235.4 114.815 220.92 150.248 234.335 182.764C247.851 215.538 284.43 232.66 315.789 220.833C346.997 209.06 360.88 173.181 347.041 140.864H347.035ZM312.367 212.794C311.215 213.23 310.053 213.617 308.885 213.962C282.654 221.715 253.248 207.015 242.083 179.944C230.509 151.883 243.003 121.31 269.783 111.501C270.041 111.409 270.3 111.312 270.558 111.221C297.031 102.014 327.594 116.386 339.33 143.791C351.27 171.674 339.292 202.64 312.361 212.794H312.367Z" fill="#BFF661"/>
<path opacity="0.62" d="M312.367 212.799C311.215 213.235 310.053 213.623 308.885 213.967C282.654 221.721 253.248 207.02 242.078 179.95C237.127 167.95 236.584 155.488 239.667 144.393C235.206 156.452 235.212 170.506 240.77 183.974C251.935 211.05 281.341 225.745 307.572 217.992C308.74 217.647 309.902 217.26 311.054 216.819C326.217 211.104 336.634 198.788 340.718 184.141C335.956 196.996 326.104 207.612 312.356 212.794L312.367 212.799ZM347.035 140.864C333.303 108.799 297.322 92.1243 266.436 103.446C248.809 109.902 236.519 124.129 231.65 141.176C237.203 125.937 248.906 113.411 265.129 107.465C296.015 96.1492 331.996 112.824 345.728 144.888C351.829 159.137 352.545 174.079 348.757 187.337C353.939 173.121 353.761 156.57 347.035 140.864ZM312.367 212.799C311.215 213.235 310.053 213.623 308.885 213.967C282.654 221.721 253.248 207.02 242.078 179.95C237.127 167.95 236.584 155.488 239.667 144.393C235.206 156.452 235.212 170.506 240.77 183.974C251.935 211.05 281.341 225.745 307.572 217.992C308.74 217.647 309.902 217.26 311.054 216.819C326.217 211.104 336.634 198.788 340.718 184.141C335.956 196.996 326.104 207.612 312.356 212.794L312.367 212.799Z" fill="white"/>
<path d="M347.035 140.864C333.303 108.799 297.322 92.1243 266.436 103.446C235.4 114.815 220.92 150.248 234.335 182.764C247.851 215.538 284.43 232.66 315.789 220.833C346.997 209.06 360.88 173.181 347.041 140.864H347.035ZM312.367 212.794C311.215 213.23 310.053 213.617 308.885 213.962C282.654 221.715 253.248 207.015 242.083 179.944C230.509 151.883 243.003 121.31 269.783 111.501C270.041 111.409 270.3 111.312 270.558 111.221C297.031 102.014 327.594 116.386 339.33 143.791C351.27 171.674 339.292 202.64 312.361 212.794H312.367Z" stroke="black" stroke-width="0.538079" stroke-miterlimit="10"/>
<path d="M312.367 212.799C311.215 213.235 310.053 213.622 308.885 213.967C331.033 201.123 339.986 172.809 328.961 147.062C318.7 123.096 294.33 108.896 270.558 111.226C297.032 102.019 327.594 116.392 339.33 143.796C351.27 171.679 339.292 202.646 312.361 212.799H312.367Z" fill="#508A17"/>
<path d="M312.367 212.799C311.215 213.235 310.053 213.622 308.885 213.967C331.033 201.123 339.986 172.809 328.961 147.062C318.7 123.096 294.33 108.896 270.558 111.226C297.032 102.019 327.594 116.392 339.33 143.796C351.27 171.679 339.292 202.646 312.361 212.799H312.367Z" stroke="black" stroke-width="0.538079" stroke-miterlimit="10"/>
<path opacity="0.35" d="M334.573 188.129C328.514 202.119 317.398 209.867 308.928 213.951C308.918 213.956 308.902 213.962 308.891 213.962C282.659 221.716 253.253 207.015 242.083 179.945C239.818 174.456 238.472 168.871 237.983 163.361C237.94 162.904 237.902 162.446 237.875 161.983C236.525 140.966 247.491 121.305 266.678 112.76C276.003 110.409 289.041 109.327 302.923 115.09C310.419 118.2 316.295 122.526 320.841 127.03C321.907 128.084 322.897 129.144 323.817 130.205C325.534 132.179 327.013 134.132 328.272 135.989C331.996 141.472 333.836 146.072 334.406 147.552C336.365 152.659 342.58 169.635 334.568 188.129H334.573Z" fill="#BFF661"/>
<path opacity="0.62" d="M320.841 127.03C311.21 128.225 299.711 130.538 287.217 134.988C265.339 142.785 248.992 154.09 237.983 163.361C237.94 162.904 237.902 162.446 237.875 161.984C246.237 151.992 263.332 135.252 289.805 128.956C301.933 126.078 312.716 126.175 320.847 127.025L320.841 127.03Z" fill="white"/>
<path opacity="0.62" d="M328.272 135.989C319.453 137.023 309.596 138.717 299.017 141.435C282.52 145.675 268.573 151.298 257.397 156.727C264.575 151.368 274.421 145.094 286.937 139.874C301.137 133.955 314.035 131.367 323.817 130.205C325.534 132.18 327.013 134.133 328.272 135.989Z" fill="white"/>
<path d="M327.498 214.785C325.614 216.141 323.736 217.491 321.853 218.842C320.911 219.568 319.938 220.268 318.942 220.935C318.904 220.962 318.861 220.994 318.824 221.021C315.321 223.362 311.495 225.347 307.357 226.908C275.993 238.735 239.419 221.608 225.903 188.839C222.497 180.601 220.888 172.169 220.888 163.99C220.888 145.007 229.551 127.385 244.563 116.612C244.607 116.58 244.65 116.548 244.698 116.521C244.698 116.521 244.709 116.51 244.72 116.505C246.953 114.912 249.18 113.314 251.413 111.721C231.106 127.422 223.325 156.075 234.335 182.764C247.851 215.538 284.43 232.66 315.789 220.833C320.018 219.24 323.93 217.201 327.498 214.785Z" fill="#508A17"/>
<path d="M327.498 214.785C325.614 216.141 323.736 217.491 321.853 218.842C320.911 219.568 319.938 220.268 318.942 220.935C318.904 220.962 318.861 220.994 318.824 221.021C315.321 223.362 311.495 225.347 307.357 226.908C275.993 238.735 239.419 221.608 225.903 188.839C222.497 180.601 220.888 172.169 220.888 163.99C220.888 145.007 229.551 127.385 244.563 116.612C244.607 116.58 244.65 116.548 244.698 116.521C244.698 116.521 244.709 116.51 244.72 116.505C246.953 114.912 249.18 113.314 251.413 111.721C231.106 127.422 223.325 156.075 234.335 182.764C247.851 215.538 284.43 232.66 315.789 220.833C320.018 219.24 323.93 217.201 327.498 214.785Z" stroke="black" stroke-width="0.538079" stroke-miterlimit="10"/>
<path d="M369.215 330.106C368.644 331.764 366.847 336.262 362.161 339.345C362.123 339.367 362.091 339.394 362.053 339.415C354.488 344.306 346.094 341.212 345.195 340.857C330.796 302.793 316.402 264.735 302.003 226.677C302.245 226.08 302.681 225.1 303.402 223.997C307.578 223.411 311.726 222.367 315.789 220.833C317.602 220.145 319.362 219.38 321.057 218.536C321.46 218.676 321.735 218.789 321.853 218.837C325.84 228.2 329.827 237.562 333.809 246.925C345.609 274.646 357.415 302.374 369.215 330.101V330.106Z" fill="#508A17"/>
<path opacity="0.47" d="M369.215 330.106C368.644 331.763 366.847 336.261 362.161 339.345C362.123 339.366 362.091 339.393 362.053 339.415C351.221 310.305 340.39 281.184 329.558 252.068C328.482 249.168 331.049 246.429 333.809 246.93C345.609 274.651 357.415 302.379 369.215 330.106Z" fill="#BFF661"/>
<path d="M369.215 330.106C368.644 331.769 366.847 336.267 362.161 339.35C354.568 344.338 346.099 341.212 345.195 340.862C330.796 302.799 316.402 264.74 302.003 226.677C302.245 226.079 302.681 225.1 303.402 224.003C307.578 223.416 311.726 222.367 315.789 220.839C317.602 220.155 319.362 219.386 321.057 218.541C321.46 218.681 321.735 218.794 321.853 218.842C337.64 255.932 353.428 293.016 369.215 330.106Z" stroke="black" stroke-width="0.538079" stroke-miterlimit="10"/>
</g>
<g clip-path="url(#clip3_738_8914)">
<mask id="mask2_738_8914" style="mask-type:luminance" maskUnits="userSpaceOnUse" x="135" y="13" width="80" height="95">
<path d="M214.657 13H135.064V107.922H214.657V13Z" fill="white"/>
</mask>
<g mask="url(#mask2_738_8914)">
<path d="M214.388 46.5328C214.377 61.7443 205.208 77.6284 192.343 86.7972C188.334 93.69 184.331 100.577 180.328 107.47C177.277 104.129 174.215 100.787 171.164 97.4566C170.249 96.4611 169.346 95.4657 168.431 94.4702C166.504 94.3357 164.653 93.9914 162.915 93.4587C161.818 93.1304 160.758 92.7269 159.746 92.2372C158.831 91.8014 157.954 91.3117 157.11 90.7629C156.98 90.6822 156.857 90.6015 156.728 90.5208C155.146 89.4338 153.704 88.1371 152.434 86.652C148.565 82.1321 146.294 75.8527 146.283 68.282C146.267 48.669 161.484 27.8884 180.301 21.8673C186.483 19.8925 192.289 19.758 197.288 21.1678C198.773 21.5821 200.194 22.1363 201.528 22.8358C209.368 26.8391 214.393 35.2762 214.383 46.5382H214.388V46.5328Z" fill="#FFFDF3"/>
<path d="M214.388 46.5328C214.377 61.7443 205.208 77.6284 192.343 86.7972C188.334 93.69 184.331 100.577 180.328 107.47C177.277 104.129 174.215 100.787 171.164 97.4566C170.249 96.4611 169.346 95.4657 168.431 94.4702C166.504 94.3357 164.653 93.9914 162.915 93.4587C161.818 93.1304 160.758 92.7269 159.746 92.2372C158.831 91.8014 157.954 91.3117 157.11 90.7629C156.98 90.6822 156.857 90.6015 156.728 90.5208C155.146 89.4338 153.704 88.1371 152.434 86.652C148.565 82.1321 146.294 75.8527 146.283 68.282C146.267 48.669 161.484 27.8884 180.301 21.8673C186.483 19.8925 192.289 19.758 197.288 21.1678C198.773 21.5821 200.194 22.1363 201.528 22.8358C209.368 26.8391 214.393 35.2762 214.383 46.5382H214.388V46.5328Z" stroke="black" stroke-width="0.538079" stroke-miterlimit="10"/>
<path d="M201.55 22.82C201.55 22.82 201.539 22.8308 201.533 22.8308C200.204 22.1313 198.778 21.5824 197.293 21.1627C192.295 19.7529 186.494 19.8875 180.306 21.8622C161.49 27.8833 146.273 48.6639 146.289 68.2769C146.3 75.8477 148.57 82.1324 152.439 86.6469C153.709 88.132 155.146 89.4288 156.733 90.5157C153.827 88.6432 150.922 86.7653 148.016 84.9035C148.016 84.8928 148.027 84.8874 148.027 84.8874C140.295 80.8357 135.35 72.4793 135.334 61.3303C135.317 41.7173 150.545 20.9313 169.362 14.9102C178.186 12.0853 186.236 13.027 192.284 16.8473V16.8366C195.372 18.8275 198.461 20.8291 201.544 22.82H201.55Z" fill="#FCF7DB"/>
<path d="M201.55 22.82C201.55 22.82 201.539 22.8308 201.533 22.8308C200.204 22.1313 198.778 21.5824 197.293 21.1627C192.295 19.7529 186.494 19.8875 180.306 21.8622C161.49 27.8833 146.273 48.6639 146.289 68.2769C146.3 75.8477 148.57 82.1324 152.439 86.6469C153.709 88.132 155.146 89.4288 156.733 90.5157C153.827 88.6432 150.922 86.7653 148.016 84.9035C148.016 84.8928 148.027 84.8874 148.027 84.8874C140.295 80.8357 135.35 72.4793 135.334 61.3303C135.317 41.7173 150.545 20.9313 169.362 14.9102C178.186 12.0853 186.236 13.027 192.284 16.8473V16.8366C195.372 18.8275 198.461 20.8291 201.544 22.82H201.55Z" stroke="black" stroke-width="0.538079" stroke-miterlimit="10"/>
<path d="M180.328 107.47C176.68 105.151 173.031 102.832 169.383 100.518C167.231 98.1613 165.073 95.8099 162.921 93.4531C164.659 93.9858 166.505 94.3302 168.436 94.4647C169.351 95.4602 170.255 96.4556 171.17 97.451C174.221 100.782 177.282 104.123 180.333 107.465H180.328V107.47Z" fill="#FCF7DB"/>
<path d="M180.328 107.47C176.68 105.151 173.031 102.832 169.383 100.518C167.231 98.1613 165.073 95.8099 162.921 93.4531C164.659 93.9858 166.505 94.3302 168.436 94.4647C169.351 95.4602 170.255 96.4556 171.17 97.451C174.221 100.782 177.282 104.123 180.333 107.465H180.328V107.47Z" stroke="black" stroke-width="0.538079" stroke-linecap="round" stroke-linejoin="round"/>
<path d="M164.562 80.2873L165.638 79.9429C166.779 79.577 167.704 78.3179 167.704 77.1288V72.0439L162.49 73.7066V78.7914C162.49 79.9806 163.421 80.6532 164.562 80.2873Z" fill="#0B1107"/>
<path d="M194.91 70.6125L195.986 70.2682C197.127 69.9023 198.057 68.6432 198.057 67.4486V62.3584L192.843 64.0211V69.1113C192.843 70.3058 193.769 70.973 194.91 70.6071V70.6125Z" fill="#0B1107"/>
<path d="M164.562 80.2873L165.638 79.9429C166.779 79.577 167.704 78.3179 167.704 77.1288V72.0439L162.49 73.7066V78.7914C162.49 79.9806 163.421 80.6532 164.562 80.2873Z" stroke="#231F20" stroke-width="0.538079" stroke-miterlimit="10"/>
<path d="M194.91 70.6125L195.986 70.2682C197.127 69.9023 198.057 68.6432 198.057 67.4486V62.3584L192.843 64.0211V69.1113C192.843 70.3058 193.769 70.973 194.91 70.6071V70.6125Z" stroke="#231F20" stroke-width="0.538079" stroke-miterlimit="10"/>
<path d="M197.358 49.1479L199.467 48.4753V47.0117L197.358 47.6843V49.1479Z" fill="#BFF661"/>
<path d="M197.358 49.1479L199.467 48.4753V47.0117L197.358 47.6843V49.1479Z" stroke="#231F20" stroke-width="0.538079" stroke-miterlimit="10"/>
<path d="M206.075 45.1337V46.1291C206.075 47.103 205.289 48.1254 204.358 48.3675L200.721 49.3145C199.865 49.5405 199.193 49.0132 199.193 48.1146V47.5496C199.193 46.651 199.865 45.6986 200.721 45.3704L204.358 43.9929C205.289 43.6378 206.075 44.1651 206.075 45.1337Z" fill="#BFF661"/>
<path d="M206.075 45.6187V46.1352C206.075 47.1091 205.289 48.1315 204.358 48.3736L200.721 49.3206C199.865 49.5466 199.193 49.0193 199.193 48.1207V47.7494C200.043 47.7494 201.189 47.658 202.55 47.2383C203.966 46.8078 205.165 46.1836 206.075 45.6187Z" fill="#93C42A"/>
<path d="M200.721 49.3151L204.358 48.3681C205.289 48.1259 206.069 47.1036 206.075 46.135V45.1396C206.075 44.1657 205.295 43.6437 204.364 43.9989L200.726 45.3763C199.865 45.6992 199.198 46.657 199.198 47.5556V48.1206C199.198 49.0191 199.871 49.5411 200.726 49.3205H200.721V49.3151Z" stroke="#231F20" stroke-width="0.538079" stroke-miterlimit="10"/>
<path d="M163.276 60.0334L161.172 60.706V59.2424L163.276 58.5698V60.0334Z" fill="#BFF661"/>
<path d="M163.276 60.0334L161.172 60.706V59.2424L163.276 58.5698V60.0334Z" stroke="#231F20" stroke-width="0.538079" stroke-miterlimit="10"/>
<path d="M161.441 59.6032V60.1682C161.441 61.0668 160.774 62.0192 159.918 62.342L156.286 63.7141C155.355 64.0693 154.575 63.5419 154.575 62.5734V61.578C154.575 60.6094 155.355 59.5871 156.286 59.3449L159.918 58.4033C160.774 58.1773 161.447 58.7046 161.447 59.6032H161.441Z" fill="#BFF661"/>
<path d="M161.441 60.0122V60.1683C161.441 61.0668 160.774 62.0192 159.918 62.3421L156.286 63.7142C155.355 64.0693 154.575 63.542 154.575 62.5735V62.1C155.269 62.073 156.071 61.987 156.964 61.7879C158.778 61.3789 160.317 60.6525 161.441 60.0122Z" fill="#93C42A"/>
<path d="M159.918 62.3422L156.286 63.7197C155.361 64.0694 154.575 63.5475 154.575 62.5789V61.5835C154.575 60.615 155.355 59.5926 156.281 59.3505L159.913 58.4035C160.769 58.1828 161.441 58.7048 161.441 59.6034V60.1684C161.441 61.0616 160.774 62.0193 159.918 62.3422Z" stroke="#231F20" stroke-width="0.538079" stroke-miterlimit="10"/>
<path d="M162.517 61.4277L198.063 50.0797L197.186 44.8603C196.438 40.3996 192.542 38.1989 187.974 39.6571L172.585 44.5751C168.022 46.0333 164.132 50.72 163.389 55.6542L162.517 61.4277Z" fill="#BFF661"/>
<path d="M162.517 61.4277L198.063 50.0797L197.186 44.8603C196.438 40.3996 192.542 38.1989 187.974 39.6571L172.585 44.5751C168.022 46.0333 164.132 50.72 163.389 55.6542L162.517 61.4277Z" stroke="#231F20" stroke-width="0.538079" stroke-miterlimit="10"/>
<path d="M196.416 50.6006L164.153 60.9048L164.944 55.6639C165.622 51.1871 169.152 46.9309 173.29 45.6072L187.258 41.1411C187.334 41.1196 187.403 41.0927 187.473 41.0766C191.525 39.8874 194.947 41.8837 195.615 45.8601L196.411 50.5952H196.416V50.6006Z" fill="#383A37"/>
<path opacity="0.21" d="M184.955 41.8843C184.67 43.8536 184.062 46.3772 182.798 49.2183C181.436 52.2692 179.757 54.6744 178.38 56.364L177.675 56.59C179.004 54.1417 180.387 51.3652 181.705 48.2928C182.631 46.1297 183.422 44.0796 184.094 42.1641L184.955 41.8897V41.8843Z" fill="white"/>
<path opacity="0.21" d="M186.935 46.2481C186.058 50.02 184.353 53.0279 183.142 54.8412L180.279 55.7559C181.345 54.3569 182.598 52.4683 183.658 50.1276C185.181 46.7593 185.698 43.7837 185.838 41.5991L187.264 41.1417C187.339 41.1202 187.409 41.0933 187.479 41.0771C187.516 42.4869 187.398 44.2303 186.935 46.2481Z" fill="white"/>
<path d="M164.153 60.8996L196.416 50.5954L195.62 45.8603C194.942 41.814 191.407 39.8177 187.258 41.1414L173.29 45.6074C169.152 46.9311 165.617 51.1819 164.944 55.6641L164.153 60.905V60.8996Z" stroke="#231F20" stroke-width="0.538079" stroke-miterlimit="10"/>
<path d="M201.62 54.6258V57.8597C201.62 58.204 201.582 58.5484 201.517 58.8928C201.076 61.1742 199.252 63.3588 197.067 64.0583L163.48 74.7715C161.038 75.5517 159.047 74.1742 158.939 71.6883C158.939 71.6237 158.934 71.5538 158.934 71.4838V68.2553C158.934 67.0877 159.176 65.9039 159.622 64.7686C160.795 61.7769 163.341 59.151 166.295 58.2094L194.237 49.2881C197.191 48.3464 199.736 49.3419 200.915 51.5803C201.367 52.4304 201.614 53.4636 201.614 54.6366V54.6258H201.62Z" fill="#BFF661"/>
<path d="M201.62 54.6256V57.8595C201.62 58.2038 201.582 58.5482 201.517 58.8926C201.076 61.174 199.252 63.3586 197.067 64.0581L163.48 74.7713C161.038 75.5515 159.047 74.174 158.939 71.6881C158.939 71.6235 158.934 71.5536 158.934 71.4836V68.2551C158.934 67.0875 159.176 65.9037 159.622 64.7684C164.304 64.4133 169.878 63.5846 176.179 61.8682C186.021 59.1831 194.463 55.2014 200.915 51.5747C201.367 52.4249 201.614 53.458 201.614 54.631H201.62V54.6256Z" fill="#93C42A"/>
<path d="M201.517 58.8926C201.076 61.174 199.252 63.3586 197.067 64.0581L163.48 74.7713C161.038 75.5515 159.047 74.174 158.939 71.6881C160.01 72.0594 161.414 72.3768 163.136 72.3661C164.707 72.3553 165.961 72.0809 166.612 71.9302C175.808 69.8532 188.065 65.7961 194.996 62.8152C195.518 62.5946 196.502 62.1641 197.767 61.4431C199.22 60.6144 200.479 59.7212 201.517 58.898V58.8926Z" fill="#508A17"/>
<path d="M163.48 74.7659L197.067 64.0528C199.58 63.2511 201.614 60.48 201.62 57.8595V54.6257C201.62 50.3748 198.321 47.9804 194.242 49.2825L166.295 58.2093C162.227 59.5114 158.928 64.0044 158.934 68.2498V71.4783C158.934 74.0933 160.973 75.5677 163.48 74.7659Z" stroke="#231F20" stroke-width="0.538079" stroke-miterlimit="10"/>
<path d="M172.961 62.9769C172.967 63.0684 172.951 63.1652 172.918 63.2621C172.87 63.4128 172.762 63.558 172.612 63.6656C171.304 64.5965 169.668 65.6243 167.753 66.5121C166.133 67.2708 164.67 67.7604 163.432 68.0887C162.528 68.3254 161.791 67.8411 161.689 66.9372C161.667 66.7811 161.662 66.6089 161.662 66.4314C161.662 66.2269 161.678 66.0332 161.705 65.8395C161.737 65.6189 161.78 65.4036 161.834 65.2045C162.06 64.3275 162.776 63.5526 163.583 63.2836C165.235 62.7401 167.382 62.2451 169.744 62.2828C170.852 62.2989 171.831 62.4334 172.671 62.611C172.854 62.6487 172.951 62.794 172.961 62.9715V62.9769Z" fill="white"/>
<path d="M172.961 62.9771C172.951 63.0685 172.935 63.16 172.918 63.2622C172.87 63.4129 172.762 63.5582 172.612 63.6658C171.304 64.5967 169.668 65.6244 167.753 66.5122C166.133 67.2709 164.67 67.7606 163.432 68.0888C162.528 68.3256 161.791 67.8413 161.689 66.9373C161.667 66.7813 161.662 66.6091 161.662 66.4315C161.662 66.227 161.678 66.0333 161.705 65.8396C162.528 65.8558 163.432 65.8235 164.417 65.7051C167.85 65.2962 170.836 64.0694 172.961 62.9771Z" fill="#E6E6E6"/>
<path d="M198.784 54.583C198.784 54.7605 198.773 54.9381 198.757 55.1103C198.649 56.0842 197.918 57.0366 197.008 57.3756C195.771 57.8383 194.307 58.2796 192.682 58.5594C190.761 58.893 189.125 58.9145 187.818 58.8123C187.57 58.7961 187.452 58.5863 187.468 58.3495C187.484 58.1612 187.581 57.9567 187.759 57.8007C188.598 57.0797 189.577 56.3263 190.691 55.5999C193.059 54.0503 195.206 53.1732 196.858 52.662C197.665 52.4145 198.38 52.732 198.606 53.4691C198.633 53.5445 198.655 53.6252 198.676 53.7113C198.735 53.9642 198.773 54.2601 198.778 54.5883H198.784V54.583Z" fill="white"/>
<path d="M198.784 54.5826C198.784 54.7602 198.773 54.9378 198.757 55.11C198.649 56.0839 197.918 57.0363 197.008 57.3753C195.771 57.838 194.307 58.2792 192.682 58.559C190.761 58.8926 189.125 58.9142 187.818 58.8119C187.57 58.7958 187.452 58.5859 187.468 58.3492C189.669 58.0532 192.424 57.3268 195.464 55.7072C196.648 55.0723 197.724 54.3889 198.676 53.7056C198.735 53.9585 198.773 54.2544 198.778 54.5826H198.784Z" fill="#E6E6E6"/>
<path d="M172.612 63.6603C173.048 63.3482 173.085 62.7025 172.671 62.611C171.831 62.4281 170.852 62.2989 169.744 62.2774C167.382 62.2397 165.235 62.7348 163.583 63.2782C162.776 63.5419 162.065 64.3221 161.834 65.1992C161.737 65.5705 161.667 65.9848 161.667 66.426C161.667 66.6089 161.678 66.7757 161.694 66.9318C161.802 67.8358 162.533 68.32 163.437 68.0833C164.675 67.7551 166.139 67.2654 167.758 66.5067C169.674 65.6135 171.31 64.5911 172.617 63.6549H172.612V63.6603Z" stroke="#231F20" stroke-width="0.538079" stroke-miterlimit="10"/>
<path d="M187.818 58.807C187.382 58.7747 187.344 58.1505 187.759 57.7954C188.603 57.0743 189.577 56.321 190.691 55.5946C193.059 54.045 195.206 53.1679 196.863 52.6567C197.67 52.4092 198.386 52.7267 198.612 53.4585C198.709 53.7652 198.778 54.1418 198.778 54.5777C198.778 54.7606 198.768 54.9328 198.752 55.105C198.644 56.0789 197.907 57.0313 197.003 57.3703C195.765 57.833 194.302 58.2743 192.677 58.5541C190.756 58.8877 189.12 58.9038 187.812 58.807H187.818Z" stroke="#231F20" stroke-width="0.538079" stroke-miterlimit="10"/>
<path d="M173.774 62.4176C175.803 61.9925 178.062 61.4114 180.516 60.615C182.738 59.894 184.794 59.103 186.666 58.3013" stroke="#231F20" stroke-width="0.538079" stroke-miterlimit="10"/>
<path d="M173.688 68.7289L186.742 64.5641C187.269 64.3973 187.694 63.8162 187.694 63.2674V62.7508C187.694 62.202 187.269 61.8899 186.742 62.0621L173.688 66.2268C173.16 66.3936 172.735 66.9747 172.735 67.5236V68.0401C172.735 68.589 173.16 68.901 173.688 68.7289Z" fill="#383A37"/>
<path d="M173.688 68.7289L186.742 64.5641C187.269 64.3973 187.694 63.8162 187.694 63.2674V62.7508C187.694 62.202 187.269 61.8899 186.742 62.0621L173.688 66.2268C173.16 66.3936 172.735 66.9747 172.735 67.5236V68.0401C172.735 68.589 173.16 68.901 173.688 68.7289Z" stroke="#231F20" stroke-width="0.538079" stroke-miterlimit="10"/>
</g>
</g>
<defs>
<clipPath id="clip0_738_8914">
<rect width="249.556" height="227.091" fill="white" transform="translate(63.5 64.1177)"/>
</clipPath>
<clipPath id="clip1_738_8914">
<rect width="38.5318" height="44.8435" fill="white" transform="translate(99.0132 218.545)"/>
</clipPath>
<clipPath id="clip2_738_8914">
<rect width="148.881" height="242.786" fill="white" transform="translate(220.619 99.6309)"/>
</clipPath>
<clipPath id="clip3_738_8914">
<rect width="79.5926" height="94.9225" fill="white" transform="translate(135.064 13)"/>
</clipPath>
</defs>
</svg>
