<svg width="307" height="330" viewBox="0 0 307 330" fill="none" xmlns="http://www.w3.org/2000/svg">
<g clip-path="url(#clip0_1035_45996)">
<mask id="mask0_1035_45996" style="mask-type:luminance" maskUnits="userSpaceOnUse" x="0" y="51" width="251" height="228">
<path d="M250.056 51.1183H0.5V278.209H250.056V51.1183Z" fill="white"/>
</mask>
<g mask="url(#mask0_1035_45996)">
<path d="M138.625 277.941C135.477 277.978 132.324 277.187 129.494 275.584C123.838 272.382 118.183 269.175 112.528 265.968C77.9188 246.35 43.3096 226.726 8.70035 207.108C6.49423 205.86 5.24051 203.417 5.51493 200.893C6.32743 193.414 7.13454 185.935 7.94704 178.455C8.4636 178.574 8.98015 178.692 9.49671 178.81H11.154C12.3539 179.069 13.5538 179.327 14.7537 179.58C14.1941 179.343 13.6076 179.063 12.9996 178.74C12.2086 178.321 11.4984 177.89 10.8688 177.471C9.98636 176.949 9.10391 176.421 8.22146 175.899C9.34067 165.547 10.4653 155.194 11.5845 144.836C52.6775 167.855 93.7706 190.874 134.864 213.893C135.698 214.356 136.655 214.496 137.565 214.302C137.92 235.513 138.27 256.724 138.625 277.941Z" fill="#A29D80"/>
<path d="M138.625 277.941C135.477 277.978 132.324 277.187 129.494 275.584C123.838 272.382 118.183 269.175 112.528 265.968C77.9188 246.35 43.3096 226.726 8.70035 207.108C6.49423 205.86 5.24051 203.417 5.51493 200.893C6.32743 193.414 7.13454 185.935 7.94704 178.455C8.4636 178.574 8.98015 178.692 9.49671 178.81H11.154C12.3539 179.069 13.5538 179.327 14.7537 179.58C14.1941 179.343 13.6076 179.063 12.9996 178.74C12.2086 178.321 11.4984 177.89 10.8688 177.471C9.98636 176.949 9.10391 176.421 8.22146 175.899C9.34067 165.547 10.4653 155.194 11.5845 144.836C52.6775 167.855 93.7706 190.874 134.864 213.893C135.698 214.356 136.655 214.496 137.565 214.302C137.92 235.513 138.27 256.724 138.625 277.941Z" stroke="#231F20" stroke-width="0.538079" stroke-linecap="round" stroke-linejoin="round"/>
<path d="M240.43 220.226C236.787 222.394 233.15 224.563 229.507 226.726C208.334 239.328 187.16 251.93 165.992 264.531C162.688 266.501 159.379 268.47 156.07 270.434C153.293 272.091 150.517 273.743 147.741 275.395C144.932 277.069 141.784 277.913 138.625 277.94C138.27 256.724 137.921 235.513 137.565 214.302C137.958 214.221 138.346 214.076 138.706 213.871C172.051 194.732 205.401 175.592 238.746 156.448L243.588 214.092C243.793 216.567 242.572 218.951 240.43 220.226Z" fill="#383A37"/>
<path d="M229.506 226.727C208.333 239.328 187.16 251.93 165.992 264.532C162.688 266.501 159.379 268.471 156.069 270.435C156.123 268.67 156.172 266.905 156.22 265.146C180.428 250.542 204.636 235.944 228.844 221.346C229.065 223.143 229.286 224.935 229.506 226.727Z" fill="#8E8557"/>
<path d="M229.506 226.727C208.333 239.328 187.16 251.93 165.992 264.532C162.688 266.501 159.379 268.471 156.069 270.435C156.123 268.67 156.172 266.905 156.22 265.146C180.428 250.542 204.636 235.944 228.844 221.346C229.065 223.143 229.286 224.935 229.506 226.727Z" stroke="#231F20" stroke-width="0.538079" stroke-linecap="round" stroke-linejoin="round"/>
<path d="M240.43 220.226C236.233 222.723 232.041 225.219 227.844 227.716C226.973 216.529 226.101 205.343 225.235 194.156C224.218 194.732 207.726 204.057 190.216 213.957C189.716 214.243 178.395 220.646 177.894 220.931C176.775 219.731 174.967 219.457 173.547 220.264C172.132 221.071 171.448 222.755 171.9 224.321L155.204 233.769C155.989 245.699 156.775 257.622 157.56 269.552C154.289 271.5 151.017 273.447 147.741 275.395C144.932 277.069 141.784 277.913 138.625 277.94C138.27 256.724 137.921 235.513 137.565 214.302C137.958 214.221 138.346 214.076 138.706 213.871C143.581 211.073 148.462 208.275 153.337 205.477C176.56 192.144 199.783 178.815 223.007 165.482C228.253 162.474 233.499 159.461 238.746 156.448C240.36 175.662 241.974 194.877 243.588 214.092C243.793 216.567 242.572 218.951 240.43 220.226Z" fill="#FCF7DB"/>
<path d="M240.43 220.226C236.233 222.723 232.041 225.219 227.844 227.716C226.973 216.529 226.101 205.343 225.235 194.156C213.564 200.758 201.887 207.355 190.216 213.957C185.718 215.249 180.461 217.154 174.854 220.016C166.261 224.396 159.772 229.524 155.204 233.769C155.989 245.699 156.775 257.622 157.56 269.552C154.289 271.5 151.017 273.447 147.741 275.395C144.932 277.069 141.784 277.913 138.625 277.94C138.27 256.724 137.921 235.513 137.565 214.302C137.958 214.221 138.346 214.076 138.706 213.871C143.581 211.073 148.462 208.275 153.337 205.477C176.56 192.144 199.783 178.815 223.007 165.482C228.253 162.474 233.499 159.461 238.746 156.448C240.36 175.662 241.974 194.877 243.588 214.092C243.793 216.567 242.572 218.951 240.43 220.226Z" stroke="#231F20" stroke-width="0.538079" stroke-linecap="round" stroke-linejoin="round"/>
<path d="M240.43 220.226C236.787 222.394 233.15 224.563 229.507 226.726C208.334 239.328 187.16 251.93 165.992 264.531C162.688 266.501 159.379 268.47 156.07 270.434C153.293 272.091 150.517 273.743 147.741 275.395C144.932 277.069 141.784 277.913 138.625 277.94C138.27 256.724 137.921 235.513 137.565 214.302C137.958 214.221 138.346 214.076 138.706 213.871C172.051 194.732 205.401 175.592 238.746 156.448L243.588 214.092C243.793 216.567 242.572 218.951 240.43 220.226Z" stroke="#231F20" stroke-width="0.538079" stroke-linecap="round" stroke-linejoin="round"/>
<path d="M231.508 225.537C230.287 226.263 229.066 226.99 227.844 227.716C226.23 206.968 224.616 186.23 223.007 165.482C224.282 164.75 225.557 164.018 226.833 163.287C228.393 184.04 229.948 204.789 231.508 225.537Z" fill="#508A17"/>
<path d="M231.508 225.537C230.287 226.263 229.066 226.99 227.844 227.716C226.23 206.968 224.616 186.23 223.007 165.482C224.282 164.75 225.557 164.018 226.833 163.287C228.393 184.04 229.948 204.789 231.508 225.537Z" stroke="#231F20" stroke-width="0.538079" stroke-linecap="round" stroke-linejoin="round"/>
<path d="M225.234 194.156C209.312 203.158 193.396 212.16 177.48 221.168C176.974 220.893 176.581 220.856 176.285 220.893C175.994 220.931 175.779 221.044 175.343 221.006C174.741 220.958 174.579 220.689 174.256 220.78C173.95 220.861 173.934 221.135 173.487 221.867C172.9 222.809 172.588 222.884 172.513 223.412C172.492 223.551 172.486 223.734 172.54 223.96C166.761 227.232 160.982 230.498 155.203 233.77C154.896 229.051 154.584 224.337 154.272 219.623C153.96 214.904 153.648 210.191 153.336 205.477C176.559 192.144 199.783 178.816 223.006 165.482C223.749 175.044 224.491 184.6 225.234 194.156Z" fill="#FFFDF3"/>
<path d="M157.63 220.302C178.733 208.195 199.837 196.094 220.946 183.987C220.666 184.66 220.391 185.327 220.112 185.999C219.396 187.732 218.121 189.179 216.496 190.11C199.272 199.979 182.043 209.852 164.819 219.721C162.639 220.969 160.024 221.184 157.668 220.313L157.63 220.297V220.302Z" fill="#DFDBBD"/>
<path d="M157.398 214.985C178.502 202.879 199.605 190.777 220.714 178.671C220.434 179.343 220.16 180.01 219.88 180.683C219.164 182.416 217.889 183.863 216.264 184.794C199.04 194.662 181.811 204.536 164.587 214.404C162.408 215.653 159.793 215.868 157.436 214.996L157.398 214.98V214.985Z" fill="#DFDBBD"/>
<path d="M225.234 194.156C209.312 203.158 193.396 212.16 177.48 221.168C176.974 220.893 176.581 220.856 176.285 220.893C175.994 220.931 175.779 221.044 175.343 221.006C174.741 220.958 174.579 220.689 174.256 220.78C173.95 220.861 173.934 221.135 173.487 221.867C172.9 222.809 172.588 222.884 172.513 223.412C172.492 223.551 172.486 223.734 172.54 223.96C166.761 227.232 160.982 230.498 155.203 233.77C154.896 229.051 154.584 224.337 154.272 219.623C153.96 214.905 153.648 210.191 153.336 205.477C176.559 192.144 199.783 178.816 223.006 165.482C223.421 170.75 223.83 176.023 224.239 181.291C224.572 185.579 224.906 189.868 225.234 194.156Z" stroke="#231F20" stroke-width="0.538079" stroke-linecap="round" stroke-linejoin="round"/>
<path d="M247.801 124.954C204.362 100.595 160.923 76.2415 117.489 51.8827C116.343 51.2424 114.955 51.2209 113.787 51.8235L2.86781 109.425C0.12361 110.851 0.0590404 114.763 2.7602 116.275C48.0019 141.618 93.2435 166.962 138.485 192.311C139.68 192.978 141.138 192.967 142.327 192.289L247.834 131.723C250.454 130.222 250.438 126.434 247.801 124.954ZM237.432 130.91C205.25 149.383 173.062 167.855 140.88 186.332C139.793 186.957 138.458 186.962 137.366 186.349C95.9608 163.157 54.561 139.961 13.1613 116.77C10.6861 115.387 10.7453 111.809 13.2581 110.501L114.767 57.7908C115.832 57.2366 117.102 57.2581 118.151 57.8446C157.899 80.1318 197.652 102.419 237.4 124.712C239.816 126.062 239.832 129.533 237.432 130.91Z" fill="#FFFDF3"/>
<path d="M247.801 124.954C204.362 100.595 160.923 76.2415 117.489 51.8827C116.343 51.2424 114.955 51.2209 113.787 51.8235L2.86781 109.425C0.12361 110.851 0.0590404 114.763 2.7602 116.275C48.0019 141.618 93.2435 166.962 138.485 192.311C139.68 192.978 141.138 192.967 142.327 192.289L247.834 131.723C250.454 130.222 250.438 126.434 247.801 124.954ZM237.432 130.91C205.25 149.383 173.062 167.855 140.88 186.332C139.793 186.957 138.458 186.962 137.366 186.349C95.9608 163.157 54.561 139.961 13.1613 116.77C10.6861 115.387 10.7453 111.809 13.2581 110.501L114.767 57.7908C115.832 57.2366 117.102 57.2581 118.151 57.8446C157.899 80.1318 197.652 102.419 237.4 124.712C239.816 126.062 239.832 129.533 237.432 130.91Z" stroke="#231F20" stroke-width="0.538079" stroke-linecap="round" stroke-linejoin="round"/>
<path d="M237.433 130.91C233.951 132.907 230.475 134.903 226.994 136.905C227.387 135.549 226.887 133.972 225.482 133.187C189.63 113.084 153.778 92.9813 117.926 72.8786C117.457 72.615 116.936 72.4805 116.419 72.4697C116.44 67.4441 116.462 62.413 116.489 57.3874C117.065 57.4035 117.635 57.5542 118.152 57.8447C157.899 80.1319 197.653 102.419 237.401 124.712C239.817 126.062 239.833 129.533 237.433 130.91Z" fill="#FCF7DB"/>
<path d="M237.433 130.91C233.951 132.907 230.475 134.903 226.994 136.905C227.387 135.549 226.887 133.972 225.482 133.187C189.63 113.084 153.778 92.9813 117.926 72.8786C117.457 72.615 116.936 72.4805 116.419 72.4697C116.44 67.4441 116.462 62.413 116.489 57.3874C117.065 57.4035 117.635 57.5542 118.152 57.8447C157.899 80.1319 197.653 102.419 237.401 124.712C239.817 126.062 239.833 129.533 237.433 130.91Z" stroke="#231F20" stroke-width="0.538079" stroke-linecap="round" stroke-linejoin="round"/>
<path d="M226.994 136.904C198.293 153.375 169.581 169.851 140.88 186.332C139.793 186.956 138.458 186.962 137.366 186.348C98.8988 164.804 60.4316 143.248 21.9697 121.704C22.2549 121.16 22.7069 120.692 23.3203 120.375L114.874 72.83C115.359 72.5771 115.891 72.4587 116.419 72.4695C116.935 72.4802 117.457 72.6148 117.925 72.8784C153.777 92.981 189.63 113.084 225.482 133.186C226.886 133.972 227.387 135.548 226.994 136.904Z" fill="#A6A183"/>
<path d="M116.489 57.388C116.462 62.4136 116.44 67.4446 116.419 72.4703C115.891 72.4595 115.359 72.5779 114.874 72.8308L23.3203 120.375C22.7069 120.693 22.2549 121.161 21.9697 121.705C19.0318 120.058 16.0993 118.417 13.1614 116.77C10.6862 115.387 10.7454 111.809 13.2582 110.502L114.767 57.7915C115.305 57.5117 115.897 57.3772 116.489 57.388Z" fill="#DFDBBD"/>
<path d="M226.994 136.904C198.293 153.375 169.581 169.851 140.88 186.332C139.793 186.956 138.458 186.962 137.366 186.348C98.8988 164.804 60.4316 143.248 21.9697 121.704C22.2549 121.16 22.7069 120.692 23.3203 120.375L114.874 72.83C115.359 72.5771 115.891 72.4587 116.419 72.4695C116.935 72.4802 117.457 72.6148 117.925 72.8784C153.777 92.981 189.63 113.084 225.482 133.186C226.886 133.972 227.387 135.548 226.994 136.904Z" stroke="#231F20" stroke-width="0.538079" stroke-linecap="round" stroke-linejoin="round"/>
<path d="M116.489 57.388C116.462 62.4136 116.44 67.4446 116.419 72.4703C115.891 72.4595 115.359 72.5779 114.874 72.8308L50.4987 106.262L40.0815 111.669L28.6957 117.583L24.2889 119.87L23.3203 120.375C22.7069 120.693 22.2549 121.161 21.9697 121.705C21.1034 121.22 20.2371 120.736 19.3708 120.246C18.9673 120.02 18.5583 119.794 18.1548 119.568C16.4921 118.637 14.8294 117.701 13.1614 116.77C10.6862 115.387 10.7454 111.809 13.2582 110.502L114.767 57.7915C115.305 57.5117 115.897 57.3772 116.489 57.388Z" stroke="#231F20" stroke-width="0.538079" stroke-linecap="round" stroke-linejoin="round"/>
<path d="M61.1202 116.904C59.1401 117.055 57.1653 117.205 55.1852 117.356C50.9721 117.679 46.7643 118.002 42.5511 118.319C38.3972 118.637 34.2378 118.954 30.0838 119.272C28.3136 119.406 26.5487 119.541 24.7784 119.675C23.1373 119.804 21.5015 119.928 19.8604 120.052" stroke="white" stroke-width="0.403559" stroke-linecap="round" stroke-linejoin="round"/>
<path d="M54.6797 103.727C53.512 104.233 52.3444 104.739 51.1768 105.25C47.6577 106.778 44.1333 108.306 40.6143 109.834C36.724 111.524 32.8337 113.213 28.9434 114.903C25.5104 116.393 22.0775 117.884 18.6445 119.374" stroke="white" stroke-width="0.403559" stroke-linecap="round" stroke-linejoin="round"/>
<path d="M56.8265 133.251C55.4114 132.799 54.0016 132.342 52.5865 131.89C48.9652 130.728 45.3386 129.566 41.7173 128.403C37.9346 127.193 34.1573 125.977 30.3746 124.766L25.4512 123.184" stroke="white" stroke-width="0.403559" stroke-linecap="round" stroke-linejoin="round"/>
<path d="M27.7217 111.921C27.7916 112.287 27.8939 112.712 28.066 113.164C28.3297 113.874 28.6579 114.434 28.9485 114.854C28.9485 114.87 28.9431 114.886 28.9431 114.902C28.8785 115.413 28.8301 116.339 29.1853 117.388C29.1906 117.415 29.196 117.437 29.2068 117.463C29.4812 118.238 29.8794 118.798 30.1753 119.153C30.1538 119.18 30.1215 119.218 30.0838 119.271C29.7987 119.659 29.1207 120.73 29.2821 122.177C29.4382 123.56 30.2668 124.415 30.5143 124.652C30.482 124.679 30.4336 124.717 30.3744 124.765C30.1968 124.916 29.9224 125.174 29.6372 125.529" stroke="white" stroke-width="0.403559" stroke-linecap="round" stroke-linejoin="round"/>
<path d="M38.1123 104.152C38.2845 105.034 38.5966 106.164 39.1885 107.396C39.6512 108.36 40.1624 109.134 40.6251 109.742C40.6198 109.769 40.6198 109.802 40.6144 109.834C40.5713 110.286 40.5444 110.84 40.5713 111.48C40.5928 112.314 40.7058 113.288 40.9803 114.338C41.4107 115.995 42.0941 117.265 42.6322 118.099C42.6053 118.169 42.5784 118.244 42.5515 118.319C42.2286 119.18 41.9327 120.192 41.7282 121.338C41.2385 124.168 41.5506 126.579 41.9111 128.182C41.852 128.247 41.7874 128.322 41.7174 128.403C41.3408 128.85 40.8565 129.56 40.5982 130.534C40.5014 130.894 40.4476 131.244 40.426 131.578" stroke="white" stroke-width="0.403559" stroke-linecap="round" stroke-linejoin="round"/>
<path d="M47.749 96.9522C47.7759 97.9369 47.9374 99.5296 48.6907 101.321C49.4655 103.145 50.5201 104.394 51.2196 105.099C51.2089 105.142 51.1927 105.196 51.1766 105.249C51.1174 105.465 51.0474 105.739 50.9883 106.067C50.7461 107.299 50.5847 109.258 51.2896 111.464C52.3281 114.72 54.588 116.474 55.3575 117.017C55.2983 117.13 55.2445 117.243 55.1853 117.356C54.5611 118.599 53.9423 120.09 53.458 121.822C52.355 125.761 52.4357 129.215 52.6994 131.524C52.6617 131.642 52.624 131.766 52.5864 131.89C52.2258 133.084 51.8922 134.612 51.7954 136.415C51.7685 136.942 51.7631 137.448 51.7792 137.932" stroke="white" stroke-width="0.403559" stroke-linecap="round" stroke-linejoin="round"/>
<path d="M249.781 128.597C249.776 137.324 249.77 146.041 249.77 154.769C249.786 154.99 249.786 155.216 249.77 155.442V155.468H249.765C249.652 156.652 249.012 157.793 247.833 158.471C212.664 178.66 177.496 198.848 142.327 219.032C141.643 219.424 140.874 219.591 140.115 219.537V192.8C140.874 192.849 141.643 192.677 142.327 192.289L247.833 131.723C249.055 131.024 249.7 129.824 249.781 128.597Z" fill="#FCF7DB"/>
<path d="M140.115 192.801V219.538C139.55 219.5 138.996 219.339 138.485 219.053C93.2432 193.71 48.0016 168.366 2.75992 143.023C1.36092 142.237 0.709845 140.806 0.785176 139.412C0.785176 130.653 0.774414 121.887 0.774414 113.127C0.855126 114.365 1.51158 115.581 2.75992 116.275C48.0016 141.619 93.2432 166.962 138.485 192.311C138.996 192.596 139.55 192.758 140.115 192.801Z" fill="#DFDBBD"/>
<path d="M249.781 128.597C249.776 137.325 249.77 146.042 249.77 154.769C249.787 154.99 249.787 155.216 249.77 155.442V155.469H249.765C249.652 156.652 249.012 157.793 247.833 158.471C212.664 178.66 177.496 198.849 142.327 219.032C141.138 219.715 139.679 219.721 138.485 219.053C93.2433 193.71 48.0016 168.366 2.75992 143.023C1.36092 142.237 0.709845 140.806 0.785176 139.412C0.785176 130.653 0.774414 121.887 0.774414 113.127C0.855126 114.365 1.51158 115.581 2.75992 116.275C48.0016 141.619 93.2433 166.962 138.485 192.311C139.679 192.978 141.138 192.967 142.327 192.289L247.833 131.723C249.055 131.024 249.7 129.824 249.781 128.597Z" stroke="#231F20" stroke-width="0.538079" stroke-linecap="round" stroke-linejoin="round"/>
<path d="M185.658 211.149C189.484 208.916 193.304 206.683 197.13 204.455C197.13 206.527 196.027 208.443 194.241 209.486C192.341 210.589 190.447 211.698 188.548 212.801C187.272 213.544 185.669 212.629 185.658 211.149Z" fill="#DFDBBD"/>
<path d="M185.658 211.149C189.484 208.916 193.304 206.683 197.13 204.455C197.13 206.527 196.027 208.443 194.241 209.486C192.341 210.589 190.447 211.698 188.548 212.801C187.272 213.544 185.669 212.629 185.658 211.149Z" stroke="#231F20" stroke-width="0.538079" stroke-linecap="round" stroke-linejoin="round"/>
<path d="M157.398 214.62C178.502 202.513 199.605 190.412 220.714 178.305" stroke="#231F20" stroke-width="0.538079" stroke-linecap="round" stroke-linejoin="round"/>
<path d="M157.63 220.302C178.733 208.195 199.837 196.094 220.946 183.987" stroke="#231F20" stroke-width="0.538079" stroke-linecap="round" stroke-linejoin="round"/>
<path d="M115.762 224.283C114.298 225.935 112.867 227.549 111.463 229.131C109.768 229.89 108.1 230.638 106.459 231.375C106.259 233.635 106.066 235.852 105.872 238.02C107.449 240.345 109.014 242.648 110.559 244.924C113.109 245.64 115.681 246.366 118.286 247.098C120.034 245.204 121.831 243.256 123.677 241.254C123.828 239.344 123.984 237.402 124.14 235.427C125.889 235.147 127.659 234.862 129.451 234.577C127.546 233.705 125.646 232.839 123.758 231.972C123.091 229.578 122.407 227.146 121.718 224.676C119.711 224.542 117.726 224.412 115.757 224.278L115.762 224.283Z" fill="#E3DFC1"/>
<path d="M107.341 235.405C111.527 237.767 115.713 240.135 119.9 242.497" stroke="white" stroke-width="0.538079" stroke-linecap="round" stroke-linejoin="round"/>
<path d="M112.378 233.344V238.01" stroke="white" stroke-width="0.538079" stroke-linecap="round" stroke-linejoin="round"/>
<path d="M113.459 232.796C116.537 234.534 119.615 236.272 122.692 238.01" stroke="white" stroke-width="0.538079" stroke-linecap="round" stroke-linejoin="round"/>
<path d="M115.762 224.283C114.298 225.935 112.867 227.549 111.463 229.131C109.768 229.89 108.1 230.638 106.459 231.375C106.259 233.635 106.066 235.852 105.872 238.02C107.449 240.345 109.014 242.648 110.559 244.924C113.109 245.64 115.681 246.366 118.286 247.098C120.034 245.204 121.831 243.256 123.677 241.254C123.828 239.344 123.984 237.402 124.14 235.427C125.889 235.147 127.659 234.862 129.451 234.577C127.546 233.705 125.646 232.839 123.758 231.972C123.091 229.578 122.407 227.146 121.718 224.676C119.711 224.542 117.726 224.412 115.757 224.278L115.762 224.283Z" stroke="#231F20" stroke-width="0.538079" stroke-linecap="round" stroke-linejoin="round"/>
<path d="M112.798 243.945C115.004 244.564 117.226 245.188 119.47 245.823C119.072 246.253 118.679 246.678 118.291 247.098C115.687 246.366 113.11 245.645 110.565 244.924C109.015 242.648 107.455 240.345 105.878 238.02C106.066 235.847 106.26 233.635 106.459 231.375C108.1 230.638 109.774 229.89 111.469 229.126C112.868 227.549 114.304 225.93 115.768 224.278C116.193 224.305 116.623 224.337 117.054 224.364C115.918 225.645 114.805 226.909 113.707 228.147C112.007 228.905 110.339 229.653 108.697 230.391C108.498 232.65 108.305 234.867 108.111 237.036C109.693 239.366 111.253 241.663 112.798 243.945Z" fill="#A6A183"/>
<path d="M112.798 243.945C115.004 244.564 117.226 245.188 119.47 245.823C119.072 246.253 118.679 246.678 118.291 247.098C115.687 246.366 113.11 245.645 110.565 244.924C109.015 242.648 107.455 240.345 105.878 238.02C106.066 235.847 106.26 233.635 106.459 231.375C108.1 230.638 109.774 229.89 111.469 229.126C112.868 227.549 114.304 225.93 115.768 224.278C116.193 224.305 116.623 224.337 117.054 224.364C115.918 225.645 114.805 226.909 113.707 228.147C112.007 228.905 110.339 229.653 108.697 230.391C108.498 232.65 108.305 234.867 108.111 237.036C109.693 239.366 111.253 241.663 112.798 243.945Z" stroke="#231F20" stroke-width="0.538079" stroke-linecap="round" stroke-linejoin="round"/>
<mask id="mask1_1035_45996" style="mask-type:luminance" maskUnits="userSpaceOnUse" x="25" y="232" width="46" height="36">
<path d="M70.23 232.99H25.79V267.863H70.23V232.99Z" fill="white"/>
</mask>
<g mask="url(#mask1_1035_45996)">
<path d="M33.1777 236.557C41.9484 231.806 55.7232 232.252 63.9128 237.445C68.1098 240.098 70.0469 243.498 69.7617 246.818C69.7617 246.953 69.7402 247.087 69.7187 247.227C69.6971 247.356 69.6756 247.485 69.6487 247.615C69.6057 247.857 69.5465 248.094 69.4711 248.325C69.4281 248.502 69.3689 248.669 69.3097 248.836C69.3043 248.858 69.299 248.879 69.2882 248.895C69.2236 249.084 69.1429 249.261 69.0568 249.444C69.0568 249.455 69.0514 249.466 69.0407 249.482C68.96 249.659 68.8793 249.832 68.7824 250.014C68.6748 250.208 68.551 250.402 68.4273 250.601C68.3466 250.735 68.2605 250.865 68.169 250.988L67.9699 251.263C67.8677 251.403 67.7601 251.543 67.6417 251.677C67.491 251.86 67.3296 252.038 67.1682 252.21C67.0121 252.366 66.8615 252.527 66.7054 252.683C66.6839 252.694 66.6678 252.716 66.6516 252.732C66.4687 252.904 66.275 253.076 66.0813 253.238C65.7315 253.539 65.3441 253.835 64.9405 254.125C64.8706 254.174 64.7952 254.222 64.7199 254.276C64.5693 254.378 64.4132 254.481 64.2518 254.583C63.9612 254.771 63.6653 254.954 63.3532 255.126C54.9054 259.899 41.222 259.754 32.7473 254.69C30.0407 253.071 28.2059 251.161 27.232 249.154C27.1674 249.019 27.1082 248.879 27.049 248.745C26.9845 248.578 26.9145 248.406 26.8607 248.239C26.7531 247.964 26.6777 247.685 26.6078 247.399C26.5701 247.238 26.5432 247.077 26.5109 246.921C26.4894 246.77 26.4733 246.63 26.4571 246.485C26.441 246.339 26.4249 246.205 26.4195 246.065V246.027C26.3979 245.812 26.4033 245.608 26.4195 245.392C26.4195 245.129 26.4464 244.865 26.4894 244.601C26.5056 244.467 26.5325 244.338 26.554 244.203C26.6078 243.94 26.6724 243.676 26.7531 243.418C26.7961 243.288 26.8392 243.154 26.8876 243.03C26.9791 242.761 27.0974 242.503 27.2212 242.245C27.345 241.997 27.4795 241.744 27.6355 241.491C27.8615 241.104 28.1198 240.738 28.4157 240.377C28.518 240.248 28.6094 240.135 28.7171 240.022C28.8193 239.904 28.9323 239.78 29.0453 239.662C29.1529 239.549 29.2605 239.436 29.3789 239.323C29.3789 239.323 29.3789 239.317 29.3897 239.307C30.4066 238.311 31.6657 237.386 33.1939 236.563H33.1777V236.557Z" fill="#383A37"/>
<path d="M33.1777 236.557C41.9484 231.806 55.7232 232.252 63.9128 237.445C68.1098 240.098 70.0469 243.498 69.7617 246.818C69.7617 246.953 69.7402 247.087 69.7187 247.227C69.6971 247.356 69.6756 247.485 69.6487 247.615C69.6057 247.857 69.5465 248.094 69.4711 248.325C69.4281 248.502 69.3689 248.669 69.3097 248.836C69.3043 248.858 69.299 248.879 69.2882 248.895C69.2236 249.084 69.1429 249.261 69.0568 249.444C69.0568 249.455 69.0514 249.466 69.0407 249.482C68.96 249.659 68.8793 249.832 68.7824 250.014C68.6748 250.208 68.551 250.402 68.4273 250.601C68.3466 250.735 68.2605 250.865 68.169 250.988L67.9699 251.263C67.8677 251.403 67.7601 251.543 67.6417 251.677C67.491 251.86 67.3296 252.038 67.1682 252.21C67.0121 252.366 66.8615 252.527 66.7054 252.683C66.6839 252.694 66.6678 252.716 66.6516 252.732C66.4687 252.904 66.275 253.076 66.0813 253.238C65.7315 253.539 65.3441 253.835 64.9405 254.125C64.8706 254.174 64.7952 254.222 64.7199 254.276C64.5693 254.378 64.4132 254.481 64.2518 254.583C63.9612 254.771 63.6653 254.954 63.3532 255.126C54.9054 259.899 41.222 259.754 32.7473 254.69C30.0407 253.071 28.2059 251.161 27.232 249.154C27.1674 249.019 27.1082 248.879 27.049 248.745C26.9845 248.578 26.9145 248.406 26.8607 248.239C26.7531 247.964 26.6777 247.685 26.6078 247.399C26.5701 247.238 26.5432 247.077 26.5109 246.921C26.4894 246.77 26.4733 246.63 26.4571 246.485C26.441 246.339 26.4249 246.205 26.4195 246.065V246.027C26.3979 245.812 26.4033 245.608 26.4195 245.392C26.4195 245.129 26.4464 244.865 26.4894 244.601C26.5056 244.467 26.5325 244.338 26.554 244.203C26.6078 243.94 26.6724 243.676 26.7531 243.418C26.7961 243.288 26.8392 243.154 26.8876 243.03C26.9791 242.761 27.0974 242.503 27.2212 242.245C27.345 241.997 27.4795 241.744 27.6355 241.491C27.8615 241.104 28.1198 240.738 28.4157 240.377C28.518 240.248 28.6094 240.135 28.7171 240.022C28.8193 239.904 28.9323 239.78 29.0453 239.662C29.1529 239.549 29.2605 239.436 29.3789 239.323C29.3789 239.323 29.3789 239.317 29.3897 239.307C30.4066 238.311 31.6657 237.386 33.1939 236.563H33.1777V236.557Z" stroke="#231F20" stroke-width="0.538079" stroke-miterlimit="10"/>
<path d="M42.2614 242.272C43.0416 241.852 43.9241 241.529 44.8603 241.319C47.4592 240.722 50.4617 240.926 52.8239 241.884C53.3404 242.094 53.8301 242.336 54.2767 242.621C56.3913 243.961 57.037 245.796 56.2407 247.405C55.8533 248.19 55.1215 248.928 54.0561 249.53C50.7577 251.392 45.4092 251.338 42.0946 249.358C41.5404 249.025 41.083 248.664 40.7117 248.282C38.8446 246.334 39.3719 243.843 42.2668 242.277H42.2614V242.272Z" fill="#F9D917"/>
<path d="M42.2614 242.272C43.0416 241.852 43.9241 241.529 44.8603 241.319C47.4592 240.722 50.4617 240.926 52.8239 241.884C53.3404 242.094 53.8301 242.336 54.2767 242.621C56.3913 243.961 57.037 245.796 56.2407 247.405C55.8533 248.19 55.1215 248.928 54.0561 249.53C50.7577 251.392 45.4091 251.338 42.0946 249.358C41.5404 249.025 41.083 248.664 40.7117 248.282C38.8446 246.334 39.3719 243.843 42.2668 242.277H42.2614V242.272Z" stroke="#231F20" stroke-width="0.538079" stroke-miterlimit="10"/>
<path d="M45.2899 242.96C46.35 242.454 47.5283 242.201 48.6798 242.266C49.9013 242.336 51.1012 242.761 52.1289 243.444C53.7539 244.531 54.9431 246.248 55.0615 248.185C54.7278 248.863 54.1037 249.492 53.1836 250.009C50.3479 251.612 45.7581 251.564 42.9116 249.863C42.4381 249.578 42.0399 249.266 41.7225 248.938C41.6741 248.594 41.6633 248.244 41.6902 247.883C41.8409 245.645 43.3636 243.88 45.2953 242.96H45.2899Z" fill="#E7E6D7"/>
<path d="M45.2899 242.96C46.35 242.454 47.5283 242.201 48.6798 242.266C49.9013 242.336 51.1012 242.761 52.1289 243.444C53.7539 244.531 54.9431 246.248 55.0615 248.185C54.7278 248.863 54.1037 249.492 53.1836 250.009C50.3479 251.612 45.7581 251.564 42.9116 249.863C42.4381 249.578 42.0399 249.266 41.7225 248.938C41.6741 248.594 41.6633 248.244 41.6902 247.883C41.8409 245.645 43.3636 243.88 45.2953 242.96H45.2899Z" stroke="#231F20" stroke-width="0.538079" stroke-miterlimit="10"/>
<path d="M69.9613 250.94C69.9505 252.43 69.8859 253.845 69.7837 255.175C69.7837 255.39 69.7783 255.605 69.7568 255.815C69.7568 255.949 69.7353 256.084 69.7137 256.224C69.6922 256.348 69.6707 256.482 69.6438 256.611C69.5954 256.848 69.5415 257.085 69.4662 257.321C69.4232 257.499 69.3586 257.666 69.3048 257.833C69.3048 257.854 69.294 257.876 69.2833 257.892C69.2187 258.08 69.138 258.258 69.0519 258.441C69.0519 258.451 69.0519 258.462 69.0358 258.478C68.955 258.656 68.8743 258.833 68.7721 259.011C68.6645 259.205 68.5407 259.398 68.4116 259.598C68.3363 259.732 68.2502 259.861 68.1533 259.985L67.9542 260.259C67.8466 260.394 67.739 260.539 67.626 260.674C67.4753 260.857 67.3193 261.034 67.1525 261.206C67.0018 261.368 66.8458 261.524 66.6897 261.68C66.6682 261.691 66.6521 261.707 66.6413 261.728C66.4584 261.901 66.2647 262.073 66.0709 262.234C65.7212 262.535 65.3338 262.831 64.9302 263.117C64.8549 263.165 64.7849 263.213 64.7096 263.267C64.5589 263.369 64.4029 263.472 64.2415 263.569C63.9509 263.757 63.655 263.94 63.3429 264.112C54.8951 268.885 41.2117 268.745 32.737 263.676C30.0304 262.057 28.1956 260.146 27.2217 258.139C27.1571 258.005 27.0979 257.865 27.0387 257.73C26.9741 257.564 26.9042 257.391 26.8504 257.23C26.7428 256.956 26.6674 256.676 26.5975 256.391C26.5598 256.229 26.5329 256.068 26.506 255.912C26.4845 255.761 26.4683 255.621 26.4522 255.476C26.1993 253.716 26.0271 251.645 26.0756 249.331C26.1132 247.776 26.237 246.339 26.4253 245.053C26.4253 245.166 26.4092 245.279 26.4092 245.392C26.393 245.607 26.3876 245.812 26.4092 246.027C26.4092 246.038 26.4145 246.049 26.4092 246.065C26.4092 246.205 26.4307 246.339 26.4468 246.485C26.463 246.624 26.4845 246.77 26.5006 246.92C26.5329 247.071 26.5598 247.238 26.5921 247.394C26.6621 247.679 26.7428 247.959 26.845 248.233C26.8988 248.4 26.9688 248.567 27.0333 248.734C27.0925 248.874 27.1517 249.008 27.2163 249.143C28.1902 251.15 30.0251 253.065 32.7316 254.68C41.2063 259.748 54.895 259.888 63.3375 255.115C63.655 254.938 63.9455 254.76 64.2361 254.572C64.3975 254.475 64.5536 254.367 64.7042 254.271C64.7796 254.222 64.8549 254.168 64.9248 254.12C65.3284 253.829 65.7104 253.539 66.0656 253.237C66.2647 253.076 66.453 252.904 66.6359 252.732C66.6521 252.716 66.6682 252.694 66.6844 252.683C66.7274 252.64 66.7651 252.597 66.8081 252.554C66.9265 252.436 67.0395 252.323 67.1471 252.21C67.3139 252.038 67.4753 251.86 67.6206 251.677C67.7336 251.543 67.8412 251.403 67.9488 251.257L68.1479 250.983C68.2394 250.865 68.3255 250.73 68.4062 250.595C68.53 250.402 68.6537 250.208 68.7667 250.009C68.8636 249.831 68.9443 249.659 69.0304 249.482C69.0358 249.466 69.0411 249.455 69.0465 249.444C69.1326 249.261 69.2133 249.083 69.2779 248.89C69.2887 248.874 69.2994 248.852 69.2994 248.836C69.3586 248.664 69.4178 248.497 69.4608 248.319C69.5362 248.088 69.5954 247.851 69.6384 247.609C69.6653 247.475 69.6868 247.345 69.7084 247.222C69.7299 247.082 69.746 246.947 69.7514 246.813C69.7783 246.501 69.7891 246.189 69.7729 245.877C69.8913 247.448 69.9613 249.137 69.9505 250.929L69.9613 250.94Z" fill="#0B1107"/>
<path d="M69.9613 250.94C69.9505 252.43 69.8859 253.845 69.7837 255.175C69.7837 255.39 69.7783 255.605 69.7568 255.815C69.7568 255.949 69.7353 256.084 69.7137 256.224C69.6922 256.348 69.6707 256.482 69.6438 256.611C69.5954 256.848 69.5416 257.085 69.4662 257.321C69.4232 257.499 69.3586 257.666 69.3048 257.833C69.3048 257.854 69.294 257.876 69.2833 257.892C69.2187 258.08 69.138 258.258 69.0519 258.441C69.0519 258.451 69.0519 258.462 69.0358 258.478C68.955 258.656 68.8743 258.833 68.7721 259.011C68.6645 259.205 68.5407 259.398 68.4116 259.598C68.3363 259.732 68.2502 259.861 68.1533 259.985L67.9542 260.259C67.8466 260.394 67.739 260.539 67.626 260.674C67.4753 260.857 67.3193 261.034 67.1525 261.206C67.0018 261.368 66.8458 261.524 66.6897 261.68C66.6682 261.691 66.6521 261.707 66.6413 261.728C66.4584 261.901 66.2647 262.073 66.0709 262.234C65.7212 262.535 65.3338 262.831 64.9302 263.117C64.8549 263.165 64.7849 263.213 64.7096 263.267C64.5589 263.369 64.4029 263.472 64.2415 263.569C63.9509 263.757 63.655 263.94 63.3429 264.112C54.895 268.885 41.2117 268.745 32.737 263.676C30.0304 262.057 28.1956 260.146 27.2217 258.139C27.1571 258.005 27.0979 257.865 27.0387 257.73C26.9741 257.564 26.9042 257.391 26.8504 257.23C26.7428 256.956 26.6674 256.676 26.5975 256.391C26.5598 256.229 26.5329 256.068 26.506 255.912C26.4845 255.761 26.4683 255.621 26.4522 255.476C26.1993 253.716 26.0271 251.645 26.0756 249.331C26.1132 247.776 26.237 246.339 26.4253 245.053C26.4253 245.166 26.4092 245.279 26.4092 245.392C26.393 245.607 26.3876 245.812 26.4092 246.027C26.4092 246.038 26.4145 246.049 26.4092 246.065C26.4092 246.205 26.4307 246.339 26.4468 246.485C26.463 246.624 26.4845 246.77 26.5006 246.92C26.5329 247.071 26.5598 247.238 26.5921 247.394C26.6621 247.679 26.7428 247.959 26.845 248.233C26.8988 248.4 26.9688 248.567 27.0333 248.734C27.0925 248.874 27.1517 249.008 27.2163 249.143C28.1902 251.15 30.0251 253.065 32.7316 254.68C41.2063 259.748 54.895 259.888 63.3375 255.115C63.655 254.938 63.9455 254.76 64.2361 254.572C64.3975 254.475 64.5536 254.367 64.7042 254.271C64.7796 254.222 64.8549 254.168 64.9248 254.12C65.3284 253.829 65.7104 253.539 66.0656 253.237C66.2647 253.076 66.453 252.904 66.6359 252.732C66.6521 252.716 66.6682 252.694 66.6844 252.683C66.7274 252.64 66.7651 252.597 66.8081 252.554C66.9265 252.436 67.0395 252.323 67.1471 252.21C67.3139 252.038 67.4753 251.86 67.6206 251.677C67.7336 251.543 67.8412 251.403 67.9488 251.257L68.1479 250.983C68.2394 250.865 68.3255 250.73 68.4062 250.595C68.53 250.402 68.6537 250.208 68.7667 250.009C68.8636 249.831 68.9443 249.659 69.0304 249.482C69.0358 249.466 69.0411 249.455 69.0465 249.444C69.1326 249.261 69.2133 249.083 69.2779 248.89C69.2887 248.874 69.2994 248.852 69.2994 248.836C69.3586 248.664 69.4178 248.497 69.4608 248.319C69.5362 248.088 69.5954 247.851 69.6384 247.609C69.6653 247.475 69.6868 247.345 69.7084 247.222C69.7299 247.082 69.746 246.947 69.7514 246.813C69.7783 246.501 69.7891 246.189 69.7729 245.877C69.8913 247.448 69.9613 249.137 69.9505 250.929L69.9613 250.94Z" stroke="#231F20" stroke-width="0.538079" stroke-miterlimit="10"/>
</g>
</g>
</g>
<g clip-path="url(#clip1_1035_45996)">
<path d="M36.3039 235.376C35.8412 225.41 42.2282 213.196 50.4608 208.079C54.6739 205.453 58.575 205.184 61.443 206.884C61.5667 206.949 61.6797 207.019 61.7927 207.099C61.9003 207.169 62.0079 207.25 62.1102 207.331C62.3093 207.476 62.4976 207.632 62.6698 207.799C62.8097 207.917 62.9334 208.041 63.0626 208.17C63.0787 208.186 63.0949 208.197 63.1056 208.213C63.2455 208.353 63.3747 208.504 63.4984 208.66C63.5092 208.665 63.5146 208.676 63.5253 208.692C63.6545 208.843 63.7728 208.994 63.8912 209.16C64.0204 209.343 64.1387 209.537 64.2625 209.736C64.3486 209.865 64.4293 210 64.4992 210.14L64.6607 210.436C64.7414 210.586 64.8221 210.748 64.892 210.909C64.9889 211.124 65.0804 211.345 65.1665 211.571C65.2418 211.781 65.3171 211.985 65.3925 212.195C65.3925 212.217 65.4032 212.244 65.414 212.265C65.4893 212.502 65.5593 212.749 65.6238 212.997C65.7422 213.443 65.8444 213.917 65.9251 214.407C65.9359 214.493 65.9521 214.579 65.9628 214.67C65.9897 214.848 66.0166 215.036 66.0328 215.224C66.0758 215.569 66.1135 215.913 66.135 216.274C66.7646 225.954 60.6896 238.217 52.4409 243.651C49.8097 245.384 47.2861 246.207 45.0585 246.212C44.9078 246.212 44.7571 246.207 44.6119 246.202C44.4289 246.191 44.2513 246.175 44.0738 246.153C43.7832 246.132 43.498 246.078 43.2075 246.013C43.046 245.976 42.89 245.927 42.7393 245.89C42.5941 245.841 42.4595 245.798 42.325 245.75C42.1905 245.701 42.0614 245.653 41.9322 245.599C41.9215 245.594 41.9107 245.594 41.8999 245.583C41.7008 245.508 41.5125 245.416 41.3242 245.308C41.0874 245.19 40.8614 245.05 40.6408 244.9C40.5278 244.83 40.4202 244.749 40.3126 244.668C40.0974 244.507 39.8929 244.329 39.6938 244.146C39.5916 244.049 39.4947 243.952 39.4032 243.856C39.2042 243.657 39.0158 243.436 38.8383 243.215C38.6661 243 38.4993 242.763 38.3432 242.516C38.0957 242.145 37.8751 241.752 37.676 241.327C37.6061 241.181 37.5415 241.041 37.4877 240.896C37.4231 240.751 37.3586 240.595 37.3047 240.444C37.2509 240.299 37.1917 240.154 37.1433 239.998C37.1433 239.998 37.1397 239.992 37.1326 239.981C36.6752 238.631 36.39 237.097 36.3147 235.365L36.3039 235.376Z" fill="#383A37"/>
<path d="M36.3039 235.376C35.8412 225.41 42.2282 213.196 50.4608 208.079C54.6739 205.453 58.575 205.184 61.443 206.884C61.5667 206.949 61.6797 207.019 61.7927 207.099C61.9003 207.169 62.0079 207.25 62.1102 207.331C62.3093 207.476 62.4976 207.632 62.6698 207.799C62.8097 207.917 62.9334 208.041 63.0626 208.17C63.0787 208.186 63.0949 208.197 63.1056 208.213C63.2455 208.353 63.3747 208.504 63.4984 208.66C63.5092 208.665 63.5146 208.676 63.5253 208.692C63.6545 208.843 63.7728 208.994 63.8912 209.16C64.0204 209.343 64.1387 209.537 64.2625 209.736C64.3486 209.865 64.4293 210 64.4992 210.14L64.6607 210.436C64.7414 210.586 64.8221 210.748 64.892 210.909C64.9889 211.124 65.0804 211.345 65.1665 211.571C65.2418 211.781 65.3171 211.985 65.3925 212.195C65.3925 212.217 65.4032 212.244 65.414 212.265C65.4893 212.502 65.5593 212.749 65.6238 212.997C65.7422 213.443 65.8444 213.917 65.9252 214.407C65.9359 214.493 65.9521 214.579 65.9628 214.67C65.9897 214.848 66.0166 215.036 66.0328 215.224C66.0758 215.569 66.1135 215.913 66.135 216.274C66.7646 225.954 60.6896 238.217 52.4409 243.651C49.8097 245.384 47.2861 246.207 45.0585 246.212C44.9078 246.212 44.7571 246.207 44.6119 246.202C44.4289 246.191 44.2513 246.175 44.0738 246.153C43.7832 246.132 43.498 246.078 43.2075 246.013C43.046 245.976 42.89 245.927 42.7393 245.89C42.5941 245.841 42.4595 245.798 42.325 245.75C42.1905 245.701 42.0614 245.653 41.9322 245.599C41.9215 245.594 41.9107 245.594 41.8999 245.583C41.7008 245.508 41.5125 245.416 41.3242 245.308C41.0874 245.19 40.8614 245.05 40.6408 244.9C40.5278 244.83 40.4202 244.749 40.3126 244.668C40.0974 244.507 39.8929 244.329 39.6938 244.146C39.5916 244.049 39.4947 243.952 39.4032 243.856C39.2042 243.657 39.0158 243.436 38.8383 243.215C38.6661 243 38.4993 242.763 38.3432 242.516C38.0957 242.145 37.8751 241.752 37.676 241.327C37.6061 241.181 37.5415 241.041 37.4877 240.896C37.4231 240.751 37.3586 240.595 37.3047 240.444C37.2509 240.299 37.1917 240.154 37.1433 239.998C37.1433 239.998 37.1397 239.992 37.1326 239.981C36.6752 238.631 36.39 237.097 36.3147 235.365L36.3039 235.376Z" stroke="#231F20" stroke-width="0.538079" stroke-miterlimit="10"/>
<path d="M45.3979 229.672C45.3602 228.785 45.4517 227.848 45.6669 226.917C46.2588 224.318 47.7493 221.703 49.6326 219.992C50.0469 219.616 50.4774 219.282 50.924 219.008C53.0494 217.684 54.9811 217.899 56.0895 219.32C56.633 220.008 56.9774 220.988 57.0527 222.209C57.3002 225.992 54.9219 230.786 51.6988 232.906C51.1607 233.261 50.6334 233.52 50.1276 233.686C47.561 234.52 45.5486 232.965 45.3925 229.678L45.3979 229.672Z" fill="#F9D917"/>
<path d="M45.3979 229.672C45.3602 228.785 45.4517 227.848 45.6669 226.917C46.2588 224.318 47.7493 221.703 49.6326 219.992C50.0469 219.616 50.4774 219.282 50.924 219.008C53.0494 217.684 54.9811 217.899 56.0895 219.32C56.633 220.008 56.9774 220.988 57.0527 222.209C57.3002 225.992 54.9219 230.786 51.6988 232.906C51.1607 233.261 50.6334 233.52 50.1276 233.686C47.561 234.52 45.5486 232.965 45.3925 229.678L45.3979 229.672Z" stroke="#231F20" stroke-width="0.538079" stroke-miterlimit="10"/>
<path d="M47.335 227.245C47.335 226.067 47.6255 224.899 48.1797 223.893C48.7716 222.822 49.681 221.929 50.741 221.3C52.4252 220.304 54.4914 219.981 56.2886 220.719C56.7513 221.31 57.0473 222.15 57.1172 223.204C57.3271 226.454 55.2878 230.571 52.522 232.395C52.0593 232.702 51.6073 232.917 51.1715 233.062C50.8432 232.954 50.5204 232.815 50.2083 232.637C48.2605 231.529 47.3296 229.392 47.3403 227.251L47.335 227.245Z" fill="#E7E6D7"/>
<path d="M47.335 227.245C47.335 226.067 47.6255 224.899 48.1797 223.893C48.7716 222.822 49.681 221.929 50.741 221.3C52.4252 220.304 54.4914 219.981 56.2886 220.719C56.7513 221.31 57.0473 222.15 57.1172 223.204C57.3271 226.454 55.2878 230.571 52.522 232.395C52.0593 232.702 51.6073 232.917 51.1715 233.062C50.8432 232.954 50.5204 232.815 50.2083 232.637C48.2605 231.529 47.3296 229.392 47.3403 227.251L47.335 227.245Z" stroke="#231F20" stroke-width="0.538079" stroke-miterlimit="10"/>
<path d="M65.2419 208.493C66.5817 209.15 67.83 209.822 68.9815 210.489C69.1752 210.581 69.3635 210.683 69.5465 210.791C69.6702 210.855 69.7779 210.925 69.8962 211.006C69.9985 211.076 70.1115 211.157 70.2191 211.237C70.4128 211.383 70.6011 211.533 70.7787 211.705C70.9186 211.818 71.0424 211.948 71.1661 212.077C71.1876 212.093 71.1984 212.104 71.2092 212.125C71.3491 212.265 71.4782 212.416 71.602 212.572C71.6127 212.583 71.6181 212.588 71.6289 212.599C71.7526 212.749 71.8764 212.9 71.9948 213.067C72.1239 213.25 72.2423 213.449 72.366 213.643C72.4521 213.772 72.5274 213.901 72.6028 214.041L72.7642 214.337C72.8395 214.493 72.9256 214.654 72.9956 214.81C73.0978 215.025 73.1893 215.246 73.27 215.472C73.3453 215.676 73.4207 215.886 73.496 216.096C73.496 216.118 73.5068 216.139 73.5175 216.161C73.5928 216.403 73.6628 216.645 73.7274 216.898C73.8511 217.345 73.9426 217.818 74.0287 218.308C74.0395 218.394 74.0556 218.48 74.0664 218.571C74.0933 218.754 74.1202 218.937 74.1363 219.126C74.1794 219.47 74.217 219.814 74.2385 220.175C74.8681 229.855 68.7932 242.123 60.5444 247.552C57.9132 249.285 55.3896 250.108 53.162 250.114C53.0113 250.114 52.8607 250.108 52.7154 250.103C52.5378 250.092 52.3495 250.076 52.1773 250.054C51.8867 250.033 51.6016 249.979 51.311 249.92C51.1496 249.882 50.9935 249.834 50.8375 249.796C50.6976 249.748 50.5577 249.705 50.4232 249.656C48.7282 249.118 46.7858 248.376 44.7303 247.326C43.3474 246.616 42.1099 245.879 41.0283 245.152C41.1252 245.206 41.2274 245.265 41.3296 245.314C41.518 245.421 41.7009 245.513 41.9 245.588C41.9108 245.588 41.9269 245.588 41.9323 245.599C42.0614 245.658 42.1906 245.701 42.3251 245.75C42.4596 245.798 42.5941 245.841 42.7394 245.89C42.8901 245.927 43.0515 245.976 43.2075 246.013C43.4927 246.073 43.7833 246.126 44.0738 246.148C44.246 246.169 44.429 246.18 44.6119 246.196C44.7626 246.207 44.9132 246.212 45.0585 246.207C47.2916 246.202 49.8098 245.378 52.441 243.646C60.6843 238.217 66.7646 225.948 66.1351 216.268C66.1136 215.908 66.0813 215.569 66.0328 215.219C66.0167 215.031 65.9898 214.848 65.9629 214.665C65.9521 214.573 65.936 214.487 65.9252 214.401C65.8391 213.917 65.7423 213.438 65.6239 212.991C65.5647 212.744 65.4948 212.496 65.414 212.254C65.4087 212.233 65.3979 212.211 65.3925 212.19C65.371 212.131 65.3495 212.077 65.3333 212.023C65.2795 211.867 65.2257 211.716 65.1665 211.566C65.0858 211.34 64.9943 211.119 64.8975 210.909C64.8222 210.748 64.7468 210.586 64.6661 210.436L64.5047 210.14C64.4347 210.005 64.354 209.871 64.2679 209.741C64.1442 209.542 64.0258 209.349 63.8967 209.166C63.7783 208.999 63.6599 208.854 63.5308 208.698C63.52 208.681 63.5093 208.676 63.5039 208.671C63.3747 208.515 63.251 208.364 63.1057 208.224C63.0949 208.208 63.0842 208.192 63.068 208.181C62.9389 208.052 62.8151 207.923 62.6752 207.81C62.503 207.638 62.3093 207.487 62.1156 207.342C62.008 207.261 61.9004 207.18 61.7928 207.11C61.6744 207.03 61.5614 206.954 61.443 206.895C61.174 206.734 60.8942 206.594 60.609 206.47C62.078 207.046 63.6276 207.713 65.2419 208.504V208.493Z" fill="#0B1107"/>
<path d="M65.2419 208.493C66.5817 209.15 67.83 209.822 68.9815 210.489C69.1752 210.581 69.3635 210.683 69.5465 210.791C69.6703 210.855 69.7779 210.925 69.8962 211.006C69.9985 211.076 70.1115 211.157 70.2191 211.237C70.4128 211.383 70.6011 211.533 70.7787 211.705C70.9186 211.818 71.0424 211.948 71.1661 212.077C71.1876 212.093 71.1984 212.104 71.2092 212.125C71.3491 212.265 71.4782 212.416 71.602 212.572C71.6127 212.583 71.6181 212.588 71.6289 212.599C71.7526 212.749 71.8764 212.9 71.9948 213.067C72.1239 213.25 72.2423 213.449 72.366 213.643C72.4521 213.772 72.5274 213.901 72.6028 214.041L72.7642 214.337C72.8395 214.493 72.9256 214.654 72.9956 214.81C73.0978 215.025 73.1893 215.246 73.27 215.472C73.3453 215.676 73.4207 215.886 73.496 216.096C73.496 216.118 73.5068 216.139 73.5175 216.161C73.5928 216.403 73.6628 216.645 73.7274 216.898C73.8511 217.345 73.9426 217.818 74.0287 218.308C74.0395 218.394 74.0556 218.48 74.0664 218.571C74.0933 218.754 74.1202 218.937 74.1363 219.126C74.1793 219.47 74.217 219.814 74.2385 220.175C74.8681 229.855 68.7932 242.123 60.5444 247.552C57.9132 249.285 55.3896 250.108 53.162 250.114C53.0113 250.114 52.8607 250.108 52.7154 250.103C52.5378 250.092 52.3495 250.076 52.1773 250.054C51.8867 250.033 51.6016 249.979 51.311 249.92C51.1496 249.882 50.9935 249.834 50.8375 249.796C50.6976 249.748 50.5577 249.705 50.4232 249.656C48.7282 249.118 46.7858 248.376 44.7303 247.326C43.3474 246.616 42.1099 245.879 41.0283 245.152C41.1252 245.206 41.2274 245.265 41.3296 245.314C41.518 245.421 41.7009 245.513 41.9 245.588C41.9108 245.588 41.9269 245.588 41.9323 245.599C42.0614 245.658 42.1906 245.701 42.3251 245.75C42.4596 245.798 42.5941 245.841 42.7394 245.89C42.8901 245.927 43.0515 245.976 43.2075 246.013C43.4927 246.073 43.7833 246.126 44.0738 246.148C44.246 246.169 44.429 246.18 44.6119 246.196C44.7626 246.207 44.9132 246.212 45.0585 246.207C47.2916 246.202 49.8098 245.378 52.441 243.646C60.6843 238.217 66.7646 225.948 66.1351 216.268C66.1136 215.908 66.0813 215.569 66.0328 215.219C66.0167 215.031 65.9898 214.848 65.9629 214.665C65.9521 214.573 65.936 214.487 65.9252 214.401C65.8391 213.917 65.7423 213.438 65.6239 212.991C65.5647 212.744 65.4948 212.496 65.414 212.254C65.4087 212.233 65.3979 212.211 65.3925 212.19C65.371 212.131 65.3495 212.077 65.3333 212.023C65.2795 211.867 65.2257 211.716 65.1665 211.566C65.0858 211.34 64.9943 211.119 64.8975 210.909C64.8222 210.748 64.7468 210.586 64.6661 210.436L64.5047 210.14C64.4347 210.005 64.354 209.871 64.2679 209.741C64.1442 209.542 64.0258 209.349 63.8967 209.166C63.7783 208.999 63.6599 208.854 63.5308 208.698C63.52 208.681 63.5092 208.676 63.5039 208.671C63.3747 208.515 63.251 208.364 63.1057 208.224C63.0949 208.208 63.0842 208.192 63.068 208.181C62.9389 208.052 62.8151 207.923 62.6752 207.81C62.503 207.638 62.3093 207.487 62.1156 207.342C62.008 207.261 61.9004 207.18 61.7928 207.11C61.6744 207.03 61.5614 206.954 61.443 206.895C61.174 206.734 60.8942 206.594 60.609 206.47C62.078 207.046 63.6276 207.713 65.2419 208.504V208.493Z" stroke="#231F20" stroke-width="0.538079" stroke-miterlimit="10"/>
</g>
<g clip-path="url(#clip2_1035_45996)">
<path d="M284.035 127.864C270.304 95.7995 234.322 79.1244 203.437 90.4456C172.4 101.815 157.921 137.248 171.335 169.764C184.851 202.538 221.43 219.66 252.789 207.833C283.998 196.06 297.88 160.181 284.041 127.864H284.035ZM249.367 199.794C248.216 200.23 247.053 200.617 245.886 200.962C219.654 208.715 190.248 194.015 179.083 166.944C167.509 138.883 180.003 108.31 206.783 98.5006C207.042 98.4092 207.3 98.3123 207.558 98.2208C234.032 89.0143 264.595 103.386 276.33 130.791C288.27 158.674 276.292 189.64 249.362 199.794H249.367Z" fill="#BFF661"/>
<path opacity="0.62" d="M249.367 199.799C248.215 200.235 247.053 200.623 245.885 200.967C219.654 208.721 190.248 194.02 179.077 166.95C174.127 154.95 173.584 142.489 176.667 131.393C172.206 143.452 172.211 157.506 177.77 170.974C188.935 198.051 218.341 212.746 244.572 204.992C245.74 204.647 246.902 204.26 248.054 203.819C263.217 198.104 273.634 185.788 277.718 171.141C272.956 183.996 263.104 194.612 249.356 199.794L249.367 199.799ZM284.035 127.864C270.303 95.7995 234.322 79.1244 203.436 90.4456C185.809 96.9026 173.519 111.129 168.649 128.176C174.202 112.937 185.906 100.411 202.129 94.4651C233.014 83.1493 268.996 99.8243 282.727 131.888C288.829 146.137 289.545 161.079 285.757 174.337C290.939 160.121 290.761 143.57 284.035 127.864ZM249.367 199.799C248.215 200.235 247.053 200.623 245.885 200.967C219.654 208.721 190.248 194.02 179.077 166.95C174.127 154.95 173.584 142.489 176.667 131.393C172.206 143.452 172.211 157.506 177.77 170.974C188.935 198.051 218.341 212.746 244.572 204.992C245.74 204.647 246.902 204.26 248.054 203.819C263.217 198.104 273.634 185.788 277.718 171.141C272.956 183.996 263.104 194.612 249.356 199.794L249.367 199.799Z" fill="white"/>
<path d="M284.035 127.864C270.304 95.7995 234.322 79.1244 203.437 90.4456C172.4 101.815 157.921 137.248 171.335 169.764C184.851 202.538 221.43 219.66 252.789 207.833C283.998 196.06 297.88 160.181 284.041 127.864H284.035ZM249.367 199.794C248.216 200.23 247.053 200.617 245.886 200.962C219.654 208.715 190.248 194.015 179.083 166.944C167.509 138.883 180.003 108.31 206.783 98.5006C207.042 98.4092 207.3 98.3123 207.558 98.2208C234.032 89.0143 264.595 103.386 276.33 130.791C288.27 158.674 276.292 189.64 249.362 199.794H249.367Z" stroke="black" stroke-width="0.538079" stroke-miterlimit="10"/>
<path d="M249.367 199.799C248.216 200.235 247.054 200.622 245.886 200.967C268.033 188.123 276.987 159.809 265.962 134.062C255.701 110.096 231.331 95.8959 207.559 98.2258C234.032 89.0193 264.595 103.391 276.33 130.796C288.27 158.679 276.293 189.645 249.362 199.799H249.367Z" fill="#508A17"/>
<path d="M249.367 199.799C248.216 200.235 247.054 200.622 245.886 200.967C268.033 188.123 276.987 159.809 265.962 134.062C255.701 110.096 231.331 95.8959 207.559 98.2258C234.032 89.0193 264.595 103.391 276.33 130.796C288.27 158.679 276.293 189.645 249.362 199.799H249.367Z" stroke="black" stroke-width="0.538079" stroke-miterlimit="10"/>
<path opacity="0.35" d="M271.574 175.129C265.515 189.119 254.398 196.867 245.929 200.951C245.918 200.957 245.902 200.962 245.891 200.962C219.66 208.716 190.254 194.015 179.083 166.945C176.818 161.456 175.473 155.871 174.983 150.361C174.94 149.904 174.902 149.446 174.875 148.984C173.525 127.966 184.491 108.305 203.679 99.7601C213.004 97.4087 226.041 96.3271 239.924 102.09C247.419 105.2 253.295 109.526 257.842 114.03C258.907 115.085 259.897 116.145 260.817 117.205C262.534 119.179 264.014 121.133 265.273 122.989C268.996 128.472 270.836 133.073 271.407 134.552C273.365 139.659 279.58 156.635 271.568 175.129H271.574Z" fill="#BFF661"/>
<path opacity="0.62" d="M257.841 114.03C248.21 115.225 236.711 117.538 224.217 121.988C202.339 129.785 185.992 141.09 174.983 150.361C174.94 149.904 174.902 149.446 174.875 148.984C183.237 138.991 200.332 122.252 226.805 115.956C238.933 113.078 249.716 113.174 257.847 114.025L257.841 114.03Z" fill="white"/>
<path opacity="0.62" d="M265.272 122.989C256.453 124.022 246.596 125.717 236.017 128.434C219.519 132.675 205.572 138.297 194.396 143.727C201.574 138.367 211.421 132.093 223.937 126.874C238.137 120.955 251.035 118.367 260.817 117.205C262.533 119.179 264.013 121.133 265.272 122.989Z" fill="white"/>
<path d="M264.497 201.785C262.614 203.141 260.736 204.491 258.853 205.842C257.911 206.568 256.937 207.268 255.942 207.935C255.904 207.962 255.861 207.994 255.823 208.021C252.321 210.362 248.495 212.347 244.357 213.908C212.992 225.735 176.419 208.608 162.903 175.839C159.497 167.601 157.888 159.169 157.888 150.99C157.888 132.007 166.551 114.385 181.563 103.612C181.606 103.58 181.649 103.548 181.698 103.521C181.698 103.521 181.708 103.51 181.719 103.505C183.952 101.912 186.18 100.314 188.413 98.7211C168.106 114.422 160.325 143.075 171.334 169.764C184.851 202.538 221.429 219.66 252.789 207.833C257.018 206.24 260.93 204.201 264.497 201.785Z" fill="#508A17"/>
<path d="M264.497 201.785C262.614 203.141 260.736 204.491 258.853 205.842C257.911 206.568 256.937 207.268 255.942 207.935C255.904 207.962 255.861 207.994 255.823 208.021C252.321 210.362 248.495 212.347 244.357 213.908C212.992 225.735 176.419 208.608 162.903 175.839C159.497 167.601 157.888 159.169 157.888 150.99C157.888 132.007 166.551 114.385 181.563 103.612C181.606 103.58 181.649 103.548 181.698 103.521C181.698 103.521 181.708 103.51 181.719 103.505C183.952 101.912 186.18 100.314 188.413 98.7211C168.106 114.422 160.325 143.075 171.334 169.764C184.851 202.538 221.429 219.66 252.789 207.833C257.018 206.24 260.93 204.201 264.497 201.785Z" stroke="black" stroke-width="0.538079" stroke-miterlimit="10"/>
<path d="M306.215 317.106C305.645 318.764 303.848 323.262 299.161 326.345C299.123 326.367 299.091 326.394 299.053 326.415C291.488 331.306 283.094 328.212 282.195 327.857C267.796 289.793 253.403 251.735 239.004 213.677C239.246 213.08 239.682 212.1 240.403 210.997C244.578 210.411 248.727 209.367 252.789 207.833C254.603 207.145 256.362 206.38 258.057 205.536C258.461 205.676 258.735 205.789 258.854 205.837C262.841 215.2 266.828 224.562 270.81 233.925C282.61 261.646 294.415 289.374 306.215 317.101V317.106Z" fill="#508A17"/>
<path opacity="0.47" d="M306.215 317.106C305.645 318.763 303.847 323.261 299.161 326.344C299.123 326.366 299.091 326.393 299.053 326.414C288.222 297.304 277.39 268.183 266.559 239.068C265.482 236.168 268.049 233.429 270.809 233.929C282.609 261.651 294.415 289.378 306.215 317.106Z" fill="#BFF661"/>
<path d="M306.215 317.106C305.645 318.769 303.848 323.267 299.161 326.35C291.569 331.338 283.099 328.212 282.195 327.862C267.796 289.799 253.403 251.74 239.004 213.677C239.246 213.079 239.682 212.1 240.403 211.003C244.578 210.416 248.727 209.367 252.789 207.839C254.603 207.155 256.362 206.386 258.057 205.541C258.461 205.681 258.735 205.794 258.854 205.842C274.641 242.932 290.428 280.016 306.215 317.106Z" stroke="black" stroke-width="0.538079" stroke-miterlimit="10"/>
</g>
<g clip-path="url(#clip3_1035_45996)">
<mask id="mask2_1035_45996" style="mask-type:luminance" maskUnits="userSpaceOnUse" x="72" y="0" width="80" height="95">
<path d="M151.657 0H72.0645V94.9225H151.657V0Z" fill="white"/>
</mask>
<g mask="url(#mask2_1035_45996)">
<path d="M151.389 33.5325C151.378 48.744 142.209 64.628 129.344 73.7969C125.335 80.6897 121.332 87.5771 117.328 94.4699C114.278 91.1284 111.216 87.787 108.165 84.4563C107.25 83.4608 106.346 82.4654 105.432 81.4699C103.505 81.3354 101.654 80.991 99.9162 80.4583C98.8185 80.1301 97.7585 79.7265 96.7469 79.2369C95.8322 78.801 94.9551 78.3114 94.1103 77.7626C93.9812 77.6818 93.8574 77.6011 93.7283 77.5204C92.1463 76.4335 90.7043 75.1367 89.4344 73.6516C85.5656 69.1318 83.295 62.8524 83.2842 55.2816C83.2681 35.6687 98.4849 14.8881 117.302 8.86695C123.484 6.8922 129.29 6.75768 134.289 8.16745C135.774 8.58177 137.194 9.13599 138.529 9.83549C146.369 13.8388 151.394 22.2759 151.383 33.5379H151.389V33.5325Z" fill="#FFFDF3"/>
<path d="M151.389 33.5325C151.378 48.744 142.209 64.628 129.344 73.7969C125.335 80.6897 121.332 87.5771 117.328 94.4699C114.278 91.1284 111.216 87.787 108.165 84.4562C107.25 83.4608 106.346 82.4654 105.432 81.4699C103.505 81.3354 101.654 80.991 99.9162 80.4583C98.8185 80.1301 97.7585 79.7265 96.7469 79.2369C95.8322 78.801 94.9551 78.3114 94.1103 77.7625C93.9812 77.6818 93.8574 77.6011 93.7283 77.5204C92.1463 76.4335 90.7043 75.1367 89.4344 73.6516C85.5656 69.1318 83.295 62.8524 83.2842 55.2816C83.2681 35.6687 98.4849 14.8881 117.302 8.86695C123.484 6.8922 129.29 6.75768 134.289 8.16745C135.774 8.58177 137.194 9.13599 138.529 9.83549C146.369 13.8388 151.394 22.2759 151.383 33.5379H151.389V33.5325Z" stroke="black" stroke-width="0.538079" stroke-miterlimit="10"/>
<path d="M138.55 9.81988C138.55 9.81988 138.539 9.83064 138.534 9.83064C137.205 9.13113 135.779 8.58229 134.294 8.16259C129.295 6.75283 123.495 6.88735 117.307 8.86209C98.49 14.8832 83.2731 35.6638 83.2893 55.2768C83.3 62.8475 85.5707 69.1323 89.4395 73.6468C90.7094 75.1319 92.1461 76.4286 93.7334 77.5156C90.8278 75.6431 87.9221 73.7652 85.0165 71.9034C85.0165 71.8926 85.0273 71.8873 85.0273 71.8873C77.2951 67.8355 72.3501 59.4792 72.334 48.3302C72.3179 28.7172 87.5455 7.93122 106.362 1.91012C115.187 -0.914796 123.236 0.0268416 129.284 3.8472V3.83644C132.373 5.82733 135.461 7.82898 138.545 9.81988H138.55Z" fill="#FCF7DB"/>
<path d="M138.55 9.81988C138.55 9.81988 138.539 9.83064 138.534 9.83064C137.205 9.13114 135.779 8.58229 134.294 8.16259C129.295 6.75283 123.495 6.88735 117.307 8.86209C98.49 14.8832 83.2731 35.6638 83.2893 55.2768C83.3 62.8475 85.5707 69.1323 89.4395 73.6468C90.7094 75.1319 92.1461 76.4286 93.7334 77.5156C90.8278 75.6431 87.9221 73.7652 85.0165 71.9034C85.0165 71.8926 85.0273 71.8873 85.0273 71.8873C77.2951 67.8355 72.3501 59.4792 72.334 48.3302C72.3179 28.7172 87.5455 7.93122 106.362 1.91012C115.187 -0.914796 123.236 0.0268416 129.284 3.8472V3.83644C132.373 5.82733 135.461 7.82898 138.545 9.81988H138.55Z" stroke="black" stroke-width="0.538079" stroke-miterlimit="10"/>
<path d="M117.328 94.4701C113.68 92.151 110.031 89.8319 106.383 87.5181C104.231 85.1613 102.073 82.8099 99.9209 80.4532C101.659 80.9859 103.505 81.3302 105.436 81.4647C106.351 82.4602 107.255 83.4556 108.17 84.4511C111.221 87.7818 114.282 91.1233 117.333 94.4647H117.328V94.4701Z" fill="#FCF7DB"/>
<path d="M117.328 94.4701C113.68 92.151 110.031 89.8319 106.383 87.5181C104.231 85.1613 102.073 82.8099 99.9209 80.4532C101.659 80.9859 103.505 81.3302 105.436 81.4647C106.351 82.4602 107.255 83.4556 108.17 84.4511C111.221 87.7818 114.282 91.1233 117.333 94.4647H117.328V94.4701Z" stroke="black" stroke-width="0.538079" stroke-linecap="round" stroke-linejoin="round"/>
<path d="M101.563 67.287L102.639 66.9427C103.78 66.5768 104.705 65.3177 104.705 64.1285V59.0437L99.4912 60.7063V65.7912C99.4912 66.9803 100.422 67.6529 101.563 67.287Z" fill="#0B1107"/>
<path d="M131.91 57.6122L132.986 57.2678C134.127 56.902 135.058 55.6429 135.058 54.4483V49.3581L129.844 51.0208V56.111C129.844 57.3055 130.769 57.9727 131.91 57.6068V57.6122Z" fill="#0B1107"/>
<path d="M101.563 67.287L102.639 66.9427C103.78 66.5768 104.705 65.3177 104.705 64.1285V59.0437L99.4912 60.7063V65.7912C99.4912 66.9803 100.422 67.6529 101.563 67.287Z" stroke="#231F20" stroke-width="0.538079" stroke-miterlimit="10"/>
<path d="M131.91 57.6122L132.986 57.2678C134.127 56.902 135.058 55.6429 135.058 54.4483V49.3581L129.844 51.0208V56.111C129.844 57.3055 130.769 57.9727 131.91 57.6068V57.6122Z" stroke="#231F20" stroke-width="0.538079" stroke-miterlimit="10"/>
<path d="M134.358 36.1479L136.468 35.4753V34.0117L134.358 34.6843V36.1479Z" fill="#BFF661"/>
<path d="M134.358 36.1479L136.468 35.4753V34.0117L134.358 34.6843V36.1479Z" stroke="#231F20" stroke-width="0.538079" stroke-miterlimit="10"/>
<path d="M143.075 32.1334V33.1289C143.075 34.1028 142.29 35.1251 141.359 35.3673L137.722 36.3143C136.866 36.5403 136.193 36.013 136.193 35.1144V34.5494C136.193 33.6508 136.866 32.6984 137.722 32.3702L141.359 30.9927C142.29 30.6375 143.075 31.1649 143.075 32.1334Z" fill="#BFF661"/>
<path d="M143.075 32.6183V33.1349C143.075 34.1088 142.29 35.1312 141.359 35.3733L137.722 36.3203C136.866 36.5463 136.193 36.019 136.193 35.1204V34.7491C137.044 34.7491 138.19 34.6577 139.551 34.238C140.966 33.8075 142.166 33.1833 143.075 32.6183Z" fill="#93C42A"/>
<path d="M137.721 36.3148L141.358 35.3678C142.289 35.1257 143.07 34.1033 143.075 33.1348V32.1393C143.075 31.1654 142.295 30.6435 141.364 30.9986L137.726 32.3761C136.865 32.6989 136.198 33.6567 136.198 34.5553V35.1203C136.198 36.0189 136.871 36.5408 137.726 36.3202H137.721V36.3148Z" stroke="#231F20" stroke-width="0.538079" stroke-miterlimit="10"/>
<path d="M100.277 47.0332L98.1729 47.7058V46.2422L100.277 45.5696V47.0332Z" fill="#BFF661"/>
<path d="M100.277 47.0332L98.1729 47.7058V46.2422L100.277 45.5696V47.0332Z" stroke="#231F20" stroke-width="0.538079" stroke-miterlimit="10"/>
<path d="M98.4421 46.6032V47.1682C98.4421 48.0668 97.7748 49.0192 96.9193 49.3421L93.2873 50.7142C92.3564 51.0693 91.5762 50.542 91.5762 49.5734V48.578C91.5762 47.6094 92.3564 46.5871 93.2873 46.345L96.9193 45.4033C97.7748 45.1773 98.4474 45.7046 98.4474 46.6032H98.4421Z" fill="#BFF661"/>
<path d="M98.4421 47.0121V47.1681C98.4421 48.0667 97.7748 49.0191 96.9193 49.3419L93.2873 50.714C92.3564 51.0692 91.5762 50.5418 91.5762 49.5733V49.0998C92.2703 49.0729 93.072 48.9868 93.9652 48.7877C95.7786 48.3788 97.3175 47.6524 98.4421 47.0121Z" fill="#93C42A"/>
<path d="M96.9193 49.342L93.2873 50.7195C92.3618 51.0693 91.5762 50.5473 91.5762 49.5788V48.5834C91.5762 47.6148 92.3564 46.5925 93.2819 46.3503L96.9139 45.4033C97.7695 45.1827 98.4421 45.7046 98.4421 46.6032V47.1682C98.4421 48.0614 97.7748 49.0192 96.9193 49.342Z" stroke="#231F20" stroke-width="0.538079" stroke-miterlimit="10"/>
<path d="M99.5176 48.4274L135.063 37.0794L134.186 31.86C133.438 27.3993 129.542 25.1986 124.974 26.6568L109.585 31.5748C105.022 33.033 101.132 37.7197 100.389 42.6538L99.5176 48.4274Z" fill="#BFF661"/>
<path d="M99.5176 48.4274L135.063 37.0794L134.186 31.86C133.438 27.3993 129.542 25.1986 124.974 26.6568L109.585 31.5748C105.022 33.033 101.132 37.7197 100.389 42.6538L99.5176 48.4274Z" stroke="#231F20" stroke-width="0.538079" stroke-miterlimit="10"/>
<path d="M133.417 37.6006L101.153 47.9048L101.944 42.664C102.622 38.1871 106.152 33.9309 110.29 32.6073L124.258 28.1412C124.334 28.1197 124.404 28.0928 124.474 28.0766C128.525 26.8875 131.948 28.8838 132.615 32.8602L133.411 37.5953H133.417V37.6006Z" fill="#383A37"/>
<path opacity="0.21" d="M121.956 28.8843C121.671 30.8537 121.063 33.3773 119.798 36.2183C118.437 39.2693 116.758 41.6745 115.381 43.364L114.676 43.59C116.005 41.1418 117.388 38.3653 118.706 35.2929C119.631 33.1298 120.422 31.0797 121.095 29.1641L121.956 28.8897V28.8843Z" fill="white"/>
<path opacity="0.21" d="M123.935 33.248C123.058 37.0199 121.353 40.0278 120.142 41.8411L117.279 42.7558C118.345 41.3568 119.598 39.4682 120.658 37.1275C122.181 33.7592 122.698 30.7836 122.838 28.599L124.264 28.1416C124.339 28.1201 124.409 28.0932 124.479 28.0771C124.516 29.4868 124.398 31.2302 123.935 33.248Z" fill="white"/>
<path d="M101.153 47.8993L133.417 37.5951L132.62 32.86C131.942 28.8136 128.407 26.8174 124.258 28.141L110.29 32.6071C106.152 33.9308 102.617 38.1816 101.944 42.6638L101.153 47.9047V47.8993Z" stroke="#231F20" stroke-width="0.538079" stroke-miterlimit="10"/>
<path d="M138.62 41.6257V44.8596C138.62 45.2039 138.583 45.5483 138.518 45.8927C138.077 48.1741 136.253 50.3587 134.068 51.0582L100.481 61.7714C98.0385 62.5516 96.0476 61.1741 95.94 58.6882C95.94 58.6236 95.9346 58.5537 95.9346 58.4837V55.2553C95.9346 54.0876 96.1767 52.9038 96.6233 51.7685C97.7963 48.7768 100.341 46.151 103.295 45.2093L131.238 36.288C134.192 35.3463 136.737 36.3418 137.915 38.5802C138.367 39.4304 138.615 40.4635 138.615 41.6365V41.6257H138.62Z" fill="#BFF661"/>
<path d="M138.62 41.6253V44.8592C138.62 45.2035 138.583 45.5479 138.518 45.8923C138.077 48.1737 136.253 50.3583 134.068 51.0578L100.481 61.771C98.0385 62.5512 96.0476 61.1737 95.94 58.6878C95.94 58.6232 95.9346 58.5533 95.9346 58.4833V55.2548C95.9346 54.0872 96.1767 52.9034 96.6233 51.7681C101.305 51.413 106.879 50.5843 113.18 48.8678C123.021 46.1828 131.464 42.2011 137.915 38.5744C138.367 39.4246 138.615 40.4577 138.615 41.6307H138.62V41.6253Z" fill="#93C42A"/>
<path d="M138.518 45.8926C138.076 48.174 136.252 50.3586 134.068 51.0581L100.481 61.7713C98.038 62.5515 96.0471 61.174 95.9395 58.6881C97.0102 59.0594 98.4146 59.3768 100.136 59.3661C101.708 59.3553 102.961 59.0809 103.612 58.9302C112.808 56.8532 125.066 52.7961 131.996 49.8152C132.518 49.5946 133.503 49.1641 134.767 48.4431C136.22 47.6144 137.479 46.7212 138.518 45.898V45.8926Z" fill="#508A17"/>
<path d="M100.481 61.766L134.068 51.0528C136.581 50.2511 138.615 47.48 138.62 44.8595V41.6257C138.62 37.3749 135.322 34.9804 131.243 36.2826L103.295 45.2093C99.2276 46.5114 95.9292 51.0044 95.9346 55.2498V58.4783C95.9346 61.0934 97.9739 62.5677 100.481 61.766Z" stroke="#231F20" stroke-width="0.538079" stroke-miterlimit="10"/>
<path d="M109.962 49.9766C109.967 50.0681 109.951 50.1649 109.919 50.2618C109.87 50.4124 109.763 50.5577 109.612 50.6653C108.304 51.5962 106.669 52.6239 104.753 53.5118C103.134 54.2705 101.67 54.7601 100.432 55.0883C99.5284 55.3251 98.7912 54.8408 98.689 53.9369C98.6675 53.7808 98.6621 53.6086 98.6621 53.4311C98.6621 53.2266 98.6783 53.0329 98.7052 52.8392C98.7374 52.6186 98.7805 52.4033 98.8343 52.2042C99.0603 51.3272 99.7759 50.5523 100.583 50.2833C102.235 49.7398 104.382 49.2448 106.744 49.2825C107.852 49.2986 108.832 49.4331 109.671 49.6107C109.854 49.6484 109.951 49.7937 109.962 49.9712V49.9766Z" fill="white"/>
<path d="M109.962 49.9771C109.951 50.0686 109.935 50.1601 109.919 50.2623C109.87 50.413 109.763 50.5583 109.612 50.6659C108.304 51.5968 106.669 52.6245 104.753 53.5123C103.134 54.271 101.67 54.7607 100.432 55.0889C99.5284 55.3256 98.7912 54.8414 98.689 53.9374C98.6675 53.7814 98.6621 53.6092 98.6621 53.4316C98.6621 53.2271 98.6783 53.0334 98.7052 52.8397C99.5284 52.8559 100.432 52.8236 101.417 52.7052C104.85 52.2963 107.836 51.0694 109.962 49.9771Z" fill="#E6E6E6"/>
<path d="M135.784 41.5827C135.784 41.7603 135.773 41.9378 135.757 42.11C135.65 43.0839 134.918 44.0363 134.008 44.3753C132.771 44.8381 131.307 45.2793 129.682 45.5591C127.761 45.8927 126.126 45.9142 124.818 45.812C124.57 45.7958 124.452 45.586 124.468 45.3492C124.484 45.1609 124.581 44.9564 124.759 44.8004C125.598 44.0794 126.578 43.3261 127.691 42.5997C130.059 41.05 132.206 40.1729 133.858 39.6617C134.665 39.4142 135.38 39.7317 135.606 40.4689C135.633 40.5442 135.655 40.6249 135.676 40.711C135.736 40.9639 135.773 41.2598 135.779 41.5881H135.784V41.5827Z" fill="white"/>
<path d="M135.784 41.5825C135.784 41.7601 135.773 41.9376 135.757 42.1098C135.65 43.0838 134.918 44.0362 134.008 44.3751C132.771 44.8379 131.307 45.2791 129.682 45.5589C127.761 45.8925 126.126 45.914 124.818 45.8118C124.57 45.7957 124.452 45.5858 124.468 45.3491C126.669 45.0531 129.424 44.3267 132.464 42.7071C133.648 42.0722 134.724 41.3888 135.676 40.7054C135.736 40.9583 135.773 41.2543 135.779 41.5825H135.784Z" fill="#E6E6E6"/>
<path d="M109.612 50.66C110.048 50.3479 110.086 49.7022 109.672 49.6107C108.832 49.4278 107.853 49.2987 106.745 49.2771C104.382 49.2395 102.235 49.7345 100.584 50.278C99.7764 50.5416 99.0661 51.3218 98.8348 52.1989C98.7379 52.5702 98.668 52.9845 98.668 53.4257C98.668 53.6087 98.6787 53.7755 98.6949 53.9315C98.8025 54.8355 99.5343 55.3198 100.438 55.083C101.676 54.7548 103.139 54.2651 104.759 53.5064C106.675 52.6132 108.31 51.5909 109.618 50.6546H109.612V50.66Z" stroke="#231F20" stroke-width="0.538079" stroke-miterlimit="10"/>
<path d="M124.818 45.8067C124.382 45.7744 124.345 45.1502 124.759 44.7951C125.604 44.0741 126.578 43.3208 127.692 42.5944C130.059 41.0447 132.206 40.1676 133.863 39.6564C134.67 39.4089 135.386 39.7264 135.612 40.4582C135.709 40.7649 135.779 41.1415 135.779 41.5774C135.779 41.7603 135.768 41.9325 135.752 42.1047C135.644 43.0786 134.907 44.031 134.003 44.37C132.766 44.8328 131.302 45.274 129.677 45.5538C127.756 45.8874 126.12 45.9035 124.813 45.8067H124.818Z" stroke="#231F20" stroke-width="0.538079" stroke-miterlimit="10"/>
<path d="M110.774 49.4174C112.803 48.9924 115.063 48.4112 117.517 47.6149C119.739 46.8939 121.794 46.1029 123.667 45.3011" stroke="#231F20" stroke-width="0.538079" stroke-miterlimit="10"/>
<path d="M110.689 55.7289L123.743 51.5641C124.27 51.3973 124.695 50.8162 124.695 50.2674V49.7508C124.695 49.202 124.27 48.8899 123.743 49.0621L110.689 53.2268C110.161 53.3936 109.736 53.9747 109.736 54.5236V55.0401C109.736 55.589 110.161 55.901 110.689 55.7289Z" fill="#383A37"/>
<path d="M110.689 55.7289L123.743 51.5641C124.27 51.3973 124.695 50.8162 124.695 50.2674V49.7508C124.695 49.202 124.27 48.8899 123.743 49.0621L110.689 53.2268C110.161 53.3936 109.736 53.9747 109.736 54.5236V55.0401C109.736 55.589 110.161 55.901 110.689 55.7289Z" stroke="#231F20" stroke-width="0.538079" stroke-miterlimit="10"/>
</g>
</g>
<defs>
<clipPath id="clip0_1035_45996">
<rect width="249.556" height="227.091" fill="white" transform="translate(0.5 51.1175)"/>
</clipPath>
<clipPath id="clip1_1035_45996">
<rect width="38.5318" height="44.8435" fill="white" transform="translate(36.0137 205.545)"/>
</clipPath>
<clipPath id="clip2_1035_45996">
<rect width="148.881" height="242.786" fill="white" transform="translate(157.619 86.6307)"/>
</clipPath>
<clipPath id="clip3_1035_45996">
<rect width="79.5926" height="94.9225" fill="white" transform="translate(72.0645)"/>
</clipPath>
</defs>
</svg>
