<svg xmlns="http://www.w3.org/2000/svg" width="87" height="107" viewBox="0 0 87 107" fill="none">
  <g clip-path="url(#clip0_8_20571)">
    <path d="M86.6286 36.8366C86.6211 54.258 76.1669 72.441 61.5071 82.9476C56.9376 90.8406 52.3754 98.7262 47.8133 106.619C44.336 102.796 40.8512 98.9651 37.3739 95.1493C36.3337 94.0068 35.3009 92.8717 34.2606 91.7292C32.0613 91.5724 29.9586 91.1767 27.9747 90.5643C26.7264 90.191 25.5153 89.728 24.3636 89.1679C23.3234 88.6676 22.3203 88.1076 21.3618 87.4803C21.2207 87.3832 21.0721 87.2936 20.9309 87.204C19.1254 85.957 17.4833 84.4784 16.0418 82.7759C11.6357 77.601 9.05004 70.4024 9.03518 61.7403C9.01289 39.2784 26.3549 15.4799 47.7984 8.58749C54.8423 6.32488 61.4625 6.16806 67.1541 7.78849C68.8481 8.2664 70.4679 8.90112 71.9837 9.70013C80.9222 14.2851 86.6434 23.9479 86.636 36.844L86.6286 36.8366Z" fill="#D25312"/>
    <path d="M41.7651 74.5842C41.7651 72.1199 42.367 70.1934 43.5707 68.7895C44.7744 67.3931 46.2455 66.3925 47.9842 65.8025C49.7229 65.2126 51.1197 65.235 52.3234 65.8175C53.5271 66.3999 54.129 67.9233 54.129 70.3875C54.129 72.6875 53.5271 74.5842 52.3234 76.0627C51.1197 77.5412 49.6709 78.5643 47.9842 79.1393C46.2975 79.7143 44.7818 79.6919 43.5707 79.0273C42.367 78.3627 41.7651 76.8841 41.7651 74.5842ZM52.3234 58.1485L43.7193 61.0757L41.8989 24.7768L54.1364 20.61L52.3309 58.1485H52.3234Z" fill="white"/>
    <path d="M41.7651 74.5842C41.7651 72.1199 42.367 70.1934 43.5707 68.7895C44.7744 67.3931 46.2455 66.3925 47.9842 65.8025C49.7229 65.2126 51.1197 65.235 52.3234 65.8175C53.5271 66.3999 54.129 67.9233 54.129 70.3875C54.129 72.6875 53.5271 74.5842 52.3234 76.0627C51.1197 77.5412 49.6709 78.5643 47.9842 79.1393C46.2975 79.7143 44.7818 79.6919 43.5707 79.0273C42.367 78.3627 41.7651 76.8841 41.7651 74.5842ZM52.3234 58.1485L43.7193 61.0757L41.8989 24.7768L54.1364 20.61L52.3309 58.1485H52.3234Z" stroke="#231F20" stroke-miterlimit="10"/>
    <path d="M86.6286 36.8366C86.6211 54.258 76.1669 72.4485 61.5071 82.9476C56.9376 90.8406 52.3754 98.7336 47.8207 106.627H47.8133C45.7923 104.394 43.7713 102.176 41.7428 99.9508C41.2524 99.4132 40.7695 98.883 40.2791 98.3453C39.7367 97.7479 39.1869 97.1506 38.6445 96.5532C38.2209 96.0902 37.7974 95.6197 37.3739 95.1568C36.3337 94.0143 35.3009 92.8717 34.2606 91.7367C33.1387 91.662 32.039 91.5127 30.9765 91.3111C30.9171 91.3036 30.8576 91.2961 30.7982 91.2812C30.0923 91.1468 29.3939 90.9825 28.7177 90.7884C28.4651 90.7211 28.2199 90.6465 27.9747 90.5718C26.7264 90.1984 25.5228 89.7354 24.3636 89.1754C23.3234 88.6751 22.3203 88.115 21.3618 87.4803C21.2207 87.3907 21.0721 87.2936 20.9309 87.204C20.708 87.0472 20.4851 86.8904 20.2622 86.7261C20.2548 86.7186 20.2399 86.7112 20.2325 86.7037C18.9842 85.7777 17.8177 84.7248 16.7403 83.5674C16.6214 83.433 16.5025 83.2986 16.3762 83.1567C16.2647 83.0297 16.1533 82.9028 16.0418 82.7759C11.6357 77.601 9.04261 70.4024 9.03518 61.7328C9.01289 39.2784 26.3549 15.4799 47.7984 8.58003C54.8423 6.32488 61.4551 6.16806 67.1541 7.78102C67.4067 7.85569 67.6593 7.93037 67.9045 8.00504C68.8481 8.30373 69.7546 8.64723 70.6388 9.043C71.0995 9.24462 71.5453 9.46118 71.9837 9.69266C72.0134 9.7076 72.0506 9.72253 72.0803 9.74494C72.9422 10.193 73.7744 10.6858 74.5694 11.2309C75.2009 11.6566 75.8177 12.1196 76.4046 12.6049C76.4121 12.6124 76.4269 12.6124 76.4344 12.6273H76.4418C82.7723 17.8321 86.636 26.2478 86.6211 36.8366H86.6286Z" stroke="black" stroke-linecap="round" stroke-linejoin="round"/>
    <path d="M47.8134 106.619C44.9304 104.513 42.0401 102.408 39.1572 100.294H39.1498C37.1288 98.0615 35.1077 95.8437 33.0793 93.6185C32.3809 92.8493 31.675 92.0802 30.9766 91.311C32.0391 91.5127 33.1387 91.662 34.2607 91.7367C35.3009 92.8717 36.3337 94.0142 37.3739 95.1567C37.7975 95.6197 38.221 96.0902 38.6445 96.5531C39.1869 97.1505 39.7367 97.7479 40.2792 98.3453C40.7695 98.883 41.2525 99.4131 41.7429 99.9508C43.7713 102.176 45.7923 104.394 47.8134 106.619Z" fill="#FF9A71"/>
    <path d="M47.8134 106.619C44.9304 104.513 42.0401 102.408 39.1572 100.294H39.1498C37.1288 98.0615 35.1077 95.8437 33.0793 93.6185C32.3809 92.8493 31.675 92.0802 30.9766 91.311C32.0391 91.5127 33.1387 91.662 34.2607 91.7367C35.3009 92.8717 36.3337 94.0142 37.3739 95.1567C37.7975 95.6197 38.221 96.0902 38.6445 96.5531C39.1869 97.1505 39.7367 97.7479 40.2792 98.3453C40.7695 98.883 41.2525 99.4131 41.7429 99.9508C43.7713 102.176 45.7923 104.394 47.8134 106.619Z" stroke="black" stroke-linecap="round" stroke-linejoin="round"/>
    <path d="M74.5694 11.2309C73.7744 10.6858 72.9422 10.1929 72.0803 9.74487C72.0506 9.72247 72.0134 9.70754 71.9837 9.6926C71.5453 9.46111 71.0995 9.24456 70.6388 9.04294C69.7546 8.64717 68.8482 8.30367 67.9045 8.00497C67.6593 7.9303 67.4067 7.85563 67.1541 7.78095C61.4551 6.168 54.8423 6.32482 47.7985 8.57996C26.355 15.4798 9.01291 39.2783 9.0352 61.7327C9.04263 70.4024 11.6358 77.6009 16.0419 82.7758C16.1533 82.9027 16.2648 83.0297 16.3762 83.1566C16.5025 83.2985 16.6214 83.4329 16.7403 83.5673C17.8177 84.7248 18.9842 85.7777 20.2325 86.7036C17.5799 84.7621 14.9199 82.8131 12.2673 80.8716C12.0444 80.7148 11.8215 80.558 11.5986 80.3937C11.5912 80.3862 11.5763 80.3788 11.5689 80.3713C10.3206 79.4453 9.15408 78.3924 8.0767 77.235C7.84637 76.9736 7.6086 76.7123 7.37827 76.4435C2.97217 71.2686 0.379034 64.07 0.371603 55.4004C0.349313 32.946 17.6914 9.14748 39.1349 2.24763C46.1787 -0.00751817 52.7915 -0.164333 58.4905 1.44862C58.7431 1.52329 58.9957 1.59797 59.2409 1.67264C60.6675 2.12068 62.0273 2.68074 63.3201 3.36027C63.3498 3.3752 63.387 3.39014 63.4167 3.41254C64.3232 3.88298 65.1925 4.41317 66.0321 4.98816C66.1213 5.04789 66.2179 5.1151 66.307 5.18231C66.5374 5.34659 66.7677 5.51087 66.9906 5.68262C69.5169 7.52706 72.0431 9.37897 74.5694 11.2309Z" fill="#FF9A71"/>
    <path d="M74.5694 11.2309C73.7744 10.6858 72.9422 10.1929 72.0803 9.74487C72.0506 9.72247 72.0134 9.70754 71.9837 9.6926C71.5453 9.46111 71.0995 9.24456 70.6388 9.04294C69.7546 8.64717 68.8482 8.30367 67.9045 8.00497C67.6593 7.9303 67.4067 7.85563 67.1541 7.78095C61.4551 6.168 54.8423 6.32482 47.7985 8.57996C26.355 15.4798 9.0129 39.2783 9.0352 61.7327C9.04263 70.4023 11.6358 77.6009 16.0419 82.7758C16.1533 82.9027 16.2648 83.0297 16.3762 83.1566C16.5025 83.2985 16.6214 83.4329 16.7403 83.5673C17.8177 84.7248 18.9842 85.7777 20.2325 86.7036C17.5799 84.7621 14.9199 82.8131 12.2673 80.8716C12.0444 80.7148 11.8215 80.558 11.5986 80.3937C11.5912 80.3862 11.5763 80.3788 11.5689 80.3713C10.3206 79.4453 9.15408 78.3924 8.0767 77.235C7.84637 76.9736 7.6086 76.7123 7.37827 76.4435C2.97217 71.2686 0.379034 64.07 0.371603 55.4004C0.349313 32.946 17.6914 9.14748 39.1349 2.24763C46.1787 -0.00751817 52.7915 -0.164333 58.4905 1.44862C58.7431 1.52329 58.9957 1.59797 59.2409 1.67264C60.6675 2.12068 62.0273 2.68074 63.3201 3.36027C63.3498 3.3752 63.387 3.39014 63.4167 3.41254C64.3232 3.88298 65.1925 4.41317 66.0321 4.98816C66.1213 5.04789 66.2179 5.1151 66.307 5.18231C66.5374 5.34659 66.7677 5.51087 66.9906 5.68262C69.5169 7.52706 72.0431 9.37897 74.5694 11.2309Z" stroke="black" stroke-linecap="round" stroke-linejoin="round"/>
  </g>
  <defs>
    <clipPath id="clip0_8_20571">
      <rect width="87" height="107" fill="white"/>
    </clipPath>
  </defs>
</svg>