 <svg xmlns="http://www.w3.org/2000/svg" width="52" height="53" viewBox="0 0 52 53" fill="none">
                <g clip-path="url(#clip0_409_139640)">
                    <mask id="mask0_409_139640" style="mask-type:luminance" maskUnits="userSpaceOnUse" x="0" y="0"
                        width="52" height="53">
                        <path
                            d="M26 52.5C40.3594 52.5 52 40.8594 52 26.5C52 12.1406 40.3594 0.5 26 0.5C11.6406 0.5 0 12.1406 0 26.5C0 40.8594 11.6406 52.5 26 52.5Z"
                            fill="white" />
                    </mask>
                    <g mask="url(#mask0_409_139640)">
                        <path d="M52 0.5H0V52.5H52V0.5Z" fill="#E5E1C3" />
                        <path
                            d="M45.4795 6.12905C46.3895 5.60905 47.1295 6.02905 47.1295 7.07905L47.1795 25.819C47.1795 26.8591 46.4495 28.1391 45.5395 28.6591L16.2295 45.5791C15.3195 46.1091 14.5795 45.6791 14.5695 44.639L14.5195 25.8991C14.5195 24.8491 15.2495 23.5791 16.1695 23.0491L45.4795 6.12905Z"
                            fill="#E5E1C3" />
                        <path
                            d="M45.4795 6.12905C46.3895 5.60905 47.1295 6.02905 47.1295 7.07905L47.1795 25.819C47.1795 26.859 46.4495 28.1391 45.5395 28.6591L16.2295 45.5791C15.3195 46.1091 14.5795 45.679 14.5695 44.639L14.5195 25.8991C14.5195 24.8491 15.2495 23.5791 16.1695 23.0491L45.4795 6.12905Z"
                            stroke="#231F20" stroke-width="0.25" stroke-linecap="round" stroke-linejoin="round" />
                        <path d="M41.7495 27.5L14.4395 43.27L19.7595 46.28L48.1895 29.86L41.7495 27.5Z" fill="#A8A385" />
                        <path d="M41.7495 27.5L14.4395 43.27L19.7595 46.28L48.1895 29.86L41.7495 27.5Z" stroke="#231F20"
                            stroke-width="0.25" stroke-linecap="round" stroke-linejoin="round" />
                        <path
                            d="M16.8599 46.7387L15.0499 45.6888L13.7599 44.9388L13.4099 44.7387C13.1199 44.5687 12.9299 44.2088 12.9299 43.6888L12.8799 24.9487C12.8799 24.8387 12.8799 24.7388 12.8999 24.6188C12.8999 24.5988 12.8999 24.5787 12.9199 24.5687C12.9199 24.5487 12.9199 24.5287 12.9199 24.5187C12.9199 24.4787 12.9199 24.4388 12.9399 24.3988C12.9399 24.3388 12.9699 24.2687 12.9799 24.1987C12.9799 24.1787 12.9799 24.1588 12.9999 24.1488C12.9999 24.1488 12.9999 24.1287 12.9999 24.1087C12.9999 24.0787 13.0199 24.0587 13.0299 24.0287C13.0499 23.9887 13.0699 23.9287 13.0799 23.8787C13.0899 23.8287 13.1199 23.7788 13.1399 23.7288C13.1599 23.6888 13.1799 23.6387 13.1899 23.5987C13.2199 23.5587 13.2399 23.5087 13.2599 23.4587C13.2899 23.4187 13.2999 23.3888 13.3299 23.3388V23.3187C13.3599 23.2687 13.3799 23.2188 13.4199 23.1787C13.4499 23.1387 13.4799 23.0788 13.5099 23.0387C13.5299 23.0187 13.5499 22.9988 13.5499 22.9788C13.5499 22.9788 13.5699 22.9587 13.5799 22.9487C13.5799 22.9287 13.6099 22.9087 13.6199 22.8887L13.7499 22.7288C13.7499 22.7288 13.7899 22.6888 13.8099 22.6588C13.8299 22.6388 13.8499 22.6187 13.8599 22.6087C13.8799 22.5787 13.8999 22.5688 13.9199 22.5387C13.9599 22.4987 14.0199 22.4587 14.0699 22.4187C14.0999 22.3887 14.1299 22.3588 14.1599 22.3288C14.2699 22.2488 14.3599 22.1788 14.4699 22.1188L43.7899 5.19875C43.8699 5.15875 43.9399 5.10875 44.0199 5.07875C44.0399 5.07875 44.0599 5.05875 44.0899 5.04875C44.1099 5.04875 44.1299 5.04875 44.1399 5.02875C44.1699 5.02875 44.1799 5.00875 44.1999 4.99875C44.2499 4.99875 44.2999 4.97875 44.3499 4.96875C44.3699 4.96875 44.3899 4.96875 44.4099 4.96875H44.4699C44.4699 4.96875 44.5399 4.96875 44.5799 4.96875C44.6199 4.96875 44.6399 4.96875 44.6799 4.96875H44.6999C44.6999 4.96875 44.6999 4.96875 44.7199 4.96875C44.7399 4.96875 44.7599 4.96875 44.7699 4.96875C44.8099 4.96875 44.8299 4.98875 44.8599 5.00875C44.8899 5.00875 44.9099 5.03875 44.9499 5.04875L46.5899 5.99875C46.5199 5.95875 46.4399 5.92875 46.3499 5.90875C46.2599 5.88875 46.1699 5.87875 46.0799 5.88875H46.0499C45.9599 5.88875 45.8699 5.92875 45.7799 5.94875C45.7599 5.94875 45.7399 5.94875 45.7199 5.96875C45.6199 6.00875 45.5199 6.04875 45.4199 6.10875L16.1099 23.0287C15.9999 23.0887 15.8999 23.1687 15.7999 23.2487C15.7599 23.2687 15.7399 23.2987 15.6999 23.3288C15.6299 23.3888 15.5599 23.4487 15.4899 23.5287C15.4699 23.5487 15.4499 23.5688 15.4399 23.5788C15.3599 23.6788 15.2799 23.7788 15.1999 23.8688C15.1999 23.8688 15.1799 23.8888 15.1799 23.9088C15.0899 24.0188 15.0199 24.1388 14.9499 24.2588C14.8799 24.3988 14.8199 24.5288 14.7499 24.6588C14.6899 24.7888 14.6399 24.9288 14.6099 25.0488C14.6099 25.0688 14.6099 25.0788 14.5899 25.0888C14.5499 25.2088 14.5299 25.3287 14.5099 25.4487C14.5099 25.4687 14.5099 25.4887 14.5099 25.4987C14.4899 25.6287 14.4699 25.7587 14.4699 25.8787L14.5199 43.2387L16.8399 44.5888"
                            fill="#9AC64E" />
                        <path
                            d="M15.9399 46.2087L15.0499 45.6888L13.7599 44.9388L13.4099 44.7387C13.1199 44.5687 12.9299 44.2088 12.9299 43.6888L12.8799 24.9487C12.8799 24.8387 12.8799 24.7388 12.8999 24.6188C12.8999 24.5988 12.8999 24.5787 12.9199 24.5687C12.9199 24.5487 12.9199 24.5287 12.9199 24.5187C12.9199 24.4787 12.9199 24.4388 12.9399 24.3988C12.9399 24.3388 12.9699 24.2687 12.9799 24.1987C12.9799 24.1787 12.9799 24.1588 12.9999 24.1488C12.9999 24.1488 12.9999 24.1287 12.9999 24.1087C12.9999 24.0787 13.0199 24.0587 13.0299 24.0287C13.0499 23.9887 13.0699 23.9287 13.0799 23.8787C13.0899 23.8287 13.1199 23.7788 13.1399 23.7288C13.1599 23.6888 13.1799 23.6387 13.1899 23.5987C13.2199 23.5587 13.2399 23.5087 13.2599 23.4587C13.2899 23.4187 13.2999 23.3888 13.3299 23.3388V23.3187C13.3599 23.2687 13.3799 23.2187 13.4199 23.1787C13.4499 23.1387 13.4799 23.0787 13.5099 23.0387C13.5299 23.0187 13.5499 22.9988 13.5499 22.9788C13.5499 22.9788 13.5699 22.9587 13.5799 22.9487C13.5799 22.9287 13.6099 22.9087 13.6199 22.8887L13.7499 22.7288C13.7499 22.7288 13.7899 22.6888 13.8099 22.6588C13.8299 22.6388 13.8499 22.6187 13.8599 22.6087C13.8799 22.5787 13.8999 22.5687 13.9199 22.5387C13.9599 22.4987 14.0199 22.4587 14.0699 22.4187C14.0999 22.3887 14.1299 22.3588 14.1599 22.3288C14.2699 22.2488 14.3599 22.1788 14.4699 22.1188L43.7899 5.19875C43.8699 5.15875 43.9399 5.10875 44.0199 5.07875C44.0399 5.07875 44.0599 5.05875 44.0899 5.04875C44.1099 5.04875 44.1299 5.04875 44.1399 5.02875C44.1699 5.02875 44.1799 5.00875 44.1999 4.99875C44.2499 4.99875 44.2999 4.97875 44.3499 4.96875C44.3699 4.96875 44.3899 4.96875 44.4099 4.96875H44.4699C44.4699 4.96875 44.5399 4.96875 44.5799 4.96875C44.6199 4.96875 44.6399 4.96875 44.6799 4.96875H44.6999C44.6999 4.96875 44.6999 4.96875 44.7199 4.96875C44.7399 4.96875 44.7599 4.96875 44.7699 4.96875C44.8099 4.96875 44.8299 4.98875 44.8599 5.00875C44.8899 5.00875 44.9099 5.03875 44.9499 5.04875L46.5899 5.99875C46.5199 5.95875 46.4399 5.92875 46.3499 5.90875C46.2599 5.88875 46.1699 5.87875 46.0799 5.88875H46.0499C45.9599 5.88875 45.8699 5.92875 45.7799 5.94875C45.7599 5.94875 45.7399 5.94875 45.7199 5.96875C45.6199 6.00875 45.5199 6.04875 45.4199 6.10875L16.1099 23.0287C15.9999 23.0887 15.8999 23.1687 15.7999 23.2487C15.7599 23.2687 15.7399 23.2988 15.6999 23.3288C15.6299 23.3888 15.5599 23.4487 15.4899 23.5287C15.4699 23.5487 15.4499 23.5688 15.4399 23.5788C15.3599 23.6788 15.2799 23.7788 15.1999 23.8688C15.1999 23.8688 15.1799 23.8888 15.1799 23.9088C15.0899 24.0188 15.0199 24.1388 14.9499 24.2588C14.8799 24.3988 14.8199 24.5288 14.7499 24.6588C14.6899 24.7888 14.6399 24.9288 14.6099 25.0488C14.6099 25.0688 14.6099 25.0788 14.5899 25.0888C14.5499 25.2088 14.5299 25.3287 14.5099 25.4487C14.5099 25.4687 14.5099 25.4887 14.5099 25.4987C14.4899 25.6287 14.4699 25.7587 14.4699 25.8787L14.5199 43.2387L16.2899 44.2687"
                            stroke="#231F20" stroke-width="0.25" stroke-linecap="round" stroke-linejoin="round" />
                        <path
                            d="M14.5195 14.0798C14.5195 14.0798 16.6395 14.5398 16.6395 18.3898V43.3598L40.5995 29.5298V5.49976C40.5995 0.259764 38.4795 0.259766 38.4795 0.259766L14.5195 14.0898V14.0798Z"
                            fill="#E3E2DA" />
                        <path
                            d="M14.5195 14.0798C14.5195 14.0798 16.6395 14.5398 16.6395 18.3898V43.3598L40.5995 29.5298V5.49976C40.5995 0.259764 38.4795 0.259766 38.4795 0.259766L14.5195 14.0898V14.0798Z"
                            stroke="#231F20" stroke-width="0.25" stroke-linecap="round" stroke-linejoin="round" />
                        <path
                            d="M16.3604 9.99969C16.3604 9.99969 18.4804 10.4597 18.4804 14.3097V39.2797L42.4404 25.4497V1.41969C42.4404 -3.82031 40.3204 -3.82031 40.3204 -3.82031L16.3604 10.0097V9.99969Z"
                            fill="white" />
                        <path
                            d="M16.3604 9.99969C16.3604 9.99969 18.4804 10.4597 18.4804 14.3097V39.2797L42.4404 25.4497V1.41969C42.4404 -3.82031 40.3204 -3.82031 40.3204 -3.82031L16.3604 10.0097V9.99969Z"
                            stroke="#231F20" stroke-width="0.25" stroke-linecap="round" stroke-linejoin="round" />
                        <path d="M29.0801 19.2108L40.2601 12.7608V11.3008L29.0801 17.7508V19.2108Z" fill="#383A37" />
                        <path d="M40.2405 7.36039V5.90039L29.0605 12.3604V13.8104L40.2405 7.36039Z" fill="#383A37" />
                        <path
                            d="M24.4403 21.8901C26.0803 20.9401 27.4203 18.6301 27.4103 16.7401C27.4103 14.8501 26.0603 14.0901 24.4203 15.0401C22.7703 15.9901 21.4403 18.2901 21.4503 20.1901C21.4503 22.0801 22.7903 22.8501 24.4403 21.8901Z"
                            fill="#C1F861" />
                        <path d="M29.0801 19.2108L40.2601 12.7608V11.3008L29.0801 17.7508V19.2108Z" stroke="#231F20"
                            stroke-width="0.25" stroke-linecap="round" stroke-linejoin="round" />
                        <path d="M40.2405 7.36039V5.90039L29.0605 12.3604V13.8104L40.2405 7.36039Z" stroke="#231F20"
                            stroke-width="0.25" stroke-linecap="round" stroke-linejoin="round" />
                        <path
                            d="M24.4403 21.8901C26.0803 20.9401 27.4203 18.6301 27.4103 16.7401C27.4103 14.8501 26.0603 14.0901 24.4203 15.0401C22.7703 15.9901 21.4403 18.2901 21.4503 20.1901C21.4503 22.0801 22.7903 22.8501 24.4403 21.8901Z"
                            stroke="#231F20" stroke-width="0.25" stroke-linecap="round" stroke-linejoin="round" />
                        <path
                            d="M51.8101 6.79922C52.7201 6.27922 53.4601 6.69921 53.4601 7.73921L53.5201 29.4992C53.5201 30.5392 52.7901 31.8192 51.8801 32.3392L22.5701 49.2592C21.6601 49.7792 20.9201 49.3592 20.9201 48.3192L20.8701 32.2492C20.8701 31.2092 21.6001 29.9292 22.5101 29.4092L36.0501 21.5892C36.6301 21.2592 37.1601 20.5992 37.4601 19.8592L39.4701 14.8392C39.7701 14.0992 40.3001 13.4392 40.8801 13.1092L51.8001 6.79922H51.8101Z"
                            fill="#C1F861" />
                        <path
                            d="M51.8101 6.79922C52.7201 6.27922 53.4601 6.69921 53.4601 7.73921L53.5201 29.4992C53.5201 30.5392 52.7901 31.8192 51.8801 32.3392L22.5701 49.2592C21.6601 49.7792 20.9201 49.3592 20.9201 48.3192L20.8701 32.2492C20.8701 31.2092 21.6001 29.9292 22.5101 29.4092L36.0501 21.5892C36.6301 21.2592 37.1601 20.5992 37.4601 19.8592L39.4701 14.8392C39.7701 14.0992 40.3001 13.4392 40.8801 13.1092L51.8001 6.79922H51.8101Z"
                            stroke="#231F20" stroke-width="0.25" stroke-linecap="round" stroke-linejoin="round" />
                        <path
                            d="M16.89 44.6089L19.28 45.9989L19.24 31.3089C19.24 31.1989 19.24 31.0989 19.26 30.9889C19.26 30.9589 19.26 30.9489 19.28 30.9289C19.28 30.9089 19.28 30.8889 19.28 30.8789C19.28 30.8389 19.28 30.7989 19.3 30.7589C19.3 30.6989 19.33 30.6389 19.34 30.5689C19.34 30.5389 19.34 30.5289 19.36 30.5089C19.36 30.5089 19.36 30.4889 19.36 30.4689C19.36 30.4389 19.38 30.4289 19.39 30.3989C19.41 30.3489 19.43 30.2889 19.44 30.2389C19.46 30.1989 19.48 30.1389 19.5 30.0989V30.0789C19.52 30.0389 19.54 29.9889 19.55 29.9489C19.58 29.9089 19.6 29.8589 19.62 29.8189C19.65 29.7789 19.66 29.7389 19.69 29.6989V29.6789C19.72 29.6389 19.74 29.5789 19.78 29.5389C19.81 29.4989 19.84 29.4489 19.87 29.3989C19.89 29.3789 19.91 29.3589 19.91 29.3489C19.91 29.3489 19.93 29.3189 19.94 29.3089C19.94 29.2889 19.97 29.2689 19.98 29.2589C20.02 29.1989 20.07 29.1389 20.11 29.0889C20.13 29.0689 20.15 29.0489 20.17 29.0289C20.19 28.9989 20.21 28.9889 20.22 28.9689C20.24 28.9489 20.26 28.9289 20.28 28.9089C20.32 28.8589 20.38 28.8189 20.42 28.7789C20.46 28.7489 20.48 28.7289 20.52 28.6989C20.62 28.6189 20.72 28.5489 20.83 28.4889L34.37 20.6689C34.49 20.5889 34.62 20.4989 34.74 20.3889C34.78 20.3589 34.8 20.3389 34.83 20.3089C34.95 20.1989 35.06 20.0889 35.17 19.9589C35.17 19.9589 35.17 19.9389 35.19 19.9289C35.31 19.7889 35.41 19.6289 35.51 19.4689C35.61 19.2889 35.7 19.1089 35.78 18.9289L37.79 13.9089C37.79 13.9089 37.82 13.8389 37.83 13.7989C37.85 13.7489 37.87 13.6989 37.89 13.6589C37.92 13.6189 37.93 13.5589 37.96 13.5189C37.99 13.4789 38.01 13.4289 38.04 13.3889V13.3689C38.04 13.3689 38.09 13.2889 38.12 13.2489C38.16 13.1989 38.18 13.1489 38.22 13.1089C38.26 13.0589 38.29 12.9989 38.33 12.9589C38.35 12.9389 38.36 12.9189 38.37 12.9089C38.37 12.9089 38.39 12.8889 38.4 12.8689C38.42 12.8489 38.44 12.8289 38.46 12.7989C38.51 12.7289 38.58 12.6689 38.64 12.5989C38.67 12.5689 38.7 12.5489 38.73 12.5189C38.76 12.4889 38.79 12.4789 38.82 12.4489C38.94 12.3389 39.07 12.2489 39.19 12.1689L50.12 5.85891C50.19 5.81891 50.27 5.77891 50.34 5.73891C50.37 5.73891 50.39 5.73891 50.42 5.71891C50.44 5.71891 50.46 5.69891 50.47 5.68891C50.5 5.68891 50.51 5.68891 50.53 5.66891C50.58 5.64891 50.63 5.63891 50.68 5.62891H50.74C50.74 5.62891 50.74 5.62891 50.76 5.62891H50.91C50.91 5.62891 50.97 5.62891 51.01 5.62891C51.01 5.62891 51.0167 5.62891 51.03 5.62891H51.05C51.05 5.62891 51.09 5.62891 51.1 5.64891C51.14 5.64891 51.16 5.66891 51.19 5.67891C51.22 5.69891 51.24 5.70891 51.27 5.71891L52.91 6.67891C52.84 6.63891 52.76 6.60891 52.67 6.57891H52.65C52.57 6.55891 52.48 6.55891 52.39 6.57891H52.36C52.27 6.57891 52.18 6.60891 52.09 6.62891C52.06 6.62891 52.05 6.64891 52.03 6.65891C51.93 6.69891 51.83 6.73891 51.73 6.78891L40.81 13.0989C40.68 13.1689 40.55 13.2689 40.43 13.3789L40.35 13.4589C40.23 13.5589 40.12 13.6689 40.01 13.8089C40.01 13.8089 39.99 13.8289 39.99 13.8389C39.87 13.9789 39.76 14.1289 39.66 14.2989C39.56 14.4789 39.47 14.6589 39.39 14.8389L37.38 19.8589C37.38 19.8589 37.35 19.9189 37.34 19.9489C37.31 19.9989 37.3 20.0489 37.27 20.0989C37.25 20.1389 37.23 20.1889 37.2 20.2289C37.17 20.2789 37.15 20.3289 37.12 20.3689C37.12 20.3689 37.12 20.3756 37.12 20.3889C37.12 20.3889 37.08 20.4789 37.05 20.5089C37.01 20.5489 36.99 20.6089 36.95 20.6489C36.91 20.6989 36.88 20.7489 36.84 20.7989C36.82 20.8189 36.8 20.8389 36.8 20.8489L36.77 20.8789C36.77 20.8789 36.73 20.9289 36.71 20.9589C36.65 21.0289 36.59 21.0889 36.52 21.1589C36.49 21.1889 36.47 21.1989 36.43 21.2289C36.4 21.2589 36.38 21.2789 36.35 21.3089C36.23 21.4189 36.1 21.5089 35.97 21.5889L22.43 29.4089C22.32 29.4689 22.23 29.5389 22.12 29.6189C22.09 29.6489 22.06 29.6689 22.03 29.6989C21.96 29.7589 21.89 29.8189 21.82 29.8989C21.8 29.9189 21.78 29.9389 21.77 29.9589C21.69 30.0489 21.61 30.1489 21.53 30.2389C21.53 30.2589 21.51 30.2689 21.51 30.2789C21.42 30.3989 21.35 30.5089 21.28 30.6389C21.21 30.7589 21.15 30.8889 21.08 31.0189C21.02 31.1489 20.97 31.2889 20.94 31.4189C20.94 31.4189 20.94 31.4389 20.92 31.4489C20.88 31.5689 20.86 31.6889 20.84 31.8089C20.84 31.8289 20.84 31.8489 20.84 31.8589C20.82 31.9889 20.8 32.1189 20.8 32.2389L20.85 48.3189C20.85 48.8389 21.03 49.1989 21.33 49.3689L19.69 48.4189L16.79 46.7289"
                            fill="#9AC64E" />
                        <path
                            d="M16.3401 44.2889L19.2801 45.9989L19.2401 31.3089C19.2401 31.1989 19.2401 31.0989 19.2601 30.9889C19.2601 30.9589 19.2601 30.9489 19.2801 30.9289C19.2801 30.9089 19.2801 30.8889 19.2801 30.8789C19.2801 30.8389 19.2801 30.7989 19.3001 30.7589C19.3001 30.6989 19.3301 30.6389 19.3401 30.5689C19.3401 30.5389 19.3401 30.5289 19.3601 30.5089C19.3601 30.5089 19.3601 30.4889 19.3601 30.4689C19.3601 30.4389 19.3801 30.4289 19.3901 30.3989C19.4101 30.3489 19.4301 30.2889 19.4401 30.2389C19.4601 30.1989 19.4801 30.1389 19.5001 30.0989V30.0789C19.5201 30.0389 19.5401 29.9889 19.5501 29.9489C19.5801 29.9089 19.6001 29.8589 19.6201 29.8189C19.6501 29.7789 19.6601 29.7389 19.6901 29.6989V29.6789C19.7201 29.6389 19.7401 29.5789 19.7801 29.5389C19.8101 29.4989 19.8401 29.4489 19.8701 29.3989C19.8901 29.3789 19.9101 29.3589 19.9101 29.3489C19.9101 29.3489 19.9301 29.3189 19.9401 29.3089C19.9401 29.2889 19.9701 29.2689 19.9801 29.2589C20.0201 29.1989 20.0701 29.1389 20.1101 29.0889C20.1301 29.0689 20.1501 29.0489 20.1701 29.0289C20.1901 28.9989 20.2101 28.9889 20.2201 28.9689C20.2401 28.9489 20.2601 28.9289 20.2801 28.9089C20.3201 28.8589 20.3801 28.8189 20.4201 28.7789C20.4601 28.7489 20.4801 28.7289 20.5201 28.6989C20.6201 28.6189 20.7201 28.5489 20.8301 28.4889L34.3701 20.6689C34.4901 20.5889 34.6201 20.4989 34.7401 20.3889C34.7801 20.3589 34.8001 20.3389 34.8301 20.3089C34.9501 20.1989 35.0601 20.0889 35.1701 19.9589C35.1701 19.9589 35.1701 19.9389 35.1901 19.9289C35.3101 19.7889 35.4101 19.6289 35.5101 19.4689C35.6101 19.2889 35.7001 19.1089 35.7801 18.9289L37.7901 13.9089C37.7901 13.9089 37.8201 13.8389 37.8301 13.7989C37.8501 13.7489 37.8701 13.6989 37.8901 13.6589C37.9201 13.6189 37.9301 13.5589 37.9601 13.5189C37.9901 13.4789 38.0101 13.4289 38.0401 13.3889V13.3689C38.0401 13.3689 38.0901 13.2889 38.1201 13.2489C38.1601 13.1989 38.1801 13.1489 38.2201 13.1089C38.2601 13.0589 38.2901 12.9989 38.3301 12.9589C38.3501 12.9389 38.3601 12.9189 38.3701 12.9089C38.3701 12.9089 38.3901 12.8889 38.4001 12.8689C38.4201 12.8489 38.4401 12.8289 38.4601 12.7989C38.5101 12.7289 38.5801 12.6689 38.6401 12.5989C38.6701 12.5689 38.7001 12.5489 38.7301 12.5189C38.7601 12.4889 38.7901 12.4789 38.8201 12.4489C38.9401 12.3389 39.0701 12.2489 39.1901 12.1689L50.1201 5.85891C50.1901 5.81891 50.2701 5.77891 50.3401 5.73891C50.3701 5.73891 50.3901 5.73891 50.4201 5.71891C50.4401 5.71891 50.4601 5.69891 50.4701 5.68891C50.5001 5.68891 50.5101 5.68891 50.5301 5.66891C50.5801 5.64891 50.6301 5.63891 50.6801 5.62891H50.7401C50.7401 5.62891 50.7401 5.62891 50.7601 5.62891H50.9101C50.9101 5.62891 50.9701 5.62891 51.0101 5.62891C51.0101 5.62891 51.0168 5.62891 51.0301 5.62891H51.0501C51.0501 5.62891 51.0901 5.62891 51.1001 5.64891C51.1401 5.64891 51.1601 5.66891 51.1901 5.67891C51.2201 5.69891 51.2401 5.70891 51.2701 5.71891L52.9101 6.67891C52.8401 6.63891 52.7601 6.60891 52.6701 6.57891H52.6501C52.5701 6.55891 52.4801 6.55891 52.3901 6.57891H52.3601C52.2701 6.57891 52.1801 6.60891 52.0901 6.62891C52.0601 6.62891 52.0501 6.64891 52.0301 6.65891C51.9301 6.69891 51.8301 6.73891 51.7301 6.78891L40.8101 13.0989C40.6801 13.1689 40.5501 13.2689 40.4301 13.3789L40.3501 13.4589C40.2301 13.5589 40.1201 13.6689 40.0101 13.8089C40.0101 13.8089 39.9901 13.8289 39.9901 13.8389C39.8701 13.9789 39.7601 14.1289 39.6601 14.2989C39.5601 14.4789 39.4701 14.6589 39.3901 14.8389L37.3801 19.8589C37.3801 19.8589 37.3501 19.9189 37.3401 19.9489C37.3101 19.9989 37.3001 20.0489 37.2701 20.0989C37.2501 20.1389 37.2301 20.1889 37.2001 20.2289C37.1701 20.2789 37.1501 20.3289 37.1201 20.3689C37.1201 20.3689 37.1201 20.3756 37.1201 20.3889C37.1201 20.3889 37.0801 20.4789 37.0501 20.5089C37.0101 20.5489 36.9901 20.6089 36.9501 20.6489C36.9101 20.6989 36.8801 20.7489 36.8401 20.7989C36.8201 20.8189 36.8001 20.8389 36.8001 20.8489L36.7701 20.8789C36.7701 20.8789 36.7301 20.9289 36.7101 20.9589C36.6501 21.0289 36.5901 21.0889 36.5201 21.1589C36.4901 21.1889 36.4701 21.1989 36.4301 21.2289C36.4001 21.2589 36.3801 21.2789 36.3501 21.3089C36.2301 21.4189 36.1001 21.5089 35.9701 21.5889L22.4301 29.4089C22.3201 29.4689 22.2301 29.5389 22.1201 29.6189C22.0901 29.6489 22.0601 29.6689 22.0301 29.6989C21.9601 29.7589 21.8901 29.8189 21.8201 29.8989C21.8001 29.9189 21.7801 29.9389 21.7701 29.9589C21.6901 30.0489 21.6101 30.1489 21.5301 30.2389C21.5301 30.2589 21.5101 30.2689 21.5101 30.2789C21.4201 30.3989 21.3501 30.5089 21.2801 30.6389C21.2101 30.7589 21.1501 30.8889 21.0801 31.0189C21.0201 31.1489 20.9701 31.2889 20.9401 31.4189C20.9401 31.4189 20.9401 31.4389 20.9201 31.4489C20.8801 31.5689 20.8601 31.6889 20.8401 31.8089C20.8401 31.8289 20.8401 31.8489 20.8401 31.8589C20.8201 31.9889 20.8001 32.1189 20.8001 32.2389L20.8501 48.3189C20.8501 48.8389 21.0301 49.1989 21.3301 49.3689L19.6901 48.4189L15.8701 46.1989"
                            stroke="#231F20" stroke-width="0.25" stroke-linecap="round" stroke-linejoin="round" />
                    </g>
                </g>
                <defs>
                    <clipPath id="clip0_409_139640">
                        <rect width="52" height="52" fill="white" transform="translate(0 0.5)" />
                    </clipPath>
                </defs>
            </svg>