<svg xmlns="http://www.w3.org/2000/svg" width="1440" height="313" viewBox="0 0 1440 313" fill="none">
  <g opacity="0.04">
    <path d="M40.8497 -225L-23 536C42.1799 337.153 98.9337 -43.0157 264.145 -60.1594C470.659 -81.589 198.978 452.275 379.054 494.138C523.115 527.628 617.244 28.6667 680.761 -225C684.253 14.7125 792.979 494.138 924.27 494.138C1088.38 494.138 897.261 -202.436 1008.5 -207.918C1097.49 -212.304 1245.18 265.057 1257.49 494.138L1464 -187.623" stroke="#05A54B" stroke-width="132"/>
    <path d="M40.8497 -225L-23 536C42.1799 337.153 98.9337 -43.0157 264.145 -60.1594C470.659 -81.589 198.978 452.275 379.054 494.138C523.115 527.628 617.244 28.6667 680.761 -225C684.253 14.7125 792.979 494.138 924.27 494.138C1088.38 494.138 897.261 -202.436 1008.5 -207.918C1097.49 -212.304 1245.18 265.057 1257.49 494.138L1464 -187.623" stroke="url(#paint0_linear_8_27023)" stroke-opacity="0.8" stroke-width="132"/>
    <path d="M40.8497 -225L-23 536C42.1799 337.153 98.9337 -43.0157 264.145 -60.1594C470.659 -81.589 198.978 452.275 379.054 494.138C523.115 527.628 617.244 28.6667 680.761 -225C684.253 14.7125 792.979 494.138 924.27 494.138C1088.38 494.138 897.261 -202.436 1008.5 -207.918C1097.49 -212.304 1245.18 265.057 1257.49 494.138L1464 -187.623" stroke="url(#paint1_linear_8_27023)" stroke-opacity="0.92" stroke-width="132"/>
  </g>
  <defs>
    <linearGradient id="paint0_linear_8_27023" x1="445.32" y1="241.764" x2="-722.313" y2="-411.631" gradientUnits="userSpaceOnUse">
      <stop stop-color="#22282F"/>
      <stop offset="1" stop-color="#22282F" stop-opacity="0"/>
    </linearGradient>
    <linearGradient id="paint1_linear_8_27023" x1="1026.45" y1="731.161" x2="1348.37" y2="-566.552" gradientUnits="userSpaceOnUse">
      <stop stop-color="#22282F"/>
      <stop offset="1" stop-color="#22282F" stop-opacity="0"/>
    </linearGradient>
  </defs>
</svg>