<svg xmlns="http://www.w3.org/2000/svg" width="1440" height="756" viewBox="0 0 1440 756" fill="none">
<path d="M-149.287 0L-224 891C-147.73 658.185 -81.3204 213.072 112 193C353.65 167.91 35.7451 792.973 246.46 841.986C415.031 881.197 525.176 297 599.5 0C603.586 280.662 730.811 841.986 884.44 841.986C1076.48 841.986 852.836 26.4185 983 20C1087.13 14.8652 1259.95 573.772 1274.35 841.986L1516 43.7623" stroke="#05A54B" stroke-width="132"/>
<path d="M-149.287 0L-224 891C-147.73 658.185 -81.3204 213.072 112 193C353.65 167.91 35.7451 792.973 246.46 841.986C415.031 881.197 525.176 297 599.5 0C603.586 280.662 730.811 841.986 884.44 841.986C1076.48 841.986 852.836 26.4185 983 20C1087.13 14.8652 1259.95 573.772 1274.35 841.986L1516 43.7623" stroke="url(#paint0_linear_2521_217088)" stroke-opacity="0.8" stroke-width="132"/>
<path d="M-149.287 0L-224 891C-147.73 658.185 -81.3204 213.072 112 193C353.65 167.91 35.7451 792.973 246.46 841.986C415.031 881.197 525.176 297 599.5 0C603.586 280.662 730.811 841.986 884.44 841.986C1076.48 841.986 852.836 26.4185 983 20C1087.13 14.8652 1259.95 573.772 1274.35 841.986L1516 43.7623" stroke="url(#paint1_linear_2521_217088)" stroke-opacity="0.92" stroke-width="132"/>
<defs>
<linearGradient id="paint0_linear_2521_217088" x1="324" y1="546.5" x2="-1042.68" y2="-217.829" gradientUnits="userSpaceOnUse">
<stop stop-color="#22282F"/>
<stop offset="1" stop-color="#22282F" stop-opacity="0"/>
</linearGradient>
<linearGradient id="paint1_linear_2521_217088" x1="1004" y1="1119.5" x2="1381.11" y2="-399.795" gradientUnits="userSpaceOnUse">
<stop stop-color="#22282F"/>
<stop offset="1" stop-color="#22282F" stop-opacity="0"/>
</linearGradient>
</defs>
</svg>