<svg width="420" height="350" viewBox="0 0 420 350" fill="none" xmlns="http://www.w3.org/2000/svg">
<g clip-path="url(#clip0_1407_21447)">
<mask id="mask0_1407_21447" style="mask-type:luminance" maskUnits="userSpaceOnUse" x="63" y="64" width="251" height="228">
<path d="M313.056 64.1172H63.5V291.208H313.056V64.1172Z" fill="white"/>
</mask>
<g mask="url(#mask0_1407_21447)">
<path d="M201.625 290.939C198.477 290.976 195.324 290.185 192.494 288.582C186.838 285.38 181.183 282.173 175.528 278.966C140.919 259.348 106.31 239.724 71.7004 220.106C69.4942 218.857 68.2405 216.415 68.5149 213.891C69.3274 206.412 70.1345 198.932 70.947 191.453C71.4636 191.572 71.9802 191.69 72.4967 191.808H74.154C75.3539 192.067 76.5538 192.325 77.7537 192.578C77.1941 192.341 76.6076 192.061 75.9996 191.738C75.2086 191.319 74.4984 190.888 73.8688 190.468C72.9864 189.947 72.1039 189.419 71.2215 188.897C72.3407 178.545 73.4653 168.192 74.5845 157.834C115.678 180.853 156.771 203.872 197.864 226.891C198.698 227.354 199.655 227.494 200.565 227.3C200.92 248.511 201.27 269.722 201.625 290.939Z" fill="#A29D80"/>
<path d="M201.625 290.939C198.477 290.976 195.324 290.185 192.494 288.582C186.838 285.38 181.183 282.173 175.528 278.966C140.919 259.348 106.31 239.724 71.7004 220.106C69.4942 218.857 68.2405 216.415 68.5149 213.891C69.3274 206.412 70.1345 198.932 70.947 191.453C71.4636 191.572 71.9802 191.69 72.4967 191.808H74.154C75.3539 192.067 76.5538 192.325 77.7537 192.578C77.1941 192.341 76.6076 192.061 75.9996 191.738C75.2086 191.319 74.4984 190.888 73.8688 190.468C72.9864 189.947 72.1039 189.419 71.2215 188.897C72.3407 178.545 73.4653 168.192 74.5845 157.834C115.678 180.853 156.771 203.872 197.864 226.891C198.698 227.354 199.655 227.494 200.565 227.3C200.92 248.511 201.27 269.722 201.625 290.939Z" stroke="#231F20" stroke-width="0.538079" stroke-linecap="round" stroke-linejoin="round"/>
<path d="M303.43 233.224C299.787 235.392 296.15 237.561 292.507 239.724C271.334 252.326 250.16 264.927 228.992 277.529C225.688 279.499 222.379 281.468 219.07 283.432C216.293 285.089 213.517 286.741 210.741 288.393C207.932 290.066 204.784 290.911 201.625 290.938C201.27 269.722 200.921 248.511 200.565 227.3C200.958 227.219 201.346 227.074 201.706 226.869C235.051 207.73 268.401 188.59 301.746 169.445L306.588 227.09C306.793 229.565 305.572 231.949 303.43 233.224Z" fill="#383A37"/>
<path d="M292.506 239.725C271.333 252.326 250.16 264.928 228.992 277.53C225.688 279.499 222.379 281.469 219.069 283.433C219.123 281.668 219.172 279.903 219.22 278.143C243.428 263.54 267.636 248.942 291.844 234.344C292.065 236.141 292.286 237.933 292.506 239.725Z" fill="#8E8557"/>
<path d="M292.506 239.725C271.333 252.326 250.16 264.928 228.992 277.53C225.688 279.499 222.379 281.469 219.069 283.433C219.123 281.668 219.172 279.903 219.22 278.143C243.428 263.54 267.636 248.942 291.844 234.344C292.065 236.141 292.286 237.933 292.506 239.725Z" stroke="#231F20" stroke-width="0.538079" stroke-linecap="round" stroke-linejoin="round"/>
<path d="M303.43 233.224C299.233 235.72 295.041 238.217 290.844 240.714C289.973 229.527 289.101 218.341 288.235 207.154C287.218 207.73 270.726 217.055 253.216 226.955C252.716 227.24 241.395 233.643 240.894 233.929C239.775 232.729 237.967 232.454 236.547 233.261C235.132 234.069 234.448 235.753 234.9 237.319L218.204 246.767C218.989 258.696 219.775 270.62 220.56 282.549C217.289 284.497 214.017 286.445 210.741 288.393C207.932 290.066 204.784 290.911 201.625 290.938C201.27 269.722 200.921 248.511 200.565 227.3C200.958 227.219 201.346 227.074 201.706 226.869C206.581 224.071 211.462 221.273 216.337 218.475C239.56 205.141 262.783 191.813 286.007 178.48C291.253 175.472 296.499 172.459 301.746 169.445C303.36 188.66 304.974 207.875 306.588 227.09C306.793 229.565 305.572 231.949 303.43 233.224Z" fill="#FCF7DB"/>
<path d="M303.43 233.224C299.233 235.72 295.041 238.217 290.844 240.714C289.973 229.527 289.101 218.341 288.235 207.154C276.564 213.756 264.887 220.353 253.216 226.955C248.718 228.247 243.461 230.151 237.854 233.014C229.261 237.394 222.772 242.522 218.204 246.767C218.989 258.696 219.775 270.62 220.56 282.549C217.289 284.497 214.017 286.445 210.741 288.393C207.932 290.066 204.784 290.911 201.625 290.938C201.27 269.722 200.921 248.511 200.565 227.3C200.958 227.219 201.346 227.074 201.706 226.869C206.581 224.071 211.462 221.273 216.337 218.475C239.56 205.141 262.783 191.813 286.007 178.48C291.253 175.472 296.499 172.459 301.746 169.445C303.36 188.66 304.974 207.875 306.588 227.09C306.793 229.565 305.572 231.949 303.43 233.224Z" stroke="#231F20" stroke-width="0.538079" stroke-linecap="round" stroke-linejoin="round"/>
<path d="M303.43 233.224C299.787 235.392 296.15 237.561 292.507 239.724C271.334 252.326 250.16 264.927 228.992 277.529C225.688 279.499 222.379 281.468 219.07 283.432C216.293 285.089 213.517 286.741 210.741 288.393C207.932 290.066 204.784 290.911 201.625 290.938C201.27 269.722 200.921 248.511 200.565 227.3C200.958 227.219 201.346 227.074 201.706 226.869C235.051 207.73 268.401 188.59 301.746 169.445L306.588 227.09C306.793 229.565 305.572 231.949 303.43 233.224Z" stroke="#231F20" stroke-width="0.538079" stroke-linecap="round" stroke-linejoin="round"/>
<path d="M294.508 238.535C293.287 239.262 292.066 239.988 290.844 240.715C289.23 219.966 287.616 199.229 286.007 178.481C287.282 177.749 288.557 177.017 289.833 176.285C291.393 197.039 292.948 217.787 294.508 238.535Z" fill="#508A17"/>
<path d="M294.508 238.535C293.287 239.262 292.066 239.988 290.844 240.715C289.23 219.966 287.616 199.229 286.007 178.481C287.282 177.749 288.557 177.017 289.833 176.285C291.393 197.039 292.948 217.787 294.508 238.535Z" stroke="#231F20" stroke-width="0.538079" stroke-linecap="round" stroke-linejoin="round"/>
<path d="M288.234 207.155C272.312 216.157 256.396 225.159 240.48 234.166C239.974 233.892 239.581 233.854 239.285 233.892C238.994 233.929 238.779 234.042 238.343 234.005C237.741 233.956 237.579 233.687 237.256 233.779C236.95 233.86 236.934 234.134 236.487 234.866C235.9 235.807 235.588 235.883 235.513 236.41C235.492 236.55 235.486 236.733 235.54 236.959C229.761 240.23 223.982 243.497 218.203 246.768C217.896 242.049 217.584 237.336 217.272 232.622C216.96 227.903 216.648 223.189 216.336 218.476C239.559 205.142 262.783 191.814 286.006 178.48C286.749 188.042 287.491 197.598 288.234 207.155Z" fill="#FFFDF3"/>
<path d="M220.63 233.299C241.733 221.193 262.837 209.091 283.946 196.984C283.666 197.657 283.391 198.324 283.112 198.997C282.396 200.729 281.121 202.177 279.496 203.108C262.272 212.976 245.043 222.85 227.819 232.718C225.639 233.967 223.024 234.182 220.668 233.31L220.63 233.294V233.299Z" fill="#DFDBBD"/>
<path d="M220.398 227.983C241.502 215.876 262.605 203.775 283.714 191.668C283.434 192.341 283.16 193.008 282.88 193.68C282.164 195.413 280.889 196.86 279.264 197.791C262.04 207.66 244.811 217.533 227.587 227.402C225.408 228.65 222.793 228.865 220.436 227.994L220.398 227.978V227.983Z" fill="#DFDBBD"/>
<path d="M288.234 207.155C272.312 216.157 256.396 225.159 240.48 234.166C239.974 233.892 239.581 233.854 239.285 233.892C238.994 233.929 238.779 234.042 238.343 234.005C237.741 233.956 237.579 233.687 237.256 233.779C236.95 233.86 236.934 234.134 236.487 234.866C235.9 235.807 235.588 235.883 235.513 236.41C235.492 236.55 235.486 236.733 235.54 236.959C229.761 240.23 223.982 243.497 218.203 246.768C217.896 242.049 217.584 237.336 217.272 232.622C216.96 227.903 216.648 223.189 216.336 218.476C239.559 205.142 262.783 191.814 286.006 178.48C286.421 183.748 286.83 189.021 287.239 194.289C287.572 198.578 287.906 202.866 288.234 207.155Z" stroke="#231F20" stroke-width="0.538079" stroke-linecap="round" stroke-linejoin="round"/>
<path d="M310.801 137.952C267.362 113.593 223.923 89.2398 180.489 64.881C179.343 64.2406 177.955 64.2191 176.787 64.8218L65.8678 122.423C63.1236 123.849 63.059 127.761 65.7602 129.273C111.002 154.616 156.244 179.96 201.485 205.309C202.68 205.976 204.138 205.965 205.327 205.287L310.834 144.721C313.454 143.22 313.438 139.432 310.801 137.952ZM300.432 143.909C268.25 162.381 236.062 180.853 203.88 199.331C202.793 199.955 201.458 199.96 200.366 199.347C158.961 176.156 117.561 152.959 76.1613 129.768C73.6861 128.385 73.7453 124.807 76.2581 123.499L177.767 70.7891C178.832 70.2348 180.102 70.2564 181.151 70.8429C220.899 93.1301 260.652 115.417 300.4 137.71C302.816 139.061 302.832 142.531 300.432 143.909Z" fill="#FFFDF3"/>
<path d="M310.801 137.952C267.362 113.593 223.923 89.2398 180.489 64.881C179.343 64.2406 177.955 64.2191 176.787 64.8218L65.8678 122.423C63.1236 123.849 63.059 127.761 65.7602 129.273C111.002 154.616 156.244 179.96 201.485 205.309C202.68 205.976 204.138 205.965 205.327 205.287L310.834 144.721C313.454 143.22 313.438 139.432 310.801 137.952ZM300.432 143.909C268.25 162.381 236.062 180.853 203.88 199.331C202.793 199.955 201.458 199.96 200.366 199.347C158.961 176.156 117.561 152.959 76.1613 129.768C73.6861 128.385 73.7453 124.807 76.2581 123.499L177.767 70.7891C178.832 70.2348 180.102 70.2564 181.151 70.8429C220.899 93.1301 260.652 115.417 300.4 137.71C302.816 139.061 302.832 142.531 300.432 143.909Z" stroke="#231F20" stroke-width="0.538079" stroke-linecap="round" stroke-linejoin="round"/>
<path d="M300.433 143.908C296.951 145.904 293.475 147.9 289.994 149.902C290.387 148.546 289.887 146.97 288.482 146.184C252.63 126.081 216.778 105.979 180.926 85.8761C180.457 85.6124 179.936 85.4779 179.419 85.4671C179.44 80.4415 179.462 75.4104 179.489 70.3848C180.065 70.4009 180.635 70.5516 181.152 70.8421C220.899 93.1294 260.653 115.417 300.401 137.709C302.817 139.06 302.833 142.53 300.433 143.908Z" fill="#FCF7DB"/>
<path d="M300.433 143.908C296.951 145.904 293.475 147.9 289.994 149.902C290.387 148.546 289.887 146.97 288.482 146.184C252.63 126.081 216.778 105.979 180.926 85.8761C180.457 85.6124 179.936 85.4779 179.419 85.4671C179.44 80.4415 179.462 75.4104 179.489 70.3848C180.065 70.4009 180.635 70.5516 181.152 70.8421C220.899 93.1294 260.653 115.417 300.401 137.709C302.817 139.06 302.833 142.53 300.433 143.908Z" stroke="#231F20" stroke-width="0.538079" stroke-linecap="round" stroke-linejoin="round"/>
<path d="M289.994 149.902C261.293 166.373 232.581 182.849 203.88 199.33C202.793 199.954 201.458 199.96 200.366 199.346C161.899 177.802 123.432 156.246 84.9697 134.702C85.2549 134.158 85.7069 133.69 86.3203 133.373L177.874 85.828C178.359 85.5751 178.891 85.4567 179.419 85.4675C179.935 85.4782 180.457 85.6127 180.925 85.8764C216.777 105.979 252.63 126.082 288.482 146.184C289.886 146.97 290.387 148.546 289.994 149.902Z" fill="#A6A183"/>
<path d="M179.489 70.3854C179.462 75.411 179.44 80.4421 179.419 85.4677C178.891 85.4569 178.359 85.5753 177.874 85.8282L86.3203 133.373C85.7069 133.69 85.2549 134.158 84.9697 134.702C82.0318 133.055 79.0993 131.414 76.1614 129.768C73.6862 128.385 73.7454 124.807 76.2582 123.499L177.767 70.7889C178.305 70.5091 178.897 70.3746 179.489 70.3854Z" fill="#DFDBBD"/>
<path d="M289.994 149.902C261.293 166.373 232.581 182.849 203.88 199.33C202.793 199.954 201.458 199.96 200.366 199.346C161.899 177.802 123.432 156.246 84.9697 134.702C85.2549 134.158 85.7069 133.69 86.3203 133.373L177.874 85.828C178.359 85.5751 178.891 85.4567 179.419 85.4675C179.935 85.4782 180.457 85.6127 180.925 85.8764C216.777 105.979 252.63 126.082 288.482 146.184C289.886 146.97 290.387 148.546 289.994 149.902Z" stroke="#231F20" stroke-width="0.538079" stroke-linecap="round" stroke-linejoin="round"/>
<path d="M179.489 70.3854C179.462 75.411 179.44 80.4421 179.419 85.4677C178.891 85.4569 178.359 85.5753 177.874 85.8282L113.499 119.259L103.081 124.667L91.6957 130.58L87.2889 132.867L86.3203 133.373C85.7069 133.69 85.2549 134.158 84.9697 134.702C84.1034 134.218 83.2371 133.733 82.3708 133.244C81.9673 133.018 81.5583 132.792 81.1548 132.566C79.4921 131.635 77.8294 130.699 76.1614 129.768C73.6862 128.385 73.7454 124.807 76.2582 123.499L177.767 70.7889C178.305 70.5091 178.897 70.3746 179.489 70.3854Z" stroke="#231F20" stroke-width="0.538079" stroke-linecap="round" stroke-linejoin="round"/>
<path d="M124.12 129.902C122.14 130.053 120.165 130.204 118.185 130.354C113.972 130.677 109.764 131 105.551 131.317C101.397 131.635 97.2378 131.952 93.0838 132.27C91.3136 132.404 89.5487 132.539 87.7784 132.673C86.1373 132.803 84.5015 132.926 82.8604 133.05" stroke="white" stroke-width="0.403559" stroke-linecap="round" stroke-linejoin="round"/>
<path d="M117.68 116.725C116.512 117.23 115.344 117.736 114.177 118.247C110.658 119.776 107.133 121.304 103.614 122.832C99.724 124.521 95.8337 126.211 91.9434 127.901C88.5104 129.391 85.0775 130.881 81.6445 132.372" stroke="white" stroke-width="0.403559" stroke-linecap="round" stroke-linejoin="round"/>
<path d="M119.827 146.249C118.411 145.797 117.002 145.34 115.586 144.888C111.965 143.726 108.339 142.563 104.717 141.401C100.935 140.19 97.1573 138.974 93.3746 137.764L88.4512 136.182" stroke="white" stroke-width="0.403559" stroke-linecap="round" stroke-linejoin="round"/>
<path d="M90.7217 124.92C90.7916 125.286 90.8939 125.711 91.066 126.163C91.3297 126.873 91.6579 127.433 91.9485 127.852C91.9485 127.869 91.9431 127.885 91.9431 127.901C91.8785 128.412 91.8301 129.338 92.1853 130.387C92.1906 130.414 92.196 130.435 92.2068 130.462C92.4812 131.237 92.8794 131.797 93.1753 132.152C93.1538 132.179 93.1215 132.216 93.0838 132.27C92.7987 132.657 92.1207 133.728 92.2821 135.176C92.4382 136.559 93.2668 137.414 93.5143 137.651C93.482 137.678 93.4336 137.715 93.3744 137.764C93.1968 137.915 92.9224 138.173 92.6372 138.528" stroke="white" stroke-width="0.403559" stroke-linecap="round" stroke-linejoin="round"/>
<path d="M101.112 117.15C101.284 118.033 101.597 119.163 102.188 120.395C102.651 121.358 103.162 122.133 103.625 122.741C103.62 122.768 103.62 122.8 103.614 122.833C103.571 123.284 103.544 123.839 103.571 124.479C103.593 125.313 103.706 126.287 103.98 127.336C104.411 128.994 105.094 130.263 105.632 131.097C105.605 131.167 105.578 131.243 105.551 131.318C105.229 132.179 104.933 133.191 104.728 134.337C104.239 137.167 104.551 139.578 104.911 141.181C104.852 141.246 104.787 141.321 104.717 141.402C104.341 141.848 103.857 142.558 103.598 143.532C103.501 143.893 103.448 144.243 103.426 144.576" stroke="white" stroke-width="0.403559" stroke-linecap="round" stroke-linejoin="round"/>
<path d="M110.749 109.951C110.776 110.936 110.937 112.529 111.691 114.32C112.465 116.144 113.52 117.393 114.22 118.098C114.209 118.141 114.193 118.195 114.177 118.248C114.117 118.464 114.047 118.738 113.988 119.066C113.746 120.298 113.585 122.257 114.29 124.463C115.328 127.719 117.588 129.473 118.357 130.016C118.298 130.129 118.244 130.242 118.185 130.355C117.561 131.598 116.942 133.089 116.458 134.821C115.355 138.76 115.436 142.214 115.699 144.523C115.662 144.641 115.624 144.765 115.586 144.889C115.226 146.083 114.892 147.611 114.795 149.414C114.768 149.941 114.763 150.447 114.779 150.931" stroke="white" stroke-width="0.403559" stroke-linecap="round" stroke-linejoin="round"/>
<path d="M312.781 141.596C312.776 150.323 312.77 159.04 312.77 167.768C312.786 167.988 312.786 168.214 312.77 168.44V168.467H312.765C312.652 169.651 312.012 170.792 310.833 171.47C275.664 191.659 240.496 211.847 205.327 232.031C204.643 232.423 203.874 232.59 203.115 232.536V205.799C203.874 205.848 204.643 205.675 205.327 205.288L310.833 144.722C312.055 144.022 312.7 142.823 312.781 141.596Z" fill="#FCF7DB"/>
<path d="M203.115 205.798V232.535C202.55 232.498 201.996 232.336 201.485 232.051C156.243 206.708 111.002 181.364 65.7599 156.021C64.3609 155.235 63.7098 153.804 63.7852 152.41C63.7852 143.65 63.7744 134.885 63.7744 126.125C63.8551 127.363 64.5116 128.579 65.7599 129.273C111.002 154.616 156.243 179.96 201.485 205.309C201.996 205.594 202.55 205.755 203.115 205.798Z" fill="#DFDBBD"/>
<path d="M312.781 141.595C312.776 150.322 312.77 159.039 312.77 167.767C312.787 167.988 312.787 168.214 312.77 168.44V168.466H312.765C312.652 169.65 312.012 170.791 310.833 171.469C275.664 191.658 240.496 211.846 205.327 232.03C204.138 232.713 202.679 232.718 201.485 232.051C156.243 206.708 111.002 181.364 65.7599 156.021C64.3609 155.235 63.7098 153.804 63.7852 152.41C63.7852 143.65 63.7744 134.885 63.7744 126.125C63.8551 127.363 64.5116 128.579 65.7599 129.273C111.002 154.616 156.243 179.96 201.485 205.309C202.679 205.976 204.138 205.965 205.327 205.287L310.833 144.721C312.055 144.022 312.7 142.822 312.781 141.595Z" stroke="#231F20" stroke-width="0.538079" stroke-linecap="round" stroke-linejoin="round"/>
<path d="M248.658 224.147C252.484 221.914 256.304 219.681 260.13 217.453C260.13 219.525 259.027 221.44 257.241 222.484C255.341 223.587 253.447 224.696 251.548 225.799C250.272 226.541 248.669 225.627 248.658 224.147Z" fill="#DFDBBD"/>
<path d="M248.658 224.147C252.484 221.914 256.304 219.681 260.13 217.453C260.13 219.525 259.027 221.44 257.241 222.484C255.341 223.587 253.447 224.696 251.548 225.799C250.272 226.541 248.669 225.627 248.658 224.147Z" stroke="#231F20" stroke-width="0.538079" stroke-linecap="round" stroke-linejoin="round"/>
<path d="M220.398 227.618C241.502 215.511 262.605 203.41 283.714 191.303" stroke="#231F20" stroke-width="0.538079" stroke-linecap="round" stroke-linejoin="round"/>
<path d="M220.63 233.299C241.733 221.193 262.837 209.091 283.946 196.984" stroke="#231F20" stroke-width="0.538079" stroke-linecap="round" stroke-linejoin="round"/>
<path d="M178.762 237.281C177.298 238.933 175.867 240.547 174.463 242.129C172.768 242.888 171.1 243.635 169.459 244.373C169.259 246.633 169.066 248.849 168.872 251.018C170.449 253.342 172.014 255.645 173.559 257.921C176.109 258.637 178.681 259.364 181.286 260.095C183.034 258.201 184.831 256.253 186.677 254.252C186.828 252.342 186.984 250.399 187.14 248.424C188.889 248.145 190.659 247.859 192.451 247.574C190.546 246.703 188.646 245.836 186.758 244.97C186.091 242.575 185.407 240.143 184.718 237.674C182.711 237.539 180.726 237.41 178.757 237.275L178.762 237.281Z" fill="#E3DFC1"/>
<path d="M170.341 248.404C174.527 250.766 178.713 253.134 182.9 255.496" stroke="white" stroke-width="0.538079" stroke-linecap="round" stroke-linejoin="round"/>
<path d="M175.378 246.342V251.007" stroke="white" stroke-width="0.538079" stroke-linecap="round" stroke-linejoin="round"/>
<path d="M176.459 245.795C179.537 247.533 182.615 249.271 185.692 251.009" stroke="white" stroke-width="0.538079" stroke-linecap="round" stroke-linejoin="round"/>
<path d="M178.762 237.281C177.298 238.933 175.867 240.547 174.463 242.129C172.768 242.888 171.1 243.635 169.459 244.373C169.259 246.633 169.066 248.849 168.872 251.018C170.449 253.342 172.014 255.645 173.559 257.921C176.109 258.637 178.681 259.364 181.286 260.095C183.034 258.201 184.831 256.253 186.677 254.252C186.828 252.342 186.984 250.399 187.14 248.424C188.889 248.145 190.659 247.859 192.451 247.574C190.546 246.703 188.646 245.836 186.758 244.97C186.091 242.575 185.407 240.143 184.718 237.674C182.711 237.539 180.726 237.41 178.757 237.275L178.762 237.281Z" stroke="#231F20" stroke-width="0.538079" stroke-linecap="round" stroke-linejoin="round"/>
<path d="M175.798 256.942C178.004 257.561 180.226 258.185 182.47 258.82C182.072 259.251 181.679 259.676 181.291 260.095C178.687 259.364 176.11 258.642 173.565 257.921C172.015 255.645 170.455 253.342 168.878 251.018C169.066 248.844 169.26 246.633 169.459 244.373C171.1 243.635 172.774 242.888 174.469 242.123C175.868 240.547 177.304 238.927 178.768 237.275C179.193 237.302 179.623 237.335 180.054 237.361C178.918 238.642 177.805 239.907 176.707 241.144C175.007 241.903 173.339 242.651 171.697 243.388C171.498 245.648 171.305 247.865 171.111 250.033C172.693 252.363 174.253 254.661 175.798 256.942Z" fill="#A6A183"/>
<path d="M175.798 256.942C178.004 257.561 180.226 258.185 182.47 258.82C182.072 259.251 181.679 259.676 181.291 260.095C178.687 259.364 176.11 258.642 173.565 257.921C172.015 255.645 170.455 253.342 168.878 251.018C169.066 248.844 169.26 246.633 169.459 244.373C171.1 243.635 172.774 242.888 174.469 242.123C175.868 240.547 177.304 238.927 178.768 237.275C179.193 237.302 179.623 237.335 180.054 237.361C178.918 238.642 177.805 239.907 176.707 241.144C175.007 241.903 173.339 242.651 171.697 243.388C171.498 245.648 171.305 247.865 171.111 250.033C172.693 252.363 174.253 254.661 175.798 256.942Z" stroke="#231F20" stroke-width="0.538079" stroke-linecap="round" stroke-linejoin="round"/>
<mask id="mask1_1407_21447" style="mask-type:luminance" maskUnits="userSpaceOnUse" x="88" y="245" width="46" height="36">
<path d="M133.23 245.988H88.79V280.861H133.23V245.988Z" fill="white"/>
</mask>
<g mask="url(#mask1_1407_21447)">
<path d="M96.1777 249.556C104.948 244.804 118.723 245.251 126.913 250.443C131.11 253.096 133.047 256.497 132.762 259.817C132.762 259.951 132.74 260.086 132.719 260.226C132.697 260.355 132.676 260.484 132.649 260.613C132.606 260.855 132.546 261.092 132.471 261.323C132.428 261.501 132.369 261.668 132.31 261.835C132.304 261.856 132.299 261.878 132.288 261.894C132.224 262.082 132.143 262.26 132.057 262.443C132.057 262.453 132.051 262.464 132.041 262.48C131.96 262.658 131.879 262.83 131.782 263.013C131.675 263.207 131.551 263.4 131.427 263.6C131.347 263.734 131.26 263.863 131.169 263.987L130.97 264.261C130.868 264.401 130.76 264.541 130.642 264.676C130.491 264.859 130.33 265.036 130.168 265.208C130.012 265.364 129.861 265.526 129.705 265.682C129.684 265.693 129.668 265.714 129.652 265.73C129.469 265.902 129.275 266.075 129.081 266.236C128.731 266.537 128.344 266.833 127.941 267.124C127.871 267.172 127.795 267.221 127.72 267.275C127.569 267.377 127.413 267.479 127.252 267.581C126.961 267.77 126.665 267.953 126.353 268.125C117.905 272.898 104.222 272.752 95.7473 267.689C93.0407 266.069 91.2059 264.159 90.232 262.152C90.1674 262.018 90.1082 261.878 90.049 261.743C89.9845 261.576 89.9145 261.404 89.8607 261.237C89.7531 260.963 89.6777 260.683 89.6078 260.398C89.5701 260.237 89.5432 260.075 89.5109 259.919C89.4894 259.768 89.4733 259.628 89.4571 259.483C89.441 259.338 89.4249 259.203 89.4195 259.063V259.026C89.3979 258.811 89.4033 258.606 89.4195 258.391C89.4195 258.127 89.4464 257.864 89.4894 257.6C89.5056 257.465 89.5325 257.336 89.554 257.202C89.6078 256.938 89.6724 256.674 89.7531 256.416C89.7961 256.287 89.8392 256.152 89.8876 256.029C89.9791 255.76 90.0974 255.501 90.2212 255.243C90.345 254.996 90.4795 254.743 90.6355 254.49C90.8615 254.102 91.1198 253.737 91.4157 253.376C91.518 253.247 91.6094 253.134 91.7171 253.021C91.8193 252.903 91.9323 252.779 92.0453 252.66C92.1529 252.547 92.2605 252.434 92.3789 252.321C92.3789 252.321 92.3789 252.316 92.3897 252.305C93.4066 251.31 94.6657 250.384 96.1939 249.561H96.1777V249.556Z" fill="#383A37"/>
<path d="M96.1777 249.556C104.948 244.804 118.723 245.251 126.913 250.443C131.11 253.096 133.047 256.497 132.762 259.817C132.762 259.951 132.74 260.086 132.719 260.226C132.697 260.355 132.676 260.484 132.649 260.613C132.606 260.855 132.546 261.092 132.471 261.323C132.428 261.501 132.369 261.668 132.31 261.835C132.304 261.856 132.299 261.878 132.288 261.894C132.224 262.082 132.143 262.26 132.057 262.443C132.057 262.453 132.051 262.464 132.041 262.48C131.96 262.658 131.879 262.83 131.782 263.013C131.675 263.207 131.551 263.4 131.427 263.6C131.347 263.734 131.26 263.863 131.169 263.987L130.97 264.261C130.868 264.401 130.76 264.541 130.642 264.676C130.491 264.859 130.33 265.036 130.168 265.208C130.012 265.364 129.861 265.526 129.705 265.682C129.684 265.693 129.668 265.714 129.652 265.73C129.469 265.902 129.275 266.075 129.081 266.236C128.732 266.537 128.344 266.833 127.941 267.124C127.871 267.172 127.795 267.221 127.72 267.275C127.569 267.377 127.413 267.479 127.252 267.581C126.961 267.77 126.665 267.953 126.353 268.125C117.905 272.898 104.222 272.752 95.7473 267.689C93.0407 266.069 91.2059 264.159 90.232 262.152C90.1674 262.018 90.1082 261.878 90.049 261.743C89.9845 261.576 89.9145 261.404 89.8607 261.237C89.7531 260.963 89.6777 260.683 89.6078 260.398C89.5701 260.237 89.5432 260.075 89.5109 259.919C89.4894 259.768 89.4733 259.628 89.4571 259.483C89.441 259.338 89.4249 259.203 89.4195 259.063V259.026C89.3979 258.811 89.4033 258.606 89.4195 258.391C89.4195 258.127 89.4464 257.864 89.4894 257.6C89.5056 257.465 89.5325 257.336 89.554 257.202C89.6078 256.938 89.6724 256.674 89.7531 256.416C89.7961 256.287 89.8392 256.152 89.8876 256.029C89.9791 255.76 90.0974 255.501 90.2212 255.243C90.345 254.996 90.4795 254.743 90.6355 254.49C90.8615 254.102 91.1198 253.737 91.4157 253.376C91.518 253.247 91.6094 253.134 91.7171 253.021C91.8193 252.903 91.9323 252.779 92.0453 252.66C92.1529 252.547 92.2605 252.434 92.3789 252.321C92.3789 252.321 92.3789 252.316 92.3897 252.305C93.4066 251.31 94.6657 250.384 96.1939 249.561H96.1777V249.556Z" stroke="#231F20" stroke-width="0.538079" stroke-miterlimit="10"/>
<path d="M105.261 255.271C106.042 254.851 106.924 254.529 107.86 254.319C110.459 253.721 113.462 253.926 115.824 254.884C116.34 255.094 116.83 255.336 117.277 255.621C119.391 256.961 120.037 258.795 119.241 260.404C118.853 261.19 118.121 261.927 117.056 262.53C113.758 264.392 108.409 264.338 105.095 262.358C104.54 262.024 104.083 261.663 103.712 261.281C101.845 259.334 102.372 256.842 105.267 255.276H105.261V255.271Z" fill="#F9D917"/>
<path d="M105.261 255.271C106.042 254.851 106.924 254.529 107.86 254.319C110.459 253.721 113.462 253.926 115.824 254.884C116.34 255.094 116.83 255.336 117.277 255.621C119.391 256.961 120.037 258.795 119.241 260.404C118.853 261.19 118.121 261.927 117.056 262.53C113.758 264.392 108.409 264.338 105.095 262.358C104.54 262.024 104.083 261.663 103.712 261.281C101.845 259.334 102.372 256.842 105.267 255.276H105.261V255.271Z" stroke="#231F20" stroke-width="0.538079" stroke-miterlimit="10"/>
<path d="M108.29 255.958C109.35 255.452 110.528 255.199 111.68 255.264C112.901 255.334 114.101 255.759 115.129 256.442C116.754 257.529 117.943 259.246 118.061 261.183C117.728 261.861 117.104 262.49 116.184 263.007C113.348 264.61 108.758 264.562 105.912 262.861C105.438 262.576 105.04 262.264 104.722 261.936C104.674 261.592 104.663 261.242 104.69 260.881C104.841 258.643 106.364 256.878 108.295 255.958H108.29Z" fill="#E7E6D7"/>
<path d="M108.29 255.958C109.35 255.452 110.528 255.199 111.68 255.264C112.901 255.334 114.101 255.759 115.129 256.442C116.754 257.529 117.943 259.246 118.061 261.183C117.728 261.861 117.104 262.49 116.184 263.007C113.348 264.61 108.758 264.562 105.912 262.861C105.438 262.576 105.04 262.264 104.722 261.936C104.674 261.592 104.663 261.242 104.69 260.881C104.841 258.643 106.364 256.878 108.295 255.958H108.29Z" stroke="#231F20" stroke-width="0.538079" stroke-miterlimit="10"/>
<path d="M132.961 263.939C132.95 265.43 132.886 266.845 132.784 268.174C132.784 268.389 132.778 268.604 132.757 268.814C132.757 268.949 132.735 269.083 132.714 269.223C132.692 269.347 132.671 269.482 132.644 269.611C132.595 269.847 132.542 270.084 132.466 270.321C132.423 270.498 132.359 270.665 132.305 270.832C132.305 270.854 132.294 270.875 132.283 270.891C132.219 271.08 132.138 271.257 132.052 271.44C132.052 271.451 132.052 271.462 132.036 271.478C131.955 271.655 131.874 271.833 131.772 272.01C131.664 272.204 131.541 272.398 131.412 272.597C131.336 272.732 131.25 272.861 131.153 272.984L130.954 273.259C130.847 273.393 130.739 273.539 130.626 273.673C130.475 273.856 130.319 274.034 130.152 274.206C130.002 274.367 129.846 274.523 129.69 274.679C129.668 274.69 129.652 274.706 129.641 274.728C129.458 274.9 129.265 275.072 129.071 275.234C128.721 275.535 128.334 275.831 127.93 276.116C127.855 276.164 127.785 276.213 127.71 276.267C127.559 276.369 127.403 276.471 127.241 276.568C126.951 276.756 126.655 276.939 126.343 277.111C117.895 281.884 104.212 281.744 95.737 276.676C93.0304 275.056 91.1956 273.146 90.2217 271.139C90.1571 271.004 90.0979 270.864 90.0387 270.73C89.9741 270.563 89.9042 270.391 89.8504 270.229C89.7428 269.955 89.6674 269.675 89.5975 269.39C89.5598 269.229 89.5329 269.067 89.506 268.911C89.4845 268.76 89.4683 268.621 89.4522 268.475C89.1993 266.716 89.0271 264.644 89.0756 262.33C89.1132 260.775 89.237 259.339 89.4253 258.053C89.4253 258.166 89.4092 258.279 89.4092 258.392C89.393 258.607 89.3876 258.811 89.4092 259.027C89.4092 259.037 89.4145 259.048 89.4092 259.064C89.4092 259.204 89.4307 259.339 89.4468 259.484C89.463 259.624 89.4845 259.769 89.5006 259.92C89.5329 260.071 89.5598 260.237 89.5921 260.393C89.6621 260.679 89.7428 260.958 89.845 261.233C89.8988 261.4 89.9688 261.566 90.0333 261.733C90.0925 261.873 90.1517 262.008 90.2163 262.142C91.1902 264.149 93.0251 266.065 95.7316 267.679C104.206 272.748 117.895 272.888 126.338 268.115C126.655 267.937 126.946 267.76 127.236 267.571C127.398 267.474 127.554 267.367 127.704 267.27C127.78 267.222 127.855 267.168 127.925 267.119C128.328 266.829 128.71 266.538 129.066 266.237C129.265 266.075 129.453 265.903 129.636 265.731C129.652 265.715 129.668 265.693 129.684 265.683C129.727 265.64 129.765 265.597 129.808 265.554C129.926 265.435 130.039 265.322 130.147 265.209C130.314 265.037 130.475 264.859 130.621 264.676C130.734 264.542 130.841 264.402 130.949 264.257L131.148 263.982C131.239 263.864 131.325 263.729 131.406 263.595C131.53 263.401 131.654 263.208 131.767 263.008C131.864 262.831 131.944 262.659 132.03 262.481C132.036 262.465 132.041 262.454 132.047 262.443C132.133 262.26 132.213 262.083 132.278 261.889C132.289 261.873 132.299 261.852 132.299 261.835C132.359 261.663 132.418 261.496 132.461 261.319C132.536 261.087 132.595 260.851 132.638 260.609C132.665 260.474 132.687 260.345 132.708 260.221C132.73 260.081 132.746 259.947 132.751 259.812C132.778 259.5 132.789 259.188 132.773 258.876C132.891 260.447 132.961 262.137 132.95 263.929L132.961 263.939Z" fill="#0B1107"/>
<path d="M132.961 263.939C132.95 265.43 132.886 266.845 132.784 268.174C132.784 268.389 132.778 268.604 132.757 268.814C132.757 268.949 132.735 269.083 132.714 269.223C132.692 269.347 132.671 269.482 132.644 269.611C132.595 269.847 132.542 270.084 132.466 270.321C132.423 270.498 132.359 270.665 132.305 270.832C132.305 270.854 132.294 270.875 132.283 270.891C132.219 271.08 132.138 271.257 132.052 271.44C132.052 271.451 132.052 271.462 132.036 271.478C131.955 271.655 131.874 271.833 131.772 272.01C131.664 272.204 131.541 272.398 131.412 272.597C131.336 272.732 131.25 272.861 131.153 272.984L130.954 273.259C130.847 273.393 130.739 273.539 130.626 273.673C130.475 273.856 130.319 274.034 130.152 274.206C130.002 274.367 129.846 274.523 129.69 274.679C129.668 274.69 129.652 274.706 129.641 274.728C129.458 274.9 129.265 275.072 129.071 275.234C128.721 275.535 128.334 275.831 127.93 276.116C127.855 276.164 127.785 276.213 127.71 276.267C127.559 276.369 127.403 276.471 127.241 276.568C126.951 276.756 126.655 276.939 126.343 277.111C117.895 281.884 104.212 281.744 95.737 276.676C93.0304 275.056 91.1956 273.146 90.2217 271.139C90.1571 271.004 90.0979 270.864 90.0387 270.73C89.9741 270.563 89.9042 270.391 89.8504 270.229C89.7428 269.955 89.6674 269.675 89.5975 269.39C89.5598 269.229 89.5329 269.067 89.506 268.911C89.4845 268.76 89.4683 268.621 89.4522 268.475C89.1993 266.716 89.0271 264.644 89.0756 262.33C89.1132 260.775 89.237 259.339 89.4253 258.053C89.4253 258.166 89.4092 258.279 89.4092 258.392C89.393 258.607 89.3876 258.811 89.4092 259.027C89.4092 259.037 89.4145 259.048 89.4092 259.064C89.4092 259.204 89.4307 259.339 89.4468 259.484C89.463 259.624 89.4845 259.769 89.5006 259.92C89.5329 260.071 89.5598 260.237 89.5921 260.393C89.6621 260.679 89.7428 260.958 89.845 261.233C89.8988 261.4 89.9688 261.566 90.0333 261.733C90.0925 261.873 90.1517 262.008 90.2163 262.142C91.1902 264.149 93.0251 266.065 95.7316 267.679C104.206 272.748 117.895 272.888 126.338 268.115C126.655 267.937 126.946 267.76 127.236 267.571C127.398 267.474 127.554 267.367 127.704 267.27C127.78 267.222 127.855 267.168 127.925 267.119C128.328 266.829 128.71 266.538 129.066 266.237C129.265 266.075 129.453 265.903 129.636 265.731C129.652 265.715 129.668 265.693 129.684 265.683C129.727 265.64 129.765 265.597 129.808 265.554C129.926 265.435 130.039 265.322 130.147 265.209C130.314 265.037 130.475 264.859 130.621 264.676C130.734 264.542 130.841 264.402 130.949 264.257L131.148 263.982C131.239 263.864 131.325 263.729 131.406 263.595C131.53 263.401 131.654 263.208 131.767 263.008C131.864 262.831 131.944 262.659 132.03 262.481C132.036 262.465 132.041 262.454 132.047 262.443C132.133 262.26 132.213 262.083 132.278 261.889C132.289 261.873 132.299 261.852 132.299 261.835C132.359 261.663 132.418 261.496 132.461 261.319C132.536 261.087 132.595 260.851 132.638 260.609C132.665 260.474 132.687 260.345 132.708 260.221C132.73 260.081 132.746 259.947 132.751 259.812C132.778 259.5 132.789 259.188 132.773 258.876C132.891 260.447 132.961 262.137 132.95 263.929L132.961 263.939Z" stroke="#231F20" stroke-width="0.538079" stroke-miterlimit="10"/>
</g>
</g>
</g>
<g clip-path="url(#clip1_1407_21447)">
<path d="M99.3039 248.375C98.8412 238.41 105.228 226.196 113.461 221.079C117.674 218.453 121.575 218.184 124.443 219.884C124.567 219.949 124.68 220.019 124.793 220.099C124.9 220.169 125.008 220.25 125.11 220.331C125.309 220.476 125.498 220.632 125.67 220.799C125.81 220.917 125.933 221.041 126.063 221.17C126.079 221.186 126.095 221.197 126.106 221.213C126.246 221.353 126.375 221.504 126.498 221.66C126.509 221.665 126.515 221.676 126.525 221.692C126.654 221.843 126.773 221.993 126.891 222.16C127.02 222.343 127.139 222.537 127.262 222.736C127.349 222.865 127.429 223 127.499 223.14L127.661 223.436C127.741 223.586 127.822 223.748 127.892 223.909C127.989 224.124 128.08 224.345 128.166 224.571C128.242 224.781 128.317 224.985 128.392 225.195C128.392 225.217 128.403 225.243 128.414 225.265C128.489 225.502 128.559 225.749 128.624 225.997C128.742 226.443 128.844 226.917 128.925 227.407C128.936 227.493 128.952 227.579 128.963 227.67C128.99 227.848 129.017 228.036 129.033 228.224C129.076 228.569 129.113 228.913 129.135 229.274C129.765 238.954 123.69 251.217 115.441 256.651C112.81 258.384 110.286 259.207 108.058 259.212C107.908 259.212 107.757 259.207 107.612 259.202C107.429 259.191 107.251 259.175 107.074 259.153C106.783 259.132 106.498 259.078 106.207 259.013C106.046 258.976 105.89 258.927 105.739 258.89C105.594 258.841 105.46 258.798 105.325 258.75C105.19 258.701 105.061 258.653 104.932 258.599C104.921 258.594 104.911 258.594 104.9 258.583C104.701 258.507 104.513 258.416 104.324 258.308C104.087 258.19 103.861 258.05 103.641 257.899C103.528 257.83 103.42 257.749 103.313 257.668C103.097 257.507 102.893 257.329 102.694 257.146C102.592 257.049 102.495 256.952 102.403 256.856C102.204 256.656 102.016 256.436 101.838 256.215C101.666 256 101.499 255.763 101.343 255.516C101.096 255.144 100.875 254.752 100.676 254.327C100.606 254.181 100.541 254.041 100.488 253.896C100.423 253.751 100.359 253.595 100.305 253.444C100.251 253.299 100.192 253.154 100.143 252.998C100.143 252.998 100.14 252.992 100.133 252.981C99.6752 251.631 99.39 250.097 99.3147 248.365L99.3039 248.375Z" fill="#383A37"/>
<path d="M99.3039 248.375C98.8412 238.41 105.228 226.196 113.461 221.079C117.674 218.453 121.575 218.184 124.443 219.884C124.567 219.949 124.68 220.019 124.793 220.099C124.9 220.169 125.008 220.25 125.11 220.331C125.309 220.476 125.498 220.632 125.67 220.799C125.81 220.917 125.933 221.041 126.063 221.17C126.079 221.186 126.095 221.197 126.106 221.213C126.246 221.353 126.375 221.504 126.498 221.66C126.509 221.665 126.515 221.676 126.525 221.692C126.654 221.843 126.773 221.993 126.891 222.16C127.02 222.343 127.139 222.537 127.262 222.736C127.349 222.865 127.429 223 127.499 223.14L127.661 223.436C127.741 223.586 127.822 223.748 127.892 223.909C127.989 224.124 128.08 224.345 128.166 224.571C128.242 224.781 128.317 224.985 128.392 225.195C128.392 225.217 128.403 225.243 128.414 225.265C128.489 225.502 128.559 225.749 128.624 225.997C128.742 226.443 128.844 226.917 128.925 227.407C128.936 227.493 128.952 227.579 128.963 227.67C128.99 227.848 129.017 228.036 129.033 228.224C129.076 228.569 129.113 228.913 129.135 229.274C129.765 238.954 123.69 251.217 115.441 256.651C112.81 258.384 110.286 259.207 108.058 259.212C107.908 259.212 107.757 259.207 107.612 259.202C107.429 259.191 107.251 259.175 107.074 259.153C106.783 259.132 106.498 259.078 106.207 259.013C106.046 258.976 105.89 258.927 105.739 258.89C105.594 258.841 105.46 258.798 105.325 258.75C105.19 258.701 105.061 258.653 104.932 258.599C104.921 258.594 104.911 258.594 104.9 258.583C104.701 258.507 104.513 258.416 104.324 258.308C104.087 258.19 103.861 258.05 103.641 257.899C103.528 257.83 103.42 257.749 103.313 257.668C103.097 257.507 102.893 257.329 102.694 257.146C102.592 257.049 102.495 256.952 102.403 256.856C102.204 256.656 102.016 256.436 101.838 256.215C101.666 256 101.499 255.763 101.343 255.516C101.096 255.144 100.875 254.752 100.676 254.327C100.606 254.181 100.541 254.041 100.488 253.896C100.423 253.751 100.359 253.595 100.305 253.444C100.251 253.299 100.192 253.154 100.143 252.998C100.143 252.998 100.14 252.992 100.133 252.981C99.6752 251.631 99.39 250.097 99.3147 248.365L99.3039 248.375Z" stroke="#231F20" stroke-width="0.538079" stroke-miterlimit="10"/>
<path d="M108.398 242.672C108.36 241.784 108.452 240.848 108.667 239.917C109.259 237.318 110.749 234.703 112.633 232.992C113.047 232.616 113.477 232.282 113.924 232.007C116.049 230.684 117.981 230.899 119.09 232.32C119.633 233.008 119.977 233.988 120.053 235.209C120.3 238.992 117.922 243.786 114.699 245.906C114.161 246.261 113.633 246.519 113.128 246.686C110.561 247.52 108.549 245.965 108.393 242.678L108.398 242.672Z" fill="#F9D917"/>
<path d="M108.398 242.672C108.36 241.784 108.452 240.848 108.667 239.917C109.259 237.318 110.749 234.703 112.633 232.992C113.047 232.616 113.477 232.282 113.924 232.007C116.049 230.684 117.981 230.899 119.09 232.32C119.633 233.008 119.977 233.988 120.053 235.209C120.3 238.992 117.922 243.786 114.699 245.906C114.161 246.261 113.633 246.519 113.128 246.686C110.561 247.52 108.549 245.965 108.393 242.678L108.398 242.672Z" stroke="#231F20" stroke-width="0.538079" stroke-miterlimit="10"/>
<path d="M110.335 240.246C110.335 239.067 110.626 237.9 111.18 236.894C111.772 235.823 112.681 234.93 113.741 234.3C115.425 233.305 117.491 232.982 119.289 233.719C119.751 234.311 120.047 235.15 120.117 236.205C120.327 239.455 118.288 243.571 115.522 245.395C115.059 245.702 114.607 245.917 114.171 246.062C113.843 245.955 113.52 245.815 113.208 245.637C111.26 244.529 110.33 242.393 110.34 240.251L110.335 240.246Z" fill="#E7E6D7"/>
<path d="M110.335 240.246C110.335 239.067 110.626 237.9 111.18 236.894C111.772 235.823 112.681 234.93 113.741 234.3C115.425 233.305 117.491 232.982 119.289 233.719C119.751 234.311 120.047 235.15 120.117 236.205C120.327 239.455 118.288 243.571 115.522 245.395C115.059 245.702 114.607 245.917 114.171 246.062C113.843 245.955 113.52 245.815 113.208 245.637C111.26 244.529 110.33 242.393 110.34 240.251L110.335 240.246Z" stroke="#231F20" stroke-width="0.538079" stroke-miterlimit="10"/>
<path d="M128.242 221.492C129.582 222.148 130.83 222.821 131.982 223.488C132.175 223.58 132.364 223.682 132.546 223.79C132.67 223.854 132.778 223.924 132.896 224.005C132.998 224.075 133.111 224.155 133.219 224.236C133.413 224.381 133.601 224.532 133.779 224.704C133.919 224.817 134.042 224.946 134.166 225.076C134.188 225.092 134.198 225.102 134.209 225.124C134.349 225.264 134.478 225.415 134.602 225.571C134.613 225.581 134.618 225.587 134.629 225.597C134.753 225.748 134.876 225.899 134.995 226.066C135.124 226.249 135.242 226.448 135.366 226.641C135.452 226.77 135.527 226.9 135.603 227.04L135.764 227.335C135.84 227.492 135.926 227.653 135.996 227.809C136.098 228.024 136.189 228.245 136.27 228.471C136.345 228.675 136.421 228.885 136.496 229.095C136.496 229.117 136.507 229.138 136.518 229.16C136.593 229.402 136.663 229.644 136.727 229.897C136.851 230.343 136.943 230.817 137.029 231.306C137.039 231.393 137.056 231.479 137.066 231.57C137.093 231.753 137.12 231.936 137.136 232.124C137.179 232.469 137.217 232.813 137.239 233.174C137.868 242.854 131.793 255.122 123.544 260.551C120.913 262.284 118.39 263.107 116.162 263.112C116.011 263.112 115.861 263.107 115.715 263.102C115.538 263.091 115.349 263.075 115.177 263.053C114.887 263.032 114.602 262.978 114.311 262.919C114.15 262.881 113.994 262.833 113.837 262.795C113.698 262.746 113.558 262.703 113.423 262.655C111.728 262.117 109.786 261.374 107.73 260.325C106.347 259.615 105.11 258.878 104.028 258.151C104.125 258.205 104.227 258.264 104.33 258.313C104.518 258.42 104.701 258.512 104.9 258.587C104.911 258.587 104.927 258.587 104.932 258.598C105.061 258.657 105.191 258.7 105.325 258.748C105.46 258.797 105.594 258.84 105.739 258.888C105.89 258.926 106.051 258.974 106.208 259.012C106.493 259.071 106.783 259.125 107.074 259.147C107.246 259.168 107.429 259.179 107.612 259.195C107.763 259.206 107.913 259.211 108.059 259.206C110.292 259.2 112.81 258.377 115.441 256.645C123.684 251.215 129.765 238.947 129.135 229.267C129.114 228.907 129.081 228.568 129.033 228.218C129.017 228.03 128.99 227.847 128.963 227.664C128.952 227.572 128.936 227.486 128.925 227.4C128.839 226.916 128.742 226.437 128.624 225.99C128.565 225.743 128.495 225.495 128.414 225.253C128.409 225.232 128.398 225.21 128.393 225.189C128.371 225.129 128.349 225.076 128.333 225.022C128.28 224.866 128.226 224.715 128.167 224.564C128.086 224.338 127.994 224.118 127.897 223.908C127.822 223.746 127.747 223.585 127.666 223.434L127.505 223.138C127.435 223.004 127.354 222.869 127.268 222.74C127.144 222.541 127.026 222.347 126.897 222.165C126.778 221.998 126.66 221.852 126.531 221.696C126.52 221.68 126.509 221.675 126.504 221.669C126.375 221.513 126.251 221.363 126.106 221.223C126.095 221.207 126.084 221.191 126.068 221.18C125.939 221.051 125.815 220.922 125.675 220.809C125.503 220.636 125.309 220.486 125.116 220.34C125.008 220.26 124.9 220.179 124.793 220.109C124.674 220.028 124.561 219.953 124.443 219.894C124.174 219.732 123.894 219.593 123.609 219.469C125.078 220.044 126.628 220.712 128.242 221.503V221.492Z" fill="#0B1107"/>
<path d="M128.242 221.492C129.582 222.148 130.83 222.821 131.982 223.488C132.175 223.58 132.364 223.682 132.546 223.79C132.67 223.854 132.778 223.924 132.896 224.005C132.998 224.075 133.111 224.155 133.219 224.236C133.413 224.381 133.601 224.532 133.779 224.704C133.919 224.817 134.042 224.946 134.166 225.076C134.188 225.092 134.198 225.102 134.209 225.124C134.349 225.264 134.478 225.415 134.602 225.571C134.613 225.581 134.618 225.587 134.629 225.597C134.753 225.748 134.876 225.899 134.995 226.066C135.124 226.249 135.242 226.448 135.366 226.641C135.452 226.77 135.527 226.9 135.603 227.04L135.764 227.335C135.84 227.492 135.926 227.653 135.996 227.809C136.098 228.024 136.189 228.245 136.27 228.471C136.345 228.675 136.421 228.885 136.496 229.095C136.496 229.117 136.507 229.138 136.518 229.16C136.593 229.402 136.663 229.644 136.727 229.897C136.851 230.343 136.943 230.817 137.029 231.306C137.039 231.393 137.056 231.479 137.066 231.57C137.093 231.753 137.12 231.936 137.136 232.124C137.179 232.469 137.217 232.813 137.239 233.174C137.868 242.854 131.793 255.122 123.544 260.551C120.913 262.284 118.39 263.107 116.162 263.112C116.011 263.112 115.861 263.107 115.715 263.102C115.538 263.091 115.349 263.075 115.177 263.053C114.887 263.032 114.602 262.978 114.311 262.919C114.15 262.881 113.994 262.833 113.837 262.795C113.698 262.746 113.558 262.703 113.423 262.655C111.728 262.117 109.786 261.374 107.73 260.325C106.347 259.615 105.11 258.878 104.028 258.151C104.125 258.205 104.227 258.264 104.33 258.313C104.518 258.42 104.701 258.512 104.9 258.587C104.911 258.587 104.927 258.587 104.932 258.598C105.061 258.657 105.191 258.7 105.325 258.748C105.46 258.797 105.594 258.84 105.739 258.888C105.89 258.926 106.051 258.974 106.208 259.012C106.493 259.071 106.783 259.125 107.074 259.147C107.246 259.168 107.429 259.179 107.612 259.195C107.763 259.206 107.913 259.211 108.059 259.206C110.292 259.2 112.81 258.377 115.441 256.645C123.684 251.215 129.765 238.947 129.135 229.267C129.114 228.907 129.081 228.568 129.033 228.218C129.017 228.03 128.99 227.847 128.963 227.664C128.952 227.572 128.936 227.486 128.925 227.4C128.839 226.916 128.742 226.437 128.624 225.99C128.565 225.743 128.495 225.495 128.414 225.253C128.409 225.232 128.398 225.21 128.393 225.189C128.371 225.129 128.349 225.076 128.333 225.022C128.28 224.866 128.226 224.715 128.167 224.564C128.086 224.338 127.994 224.118 127.897 223.908C127.822 223.746 127.747 223.585 127.666 223.434L127.505 223.138C127.435 223.004 127.354 222.869 127.268 222.74C127.144 222.541 127.026 222.347 126.897 222.165C126.778 221.998 126.66 221.852 126.531 221.696C126.52 221.68 126.509 221.675 126.504 221.669C126.375 221.513 126.251 221.363 126.106 221.223C126.095 221.207 126.084 221.191 126.068 221.18C125.939 221.051 125.815 220.922 125.675 220.809C125.503 220.636 125.309 220.486 125.116 220.34C125.008 220.26 124.9 220.179 124.793 220.109C124.674 220.028 124.561 219.953 124.443 219.894C124.174 219.732 123.894 219.593 123.609 219.469C125.078 220.044 126.628 220.712 128.242 221.503V221.492Z" stroke="#231F20" stroke-width="0.538079" stroke-miterlimit="10"/>
</g>
<g clip-path="url(#clip2_1407_21447)">
<path d="M347.035 140.864C333.304 108.8 297.322 92.1248 266.437 103.446C235.4 114.816 220.921 150.248 234.335 182.764C247.851 215.539 284.43 232.66 315.789 220.833C346.998 209.06 360.88 173.181 347.041 140.864H347.035ZM312.367 212.794C311.216 213.23 310.053 213.618 308.886 213.962C282.654 221.716 253.248 207.015 242.083 179.945C230.509 151.884 243.003 121.31 269.783 111.501C270.042 111.41 270.3 111.313 270.558 111.221C297.032 102.015 327.595 116.387 339.33 143.791C351.27 171.674 339.292 202.641 312.362 212.794H312.367Z" fill="#BFF661"/>
<path opacity="0.62" d="M312.367 212.8C311.215 213.236 310.053 213.623 308.885 213.967C282.654 221.721 253.248 207.021 242.077 179.95C237.127 167.951 236.584 155.489 239.667 144.394C235.206 156.452 235.211 170.507 240.77 183.975C251.935 211.051 281.341 225.746 307.572 217.992C308.74 217.648 309.902 217.26 311.054 216.819C326.217 211.105 336.634 198.788 340.718 184.142C335.956 196.996 326.104 207.613 312.356 212.794L312.367 212.8ZM347.035 140.864C333.303 108.8 297.322 92.1248 266.436 103.446C248.809 109.903 236.519 124.13 231.649 141.176C237.202 125.938 248.906 113.411 265.129 107.465C296.014 96.1497 331.996 112.825 345.727 144.889C351.829 159.137 352.545 174.08 348.757 187.338C353.939 173.122 353.761 156.571 347.035 140.864ZM312.367 212.8C311.215 213.236 310.053 213.623 308.885 213.967C282.654 221.721 253.248 207.021 242.077 179.95C237.127 167.951 236.584 155.489 239.667 144.394C235.206 156.452 235.211 170.507 240.77 183.975C251.935 211.051 281.341 225.746 307.572 217.992C308.74 217.648 309.902 217.26 311.054 216.819C326.217 211.105 336.634 198.788 340.718 184.142C335.956 196.996 326.104 207.613 312.356 212.794L312.367 212.8Z" fill="white"/>
<path d="M347.035 140.864C333.304 108.8 297.322 92.1248 266.437 103.446C235.4 114.816 220.921 150.248 234.335 182.764C247.851 215.539 284.43 232.66 315.789 220.833C346.998 209.06 360.88 173.181 347.041 140.864H347.035ZM312.367 212.794C311.216 213.23 310.053 213.618 308.886 213.962C282.654 221.716 253.248 207.015 242.083 179.945C230.509 151.884 243.003 121.31 269.783 111.501C270.042 111.41 270.3 111.313 270.558 111.221C297.032 102.015 327.595 116.387 339.33 143.791C351.27 171.674 339.292 202.641 312.362 212.794H312.367Z" stroke="black" stroke-width="0.538079" stroke-miterlimit="10"/>
<path d="M312.367 212.799C311.216 213.234 310.054 213.622 308.886 213.966C331.033 201.122 339.987 172.809 328.962 147.062C318.701 123.096 294.331 108.896 270.559 111.226C297.032 102.019 327.595 116.391 339.33 143.795C351.27 171.679 339.293 202.645 312.362 212.799H312.367Z" fill="#508A17"/>
<path d="M312.367 212.799C311.216 213.234 310.054 213.622 308.886 213.966C331.033 201.122 339.987 172.809 328.962 147.062C318.701 123.096 294.331 108.896 270.559 111.226C297.032 102.019 327.595 116.391 339.33 143.795C351.27 171.679 339.293 202.645 312.362 212.799H312.367Z" stroke="black" stroke-width="0.538079" stroke-miterlimit="10"/>
<path opacity="0.35" d="M334.574 188.128C328.515 202.118 317.398 209.867 308.929 213.951C308.918 213.956 308.902 213.961 308.891 213.961C282.66 221.715 253.254 207.015 242.083 179.944C239.818 174.456 238.473 168.87 237.983 163.36C237.94 162.903 237.902 162.446 237.875 161.983C236.525 140.966 247.491 121.304 266.679 112.76C276.004 110.408 289.041 109.327 302.924 115.089C310.419 118.199 316.295 122.526 320.842 127.029C321.907 128.084 322.897 129.144 323.817 130.204C325.534 132.179 327.014 134.132 328.273 135.988C331.996 141.471 333.836 146.072 334.407 147.552C336.365 152.658 342.58 169.634 334.568 188.128H334.574Z" fill="#BFF661"/>
<path opacity="0.62" d="M320.841 127.031C311.21 128.226 299.711 130.539 287.217 134.989C265.339 142.786 248.992 154.091 237.983 163.362C237.94 162.905 237.902 162.447 237.875 161.985C246.237 151.993 263.332 135.253 289.805 128.957C301.933 126.079 312.716 126.176 320.847 127.026L320.841 127.031Z" fill="white"/>
<path opacity="0.62" d="M328.272 135.989C319.453 137.023 309.596 138.717 299.017 141.435C282.519 145.675 268.572 151.298 257.396 156.727C264.574 151.368 274.421 145.094 286.937 139.874C301.137 133.955 314.035 131.367 323.817 130.205C325.533 132.18 327.013 134.133 328.272 135.989Z" fill="white"/>
<path d="M327.497 214.784C325.614 216.14 323.736 217.491 321.853 218.841C320.911 219.568 319.937 220.267 318.942 220.935C318.904 220.961 318.861 220.994 318.823 221.021C315.321 223.361 311.495 225.347 307.357 226.907C275.992 238.734 239.419 221.607 225.903 188.838C222.497 180.6 220.888 172.168 220.888 163.99C220.888 145.006 229.551 127.384 244.563 116.612C244.606 116.58 244.649 116.547 244.698 116.52C244.698 116.52 244.708 116.51 244.719 116.504C246.952 114.912 249.18 113.313 251.413 111.721C231.106 127.422 223.325 156.075 234.334 182.763C247.851 215.538 284.429 232.659 315.789 220.832C320.018 219.24 323.93 217.2 327.497 214.784Z" fill="#508A17"/>
<path d="M327.497 214.784C325.614 216.14 323.736 217.491 321.853 218.841C320.911 219.568 319.937 220.267 318.942 220.935C318.904 220.961 318.861 220.994 318.823 221.021C315.321 223.361 311.495 225.347 307.357 226.907C275.992 238.734 239.419 221.607 225.903 188.838C222.497 180.6 220.888 172.168 220.888 163.99C220.888 145.006 229.551 127.384 244.563 116.612C244.606 116.58 244.649 116.547 244.698 116.52C244.698 116.52 244.708 116.51 244.719 116.504C246.952 114.912 249.18 113.313 251.413 111.721C231.106 127.422 223.325 156.075 234.334 182.763C247.851 215.538 284.429 232.659 315.789 220.832C320.018 219.24 323.93 217.2 327.497 214.784Z" stroke="black" stroke-width="0.538079" stroke-miterlimit="10"/>
<path d="M369.215 330.106C368.645 331.763 366.848 336.261 362.161 339.345C362.123 339.366 362.091 339.393 362.053 339.415C354.488 344.306 346.094 341.212 345.195 340.857C330.796 302.793 316.403 264.735 302.004 226.676C302.246 226.079 302.682 225.1 303.403 223.997C307.578 223.41 311.727 222.366 315.789 220.833C317.603 220.144 319.362 219.38 321.057 218.535C321.461 218.675 321.735 218.788 321.854 218.836C325.841 228.199 329.828 237.562 333.81 246.924C345.61 274.646 357.415 302.373 369.215 330.1V330.106Z" fill="#508A17"/>
<path opacity="0.47" d="M369.215 330.105C368.645 331.762 366.847 336.26 362.161 339.344C362.123 339.365 362.091 339.392 362.053 339.414C351.222 310.304 340.39 281.183 329.559 252.067C328.482 249.167 331.049 246.428 333.809 246.929C345.609 274.65 357.415 302.378 369.215 330.105Z" fill="#BFF661"/>
<path d="M369.215 330.106C368.645 331.769 366.848 336.267 362.161 339.35C354.569 344.338 346.099 341.212 345.195 340.862C330.796 302.799 316.403 264.74 302.004 226.677C302.246 226.079 302.682 225.1 303.403 224.003C307.578 223.416 311.727 222.367 315.789 220.839C317.603 220.155 319.362 219.386 321.057 218.541C321.461 218.681 321.735 218.794 321.854 218.842C337.641 255.932 353.428 293.016 369.215 330.106Z" stroke="black" stroke-width="0.538079" stroke-miterlimit="10"/>
</g>
<g clip-path="url(#clip3_1407_21447)">
<mask id="mask2_1407_21447" style="mask-type:luminance" maskUnits="userSpaceOnUse" x="135" y="13" width="80" height="95">
<path d="M214.657 13H135.064V107.922H214.657V13Z" fill="white"/>
</mask>
<g mask="url(#mask2_1407_21447)">
<path d="M214.389 46.5323C214.378 61.7438 205.209 77.6279 192.344 86.7968C188.335 93.6895 184.332 100.577 180.328 107.47C177.278 104.128 174.216 100.787 171.165 97.4561C170.25 96.4607 169.346 95.4652 168.432 94.4698C166.505 94.3352 164.654 93.9909 162.916 93.4582C161.819 93.1299 160.759 92.7264 159.747 92.2367C158.832 91.8009 157.955 91.3112 157.11 90.7624C156.981 90.6817 156.857 90.601 156.728 90.5203C155.146 89.4333 153.704 88.1366 152.434 86.6515C148.566 82.1316 146.295 75.8522 146.284 68.2815C146.268 48.6685 161.485 27.8879 180.302 21.8668C186.484 19.892 192.29 19.7575 197.289 21.1673C198.774 21.5816 200.194 22.1358 201.529 22.8353C209.369 26.8386 214.394 35.2757 214.383 46.5377H214.389V46.5323Z" fill="#FFFDF3"/>
<path d="M214.389 46.5323C214.378 61.7438 205.209 77.6279 192.344 86.7968C188.335 93.6895 184.332 100.577 180.328 107.47C177.278 104.128 174.216 100.787 171.165 97.4561C170.25 96.4607 169.346 95.4652 168.432 94.4698C166.505 94.3352 164.654 93.9909 162.916 93.4582C161.819 93.1299 160.759 92.7264 159.747 92.2367C158.832 91.8009 157.955 91.3112 157.11 90.7624C156.981 90.6817 156.857 90.601 156.728 90.5203C155.146 89.4333 153.704 88.1366 152.434 86.6515C148.566 82.1316 146.295 75.8522 146.284 68.2815C146.268 48.6685 161.485 27.8879 180.302 21.8668C186.484 19.892 192.29 19.7575 197.289 21.1673C198.774 21.5816 200.194 22.1358 201.529 22.8353C209.369 26.8386 214.394 35.2757 214.383 46.5377H214.389V46.5323Z" stroke="black" stroke-width="0.538079" stroke-miterlimit="10"/>
<path d="M201.55 22.8205C201.55 22.8205 201.539 22.8312 201.534 22.8312C200.205 22.1317 198.779 21.5829 197.294 21.1632C192.295 19.7534 186.495 19.888 180.307 21.8627C161.49 27.8838 146.273 48.6644 146.289 68.2774C146.3 75.8482 148.571 82.1329 152.44 86.6474C153.709 88.1325 155.146 89.4293 156.733 90.5162C153.828 88.6437 150.922 86.7658 148.017 84.904C148.017 84.8933 148.027 84.8879 148.027 84.8879C140.295 80.8361 135.35 72.4798 135.334 61.3308C135.318 41.7178 150.545 20.9318 169.362 14.9107C178.187 12.0858 186.236 13.0275 192.284 16.8478V16.837C195.373 18.8279 198.461 20.8296 201.545 22.8205H201.55Z" fill="#FCF7DB"/>
<path d="M201.55 22.8205C201.55 22.8205 201.539 22.8312 201.534 22.8312C200.205 22.1317 198.779 21.5829 197.294 21.1632C192.295 19.7534 186.495 19.888 180.307 21.8627C161.49 27.8838 146.273 48.6644 146.289 68.2774C146.3 75.8482 148.571 82.1329 152.44 86.6474C153.709 88.1325 155.146 89.4293 156.733 90.5162C153.828 88.6437 150.922 86.7658 148.017 84.904C148.017 84.8933 148.027 84.8879 148.027 84.8879C140.295 80.8361 135.35 72.4798 135.334 61.3308C135.318 41.7178 150.545 20.9318 169.362 14.9107C178.187 12.0858 186.236 13.0275 192.284 16.8478V16.837C195.373 18.8279 198.461 20.8296 201.545 22.8205H201.55Z" stroke="black" stroke-width="0.538079" stroke-miterlimit="10"/>
<path d="M180.328 107.47C176.68 105.151 173.031 102.832 169.383 100.518C167.231 98.1613 165.073 95.8099 162.921 93.4531C164.659 93.9858 166.505 94.3302 168.436 94.4647C169.351 95.4602 170.255 96.4556 171.17 97.451C174.221 100.782 177.282 104.123 180.333 107.465H180.328V107.47Z" fill="#FCF7DB"/>
<path d="M180.328 107.47C176.68 105.151 173.031 102.832 169.383 100.518C167.231 98.1613 165.073 95.8099 162.921 93.4531C164.659 93.9858 166.505 94.3302 168.436 94.4647C169.351 95.4602 170.255 96.4556 171.17 97.451C174.221 100.782 177.282 104.123 180.333 107.465H180.328V107.47Z" stroke="black" stroke-width="0.538079" stroke-linecap="round" stroke-linejoin="round"/>
<path d="M164.563 80.2883L165.639 79.9439C166.78 79.578 167.705 78.3189 167.705 77.1298V72.0449L162.491 73.7076V78.7924C162.491 79.9816 163.422 80.6542 164.563 80.2883Z" fill="#0B1107"/>
<path d="M194.91 70.6135L195.986 70.2691C197.127 69.9032 198.058 68.6441 198.058 67.4496V62.3594L192.844 64.022V69.1123C192.844 70.3068 193.769 70.974 194.91 70.6081V70.6135Z" fill="#0B1107"/>
<path d="M164.563 80.2883L165.639 79.9439C166.78 79.578 167.705 78.3189 167.705 77.1298V72.0449L162.491 73.7076V78.7924C162.491 79.9816 163.422 80.6542 164.563 80.2883Z" stroke="#231F20" stroke-width="0.538079" stroke-miterlimit="10"/>
<path d="M194.91 70.6135L195.986 70.2691C197.127 69.9032 198.058 68.6441 198.058 67.4496V62.3594L192.844 64.022V69.1123C192.844 70.3068 193.769 70.974 194.91 70.6081V70.6135Z" stroke="#231F20" stroke-width="0.538079" stroke-miterlimit="10"/>
<path d="M197.358 49.1479L199.468 48.4753V47.0117L197.358 47.6843V49.1479Z" fill="#BFF661"/>
<path d="M197.358 49.1479L199.468 48.4753V47.0117L197.358 47.6843V49.1479Z" stroke="#231F20" stroke-width="0.538079" stroke-miterlimit="10"/>
<path d="M206.075 45.1346V46.1301C206.075 47.104 205.29 48.1263 204.359 48.3685L200.722 49.3155C199.866 49.5415 199.193 49.0142 199.193 48.1156V47.5506C199.193 46.652 199.866 45.6996 200.722 45.3714L204.359 43.9939C205.29 43.6388 206.075 44.1661 206.075 45.1346Z" fill="#BFF661"/>
<path d="M206.075 45.6191V46.1357C206.075 47.1096 205.29 48.132 204.359 48.3741L200.722 49.3211C199.866 49.5471 199.193 49.0198 199.193 48.1212V47.7499C200.044 47.7499 201.19 47.6585 202.551 47.2388C203.966 46.8083 205.166 46.1841 206.075 45.6191Z" fill="#93C42A"/>
<path d="M200.721 49.3146L204.358 48.3676C205.289 48.1254 206.07 47.1031 206.075 46.1346V45.1391C206.075 44.1652 205.295 43.6432 204.364 43.9984L200.726 45.3759C199.865 45.6987 199.198 46.6565 199.198 47.5551V48.1201C199.198 49.0187 199.871 49.5406 200.726 49.32H200.721V49.3146Z" stroke="#231F20" stroke-width="0.538079" stroke-miterlimit="10"/>
<path d="M163.277 60.0339L161.173 60.7065V59.2429L163.277 58.5703V60.0339Z" fill="#BFF661"/>
<path d="M163.277 60.0339L161.173 60.7065V59.2429L163.277 58.5703V60.0339Z" stroke="#231F20" stroke-width="0.538079" stroke-miterlimit="10"/>
<path d="M161.442 59.6037V60.1687C161.442 61.0673 160.775 62.0197 159.919 62.3425L156.287 63.7146C155.356 64.0698 154.576 63.5424 154.576 62.5739V61.5784C154.576 60.6099 155.356 59.5876 156.287 59.3454L159.919 58.4038C160.775 58.1778 161.447 58.7051 161.447 59.6037H161.442Z" fill="#BFF661"/>
<path d="M161.442 60.0117V60.1678C161.442 61.0664 160.775 62.0187 159.919 62.3416L156.287 63.7137C155.356 64.0688 154.576 63.5415 154.576 62.573V62.0995C155.27 62.0726 156.072 61.9865 156.965 61.7874C158.779 61.3784 160.317 60.652 161.442 60.0117Z" fill="#93C42A"/>
<path d="M159.919 62.3427L156.287 63.7202C155.362 64.0699 154.576 63.548 154.576 62.5794V61.584C154.576 60.6154 155.356 59.5931 156.282 59.351L159.914 58.4039C160.769 58.1833 161.442 58.7053 161.442 59.6039V60.1688C161.442 61.0621 160.775 62.0198 159.919 62.3427Z" stroke="#231F20" stroke-width="0.538079" stroke-miterlimit="10"/>
<path d="M162.518 61.4273L198.063 50.0792L197.186 44.8598C196.438 40.3991 192.542 38.1984 187.974 39.6566L172.585 44.5746C168.022 46.0328 164.132 50.7195 163.389 55.6537L162.518 61.4273Z" fill="#BFF661"/>
<path d="M162.518 61.4273L198.063 50.0792L197.186 44.8598C196.438 40.3991 192.542 38.1984 187.974 39.6566L172.585 44.5746C168.022 46.0328 164.132 50.7195 163.389 55.6537L162.518 61.4273Z" stroke="#231F20" stroke-width="0.538079" stroke-miterlimit="10"/>
<path d="M196.417 50.6015L164.153 60.9058L164.944 55.6649C165.622 51.1881 169.152 46.9319 173.29 45.6082L187.258 41.1421C187.334 41.1206 187.404 41.0937 187.474 41.0776C191.525 39.8884 194.948 41.8847 195.615 45.8611L196.411 50.5962H196.417V50.6015Z" fill="#383A37"/>
<path opacity="0.21" d="M184.956 41.8848C184.671 43.8541 184.063 46.3777 182.798 49.2188C181.437 52.2697 179.758 54.6749 178.381 56.3645L177.676 56.5905C179.005 54.1422 180.388 51.3657 181.706 48.2933C182.631 46.1302 183.422 44.0801 184.095 42.1646L184.956 41.8901V41.8848Z" fill="white"/>
<path opacity="0.21" d="M186.935 46.2491C186.058 50.021 184.353 53.0289 183.142 54.8422L180.279 55.7569C181.345 54.3579 182.598 52.4693 183.658 50.1286C185.181 46.7602 185.698 43.7847 185.838 41.6001L187.264 41.1427C187.339 41.1212 187.409 41.0943 187.479 41.0781C187.516 42.4879 187.398 44.2313 186.935 46.2491Z" fill="white"/>
<path d="M164.153 60.8991L196.417 50.5949L195.62 45.8598C194.942 41.8135 191.407 39.8172 187.258 41.1409L173.29 45.6069C169.152 46.9306 165.617 51.1814 164.944 55.6636L164.153 60.9045V60.8991Z" stroke="#231F20" stroke-width="0.538079" stroke-miterlimit="10"/>
<path d="M201.62 54.6273V57.8611C201.62 58.2055 201.583 58.5499 201.518 58.8942C201.077 61.1757 199.253 63.3603 197.068 64.0598L163.481 74.7729C161.038 75.5532 159.048 74.1757 158.94 71.6897C158.94 71.6252 158.935 71.5552 158.935 71.4853V68.2568C158.935 67.0892 159.177 65.9054 159.623 64.7701C160.796 61.7783 163.341 59.1525 166.295 58.2109L194.238 49.2895C197.192 48.3479 199.737 49.3433 200.915 51.5817C201.367 52.4319 201.615 53.465 201.615 54.638V54.6273H201.62Z" fill="#BFF661"/>
<path d="M201.62 54.6251V57.859C201.62 58.2033 201.583 58.5477 201.518 58.8921C201.077 61.1735 199.253 63.3581 197.068 64.0576L163.481 74.7708C161.038 75.551 159.048 74.1735 158.94 71.6876C158.94 71.623 158.935 71.5531 158.935 71.4831V68.2547C158.935 67.087 159.177 65.9033 159.623 64.7679C164.305 64.4128 169.879 63.5841 176.18 61.8677C186.021 59.1827 194.464 55.2009 200.915 51.5742C201.367 52.4244 201.615 53.4575 201.615 54.6305H201.62V54.6251Z" fill="#93C42A"/>
<path d="M201.518 58.8926C201.076 61.174 199.252 63.3586 197.068 64.0581L163.481 74.7713C161.038 75.5515 159.047 74.174 158.939 71.6881C160.01 72.0594 161.415 72.3768 163.136 72.3661C164.708 72.3553 165.961 72.0809 166.612 71.9302C175.808 69.8532 188.066 65.7961 194.996 62.8152C195.518 62.5946 196.503 62.1641 197.767 61.4431C199.22 60.6144 200.479 59.7212 201.518 58.898V58.8926Z" fill="#508A17"/>
<path d="M163.481 74.7659L197.068 64.0528C199.581 63.2511 201.615 60.48 201.62 57.8595V54.6257C201.62 50.3748 198.322 47.9804 194.243 49.2825L166.295 58.2093C162.228 59.5114 158.929 64.0044 158.935 68.2498V71.4783C158.935 74.0933 160.974 75.5677 163.481 74.7659Z" stroke="#231F20" stroke-width="0.538079" stroke-miterlimit="10"/>
<path d="M172.962 62.9774C172.967 63.0689 172.951 63.1657 172.919 63.2626C172.87 63.4132 172.763 63.5585 172.612 63.6661C171.304 64.597 169.669 65.6247 167.753 66.5126C166.134 67.2713 164.67 67.7609 163.432 68.0891C162.528 68.3259 161.791 67.8416 161.689 66.9377C161.667 66.7816 161.662 66.6094 161.662 66.4319C161.662 66.2274 161.678 66.0337 161.705 65.84C161.737 65.6194 161.78 65.4041 161.834 65.205C162.06 64.328 162.776 63.5531 163.583 63.2841C165.235 62.7406 167.382 62.2456 169.744 62.2833C170.852 62.2994 171.832 62.4339 172.671 62.6115C172.854 62.6492 172.951 62.7944 172.962 62.972V62.9774Z" fill="white"/>
<path d="M172.962 62.9785C172.951 63.07 172.935 63.1615 172.919 63.2637C172.87 63.4144 172.763 63.5596 172.612 63.6673C171.304 64.5981 169.669 65.6259 167.753 66.5137C166.134 67.2724 164.67 67.762 163.432 68.0903C162.528 68.327 161.791 67.8427 161.689 66.9388C161.667 66.7827 161.662 66.6106 161.662 66.433C161.662 66.2285 161.678 66.0348 161.705 65.8411C162.528 65.8572 163.432 65.825 164.417 65.7066C167.85 65.2976 170.836 64.0708 172.962 62.9785Z" fill="#E6E6E6"/>
<path d="M198.784 54.5839C198.784 54.7615 198.773 54.9391 198.757 55.1113C198.65 56.0852 197.918 57.0376 197.008 57.3766C195.771 57.8393 194.307 58.2805 192.682 58.5603C190.761 58.894 189.126 58.9155 187.818 58.8132C187.57 58.7971 187.452 58.5872 187.468 58.3505C187.484 58.1622 187.581 57.9577 187.759 57.8017C188.598 57.0806 189.578 56.3273 190.691 55.6009C193.059 54.0512 195.206 53.1742 196.858 52.663C197.665 52.4155 198.38 52.733 198.606 53.4701C198.633 53.5454 198.655 53.6262 198.676 53.7123C198.736 53.9652 198.773 54.2611 198.779 54.5893H198.784V54.5839Z" fill="white"/>
<path d="M198.784 54.5821C198.784 54.7597 198.773 54.9373 198.757 55.1095C198.65 56.0834 197.918 57.0358 197.008 57.3748C195.771 57.8375 194.307 58.2787 192.682 58.5585C190.761 58.8922 189.126 58.9137 187.818 58.8114C187.57 58.7953 187.452 58.5855 187.468 58.3487C189.669 58.0528 192.424 57.3263 195.464 55.7067C196.648 55.0718 197.724 54.3884 198.676 53.7051C198.736 53.958 198.773 54.2539 198.779 54.5821H198.784Z" fill="#E6E6E6"/>
<path d="M172.612 63.6603C173.048 63.3482 173.086 62.7025 172.672 62.611C171.832 62.4281 170.853 62.2989 169.745 62.2774C167.382 62.2397 165.235 62.7348 163.584 63.2782C162.776 63.5419 162.066 64.3221 161.835 65.1992C161.738 65.5705 161.668 65.9848 161.668 66.426C161.668 66.6089 161.679 66.7757 161.695 66.9318C161.802 67.8358 162.534 68.32 163.438 68.0833C164.676 67.7551 166.139 67.2654 167.759 66.5067C169.675 65.6135 171.31 64.5911 172.618 63.6549H172.612V63.6603Z" stroke="#231F20" stroke-width="0.538079" stroke-miterlimit="10"/>
<path d="M187.818 58.8074C187.382 58.7752 187.345 58.151 187.759 57.7959C188.604 57.0748 189.578 56.3215 190.692 55.5951C193.059 54.0454 195.206 53.1684 196.863 52.6572C197.67 52.4097 198.386 52.7272 198.612 53.4589C198.709 53.7656 198.779 54.1423 198.779 54.5781C198.779 54.7611 198.768 54.9333 198.752 55.1055C198.644 56.0794 197.907 57.0318 197.003 57.3708C195.766 57.8335 194.302 58.2747 192.677 58.5545C190.756 58.8882 189.12 58.9043 187.813 58.8074H187.818Z" stroke="#231F20" stroke-width="0.538079" stroke-miterlimit="10"/>
<path d="M173.774 62.419C175.803 61.994 178.063 61.4128 180.517 60.6165C182.739 59.8954 184.794 59.1045 186.667 58.3027" stroke="#231F20" stroke-width="0.538079" stroke-miterlimit="10"/>
<path d="M173.689 68.7298L186.743 64.5651C187.27 64.3983 187.695 63.8172 187.695 63.2683V62.7518C187.695 62.2029 187.27 61.8909 186.743 62.063L173.689 66.2278C173.161 66.3946 172.736 66.9757 172.736 67.5245V68.0411C172.736 68.5899 173.161 68.902 173.689 68.7298Z" fill="#383A37"/>
<path d="M173.689 68.7298L186.743 64.5651C187.27 64.3983 187.695 63.8172 187.695 63.2683V62.7518C187.695 62.2029 187.27 61.8909 186.743 62.063L173.689 66.2278C173.161 66.3946 172.736 66.9757 172.736 67.5245V68.0411C172.736 68.5899 173.161 68.902 173.689 68.7298Z" stroke="#231F20" stroke-width="0.538079" stroke-miterlimit="10"/>
</g>
</g>
<defs>
<clipPath id="clip0_1407_21447">
<rect width="249.556" height="227.091" fill="white" transform="translate(63.5 64.1172)"/>
</clipPath>
<clipPath id="clip1_1407_21447">
<rect width="38.5318" height="44.8435" fill="white" transform="translate(99.0137 218.545)"/>
</clipPath>
<clipPath id="clip2_1407_21447">
<rect width="148.881" height="242.786" fill="white" transform="translate(220.619 99.6309)"/>
</clipPath>
<clipPath id="clip3_1407_21447">
<rect width="79.5926" height="94.9225" fill="white" transform="translate(135.064 13)"/>
</clipPath>
</defs>
</svg>
