<svg width="214" height="180" viewBox="0 0 214 180" fill="none" xmlns="http://www.w3.org/2000/svg">
<g id="Layer_4" clip-path="url(#clip0_485_96866)">
<g id="Group 1261155499">
<path id="Vector" opacity="0.1" d="M204.157 101.536C202.524 99.1055 200.891 96.6752 199.258 94.2474C192.352 90.467 185.449 86.6866 178.543 82.9062C171.692 86.7907 164.84 90.6776 157.992 94.5621L154.255 101.999C154.014 102.48 154.145 103.064 154.576 103.391C155.321 103.961 156.309 104.682 157.486 105.465C157.755 105.643 158.014 105.812 158.271 105.975C158.281 106.314 158.286 106.671 158.288 107.05C158.291 108.277 158.241 109.337 158.178 110.164C158.144 110.645 158.373 111.108 158.776 111.373C161.597 113.226 164.611 115.097 167.823 116.955C171.629 119.157 175.319 121.114 178.844 122.853C180.639 122.898 182.436 122.945 184.231 122.989C186.337 119.486 188.667 117.737 190.475 116.781C191.65 116.162 196.634 113.026 198.526 111.762C199.031 111.423 199.318 110.846 199.285 110.239C199.253 109.651 199.22 109.01 199.198 108.591C199.141 107.531 199.084 106.473 199.026 105.413C200.433 104.563 202.044 103.646 203.863 102.698C204.292 102.475 204.431 101.932 204.162 101.533L204.157 101.536Z" fill="#0B1107"/>
<path id="Vector_2" d="M162.33 95.5328C169.181 91.6483 176.032 87.7614 182.881 83.877C189.787 87.6574 196.69 91.4378 203.596 95.2182C196.753 99.3107 189.906 103.406 183.063 107.498C176.152 103.51 169.241 99.5213 162.33 95.5328Z" fill="#426810"/>
<path id="Vector_3" d="M162.33 95.5328C169.181 91.6483 176.032 87.7614 182.881 83.877C189.787 87.6574 196.69 91.4378 203.596 95.2182C196.753 99.3107 189.906 103.406 183.063 107.498C176.152 103.51 169.241 99.5213 162.33 95.5328Z" stroke="black" stroke-width="0.17094" stroke-linecap="round" stroke-linejoin="round"/>
<path id="Vector_4" d="M193.544 97.5335L192.894 97.4096C192.874 97.3106 192.837 97.209 192.782 97.1099L190.138 92.4104C189.992 92.1503 189.969 91.8381 190.079 91.5706L192.073 86.715C192.357 86.0189 191.767 85.246 191.077 85.4095L186.285 86.5366C186.026 86.5986 185.749 86.5144 185.545 86.3087L181.938 82.672C181.734 82.4664 181.482 82.402 181.256 82.4491C181.687 82.2013 182.115 81.9511 182.545 81.7034C182.819 81.5077 183.205 81.5101 183.499 81.8074L187.106 85.4441C187.31 85.6473 187.587 85.734 187.846 85.6721L192.638 84.5424C193.33 84.3814 193.92 85.1543 193.634 85.8479L191.64 90.706C191.53 90.9711 191.552 91.2857 191.699 91.5458L194.343 96.2428C194.717 96.9043 194.241 97.6648 193.544 97.5335Z" fill="#383A37"/>
<path id="Vector_5" d="M193.544 97.5335L192.894 97.4096C192.874 97.3106 192.837 97.209 192.782 97.1099L190.138 92.4104C189.992 92.1503 189.969 91.8381 190.079 91.5706L192.073 86.715C192.357 86.0189 191.767 85.246 191.077 85.4095L186.285 86.5366C186.026 86.5986 185.749 86.5144 185.545 86.3087L181.938 82.672C181.734 82.4664 181.482 82.402 181.256 82.4491C181.687 82.2013 182.115 81.9511 182.545 81.7034C182.819 81.5077 183.205 81.5101 183.499 81.8074L187.106 85.4441C187.31 85.6473 187.587 85.734 187.846 85.6721L192.638 84.5424C193.33 84.3814 193.92 85.1543 193.634 85.8479L191.64 90.706C191.53 90.9711 191.552 91.2857 191.699 91.5458L194.343 96.2428C194.717 96.9043 194.241 97.6648 193.544 97.5335Z" stroke="black" stroke-width="0.17094" stroke-linecap="round" stroke-linejoin="round"/>
<path id="Vector_6" d="M176.281 91.4673L180.063 89.1139C180.279 88.9801 180.414 88.7299 180.426 88.4425L180.643 83.25C180.673 82.5118 181.439 82.1699 181.94 82.6753L185.547 86.312C185.749 86.5176 186.028 86.6019 186.287 86.5399L191.079 85.4103C191.768 85.2468 192.358 86.0197 192.075 86.7158L190.081 91.5739C189.971 91.8389 189.993 92.1536 190.14 92.4137L192.784 97.1107C193.155 97.7721 192.682 98.5327 191.985 98.4014L187.128 97.4724C186.864 97.4228 186.605 97.5145 186.438 97.7176L183.486 101.3C183.083 101.79 182.286 101.493 182.137 100.799L181.061 95.82C181.001 95.5425 180.825 95.2998 180.588 95.1759L176.423 92.9835C175.848 92.6812 175.766 91.7869 176.281 91.4649V91.4673Z" fill="white"/>
<path id="Vector_7" d="M176.281 91.4673L180.063 89.1139C180.279 88.9801 180.414 88.7299 180.426 88.4425L180.643 83.25C180.673 82.5118 181.439 82.1699 181.94 82.6753L185.547 86.312C185.749 86.5176 186.028 86.6019 186.287 86.5399L191.079 85.4103C191.768 85.2468 192.358 86.0197 192.075 86.7158L190.081 91.5739C189.971 91.8389 189.993 92.1536 190.14 92.4137L192.784 97.1107C193.155 97.7721 192.682 98.5327 191.985 98.4014L187.128 97.4724C186.864 97.4228 186.605 97.5145 186.438 97.7176L183.486 101.3C183.083 101.79 182.286 101.493 182.137 100.799L181.061 95.82C181.001 95.5425 180.825 95.2998 180.588 95.1759L176.423 92.9835C175.848 92.6812 175.766 91.7869 176.281 91.4649V91.4673Z" stroke="black" stroke-width="0.17094" stroke-linecap="round" stroke-linejoin="round"/>
<path id="Vector_8" d="M199.784 95.1224L195.307 97.5972C195.068 97.7285 194.899 97.9812 194.854 98.2735L194.035 103.605C193.918 104.365 193.104 104.618 192.666 104.038L191.053 101.9L190.665 101.385L190.055 100.577L189.726 100.141C189.704 100.112 189.679 100.084 189.654 100.062C189.502 99.911 189.305 99.8466 189.106 99.8838L185.123 100.637C184.59 100.736 184.244 100.032 184.53 99.4478L186.567 95.2487C186.681 95.0134 186.699 94.7384 186.612 94.5154L185.143 90.6434C184.946 90.1231 185.369 89.4518 185.865 89.5013L189.602 89.863C189.818 89.8828 190.05 89.7763 190.216 89.5756L193.264 85.9067C193.702 85.3815 194.436 85.5302 194.508 86.1693L194.884 89.5484L195.031 90.8787C195.061 91.1487 195.215 91.3742 195.442 91.4782L195.793 91.6393L196.306 91.8771L197.419 92.3899L199.789 93.4873C200.438 93.7871 200.438 94.7607 199.784 95.1224Z" fill="white"/>
<path id="Vector_9" opacity="0.52" d="M197.419 92.3898C196.809 94.3716 195.681 96.9902 193.53 99.4923C192.701 100.458 191.852 101.251 191.053 101.9L190.665 101.385C192.158 100.092 194.337 97.8077 195.606 94.3691C195.932 93.4897 196.154 92.6524 196.306 91.877L197.419 92.3898Z" fill="#C0F761"/>
<path id="Vector_10" opacity="0.52" d="M195.792 91.6377C195.344 93.8227 194.273 96.8674 191.639 99.315C191.114 99.8055 190.579 100.222 190.054 100.576L189.725 100.14C189.703 100.11 189.678 100.083 189.653 100.061C190.808 98.552 192.06 96.6296 193.148 94.2786C193.93 92.5866 194.485 90.9837 194.883 89.5469L195.03 90.8772C195.06 91.1472 195.214 91.3727 195.441 91.4767L195.792 91.6377Z" fill="#C0F761"/>
<path id="Vector_11" d="M184.531 99.447L186.568 95.248C186.682 95.0126 186.697 94.7376 186.613 94.5147L185.144 90.6426C184.947 90.1249 185.37 89.451 185.866 89.5006L189.6 89.8623C189.819 89.8846 190.051 89.7756 190.215 89.5749L193.262 85.906C193.698 85.3808 194.435 85.5319 194.504 86.1686L195.03 90.878C195.06 91.148 195.214 91.3734 195.44 91.4775L199.785 93.4866C200.434 93.7863 200.437 94.7599 199.782 95.1216L195.306 97.5965C195.067 97.7278 194.898 97.9829 194.853 98.2728L194.034 103.604C193.917 104.365 193.103 104.617 192.665 104.038L189.722 100.141C189.568 99.9351 189.336 99.8384 189.102 99.883L185.119 100.636C184.586 100.738 184.243 100.032 184.526 99.447H184.531Z" stroke="black" stroke-width="0.17094" stroke-linecap="round" stroke-linejoin="round"/>
<path id="Vector_12" d="M201.728 95.6811L197.252 98.1534C197.011 98.2872 196.841 98.5399 196.797 98.8322L195.977 104.163C195.895 104.706 195.457 104.988 195.054 104.894C195.054 104.897 195.054 104.899 195.056 104.902C194.419 104.718 193.784 104.533 193.149 104.347C193.543 104.414 193.956 104.131 194.036 103.606L194.852 98.2748C194.897 97.9825 195.066 97.7298 195.308 97.5985L199.784 95.1237C200.439 94.762 200.439 93.7884 199.786 93.4886L195.442 91.4795C195.216 91.373 195.061 91.15 195.031 90.88L194.506 86.1706C194.479 85.9155 194.344 85.7396 194.165 85.6504C194.765 85.8188 195.365 85.9873 195.965 86.1582C196.214 86.2103 196.416 86.4085 196.45 86.728L196.976 91.4349C197.006 91.7074 197.158 91.9304 197.387 92.0369L201.731 94.046C202.381 94.3458 202.383 95.3169 201.728 95.6811Z" fill="#383A37"/>
<path id="Vector_13" d="M201.728 95.6811L197.252 98.1534C197.011 98.2872 196.841 98.5399 196.797 98.8322L195.977 104.163C195.895 104.706 195.457 104.988 195.054 104.894C195.054 104.897 195.054 104.899 195.056 104.902C194.419 104.718 193.784 104.533 193.149 104.347C193.543 104.414 193.956 104.131 194.036 103.606L194.852 98.2748C194.897 97.9825 195.066 97.7298 195.308 97.5985L199.784 95.1237C200.439 94.762 200.439 93.7884 199.786 93.4886L195.442 91.4795C195.216 91.373 195.061 91.15 195.031 90.88L194.506 86.1706C194.479 85.9155 194.344 85.7396 194.165 85.6504C194.765 85.8188 195.365 85.9873 195.965 86.1582C196.214 86.2103 196.416 86.4085 196.45 86.728L196.976 91.4349C197.006 91.7074 197.158 91.9304 197.387 92.0369L201.731 94.046C202.381 94.3458 202.383 95.3169 201.728 95.6811Z" stroke="black" stroke-width="0.17094" stroke-linecap="round" stroke-linejoin="round"/>
<path id="Vector_14" d="M178.518 99.2473L174.534 98.4967C174.303 98.4521 174.071 98.5487 173.914 98.7543L170.972 102.651C170.536 103.231 169.722 102.978 169.605 102.218L168.786 96.8864C168.741 96.5941 168.572 96.3414 168.333 96.2076L165.652 94.7287L165.453 94.6172L164.771 94.2406L164.551 94.1193L163.854 93.7353C163.2 93.3736 163.202 92.4 163.854 92.1002L168.199 90.0911C168.428 89.9846 168.579 89.7616 168.612 89.4916L169.135 84.7822C169.207 84.1431 169.941 83.9919 170.377 84.5171L171.746 86.1645L172.177 86.6823L172.61 87.205L172.959 87.6237L173.427 88.1885C173.593 88.3892 173.822 88.4957 174.041 88.4734L177.778 88.1117C178.274 88.0647 178.697 88.736 178.5 89.2563L177.031 93.1258C176.944 93.3513 176.962 93.6263 177.076 93.8591L179.113 98.0582C179.399 98.6453 179.053 99.3489 178.52 99.2473H178.518Z" fill="white"/>
<path id="Vector_15" opacity="0.52" d="M172.176 86.6857C171.563 88.2663 170.308 90.6569 167.816 92.5396C166.748 93.3473 165.685 93.8848 164.772 94.244L164.553 94.1227C166.559 92.557 168.78 90.4463 170.769 87.637C171.12 87.1416 171.444 86.651 171.745 86.168L172.176 86.6857Z" fill="#C0F761"/>
<path id="Vector_16" opacity="0.52" d="M172.957 87.6237C172.474 88.8352 171.58 90.5148 169.954 92.0557C168.428 93.5049 166.825 94.2952 165.652 94.7287L165.453 94.6172C167.216 93.6313 169.583 91.9417 171.465 89.1646C171.918 88.4958 172.294 87.8343 172.608 87.2051L172.957 87.6237Z" fill="#C0F761"/>
<path id="Vector_17" d="M179.111 98.0584L177.075 93.8593C176.96 93.6239 176.945 93.349 177.03 93.126L178.499 89.2539C178.696 88.7362 178.272 88.0624 177.777 88.1119L174.043 88.4736C173.824 88.4959 173.592 88.3869 173.428 88.1862L170.381 84.5173C169.945 83.9921 169.208 84.1432 169.138 84.7799L168.613 89.4893C168.583 89.7593 168.429 89.9848 168.202 90.0888L163.858 92.0979C163.208 92.3977 163.206 93.3713 163.861 93.7329L168.337 96.2078C168.576 96.3391 168.745 96.5943 168.79 96.8841L169.609 102.215C169.726 102.976 170.54 103.229 170.978 102.649L173.921 98.752C174.075 98.5464 174.307 98.4498 174.541 98.4944L178.524 99.2475C179.057 99.349 179.4 98.643 179.116 98.0584H179.111Z" stroke="black" stroke-width="0.17094" stroke-linecap="round" stroke-linejoin="round"/>
<path id="Vector_18" d="M173.915 98.7566L173.551 99.2372L176.574 99.807C176.728 99.8367 176.867 99.7971 176.979 99.7104C177.537 99.5618 178.097 99.4106 178.655 99.2595C178.61 99.2645 178.565 99.262 178.518 99.2521L174.532 98.499C174.301 98.4544 174.069 98.551 173.915 98.7566Z" stroke="black" stroke-width="0.17094" stroke-linecap="round" stroke-linejoin="round"/>
<path id="Vector_19" d="M161.908 94.2983L166.385 96.7706C166.626 96.9044 166.795 97.1571 166.84 97.4494L167.659 102.781C167.741 103.323 168.179 103.606 168.583 103.511C168.583 103.514 168.583 103.516 168.58 103.519C169.218 103.336 169.852 103.15 170.487 102.964C170.094 103.031 169.681 102.748 169.601 102.223L168.784 96.892C168.74 96.5997 168.57 96.347 168.329 96.2157L163.853 93.7409C163.198 93.3792 163.198 92.4056 163.85 92.1058L168.194 90.0967C168.421 89.9902 168.575 89.7672 168.605 89.4972L169.13 84.7878C169.158 84.5327 169.292 84.3568 169.472 84.2676C168.872 84.436 168.272 84.6045 167.672 84.7754C167.423 84.8275 167.221 85.0256 167.186 85.3452L166.661 90.0521C166.631 90.3246 166.479 90.5476 166.25 90.6541L161.906 92.6632C161.256 92.963 161.254 93.9341 161.908 94.2983Z" fill="#383A37"/>
<path id="Vector_20" d="M161.908 94.2983L166.385 96.7706C166.626 96.9044 166.795 97.1571 166.84 97.4494L167.659 102.781C167.741 103.323 168.179 103.606 168.583 103.511C168.583 103.514 168.583 103.516 168.58 103.519C169.218 103.336 169.852 103.15 170.487 102.964C170.094 103.031 169.681 102.748 169.601 102.223L168.784 96.892C168.74 96.5997 168.57 96.347 168.329 96.2157L163.853 93.7409C163.198 93.3792 163.198 92.4056 163.85 92.1058L168.194 90.0967C168.421 89.9902 168.575 89.7672 168.605 89.4972L169.13 84.7878C169.158 84.5327 169.292 84.3568 169.472 84.2676C168.872 84.436 168.272 84.6045 167.672 84.7754C167.423 84.8275 167.221 85.0256 167.186 85.3452L166.661 90.0521C166.631 90.3246 166.479 90.5476 166.25 90.6541L161.906 92.6632C161.256 92.963 161.254 93.9341 161.908 94.2983Z" stroke="black" stroke-width="0.17094" stroke-linecap="round" stroke-linejoin="round"/>
<path id="Vector_21" opacity="0.1" d="M169.108 100.159L172.927 96.8769C173.139 96.6935 173.249 96.4186 173.219 96.1411L172.666 91.1493C172.589 90.4507 173.351 89.9651 173.956 90.3293L178.272 92.928C178.514 93.0717 178.81 93.0915 179.064 92.9751L183.662 90.909C184.307 90.6191 185.006 91.1914 184.845 91.8776L183.695 96.7654C183.63 97.0379 183.704 97.3228 183.894 97.5309L187.289 101.244C187.765 101.765 187.434 102.602 186.729 102.661L181.7 103.083C181.422 103.105 181.17 103.266 181.031 103.509L178.529 107.869C178.178 108.481 177.274 108.426 177 107.777L175.043 103.149C174.934 102.892 174.705 102.704 174.431 102.647L169.489 101.626C168.797 101.482 168.571 100.613 169.106 100.152L169.108 100.159Z" fill="#0B1107"/>
<path id="Vector_22" d="M167.966 101.575L171.785 98.2929C171.996 98.1096 172.106 97.8346 172.076 97.5571L171.523 92.5653C171.446 91.8667 172.208 91.3811 172.813 91.7453L177.13 94.344C177.371 94.4877 177.668 94.5075 177.921 94.3911L182.52 92.325C183.164 92.0352 183.864 92.6074 183.702 93.2936L182.552 98.1814C182.487 98.4539 182.562 98.7388 182.751 98.9469L186.147 102.66C186.622 103.181 186.291 104.018 185.587 104.077L180.558 104.499C180.279 104.521 180.028 104.682 179.888 104.925L177.386 109.285C177.035 109.897 176.132 109.842 175.858 109.193L173.901 104.565C173.791 104.308 173.562 104.12 173.288 104.063L168.347 103.042C167.655 102.898 167.428 102.029 167.963 101.568L167.966 101.575Z" fill="white"/>
<path id="Vector_23" opacity="0.1" d="M197.965 104.453L192.757 106.965C192.465 107.104 192.264 107.377 192.214 107.696L191.34 113.387C191.221 114.184 190.23 114.497 189.667 113.914L185.659 109.762C185.438 109.529 185.114 109.42 184.795 109.475L179.084 110.406C178.285 110.538 177.683 109.695 178.066 108.987L180.795 103.911C180.947 103.626 180.949 103.289 180.8 103.004L178.143 97.8861C177.77 97.1701 178.385 96.3377 179.186 96.4789L182.204 97.0165L183.025 97.1652L184.88 97.4946C185.196 97.5516 185.522 97.45 185.749 97.2221L189.817 93.1271C190.387 92.5524 191.373 92.8769 191.482 93.6771L192.274 99.3824C192.319 99.6995 192.515 99.9769 192.804 100.118L197.975 102.704C198.699 103.069 198.692 104.099 197.962 104.451L197.965 104.453Z" fill="#0B1107"/>
<path id="Vector_24" d="M167.966 101.575L171.785 98.2929C171.996 98.1096 172.106 97.8346 172.076 97.5571L171.523 92.5653C171.446 91.8667 172.208 91.3811 172.813 91.7453L177.13 94.344C177.371 94.4877 177.668 94.5075 177.921 94.3911L182.52 92.325C183.164 92.0352 183.864 92.6074 183.702 93.2936L182.552 98.1814C182.487 98.4539 182.562 98.7388 182.751 98.9469L186.147 102.66C186.622 103.181 186.291 104.018 185.587 104.077L180.558 104.499C180.279 104.521 180.028 104.682 179.888 104.925L177.386 109.285C177.035 109.897 176.132 109.842 175.858 109.193L173.901 104.565C173.791 104.308 173.562 104.12 173.288 104.063L168.347 103.042C167.655 102.898 167.428 102.029 167.963 101.568L167.966 101.575Z" stroke="black" stroke-width="0.17094" stroke-linecap="round" stroke-linejoin="round"/>
<path id="Vector_25" d="M194.476 104.302L189.935 106.492C189.681 106.613 189.505 106.851 189.462 107.129L188.701 112.091C188.596 112.787 187.732 113.059 187.242 112.551L183.746 108.932C183.552 108.729 183.271 108.635 182.992 108.682L178.013 109.494C177.316 109.608 176.791 108.875 177.124 108.256L179.504 103.829C179.636 103.581 179.639 103.286 179.509 103.039L177.194 98.5768C176.868 97.9525 177.406 97.2267 178.103 97.3506L180.734 97.8188L181.451 97.9476L183.069 98.235C183.346 98.2845 183.629 98.1953 183.826 97.9971L187.374 94.4273C187.872 93.9269 188.73 94.2093 188.825 94.9079L189.515 99.8824C189.555 100.16 189.726 100.4 189.978 100.524L194.486 102.778C195.119 103.095 195.111 103.995 194.476 104.302Z" fill="white"/>
<path id="Vector_26" opacity="0.52" d="M185.128 109.611C183.704 107.827 181.636 104.673 180.956 100.338C180.817 99.4488 180.752 98.6065 180.734 97.8262L181.451 97.955C181.628 99.8923 182.041 102.27 182.958 104.869C183.61 106.727 184.384 108.313 185.128 109.611Z" fill="#C0F761"/>
<path id="Vector_27" d="M177.124 108.255L179.504 103.828C179.636 103.583 179.639 103.286 179.509 103.038L177.194 98.5762C176.87 97.9519 177.405 97.2261 178.102 97.35L183.069 98.2344C183.345 98.2839 183.629 98.1947 183.826 97.9965L187.373 94.4267C187.871 93.9263 188.73 94.2112 188.825 94.9073L189.514 99.8818C189.552 100.159 189.726 100.4 189.977 100.523L194.486 102.778C195.118 103.095 195.111 103.994 194.476 104.301L189.935 106.491C189.681 106.613 189.507 106.85 189.465 107.128L188.703 112.093C188.596 112.789 187.734 113.061 187.244 112.553L183.749 108.931C183.555 108.731 183.273 108.637 182.994 108.681L178.015 109.494C177.318 109.608 176.791 108.877 177.124 108.255Z" stroke="black" stroke-width="0.17094" stroke-linecap="round" stroke-linejoin="round"/>
<path id="Vector_28" d="M203.598 95.2168C203.238 101.1 203.238 104.073 203.325 105.703C203.394 106.992 203.464 108.277 203.534 109.565C203.556 109.984 203.591 110.626 203.621 111.213C203.651 111.8 203.367 112.397 202.862 112.736C200.37 114.404 197.688 116.088 194.811 117.755C190.758 120.106 186.854 122.111 183.179 123.825C183.14 118.382 183.102 112.94 183.062 107.497C189.906 103.404 196.752 99.3093 203.596 95.2168H203.598Z" fill="#C0F761"/>
<path id="Vector_29" d="M203.598 95.2168C203.238 101.1 203.238 104.073 203.325 105.703C203.394 106.992 203.464 108.277 203.534 109.565C203.556 109.984 203.591 110.626 203.621 111.213C203.651 111.8 203.367 112.397 202.862 112.736C200.37 114.404 197.688 116.088 194.811 117.755C190.758 120.106 186.854 122.111 183.179 123.825C183.14 118.382 183.102 112.94 183.062 107.497C189.906 103.404 196.752 99.3093 203.596 95.2168H203.598Z" stroke="black" stroke-width="0.17094" stroke-linecap="round" stroke-linejoin="round"/>
<path id="Vector_30" d="M183.18 123.826C179.655 122.087 175.965 120.13 172.159 117.928C168.948 116.07 165.933 114.197 163.112 112.346C162.706 112.081 162.48 111.618 162.515 111.137C162.574 110.307 162.627 109.247 162.624 108.023C162.619 105.994 162.465 104.543 162.39 103.723C162.226 101.889 162.101 99.1768 162.328 95.5352C169.239 99.5236 176.15 103.512 183.061 107.501C183.1 112.943 183.138 118.386 183.178 123.829L183.18 123.826Z" fill="#508317"/>
<path id="Vector_31" d="M183.18 123.826C179.655 122.087 175.965 120.13 172.159 117.928C168.948 116.07 165.933 114.197 163.112 112.346C162.706 112.081 162.48 111.618 162.515 111.137C162.574 110.307 162.627 109.247 162.624 108.023C162.619 105.994 162.465 104.543 162.39 103.723C162.226 101.889 162.101 99.1768 162.328 95.5352C169.239 99.5236 176.15 103.512 183.061 107.501C183.1 112.943 183.138 118.386 183.178 123.829L183.18 123.826Z" stroke="black" stroke-width="0.17094" stroke-linecap="round" stroke-linejoin="round"/>
<path id="Vector_32" d="M162.328 95.5376L158.591 102.975C158.35 103.455 158.482 104.04 158.913 104.367C159.657 104.937 160.645 105.658 161.823 106.44C165.948 109.18 168.41 110 172.807 112.497C174.049 113.203 175.804 114.246 177.88 115.646C178.458 116.035 179.249 115.815 179.541 115.183C180.716 112.621 181.888 110.062 183.063 107.501C176.152 103.512 169.242 99.5237 162.331 95.5352L162.328 95.5376Z" fill="#8CBD2A"/>
<path id="Vector_33" d="M162.328 95.5376L158.591 102.975C158.35 103.455 158.482 104.04 158.913 104.367C159.657 104.937 160.645 105.658 161.823 106.44C165.948 109.18 168.41 110 172.807 112.497C174.049 113.203 175.804 114.246 177.88 115.646C178.458 116.035 179.249 115.815 179.541 115.183C180.716 112.621 181.888 110.062 183.063 107.501C176.152 103.512 169.242 99.5237 162.331 95.5352L162.328 95.5376Z" stroke="black" stroke-width="0.17094" stroke-linecap="round" stroke-linejoin="round"/>
<path id="Vector_34" d="M183.062 107.498C184.397 110.119 185.734 112.737 187.068 115.358C187.267 115.75 187.745 115.913 188.144 115.723C190.108 114.784 192.814 113.369 195.883 111.355C197.362 110.384 198.039 109.856 199.466 108.885C201.47 107.518 204.38 105.665 208.197 103.675C208.625 103.452 208.764 102.91 208.495 102.511C206.862 100.081 205.229 97.6504 203.596 95.2227C196.752 99.3152 189.906 103.41 183.062 107.503V107.498Z" fill="#C0F761"/>
<path id="Vector_35" d="M183.062 107.498C184.397 110.119 185.734 112.737 187.068 115.358C187.267 115.75 187.745 115.913 188.144 115.723C190.108 114.784 192.814 113.369 195.883 111.355C197.362 110.384 198.039 109.856 199.466 108.885C201.47 107.518 204.38 105.665 208.197 103.675C208.625 103.452 208.764 102.91 208.495 102.511C206.862 100.081 205.229 97.6504 203.596 95.2227C196.752 99.3152 189.906 103.41 183.062 107.503V107.498Z" stroke="black" stroke-width="0.17094" stroke-linecap="round" stroke-linejoin="round"/>
</g>
<path id="Vector_36" opacity="0.1" d="M172.887 159.381C173.109 159.487 173.138 159.792 172.939 159.938C169.593 162.364 166.735 164.075 164.711 165.203C161.806 166.823 160.205 167.477 156.892 169.558C154.275 171.2 153.889 171.663 151.681 173.078C149.675 174.361 146.702 176.09 142.754 177.765C140.028 178.513 137.299 179.259 134.573 180.007C131.613 178.419 128.651 176.831 125.691 175.241C124.374 174.371 122.327 173.053 119.741 171.547C117.468 170.224 116.256 169.615 114.169 168.445C112.357 167.432 109.775 165.936 106.666 163.954C106.469 163.828 106.464 163.54 106.658 163.411C108.04 162.487 110.099 161.167 112.658 159.708C116.542 157.496 119.569 156.123 120.515 155.687C124.147 154.015 130.473 150.78 142.254 143.885C142.341 143.836 142.445 143.826 142.537 143.86C143.867 144.383 145.771 145.168 148.019 146.214C152.804 148.441 156.16 150.457 157.646 151.337C161.002 153.321 165.956 156.069 172.887 159.383V159.381Z" fill="#0B1107"/>
<path id="Vector_37" d="M175.193 159.928C171.849 162.351 168.989 164.063 166.965 165.193C164.06 166.813 162.459 167.467 159.145 169.545C156.529 171.19 156.143 171.651 153.935 173.066C153.716 173.207 153.484 173.353 153.24 173.504C152.907 173.712 152.551 173.93 152.172 174.153C150.534 175.119 148.48 176.219 146.016 177.317C145.687 177.461 145.351 177.607 145.007 177.753C144.256 177.864 143.322 177.944 142.251 177.901C141.806 177.884 141.335 177.845 140.845 177.778C139.239 177.557 137.882 177.101 136.809 176.623C136.165 176.333 135.622 176.036 135.191 175.776C134.484 175.89 133.68 175.969 132.796 175.974C130.82 175.984 129.162 175.617 127.944 175.231C126.627 174.359 124.581 173.041 121.994 171.537C119.721 170.214 118.509 169.602 116.423 168.436C114.61 167.422 112.026 165.926 108.917 163.944C108.72 163.818 108.715 163.53 108.909 163.399C110.291 162.475 112.35 161.155 114.912 159.698C118.795 157.483 121.823 156.111 122.769 155.675C123.239 155.459 123.752 155.217 124.317 154.944C128.126 153.106 134.248 149.878 144.509 143.873C144.594 143.823 144.699 143.813 144.793 143.851C146.123 144.373 148.027 145.159 150.275 146.202C155.057 148.429 158.413 150.445 159.902 151.325C163.258 153.309 168.212 156.059 175.143 159.371C175.367 159.478 175.397 159.782 175.195 159.928H175.193Z" fill="#D5F98F"/>
<path id="Vector_38" opacity="0.43" d="M136.807 176.626C136.162 176.336 135.619 176.039 135.189 175.779C134.482 175.893 133.678 175.972 132.794 175.977C130.817 175.987 129.159 175.621 127.942 175.234C126.625 174.362 124.578 173.044 121.992 171.54C121.083 171.013 120.344 170.597 119.652 170.215L116.303 158.921C119.507 157.162 121.937 156.06 122.766 155.678C123.237 155.463 123.749 155.22 124.314 154.947C124.73 157.008 125.355 159.245 126.281 161.584C128.962 168.342 133.117 173.26 136.807 176.626Z" fill="white"/>
<path id="Vector_39" d="M175.141 159.381C175.362 159.487 175.392 159.792 175.193 159.938C171.847 162.364 168.989 164.075 166.965 165.203C164.06 166.823 162.459 167.477 159.146 169.558C156.529 171.2 156.143 171.663 153.935 173.078C151.929 174.361 148.956 176.09 145.008 177.765C144.256 177.877 143.322 177.956 142.252 177.914C141.804 177.896 141.333 177.857 140.843 177.79C138.271 177.438 136.337 176.477 135.192 175.786C134.485 175.902 133.681 175.979 132.797 175.984C130.82 175.996 129.162 175.627 127.945 175.241C126.628 174.371 124.581 173.053 121.995 171.547C119.722 170.224 118.509 169.615 116.423 168.445C114.611 167.432 112.029 165.936 108.92 163.954C108.723 163.828 108.718 163.54 108.912 163.411C110.294 162.487 112.353 161.167 114.912 159.708C118.796 157.496 121.823 156.123 122.772 155.687C126.404 154.015 132.73 150.78 144.51 143.885C144.597 143.836 144.702 143.826 144.794 143.86C146.123 144.383 148.028 145.168 150.276 146.214C155.06 148.441 158.416 150.457 159.903 151.337C163.258 153.321 168.213 156.069 175.143 159.383L175.141 159.381Z" stroke="#0B1107" stroke-width="0.17094" stroke-miterlimit="10"/>
<path id="Vector_40" d="M142.251 177.907C139.923 177.944 137.182 177.768 134.182 177.141C131.78 176.638 129.689 175.942 127.943 175.236C129.161 175.623 130.819 175.992 132.795 175.98C133.679 175.975 134.483 175.895 135.19 175.781C136.336 176.47 138.27 177.431 140.842 177.786C141.332 177.852 141.802 177.892 142.251 177.909V177.907Z" fill="#8CBD2A"/>
<path id="Vector_41" d="M142.251 177.907C139.923 177.944 137.182 177.768 134.182 177.141C131.78 176.638 129.689 175.942 127.943 175.236C129.161 175.623 130.819 175.992 132.795 175.98C133.679 175.975 134.483 175.895 135.19 175.781C136.336 176.47 138.27 177.431 140.842 177.786C141.332 177.852 141.802 177.892 142.251 177.909V177.907Z" stroke="#0B1107" stroke-width="0.17094" stroke-miterlimit="10"/>
<path id="Vector_42" opacity="0.1" d="M118.158 147.825C90.096 134.549 62.0367 121.273 33.975 107.997C31.3137 106.739 31.259 102.991 33.8804 101.655C56.1739 90.292 78.47 78.9285 100.763 67.5625C106.562 94.3176 112.36 121.07 118.158 147.825Z" fill="#0B1107"/>
<path id="Vector_43" opacity="0.1" d="M175.374 151.803C175.68 151.528 175.984 151.25 176.28 150.973C176.497 150.77 176.43 150.413 176.153 150.301C172.827 148.954 169.379 147.618 165.817 146.308C164.791 145.931 163.773 145.562 162.76 145.201C162.202 144.898 161.607 144.566 160.977 144.205C159.583 143.402 158.468 142.708 157.758 142.257C157.23 142.488 156.733 142.726 156.265 142.961C155.498 142.706 154.729 142.451 153.969 142.203C153.837 142.161 153.69 142.188 153.581 142.277C150.728 144.608 148.144 146.556 145.973 148.121C143.59 149.838 141.611 151.161 140.369 151.976C139.971 152.236 139.582 152.489 139.197 152.737C138.743 152.865 138.273 152.989 137.787 153.106C137.909 153.197 138.044 153.294 138.173 153.391C136.722 154.307 135.363 155.135 134.115 155.868C133.827 156.039 133.857 156.465 134.168 156.591C136.346 157.491 138.552 158.385 140.782 159.272C145.079 160.981 149.321 162.611 153.506 164.159C153.593 164.192 153.69 164.194 153.78 164.164C154.029 164.083 154.283 163.994 154.534 163.909C154.681 163.994 154.828 164.08 154.977 164.167C156.22 164.15 157.46 164.13 158.702 164.112C159.142 163.325 159.583 162.534 160.024 161.747C161.961 161.643 163.668 161.316 165.09 160.927C167.435 159.651 169.79 158.363 172.153 157.062C174.269 155.895 176.372 154.731 178.463 153.564C177.356 152.925 176.33 152.338 175.377 151.803H175.374Z" fill="#0B1107"/>
<path id="Vector_44" opacity="0.1" d="M77.2467 84.8656C69.9176 78.4295 62.586 71.9984 55.2569 65.5623C55.0428 65.3765 54.7391 65.3319 54.4801 65.4459C54.3756 65.4929 54.2685 65.54 54.164 65.5871C52.8221 64.1453 51.7243 62.9413 50.945 62.0742C50.0115 63.0726 48.5153 64.4153 46.3668 65.3591C45.6598 65.6688 45.8092 65.5004 42.8492 66.3674C38.0743 67.7646 33.8471 69.1544 33.4189 69.2956C28.8482 70.7894 20.0776 73.4922 1.60547 78.7863C4.48832 81.4469 6.67411 83.9292 8.29976 85.9804C7.78194 86.2108 7.26412 86.4412 6.74381 86.6716C5.7505 87.115 4.75968 87.556 3.76636 87.997C3.28838 88.21 3.19627 88.8392 3.59957 89.1737C6.03679 91.1828 8.61593 93.2192 11.3444 95.2679C12.7585 96.3282 14.1551 97.3513 15.5393 98.3398C16.8662 99.2836 18.1781 100.198 19.4727 101.077C20.7548 101.726 22.2983 102.383 24.0957 102.918C27.5536 103.944 30.6356 104.117 32.8861 104.05C32.9011 104.05 32.916 104.05 32.931 104.05C47.6365 98.045 62.3395 92.0449 77.0476 86.0399C77.533 85.8417 77.6425 85.2124 77.2492 84.8681L77.2467 84.8656ZM20.8494 101.186C21.9771 101.278 23.1024 101.367 24.2301 101.459C23.1024 101.367 21.9746 101.278 20.8494 101.186Z" fill="#0B1107"/>
<path id="Vector_45" d="M80.2916 85.3647C65.5836 91.3697 50.8805 97.3698 36.175 103.375C35.1617 103.39 33.312 103.268 31.4299 102.201C30.7403 101.809 30.1877 101.373 29.7595 100.969C29.2267 100.927 28.6915 100.883 28.1587 100.841C26.3439 100.694 24.5315 100.548 22.7167 100.402C21.4221 99.5226 20.1101 98.6085 18.7832 97.6646C17.3991 96.6762 16.0024 95.653 14.5884 94.5927C11.8599 92.544 9.28076 90.5076 6.84353 88.4985C6.44023 88.1641 6.53234 87.5348 7.01032 87.3218C8.00364 86.8808 8.99447 86.4399 9.98778 85.9964C25.241 79.216 40.4943 72.4356 55.7475 65.6527C56.4072 65.3603 57.0669 65.0655 57.7267 64.7732C57.9856 64.6592 58.2893 64.7038 58.5034 64.8896C65.8325 71.3257 73.1641 77.7568 80.4932 84.1929C80.8866 84.5373 80.7771 85.1665 80.2916 85.3647Z" fill="#C0F761"/>
<path id="Vector_46" opacity="0.34" d="M75.2562 85.9416C64.2451 90.1704 55.6762 92.6502 49.786 94.1465C46.9281 94.8724 42.1457 96.0194 35.6282 98.1747C32.8101 99.1061 30.2957 100.02 28.1597 100.84C26.3448 100.694 24.5325 100.548 22.7176 100.402C21.4231 99.5223 20.1111 98.6082 18.7842 97.6643C18.2838 97.0921 17.7735 96.4827 17.2556 95.8386C15.0972 93.1457 14.2956 91.6296 12.436 89.1002C11.7663 88.1886 10.9547 87.1407 9.98877 85.9961C25.242 79.2157 40.4952 72.4353 55.7484 65.6523C56.5152 66.4897 57.399 67.441 58.3823 68.4814C59.9183 70.1115 61.0834 71.3056 61.6187 71.863C66.1645 76.6021 70.7104 81.2942 75.2562 85.9416Z" fill="#0B1107"/>
<path id="Vector_47" d="M7.01111 87.3238C6.53063 87.5369 6.44101 88.1686 6.84431 88.5006C9.27905 90.5097 11.8607 92.5485 14.5892 94.5973C17.3575 96.6733 20.0711 98.6081 22.7149 100.407C25.0625 100.595 27.4101 100.786 29.7578 100.974C30.1859 101.378 30.7386 101.814 31.4307 102.205C33.3128 103.273 35.1625 103.394 36.1757 103.379C50.8812 97.3769 65.5843 91.3743 80.2898 85.3692C80.7777 85.171 80.8848 84.5418 80.4939 84.1975C73.1648 77.7638 65.8332 71.3302 58.5041 64.8966C58.2925 64.7108 57.9888 64.6637 57.7299 64.7801C40.8236 72.2939 23.9199 79.8126 7.0136 87.3263L7.01111 87.3238Z" stroke="black" stroke-width="0.17094" stroke-linecap="round" stroke-linejoin="round"/>
<path id="Vector_48" d="M22.7168 100.404C23.9989 101.053 25.5424 101.71 27.3399 102.245C30.8202 103.278 33.9221 103.446 36.1751 103.377C35.1619 103.392 33.3122 103.271 31.4301 102.203C30.738 101.811 30.1854 101.375 29.7572 100.972C27.4096 100.783 25.062 100.593 22.7144 100.404H22.7168Z" fill="#DCD8BA"/>
<path id="Vector_49" d="M22.7168 100.404C23.9989 101.053 25.5424 101.71 27.3399 102.245C30.8202 103.278 33.9221 103.446 36.1751 103.377C35.1619 103.392 33.3122 103.271 31.4301 102.203C30.738 101.811 30.1854 101.375 29.7572 100.972C27.4096 100.783 25.062 100.593 22.7144 100.404H22.7168Z" stroke="black" stroke-width="0.17094" stroke-linecap="round" stroke-linejoin="round"/>
<path id="Vector_50" d="M75.6518 83.8306C64.6383 88.0594 56.0694 90.5392 50.1817 92.038C47.3586 92.7539 42.6634 93.8786 36.2778 95.9794C36.1931 96.0066 36.106 96.0364 36.0213 96.0636C30.8979 97.7606 26.7828 99.3907 24.0916 100.513C22.4535 99.0537 20.1084 96.7944 17.6488 93.7275C15.4904 91.0347 14.6887 89.5185 12.8291 86.9892C11.1387 84.6927 8.56952 81.5465 4.84521 78.1105C7.56376 77.3301 10.0707 76.6092 12.3859 75.9378C25.8069 72.046 32.7601 69.8932 36.6587 68.6174C37.0869 68.4786 41.314 67.0888 46.0889 65.6916C49.0514 64.8246 48.8996 64.993 49.6091 64.6834C51.7575 63.7395 53.2512 62.3993 54.1873 61.3984C55.2204 62.543 56.8013 64.2796 58.7755 66.3729C60.3115 68.003 61.4766 69.1946 62.0118 69.7544C66.5577 74.4911 71.106 79.1831 75.6518 83.8306Z" fill="white"/>
<path id="Vector_51" d="M36.2808 95.979C36.1961 96.0063 36.109 96.036 36.0243 96.0633C30.9009 97.7602 26.7857 99.3903 24.0946 100.513C22.4565 99.0534 20.1114 96.7941 17.6517 93.7271C15.4933 91.0343 14.6917 89.5182 12.832 86.9888C11.1416 84.6924 8.57246 81.5462 4.84814 78.1101C7.56669 77.3298 10.0736 76.6089 12.3889 75.9375C14.0768 78.6749 16.2924 81.6799 19.1977 84.6379C24.9858 90.5264 31.2868 93.9625 36.2808 95.979Z" fill="#F2EFE4"/>
<path id="Vector_52" d="M57.6072 86.4791C54.2812 82.6045 50.9552 78.73 47.6317 74.8555C47.1636 74.9843 46.6931 75.1131 46.2251 75.2419C49.5835 79.109 52.9418 82.9761 56.3002 86.8432C56.7358 86.7218 57.1715 86.6005 57.6096 86.4791H57.6072Z" fill="#F2EFE4"/>
<path id="Vector_53" d="M50.4035 82.1978C47.0775 78.3233 43.7516 74.4488 40.4281 70.5742C39.96 70.703 39.4895 70.8319 39.0215 70.9607C42.3798 74.8278 45.7382 78.6949 49.0965 82.562C49.5322 82.4406 49.9679 82.3192 50.406 82.1978H50.4035Z" fill="#F2EFE4"/>
<path id="Vector_54" d="M46.896 74.0284C45.5841 72.4999 44.2721 70.9738 42.9626 69.4453C42.4697 69.5717 41.9793 69.6955 41.4863 69.8219C42.8232 71.3528 44.1626 72.8863 45.4994 74.4173C45.965 74.2885 46.4305 74.1572 46.896 74.0284Z" fill="#F2EFE4"/>
<path id="Vector_55" d="M54.9029 87.4034C53.5909 85.8749 52.2789 84.3488 50.9694 82.8203C50.4765 82.9467 49.9861 83.0705 49.4932 83.1969C50.83 84.7278 52.1694 86.2613 53.5063 87.7923C53.9718 87.6635 54.4373 87.5322 54.9029 87.4034Z" fill="#F2EFE4"/>
<path id="Vector_56" d="M52.0249 88.4932C50.713 86.9647 49.401 85.4387 48.0915 83.9102C47.5986 84.0365 47.1082 84.1604 46.6152 84.2867C47.9521 85.8177 49.2915 87.3512 50.6283 88.8821C51.0939 88.7533 51.5594 88.622 52.0249 88.4932Z" fill="#F2EFE4"/>
<path id="Vector_57" d="M75.6523 83.8331C71.1064 79.1856 66.5606 74.4936 62.0123 69.7544C61.477 69.1971 60.3119 68.003 58.7759 66.3729C56.8017 64.2796 55.2209 62.543 54.1877 61.3984C53.2517 62.3968 51.758 63.7395 49.6095 64.6834C48.9025 64.993 49.0519 64.8246 46.0918 65.6916C41.317 67.0889 37.0898 68.4786 36.6616 68.6198C32.0908 70.1137 23.3203 72.8164 4.84814 78.1105C8.57245 81.549 11.1416 84.6927 12.832 86.9917C14.6917 89.521 15.4958 91.0371 17.6542 93.73C20.1138 96.7969 22.4589 99.0562 24.097 100.515C26.7882 99.3931 30.9034 97.7631 36.0268 96.0686C42.5443 93.9133 47.3266 92.7688 50.1846 92.0404C56.0723 90.5441 64.6412 88.0619 75.6548 83.8355L75.6523 83.8331Z" stroke="black" stroke-width="0.17094" stroke-linecap="round" stroke-linejoin="round"/>
<g id="Clip path group">
<mask id="mask0_485_96866" style="mask-type:luminance" maskUnits="userSpaceOnUse" x="58" y="44" width="116" height="106">
<g id="clippath">
<path id="Vector_58" d="M173.941 44.4844H58.48V149.037H173.941V44.4844Z" fill="white"/>
</g>
</mask>
<g mask="url(#mask0_485_96866)">
<g id="Group">
<path id="Vector_59" d="M122.385 148.913C120.929 148.93 119.47 148.566 118.16 147.827C115.544 146.353 112.927 144.877 110.311 143.401C94.2984 134.368 78.2858 125.333 62.2733 116.301C61.2526 115.726 60.6726 114.602 60.7995 113.44C61.1754 109.996 61.5489 106.553 61.9248 103.109C62.1638 103.164 62.4028 103.218 62.6418 103.273H63.4085C63.9637 103.392 64.5189 103.511 65.074 103.627C64.8151 103.518 64.5437 103.389 64.2624 103.241C63.8965 103.047 63.5679 102.849 63.2766 102.656C62.8683 102.416 62.46 102.173 62.0517 101.932C62.5696 97.1661 63.0899 92.3997 63.6077 87.6309C82.6201 98.2289 101.632 108.827 120.645 119.425C121.031 119.638 121.474 119.702 121.895 119.613C122.059 129.379 122.221 139.144 122.385 148.913Z" fill="#9F9A80"/>
<path id="Vector_60" d="M122.385 148.913C120.929 148.93 119.47 148.566 118.16 147.827C115.544 146.353 112.927 144.877 110.311 143.401C94.2984 134.368 78.2858 125.333 62.2733 116.301C61.2526 115.726 60.6726 114.602 60.7995 113.44C61.1754 109.996 61.5489 106.553 61.9248 103.109C62.1638 103.164 62.4028 103.218 62.6418 103.273H63.4085C63.9637 103.392 64.5189 103.511 65.074 103.627C64.8151 103.518 64.5437 103.389 64.2624 103.241C63.8965 103.047 63.5679 102.849 63.2766 102.656C62.8683 102.416 62.46 102.173 62.0517 101.932C62.5696 97.1661 63.0899 92.3997 63.6077 87.6309C82.6201 98.2289 101.632 108.827 120.645 119.425C121.031 119.638 121.474 119.702 121.895 119.613C122.059 129.379 122.221 139.144 122.385 148.913Z" stroke="#231F20" stroke-width="0.17094" stroke-linecap="round" stroke-linejoin="round"/>
<path id="Vector_61" d="M169.489 122.336C167.804 123.335 166.121 124.333 164.435 125.329C154.639 131.131 144.843 136.933 135.049 142.735C133.521 143.641 131.989 144.548 130.458 145.452C129.174 146.215 127.889 146.976 126.605 147.736C125.305 148.507 123.849 148.896 122.387 148.908C122.223 139.14 122.061 129.374 121.897 119.609C122.079 119.572 122.258 119.505 122.425 119.411C137.852 110.599 153.282 101.787 168.71 92.9727L170.95 119.512C171.045 120.652 170.48 121.749 169.489 122.336Z" fill="#383A37"/>
<path id="Vector_62" d="M164.433 125.333C154.637 131.135 144.841 136.937 135.047 142.738C133.519 143.645 131.988 144.552 130.457 145.456C130.481 144.644 130.504 143.831 130.526 143.021C141.727 136.297 152.927 129.576 164.127 122.855C164.229 123.683 164.331 124.508 164.433 125.333Z" fill="#8B8257"/>
<path id="Vector_63" d="M164.433 125.333C154.637 131.135 144.841 136.937 135.047 142.738C133.519 143.645 131.988 144.552 130.457 145.456C130.481 144.644 130.504 143.831 130.526 143.021C141.727 136.297 152.927 129.576 164.127 122.855C164.229 123.683 164.331 124.508 164.433 125.333Z" stroke="#231F20" stroke-width="0.17094" stroke-linecap="round" stroke-linejoin="round"/>
<path id="Vector_64" d="M169.489 122.336C167.547 123.486 165.608 124.635 163.666 125.785C163.263 120.634 162.859 115.484 162.459 110.334C161.988 110.599 154.358 114.892 146.257 119.45C146.025 119.582 140.787 122.53 140.556 122.661C140.038 122.108 139.202 121.982 138.544 122.354C137.89 122.725 137.573 123.501 137.783 124.222L130.058 128.572C130.421 134.064 130.785 139.554 131.148 145.046C129.634 145.943 128.121 146.84 126.605 147.736C125.305 148.507 123.849 148.896 122.387 148.908C122.223 139.14 122.061 129.374 121.897 119.609C122.079 119.572 122.258 119.505 122.425 119.411C124.68 118.122 126.938 116.834 129.194 115.546C139.938 109.407 150.683 103.271 161.428 97.1321C163.855 95.7473 166.283 94.36 168.71 92.9727C169.457 101.819 170.204 110.666 170.95 119.512C171.045 120.652 170.48 121.749 169.489 122.336Z" fill="#F9F4D8"/>
<path id="Vector_65" d="M169.489 122.336C167.547 123.486 165.608 124.635 163.666 125.785C163.263 120.634 162.859 115.484 162.459 110.334C157.059 113.373 151.657 116.411 146.257 119.45C144.176 120.045 141.743 120.922 139.149 122.24C135.174 124.256 132.171 126.617 130.058 128.572C130.421 134.064 130.785 139.554 131.148 145.046C129.634 145.943 128.121 146.84 126.605 147.736C125.305 148.507 123.849 148.896 122.387 148.908C122.223 139.14 122.061 129.374 121.897 119.609C122.079 119.572 122.258 119.505 122.425 119.411C124.68 118.122 126.938 116.834 129.194 115.546C139.938 109.407 150.683 103.271 161.428 97.1321C163.855 95.7473 166.283 94.36 168.71 92.9727C169.457 101.819 170.204 110.666 170.95 119.512C171.045 120.652 170.48 121.749 169.489 122.336Z" stroke="#231F20" stroke-width="0.17094" stroke-linecap="round" stroke-linejoin="round"/>
<path id="Vector_66" d="M169.489 122.336C167.804 123.335 166.121 124.333 164.435 125.329C154.639 131.131 144.843 136.933 135.049 142.735C133.521 143.641 131.989 144.548 130.458 145.452C129.174 146.215 127.889 146.976 126.605 147.736C125.305 148.507 123.849 148.896 122.387 148.908C122.223 139.14 122.061 129.374 121.897 119.609C122.079 119.572 122.258 119.505 122.425 119.411C137.852 110.599 153.282 101.787 168.71 92.9727L170.95 119.512C171.045 120.652 170.48 121.749 169.489 122.336Z" stroke="#231F20" stroke-width="0.17094" stroke-linecap="round" stroke-linejoin="round"/>
<path id="Vector_67" d="M165.36 124.779C164.795 125.114 164.23 125.448 163.665 125.783C162.918 116.23 162.171 106.682 161.427 97.1299C162.017 96.793 162.607 96.4561 163.197 96.1191C163.919 105.674 164.638 115.227 165.36 124.779Z" fill="#8B8257"/>
<path id="Vector_68" d="M165.36 124.779C164.795 125.114 164.23 125.448 163.665 125.783C162.918 116.23 162.171 106.682 161.427 97.1299C162.017 96.793 162.607 96.4561 163.197 96.1191C163.919 105.674 164.638 115.227 165.36 124.779Z" stroke="#231F20" stroke-width="0.17094" stroke-linecap="round" stroke-linejoin="round"/>
<path id="Vector_69" d="M162.456 110.334C155.09 114.479 147.726 118.624 140.362 122.771C140.128 122.644 139.946 122.627 139.809 122.644C139.675 122.662 139.575 122.714 139.374 122.696C139.095 122.674 139.02 122.55 138.871 122.592C138.729 122.629 138.721 122.756 138.515 123.093C138.243 123.526 138.099 123.561 138.064 123.804C138.054 123.868 138.052 123.952 138.076 124.056C135.403 125.563 132.729 127.066 130.055 128.573C129.913 126.4 129.769 124.23 129.625 122.06C129.48 119.887 129.336 117.717 129.191 115.547C139.936 109.408 150.681 103.272 161.426 97.1328C161.769 101.535 162.113 105.935 162.456 110.334Z" fill="#FFFAF0"/>
<path id="Vector_70" d="M131.18 122.37C140.944 116.796 150.708 111.224 160.474 105.65C160.345 105.96 160.218 106.267 160.088 106.577C159.757 107.375 159.167 108.041 158.415 108.47C150.447 113.013 142.475 117.559 134.506 122.102C133.498 122.677 132.288 122.776 131.198 122.375L131.18 122.367V122.37Z" fill="#DCD8BA"/>
<path id="Vector_71" d="M131.072 119.926C140.836 114.353 150.6 108.781 160.366 103.207C160.236 103.517 160.109 103.824 159.98 104.134C159.649 104.931 159.059 105.598 158.307 106.026C150.338 110.57 142.367 115.116 134.398 119.659C133.39 120.234 132.18 120.333 131.089 119.931L131.072 119.924V119.926Z" fill="#DCD8BA"/>
<path id="Vector_72" d="M162.456 110.334C155.09 114.479 147.726 118.624 140.362 122.771C140.128 122.644 139.946 122.627 139.809 122.644C139.675 122.662 139.575 122.714 139.374 122.696C139.095 122.674 139.02 122.55 138.871 122.592C138.729 122.629 138.721 122.756 138.515 123.093C138.243 123.526 138.099 123.561 138.064 123.804C138.054 123.868 138.052 123.952 138.076 124.056C135.403 125.563 132.729 127.066 130.055 128.573C129.913 126.4 129.769 124.23 129.625 122.06C129.48 119.887 129.336 117.717 129.191 115.547C139.936 109.408 150.681 103.272 161.426 97.1328C161.617 99.5581 161.807 101.986 161.996 104.411C162.15 106.386 162.304 108.36 162.456 110.334Z" stroke="#231F20" stroke-width="0.17094" stroke-linecap="round" stroke-linejoin="round"/>
<path id="Vector_73" d="M172.898 78.474C152.8 67.2592 132.702 56.0468 112.607 44.832C112.077 44.5372 111.434 44.5273 110.894 44.8047L59.5754 71.3245C58.3057 71.981 58.2758 73.782 59.5256 74.4781C80.4574 86.1463 101.389 97.8145 122.321 109.485C122.874 109.792 123.548 109.787 124.098 109.475L172.913 81.5905C174.125 80.8993 174.118 79.1553 172.898 78.474ZM168.101 81.2164C153.211 89.7211 138.319 98.2257 123.429 106.733C122.926 107.02 122.309 107.023 121.803 106.74C102.646 96.063 83.4921 85.3833 64.3378 74.706C63.1926 74.0693 63.22 72.4219 64.3826 71.8199L111.347 47.5521C111.84 47.2969 112.428 47.3068 112.913 47.5768C131.303 57.8379 149.696 68.099 168.086 78.3626C169.203 78.9844 169.211 80.5822 168.101 81.2164Z" fill="#FFFAF0"/>
<path id="Vector_74" d="M172.898 78.474C152.8 67.2592 132.702 56.0468 112.607 44.832C112.077 44.5372 111.434 44.5273 110.894 44.8047L59.5754 71.3245C58.3057 71.981 58.2758 73.782 59.5256 74.4781C80.4574 86.1463 101.389 97.8145 122.321 109.485C122.874 109.792 123.548 109.787 124.098 109.475L172.913 81.5905C174.125 80.8993 174.118 79.1553 172.898 78.474ZM168.101 81.2164C153.211 89.7211 138.319 98.2257 123.429 106.733C122.926 107.02 122.309 107.023 121.803 106.74C102.646 96.063 83.4921 85.3833 64.3378 74.706C63.1926 74.0693 63.22 72.4219 64.3826 71.8199L111.347 47.5521C111.84 47.2969 112.428 47.3068 112.913 47.5768C131.303 57.8379 149.696 68.099 168.086 78.3626C169.203 78.9844 169.211 80.5822 168.101 81.2164Z" stroke="#231F20" stroke-width="0.17094" stroke-linecap="round" stroke-linejoin="round"/>
<path id="Vector_75" d="M168.101 81.2154C166.49 82.1345 164.882 83.0535 163.271 83.9751C163.453 83.3508 163.221 82.625 162.572 82.2633C145.984 73.008 129.396 63.7527 112.809 54.4974C112.592 54.3761 112.351 54.3141 112.112 54.3092C112.122 51.9953 112.132 49.6791 112.144 47.3652C112.411 47.3727 112.674 47.442 112.913 47.5758C131.303 57.8369 149.696 68.0979 168.086 78.3615C169.204 78.9833 169.211 80.5812 168.101 81.2154Z" fill="#F9F4D8"/>
<path id="Vector_76" d="M168.101 81.2154C166.49 82.1345 164.882 83.0535 163.271 83.9751C163.453 83.3508 163.221 82.625 162.572 82.2633C145.984 73.008 129.396 63.7527 112.809 54.4974C112.592 54.3761 112.351 54.3141 112.112 54.3092C112.122 51.9953 112.132 49.6791 112.144 47.3652C112.411 47.3727 112.674 47.442 112.913 47.5758C131.303 57.8369 149.696 68.0979 168.086 78.3615C169.204 78.9833 169.211 80.5812 168.101 81.2154Z" stroke="#231F20" stroke-width="0.17094" stroke-linecap="round" stroke-linejoin="round"/>
<path id="Vector_77" d="M163.271 83.9768C149.992 91.5598 136.708 99.1454 123.429 106.733C122.926 107.021 122.309 107.023 121.803 106.741C104.006 96.8217 86.2081 86.8975 68.4131 76.9783C68.545 76.7281 68.7541 76.5126 69.0379 76.3664L111.397 54.4768C111.621 54.3604 111.868 54.3059 112.112 54.3109C112.351 54.3158 112.592 54.3777 112.809 54.4991C129.396 63.7544 145.984 73.0097 162.571 82.2649C163.221 82.6266 163.453 83.3525 163.271 83.9768Z" fill="#A39E80"/>
<path id="Vector_78" d="M112.144 47.3655C112.132 49.6793 112.122 51.9956 112.112 54.3094C111.868 54.3045 111.622 54.359 111.398 54.4754L69.0385 76.3651C68.7547 76.5112 68.5456 76.7267 68.4137 76.977C67.0544 76.2189 65.6976 75.4633 64.3383 74.7052C63.1932 74.0686 63.2205 72.4212 64.3832 71.8192L111.348 47.5513C111.597 47.4225 111.871 47.3606 112.144 47.3655Z" fill="#DCD8BA"/>
<path id="Vector_79" d="M163.271 83.9768C149.992 91.5598 136.708 99.1454 123.429 106.733C122.926 107.021 122.309 107.023 121.803 106.741C104.006 96.8217 86.2081 86.8975 68.4131 76.9783C68.545 76.7281 68.7541 76.5126 69.0379 76.3664L111.397 54.4768C111.621 54.3604 111.868 54.3059 112.112 54.3109C112.351 54.3158 112.592 54.3777 112.809 54.4991C129.396 63.7544 145.984 73.0097 162.571 82.2649C163.221 82.6266 163.453 83.3525 163.271 83.9768Z" stroke="#231F20" stroke-width="0.17094" stroke-linecap="round" stroke-linejoin="round"/>
<path id="Vector_80" d="M112.144 47.3655C112.132 49.6793 112.122 51.9956 112.112 54.3094C111.868 54.3045 111.622 54.359 111.398 54.4754L81.6131 69.867L76.7934 72.3568L71.5256 75.0793L69.4867 76.1322L69.0385 76.3651C68.7547 76.5112 68.5456 76.7267 68.4137 76.977C68.0129 76.754 67.612 76.531 67.2112 76.3056C67.0245 76.2016 66.8353 76.0975 66.6486 75.9935C65.8793 75.5649 65.1101 75.1338 64.3383 74.7052C63.1932 74.0686 63.2205 72.4212 64.3832 71.8192L111.348 47.5513C111.597 47.4225 111.871 47.3606 112.144 47.3655Z" stroke="#231F20" stroke-width="0.17094" stroke-linecap="round" stroke-linejoin="round"/>
<path id="Vector_81" d="M86.528 74.7695C85.6119 74.8389 84.6983 74.9083 83.7821 74.9776C81.8328 75.1263 79.886 75.2749 77.9367 75.4211C76.0148 75.5672 74.0905 75.7134 72.1685 75.8596C71.3495 75.9215 70.5329 75.9834 69.7139 76.0454C68.9546 76.1048 68.1978 76.1618 67.4385 76.2188" stroke="white" stroke-width="0.128205" stroke-linecap="round" stroke-linejoin="round"/>
<path id="Vector_82" d="M83.5468 68.6973C83.0066 68.9301 82.4663 69.163 81.9261 69.3984C80.298 70.1019 78.6673 70.8055 77.0392 71.509C75.2393 72.2869 73.4394 73.0648 71.6394 73.8427C70.0511 74.5289 68.4628 75.2151 66.8745 75.9013" stroke="white" stroke-width="0.128205" stroke-linecap="round" stroke-linejoin="round"/>
<path id="Vector_83" d="M84.5393 82.2913C83.8845 82.0832 83.2323 81.8727 82.5775 81.6646C80.9021 81.1295 79.2242 80.5944 77.5487 80.0593C75.7986 79.5019 74.051 78.942 72.3008 78.3846L70.0229 77.6562" stroke="white" stroke-width="0.128205" stroke-linecap="round" stroke-linejoin="round"/>
<path id="Vector_84" d="M71.0747 72.4727C71.1071 72.6411 71.1544 72.8368 71.234 73.0449C71.356 73.3719 71.5079 73.6296 71.6423 73.8228C71.6423 73.8302 71.6398 73.8377 71.6398 73.8451C71.6099 74.0804 71.5875 74.5065 71.7519 74.9896C71.7543 75.002 71.7568 75.0119 71.7618 75.0243C71.8888 75.381 72.073 75.6387 72.2099 75.8022C72.2 75.8146 72.185 75.8319 72.1676 75.8567C72.0357 76.035 71.722 76.528 71.7967 77.1944C71.8689 77.8311 72.2522 78.225 72.3668 78.334C72.3518 78.3464 72.3294 78.3637 72.302 78.386C72.2199 78.4554 72.0929 78.5743 71.961 78.7378" stroke="white" stroke-width="0.128205" stroke-linecap="round" stroke-linejoin="round"/>
<path id="Vector_85" d="M75.8813 68.8945C75.961 69.3008 76.1054 69.8211 76.3792 70.3884C76.5933 70.8318 76.8298 71.1885 77.0439 71.4685C77.0415 71.4809 77.0415 71.4957 77.039 71.5106C77.0191 71.7187 77.0066 71.9739 77.019 72.2687C77.029 72.6526 77.0813 73.101 77.2083 73.5841C77.4074 74.3471 77.7236 74.9318 77.9725 75.3158C77.9601 75.348 77.9476 75.3827 77.9352 75.4173C77.7858 75.8137 77.6489 76.2795 77.5543 76.8071C77.3278 78.1102 77.4721 79.22 77.6389 79.9583C77.6116 79.988 77.5817 80.0227 77.5493 80.0599C77.375 80.2655 77.151 80.5925 77.0315 81.0409C76.9867 81.2069 76.9618 81.3679 76.9518 81.5215" stroke="white" stroke-width="0.128205" stroke-linecap="round" stroke-linejoin="round"/>
<path id="Vector_86" d="M80.3408 65.584C80.3533 66.0373 80.428 66.7706 80.7765 67.5956C81.135 68.4354 81.6229 69.0101 81.9466 69.3346C81.9416 69.3545 81.9341 69.3792 81.9266 69.404C81.8993 69.5031 81.8669 69.6295 81.8395 69.7806C81.7275 70.3479 81.6528 71.2496 81.9789 72.2653C82.4594 73.7641 83.505 74.5717 83.861 74.8219C83.8336 74.8739 83.8087 74.926 83.7813 74.978C83.4925 75.5503 83.2062 76.2365 82.9822 77.0342C82.4718 78.8476 82.5092 80.438 82.6312 81.5008C82.6137 81.5553 82.5963 81.6123 82.5789 81.6692C82.4121 82.2192 82.2577 82.9228 82.2129 83.7527C82.2005 83.9955 82.198 84.2283 82.2055 84.4513" stroke="white" stroke-width="0.128205" stroke-linecap="round" stroke-linejoin="round"/>
<path id="Vector_87" d="M173.815 80.1504C173.813 84.1686 173.81 88.1819 173.81 92.2001C173.818 92.3017 173.818 92.4057 173.81 92.5098V92.5221H173.808C173.756 93.0672 173.459 93.5923 172.914 93.9045C156.643 103.199 140.371 112.494 124.1 121.787C123.784 121.968 123.428 122.044 123.077 122.02V109.71C123.428 109.732 123.784 109.653 124.1 109.474L172.914 81.5897C173.479 81.2677 173.778 80.7152 173.815 80.1504Z" fill="#F9F4D8"/>
<path id="Vector_88" d="M123.074 109.711V122.021C122.812 122.003 122.556 121.929 122.32 121.798C101.388 110.13 80.4559 98.4615 59.5241 86.7933C58.8768 86.4316 58.5756 85.7726 58.6104 85.131C58.6104 81.0979 58.6055 77.0624 58.6055 73.0293C58.6428 73.5991 58.9465 74.159 59.5241 74.4785C80.4559 86.1467 101.388 97.8149 122.32 109.486C122.556 109.617 122.812 109.691 123.074 109.711Z" fill="#DCD8BA"/>
<path id="Vector_89" d="M173.812 80.1516C173.81 84.1698 173.807 88.1831 173.807 92.2013C173.815 92.3029 173.815 92.407 173.807 92.511V92.5234H173.805C173.753 93.0684 173.456 93.5936 172.911 93.9057C156.64 103.201 140.368 112.496 124.097 121.788C123.547 122.103 122.872 122.105 122.319 121.798C101.388 110.13 80.4559 98.4615 59.5241 86.7933C58.8768 86.4316 58.5756 85.7727 58.6104 85.131C58.6104 81.098 58.6055 77.0624 58.6055 73.0293C58.6428 73.5991 58.9465 74.159 59.5241 74.4785C80.4559 86.1467 101.388 97.815 122.319 109.486C122.872 109.793 123.547 109.788 124.097 109.476L172.911 81.5909C173.476 81.2689 173.775 80.7164 173.812 80.1516Z" stroke="#231F20" stroke-width="0.17094" stroke-linecap="round" stroke-linejoin="round"/>
<path id="Vector_90" d="M144.145 118.156C145.915 117.128 147.683 116.1 149.453 115.074C149.453 116.028 148.942 116.91 148.116 117.391C147.237 117.898 146.361 118.409 145.482 118.917C144.892 119.258 144.15 118.837 144.145 118.156Z" fill="#DCD8BA"/>
<path id="Vector_91" d="M144.145 118.156C145.915 117.128 147.683 116.1 149.453 115.074C149.453 116.028 148.942 116.91 148.116 117.391C147.237 117.898 146.361 118.409 145.482 118.917C144.892 119.258 144.15 118.837 144.145 118.156Z" stroke="#231F20" stroke-width="0.17094" stroke-linecap="round" stroke-linejoin="round"/>
<path id="Vector_92" d="M131.072 119.757C140.836 114.183 150.6 108.611 160.366 103.037" stroke="#231F20" stroke-width="0.17094" stroke-linecap="round" stroke-linejoin="round"/>
<path id="Vector_93" d="M131.18 122.37C140.944 116.796 150.708 111.224 160.474 105.65" stroke="#231F20" stroke-width="0.17094" stroke-linecap="round" stroke-linejoin="round"/>
<path id="Vector_94" d="M111.807 124.206C111.13 124.966 110.467 125.709 109.818 126.438C109.033 126.787 108.262 127.131 107.502 127.471C107.41 128.511 107.321 129.532 107.231 130.53C107.96 131.6 108.685 132.661 109.399 133.709C110.579 134.038 111.769 134.373 112.974 134.709C113.783 133.837 114.615 132.941 115.469 132.019C115.538 131.14 115.611 130.245 115.683 129.336C116.492 129.207 117.311 129.076 118.14 128.945C117.259 128.543 116.38 128.145 115.506 127.746C115.197 126.643 114.881 125.524 114.563 124.386C113.634 124.325 112.715 124.265 111.804 124.203L111.807 124.206Z" fill="#E0DCBE"/>
<path id="Vector_95" d="M107.912 129.324C109.849 130.412 111.786 131.502 113.723 132.589" stroke="white" stroke-width="0.17094" stroke-linecap="round" stroke-linejoin="round"/>
<path id="Vector_96" d="M110.243 128.377V130.525" stroke="white" stroke-width="0.17094" stroke-linecap="round" stroke-linejoin="round"/>
<path id="Vector_97" d="M110.741 128.123C112.165 128.923 113.589 129.723 115.013 130.524" stroke="white" stroke-width="0.17094" stroke-linecap="round" stroke-linejoin="round"/>
<path id="Vector_98" d="M111.807 124.206C111.13 124.966 110.467 125.709 109.818 126.438C109.033 126.787 108.262 127.131 107.502 127.471C107.41 128.511 107.321 129.532 107.231 130.53C107.96 131.6 108.685 132.661 109.399 133.709C110.579 134.038 111.769 134.373 112.974 134.709C113.783 133.837 114.615 132.941 115.469 132.019C115.538 131.14 115.611 130.245 115.683 129.336C116.492 129.207 117.311 129.076 118.14 128.945C117.259 128.543 116.38 128.145 115.506 127.746C115.197 126.643 114.881 125.524 114.563 124.386C113.634 124.325 112.715 124.265 111.804 124.203L111.807 124.206Z" stroke="#231F20" stroke-width="0.17094" stroke-linecap="round" stroke-linejoin="round"/>
<path id="Vector_99" d="M110.435 133.258C111.456 133.543 112.484 133.83 113.522 134.122C113.338 134.321 113.156 134.516 112.977 134.709C111.772 134.373 110.58 134.041 109.402 133.709C108.685 132.661 107.963 131.6 107.234 130.53C107.321 129.529 107.411 128.511 107.503 127.471C108.262 127.131 109.036 126.787 109.82 126.435C110.468 125.709 111.132 124.964 111.81 124.203C112.006 124.216 112.205 124.23 112.405 124.243C111.879 124.832 111.364 125.415 110.856 125.984C110.069 126.334 109.298 126.678 108.538 127.017C108.446 128.058 108.357 129.079 108.267 130.077C108.999 131.15 109.721 132.207 110.435 133.258Z" fill="#A39E80"/>
<path id="Vector_100" d="M110.435 133.258C111.456 133.543 112.484 133.83 113.522 134.122C113.338 134.321 113.156 134.516 112.977 134.709C111.772 134.373 110.58 134.041 109.402 133.709C108.685 132.661 107.963 131.6 107.234 130.53C107.321 129.529 107.411 128.511 107.503 127.471C108.262 127.131 109.036 126.787 109.82 126.435C110.468 125.709 111.132 124.964 111.81 124.203C112.006 124.216 112.205 124.23 112.405 124.243C111.879 124.832 111.364 125.415 110.856 125.984C110.069 126.334 109.298 126.678 108.538 127.017C108.446 128.058 108.357 129.079 108.267 130.077C108.999 131.15 109.721 132.207 110.435 133.258Z" stroke="#231F20" stroke-width="0.17094" stroke-linecap="round" stroke-linejoin="round"/>
</g>
</g>
</g>
<path id="Vector_101" d="M180 150.928C179.218 151.664 178.394 152.394 177.528 153.12C171.078 158.511 164.266 161.808 158.257 163.867C158.003 163.956 157.751 164.04 157.502 164.122C157.413 164.149 157.316 164.149 157.228 164.115C156.36 163.793 155.488 163.468 154.614 163.138C151.281 161.885 147.91 160.582 144.505 159.227C142.274 158.337 140.068 157.446 137.89 156.546C137.579 156.418 137.546 155.991 137.838 155.82C138.744 155.285 139.712 154.703 140.73 154.072C141.042 153.881 141.355 153.683 141.679 153.479C142.456 152.991 143.262 152.476 144.091 151.931C145.331 151.116 147.31 149.791 149.693 148.076C151.866 146.511 154.45 144.564 157.303 142.232C157.41 142.143 157.557 142.116 157.689 142.158C161.538 143.412 165.491 144.777 169.537 146.263C173.102 147.571 176.547 148.906 179.876 150.256C180.149 150.368 180.217 150.725 180 150.928Z" fill="#DCD8BA"/>
<path id="Vector_102" opacity="0.1" d="M158.258 163.864C158.004 163.953 157.752 164.037 157.503 164.119C157.414 164.146 157.317 164.146 157.229 164.111C156.361 163.789 155.489 163.465 154.615 163.135C152.694 161.988 151.103 161 149.885 160.232C147.724 158.867 146.564 158.119 146.248 157.908C143.99 156.417 142.121 155.087 140.731 154.068C141.043 153.878 141.356 153.679 141.68 153.476C141.777 153.449 141.874 153.422 141.969 153.395C143.345 154.403 145.173 155.701 147.371 157.15C147.687 157.361 148.847 158.109 151.008 159.474C152.726 160.556 155.178 162.073 158.258 163.864Z" fill="#0B1107"/>
<path id="Vector_103" d="M169.538 146.263C165.493 144.777 161.539 143.412 157.69 142.158C157.558 142.116 157.412 142.143 157.302 142.232C154.449 144.564 151.865 146.511 149.694 148.076C147.312 149.793 145.333 151.116 144.09 151.931C141.802 153.432 139.694 154.728 137.837 155.823C137.548 155.994 137.578 156.42 137.889 156.546C140.067 157.446 142.273 158.34 144.504 159.227C148.8 160.936 153.043 162.566 157.227 164.115C157.315 164.147 157.412 164.149 157.501 164.12C163.693 162.078 170.808 158.734 177.527 153.118C178.393 152.394 179.217 151.661 180.001 150.925C180.218 150.722 180.151 150.365 179.874 150.254C176.548 148.906 173.1 147.571 169.538 146.261V146.263Z" stroke="black" stroke-width="0.17094" stroke-linecap="round" stroke-linejoin="round"/>
<path id="Vector_104" d="M142.354 152.838C142.018 152.927 141.933 153.361 142.212 153.566C143.557 154.547 145.299 155.779 147.371 157.144C147.689 157.354 148.847 158.102 151.01 159.467C152.805 160.602 155.414 162.212 158.7 164.112C159.377 163.721 160.164 163.153 160.896 162.336C161.088 162.123 161.26 161.91 161.411 161.704C162.086 161.734 162.803 161.739 163.56 161.704C165.574 161.613 167.344 161.276 168.81 160.872C171.155 159.596 173.51 158.308 175.873 157.007C177.775 155.959 179.667 154.911 181.552 153.861C181.833 153.705 181.833 153.304 181.554 153.145C176.012 149.959 172.589 148.198 170.443 147.165C169.719 146.816 167.526 145.775 164.7 144.15C163.423 143.417 162.38 142.773 161.67 142.322C161.553 142.247 161.404 142.237 161.277 142.294C158.656 143.466 156.793 144.74 155.551 145.721C154.608 146.464 154.306 146.813 153.154 147.668C152.312 148.292 150.622 149.476 148.294 150.618C146.795 151.354 144.801 152.189 142.357 152.838H142.354Z" stroke="black" stroke-width="0.17094" stroke-linecap="round" stroke-linejoin="round"/>
<path id="Vector_105" d="M168.81 160.879C166.679 161.721 164.369 162.531 161.882 163.26C160.799 163.577 159.738 163.862 158.703 164.119C159.38 163.728 160.164 163.161 160.898 162.343C161.09 162.13 161.262 161.919 161.414 161.711C162.088 161.741 162.805 161.746 163.562 161.711C165.579 161.62 167.346 161.283 168.813 160.879H168.81Z" fill="#DCD8BA"/>
<path id="Vector_106" d="M168.81 160.879C166.679 161.721 164.369 162.531 161.882 163.26C160.799 163.577 159.738 163.862 158.703 164.119C159.38 163.728 160.164 163.161 160.898 162.343C161.09 162.13 161.262 161.919 161.414 161.711C162.088 161.741 162.805 161.746 163.562 161.711C165.579 161.62 167.346 161.283 168.813 160.879H168.81Z" stroke="black" stroke-width="0.17094" stroke-linecap="round" stroke-linejoin="round"/>
<path id="Vector_107" d="M141.512 153.053C142.928 154.101 144.92 155.528 147.372 157.148C147.691 157.358 148.848 158.106 151.012 159.472C152.807 160.606 155.416 162.216 158.702 164.116C159.379 163.725 160.166 163.158 160.898 162.34C161.089 162.127 161.261 161.914 161.413 161.709C162.088 161.738 162.805 161.743 163.561 161.709C165.575 161.617 167.345 161.28 168.812 160.876C171.157 159.6 173.512 158.312 175.874 157.012C177.991 155.845 180.094 154.68 182.185 153.514C176.273 150.095 172.67 148.242 170.442 147.169C169.718 146.82 167.525 145.779 164.699 144.154C163.305 143.352 162.19 142.658 161.48 142.207C158.749 143.404 156.822 144.719 155.548 145.725C154.604 146.468 154.303 146.817 153.15 147.672C152.309 148.296 150.618 149.48 148.291 150.623C146.623 151.443 144.342 152.381 141.509 153.053H141.512Z" fill="#FFFAF0"/>
<path id="Vector_108" d="M141.512 153.053C142.928 154.101 144.92 155.528 147.372 157.148C147.691 157.358 148.848 158.106 151.012 159.472C152.807 160.606 155.416 162.216 158.702 164.116C159.379 163.725 160.166 163.158 160.898 162.34C161.089 162.127 161.261 161.914 161.413 161.709C162.088 161.738 162.805 161.743 163.561 161.709C165.575 161.617 167.345 161.28 168.812 160.876C171.157 159.6 173.512 158.312 175.874 157.012C177.991 155.845 180.094 154.68 182.185 153.514C176.273 150.095 172.67 148.242 170.442 147.169C169.718 146.82 167.525 145.779 164.699 144.154C163.305 143.352 162.19 142.658 161.48 142.207C158.749 143.404 156.822 144.719 155.548 145.725C154.604 146.468 154.303 146.817 153.15 147.672C152.309 148.296 150.618 149.48 148.291 150.623C146.623 151.443 144.342 152.381 141.509 153.053H141.512Z" stroke="black" stroke-width="0.17094" stroke-linecap="round" stroke-linejoin="round"/>
<path id="Vector_109" d="M44.6884 112.75C43.1922 114.36 41.6935 115.985 40.1948 117.623C34.7204 123.598 29.4127 129.544 24.2744 135.442C23.0894 134.122 21.6629 132.583 20.0074 130.896C17.8813 128.726 15.9794 126.928 14.4881 125.563C13.9255 125.047 14.0873 124.128 14.7919 123.831C24.1524 119.909 30.6699 117.544 35.0266 116.075C36.0224 115.738 38.243 114.999 41.4495 113.885C42.5748 113.493 43.6552 113.114 44.6884 112.75Z" fill="white"/>
<path id="Vector_110" d="M147.373 154.112C147.201 153.995 147.258 153.733 147.46 153.693C149.058 153.366 150.196 152.801 150.97 152.308C152.317 151.449 152.977 150.549 155.386 148.8C155.884 148.439 156.312 148.146 156.629 147.933C156.703 147.884 156.8 147.881 156.88 147.928C157.201 148.119 157.522 148.312 157.841 148.503C157.993 148.595 157.993 148.813 157.841 148.902C157.547 149.075 157.171 149.306 156.753 149.591C154.236 151.293 153.604 152.529 151.694 153.693C151.075 154.072 150.099 154.577 148.727 154.937C148.66 154.954 148.588 154.942 148.533 154.902C148.147 154.639 147.761 154.377 147.375 154.112H147.373Z" fill="#DCD8BA"/>
<path id="Vector_111" opacity="0.43" d="M152.17 174.158C150.532 175.124 148.478 176.224 146.014 177.321C145.227 175.466 144.44 173.61 143.654 171.755C143.651 171.747 143.646 171.74 143.644 171.732C146.487 172.54 149.327 173.35 152.17 174.158Z" fill="#C0F761"/>
<path id="Vector_112" opacity="0.15" d="M153.239 173.513C152.975 173.758 152.714 173.996 152.45 174.241C152.358 174.214 152.263 174.189 152.171 174.162C149.328 173.354 146.487 172.544 143.644 171.737C143.644 171.744 143.652 171.751 143.654 171.759C143.258 171.501 142.863 171.244 142.467 170.986C143.831 170.017 145.198 169.049 146.565 168.08L153.241 173.513H153.239Z" fill="white"/>
<path id="Vector_113" opacity="0.43" d="M146.561 168.078C143.123 167.063 139.685 166.047 136.247 165.031C136.01 165.514 135.776 166 135.54 166.483C137.847 167.982 140.155 169.483 142.463 170.982L146.561 168.076V168.078Z" fill="#C0F761"/>
<path id="Vector_114" opacity="0.15" d="M145.187 175.376C144.676 174.169 144.163 172.963 143.653 171.759C143.257 171.501 142.861 171.244 142.466 170.986C140.728 169.856 138.99 168.727 137.253 167.6C136.486 167.726 135.719 167.855 134.95 167.981C138.363 170.446 141.773 172.913 145.187 175.378V175.376Z" fill="white"/>
<path id="Vector_115" d="M166.024 25.5146C166.024 27.2537 165.096 28.8615 163.584 29.7335C161.003 31.2248 158.424 32.7162 155.842 34.2051C150.958 37.0292 146.073 39.8509 141.189 42.6701C132.607 47.6297 124.026 52.5843 115.445 57.5415C114.673 57.9874 114.016 58.6092 113.53 59.3524C111.115 63.0411 108.701 66.7298 106.288 70.4186C105.8 71.1643 104.635 70.8199 104.635 69.9305C104.635 59.6918 104.64 49.453 104.643 39.2142C104.643 37.2868 105.676 35.5057 107.354 34.5395C120.225 27.1373 133.095 19.7375 145.966 12.3377C149.638 10.227 153.31 8.11637 156.982 6.00321C158.834 4.93796 160.689 3.87271 162.541 2.80746C164.087 1.9181 166.019 3.02794 166.019 4.80418C166.019 11.7085 166.024 18.6103 166.024 25.5146Z" fill="#C0F761"/>
<path id="Vector_116" opacity="0.53" d="M158.542 23.2273C158.064 27.5453 156.996 31.2415 155.844 34.2019C150.959 37.026 146.075 39.8477 141.19 42.6669C143.782 37.6924 146.391 30.7113 146.687 22.2091C146.817 18.5179 146.486 15.1934 145.968 12.3345C149.64 10.2238 153.312 8.11316 156.984 6C158.159 9.95877 159.344 15.9861 158.542 23.2273Z" fill="white"/>
<path id="Vector_117" d="M104.635 69.9306C104.635 59.6918 104.64 49.453 104.643 39.2167C104.643 37.2894 105.676 35.5082 107.354 34.542C125.749 23.9638 144.146 13.3856 162.541 2.80746C164.087 1.9181 166.022 3.02794 166.022 4.80419C166.022 11.7085 166.024 18.6103 166.027 25.5146C166.027 27.2537 165.098 28.8615 163.584 29.736C147.537 39.0061 131.492 48.2738 115.445 57.544C114.673 57.9899 114.016 58.6092 113.53 59.3549C111.115 63.0436 108.703 66.7324 106.288 70.4211C105.8 71.1668 104.635 70.8224 104.635 69.9331V69.9306Z" stroke="black" stroke-width="0.17094" stroke-miterlimit="10"/>
<path id="Vector_118" d="M164.721 2.73315C164.067 2.41358 163.262 2.39376 162.543 2.80747C144.145 13.3857 125.75 23.9614 107.355 34.5396C105.677 35.5057 104.644 37.2869 104.644 39.2143C104.642 49.4531 104.639 59.6919 104.637 69.9306C104.637 70.2354 104.774 70.4757 104.973 70.6317C103.731 69.8737 102.488 69.1131 101.246 68.3526C100.972 68.2114 100.766 67.9339 100.766 67.5598C100.766 57.321 100.766 47.0823 100.771 36.8459C100.771 34.9161 101.804 33.1349 103.482 32.1712C121.879 21.593 140.274 11.0149 158.669 0.436668C159.501 -0.0414559 160.439 0.0625919 161.134 0.530807C162.331 1.2641 163.524 1.99986 164.721 2.73315Z" fill="#508317"/>
<path id="Vector_119" d="M164.721 2.73315C164.067 2.41358 163.262 2.39376 162.543 2.80747C144.145 13.3857 125.75 23.9614 107.355 34.5396C105.677 35.5057 104.644 37.2869 104.644 39.2143C104.642 49.4531 104.639 59.6919 104.637 69.9306C104.637 70.2354 104.774 70.4757 104.973 70.6317C103.731 69.8737 102.488 69.1131 101.246 68.3526C100.972 68.2114 100.766 67.9339 100.766 67.5598C100.766 57.3211 100.766 47.0823 100.771 36.8459C100.771 34.9161 101.804 33.1349 103.482 32.1712C121.879 21.593 140.274 11.0149 158.669 0.436668C159.501 -0.0414559 160.439 0.0625919 161.134 0.530807C162.331 1.2641 163.524 1.99986 164.721 2.73315Z" stroke="black" stroke-width="0.17094" stroke-miterlimit="10"/>
<path id="Vector_120" d="M121.175 33.5336L122.439 35.8574C122.549 36.0556 122.758 36.1175 122.997 36.0233L125.81 34.9061C126.418 34.6658 126.664 35.4164 126.226 36.1794L124.197 39.7146C124.023 40.0168 123.943 40.3562 123.985 40.6213L124.478 43.7055C124.585 44.3719 123.95 45.291 123.405 45.2588L120.876 45.1127C120.659 45.1003 120.4 45.2489 120.184 45.509L117.659 48.5462C117.114 49.2027 116.474 49.012 116.579 48.2242L117.059 44.58C117.102 44.2679 117.02 44.0202 116.845 43.9161L114.802 42.7022C114.361 42.4396 114.605 41.4066 115.212 40.9532L118.03 38.8549C118.272 38.6741 118.481 38.3743 118.588 38.0523L119.843 34.2917C120.114 33.4816 120.896 33.0332 121.17 33.5361L121.175 33.5336Z" fill="white"/>
<path id="Vector_121" d="M121.175 33.5336L122.439 35.8574C122.549 36.0556 122.758 36.1175 122.997 36.0233L125.81 34.9061C126.418 34.6658 126.664 35.4164 126.226 36.1794L124.197 39.7146C124.023 40.0168 123.943 40.3562 123.985 40.6213L124.478 43.7055C124.585 44.3719 123.95 45.291 123.405 45.2588L120.876 45.1127C120.659 45.1003 120.4 45.2489 120.184 45.509L117.659 48.5462C117.114 49.2027 116.474 49.012 116.579 48.2242L117.059 44.58C117.102 44.2679 117.02 44.0202 116.845 43.9161L114.802 42.7022C114.361 42.4396 114.605 41.4066 115.212 40.9532L118.03 38.8549C118.272 38.6741 118.481 38.3743 118.588 38.0523L119.843 34.2917C120.114 33.4816 120.896 33.0332 121.17 33.5361L121.175 33.5336Z" stroke="black" stroke-width="0.17094" stroke-miterlimit="10"/>
<path id="Vector_122" d="M119.649 32.6064C120.092 32.8541 120.533 33.0993 120.974 33.3471C120.625 33.2108 120.065 33.6295 119.843 34.286L118.591 38.0465C118.484 38.3711 118.275 38.6708 118.034 38.8492L115.215 40.9475C114.606 41.4008 114.362 42.4339 114.805 42.694L116.849 43.9079C117.023 44.0119 117.103 44.2622 117.063 44.5743L116.582 48.2209C116.542 48.5182 116.61 48.7337 116.742 48.8452C116.742 48.8452 116.737 48.8502 116.734 48.8526C116.306 48.6148 115.875 48.377 115.449 48.1392C115.273 48.0475 115.168 47.8146 115.215 47.4629L115.693 43.8187C115.736 43.5066 115.656 43.2588 115.482 43.1523L113.438 41.9384C112.995 41.6758 113.239 40.6428 113.849 40.1919L116.667 38.0936C116.908 37.9153 117.117 37.6155 117.225 37.291L118.477 33.5304C118.706 32.8417 119.303 32.4181 119.647 32.6113L119.649 32.6064Z" fill="#383A37"/>
<path id="Vector_123" d="M119.649 32.6076C120.092 32.8553 120.533 33.1006 120.974 33.3483C120.625 33.212 120.065 33.6307 119.843 34.2872L118.591 38.0478C118.484 38.3723 118.275 38.6721 118.034 38.8504L115.215 40.9487C114.606 41.4021 114.362 42.4351 114.805 42.6952L116.849 43.9091C117.023 44.0132 117.103 44.2634 117.063 44.5755L116.582 48.2221C116.542 48.5194 116.61 48.7349 116.742 48.8464C116.742 48.8464 116.737 48.8514 116.734 48.8539C116.306 48.616 115.875 48.3782 115.449 48.1404C115.273 48.0487 115.168 47.8159 115.215 47.4641L115.693 43.8199C115.736 43.5078 115.656 43.2601 115.482 43.1535L113.438 41.9397C112.995 41.6771 113.239 40.644 113.849 40.1931L116.667 38.0948C116.908 37.9165 117.117 37.6167 117.225 37.2922L118.477 33.5316C118.489 33.4623 118.579 32.9891 119.019 32.7414C119.283 32.5927 119.54 32.6001 119.647 32.6101L119.649 32.6076Z" stroke="black" stroke-width="0.17094" stroke-miterlimit="10"/>
<path id="Vector_124" d="M126.224 34.9083C126.119 34.8439 125.98 34.8364 125.816 34.9008L123.003 36.0181C122.761 36.1122 122.552 36.0528 122.445 35.8521L122.037 35.1015L124.449 34.1428C124.529 34.1106 124.601 34.0957 124.666 34.0957C124.725 34.0957 124.78 34.1081 124.83 34.1304C124.83 34.1304 124.835 34.1304 124.837 34.1353C125.3 34.3905 125.763 34.6506 126.229 34.9058L126.224 34.9083Z" fill="#383A37"/>
<path id="Vector_125" d="M126.224 34.9083C126.119 34.8439 125.98 34.8364 125.816 34.9008L123.003 36.0181C122.761 36.1122 122.552 36.0528 122.445 35.8521L122.037 35.1015L124.449 34.1428C124.529 34.1106 124.601 34.0957 124.666 34.0957C124.725 34.0957 124.78 34.1081 124.83 34.1304C124.83 34.1304 124.835 34.1304 124.837 34.1353C125.3 34.3905 125.763 34.6506 126.229 34.9058L126.224 34.9083Z" stroke="black" stroke-width="0.17094" stroke-miterlimit="10"/>
<path id="Vector_126" d="M128.906 40.7133C128.906 41.5878 129.521 41.9495 130.285 41.5184C131.057 41.0824 131.69 40.0072 131.69 39.1179C131.69 38.226 131.06 37.8718 130.288 38.3226C129.516 38.7735 128.906 39.8388 128.906 40.7133Z" fill="white"/>
<path id="Vector_127" d="M128.906 40.7133C128.906 41.5878 129.521 41.9495 130.285 41.5184C131.057 41.0824 131.69 40.0072 131.69 39.1179C131.69 38.226 131.06 37.8718 130.288 38.3226C129.516 38.7735 128.906 39.8388 128.906 40.7133Z" stroke="black" stroke-width="0.17094" stroke-miterlimit="10"/>
<path id="Vector_128" d="M131.232 38.1889C130.983 38.0749 130.652 38.1071 130.291 38.3177C129.524 38.7661 128.907 39.8338 128.907 40.7108C128.907 41.1394 129.054 41.4466 129.298 41.5952C129.069 41.4763 128.842 41.3574 128.616 41.2385C128.324 41.1097 128.14 40.7876 128.14 40.3095C128.14 39.435 128.758 38.3648 129.524 37.9189C129.878 37.7108 130.204 37.6761 130.45 37.7851C130.45 37.7851 130.47 37.7925 130.483 37.8C130.498 37.8074 130.513 37.8148 130.528 37.8247C130.764 37.9461 130.998 38.0675 131.235 38.1914L131.232 38.1889Z" fill="#383A37"/>
<path id="Vector_129" d="M131.232 38.1889C130.983 38.0749 130.652 38.1071 130.291 38.3177C129.524 38.7661 128.907 39.8338 128.907 40.7108C128.907 41.1394 129.054 41.4466 129.298 41.5952C129.069 41.4763 128.842 41.3574 128.616 41.2385C128.324 41.1097 128.14 40.7876 128.14 40.3095C128.14 39.435 128.758 38.3648 129.524 37.9189C129.878 37.7108 130.204 37.6761 130.45 37.7851C130.45 37.7851 130.47 37.7925 130.483 37.8C130.498 37.8074 130.513 37.8148 130.528 37.8247C130.764 37.9461 130.998 38.0675 131.235 38.1914L131.232 38.1889Z" stroke="black" stroke-width="0.17094" stroke-linecap="round" stroke-linejoin="round"/>
<path id="Vector_130" d="M135.329 37.016C135.329 37.8905 135.944 38.2522 136.708 37.8211C137.48 37.3851 138.112 36.31 138.112 35.4206C138.112 34.5288 137.483 34.1745 136.711 34.6254C135.939 35.0763 135.329 36.1415 135.329 37.016Z" fill="white"/>
<path id="Vector_131" d="M135.329 37.016C135.329 37.8905 135.944 38.2522 136.708 37.8211C137.48 37.3851 138.112 36.31 138.112 35.4206C138.112 34.5288 137.483 34.1745 136.711 34.6254C135.939 35.0763 135.329 36.1415 135.329 37.016Z" stroke="black" stroke-width="0.17094" stroke-miterlimit="10"/>
<path id="Vector_132" d="M137.652 34.4916C137.403 34.3777 137.071 34.4099 136.711 34.6205C135.944 35.0689 135.326 36.1366 135.326 37.0136C135.326 37.4421 135.473 37.7493 135.717 37.898C135.488 37.779 135.262 37.6601 135.035 37.5412C134.744 37.4124 134.56 37.0903 134.56 36.6122C134.56 35.7377 135.177 34.6675 135.944 34.2216C136.297 34.0135 136.623 33.9788 136.87 34.0878C136.87 34.0878 136.89 34.0953 136.902 34.1027C136.917 34.1101 136.932 34.1176 136.947 34.1275C137.184 34.2489 137.418 34.3702 137.654 34.4941L137.652 34.4916Z" fill="#383A37"/>
<path id="Vector_133" d="M137.652 34.4916C137.403 34.3777 137.071 34.4099 136.711 34.6205C135.944 35.0689 135.326 36.1366 135.326 37.0136C135.326 37.4421 135.473 37.7493 135.717 37.898C135.488 37.779 135.262 37.6601 135.035 37.5412C134.744 37.4124 134.56 37.0903 134.56 36.6122C134.56 35.7377 135.177 34.6675 135.944 34.2216C136.297 34.0135 136.623 33.9788 136.87 34.0878C136.87 34.0878 136.89 34.0953 136.902 34.1027C136.917 34.1101 136.932 34.1176 136.947 34.1275C137.184 34.2489 137.418 34.3702 137.654 34.4941L137.652 34.4916Z" stroke="black" stroke-width="0.17094" stroke-linecap="round" stroke-linejoin="round"/>
<path id="Vector_134" d="M141.829 33.184C141.829 34.0585 142.444 34.4202 143.208 33.9891C143.98 33.5531 144.612 32.4779 144.612 31.5886C144.612 30.6967 143.982 30.3425 143.21 30.7933C142.439 31.2442 141.829 32.3095 141.829 33.184Z" fill="white"/>
<path id="Vector_135" d="M141.829 33.184C141.829 34.0585 142.444 34.4202 143.208 33.9891C143.98 33.5531 144.612 32.4779 144.612 31.5886C144.612 30.6967 143.982 30.3425 143.21 30.7933C142.439 31.2442 141.829 32.3095 141.829 33.184Z" stroke="black" stroke-width="0.17094" stroke-miterlimit="10"/>
<path id="Vector_136" d="M144.151 30.6694C143.902 30.5554 143.571 30.5876 143.21 30.7982C142.443 31.2466 141.826 32.3143 141.826 33.1913C141.826 33.6199 141.973 33.9271 142.217 34.0757C141.988 33.9568 141.761 33.8379 141.535 33.719C141.243 33.5901 141.059 33.2681 141.059 32.79C141.059 31.9155 141.676 30.8453 142.443 30.3993C142.797 30.1912 143.123 30.1566 143.369 30.2656C143.369 30.2656 143.389 30.273 143.402 30.2804C143.417 30.2879 143.432 30.2953 143.447 30.3052C143.683 30.4266 143.917 30.548 144.154 30.6718L144.151 30.6694Z" fill="#383A37"/>
<path id="Vector_137" d="M144.151 30.6694C143.902 30.5554 143.571 30.5876 143.21 30.7982C142.443 31.2466 141.826 32.3143 141.826 33.1913C141.826 33.6199 141.973 33.9271 142.217 34.0757C141.988 33.9568 141.761 33.8379 141.535 33.719C141.243 33.5901 141.059 33.2681 141.059 32.79C141.059 31.9155 141.676 30.8453 142.443 30.3993C142.797 30.1912 143.123 30.1566 143.369 30.2656C143.369 30.2656 143.389 30.273 143.402 30.2804C143.417 30.2879 143.432 30.2953 143.447 30.3052C143.683 30.4266 143.917 30.548 144.154 30.6718L144.151 30.6694Z" stroke="black" stroke-width="0.17094" stroke-linecap="round" stroke-linejoin="round"/>
<g id="Group 1261155498">
<path id="Vector_138" opacity="0.1" d="M90.1972 133.936C88.5641 131.506 86.931 129.076 85.2978 126.648C78.392 122.867 71.4886 119.087 64.5827 115.307C57.7316 119.191 50.8804 123.078 44.0318 126.962L40.2951 134.399C40.0536 134.88 40.1855 135.465 40.6162 135.792C41.3606 136.361 42.3489 137.082 43.5265 137.865C43.7953 138.044 44.0542 138.212 44.3106 138.375C44.3206 138.715 44.3256 139.072 44.3281 139.451C44.3306 140.677 44.2808 141.737 44.2185 142.565C44.1837 143.045 44.4127 143.508 44.816 143.774C47.6366 145.627 50.6514 147.497 53.8629 149.355C57.6693 151.557 61.3588 153.514 64.8839 155.253C66.6788 155.298 68.4763 155.345 70.2712 155.39C72.3773 151.887 74.7075 150.138 76.5149 149.182C77.6899 148.562 82.6739 145.426 84.5659 144.163C85.0713 143.823 85.3576 143.246 85.3252 142.639C85.2929 142.052 85.2605 141.41 85.2381 140.992C85.1808 139.931 85.1236 138.873 85.0663 137.813C86.4729 136.963 88.0836 136.047 89.9034 135.098C90.3316 134.875 90.471 134.332 90.2022 133.934L90.1972 133.936Z" fill="#0B1107"/>
<path id="Vector_139" d="M48.3701 127.931C55.2212 124.047 62.0724 120.16 68.921 116.275C75.8269 120.056 82.7303 123.836 89.6362 127.617C82.7925 131.709 75.9464 135.804 69.1027 139.897C62.1919 135.908 55.281 131.92 48.3701 127.931Z" fill="#426810"/>
<path id="Vector_140" d="M48.3701 127.931C55.2212 124.047 62.0724 120.16 68.921 116.275C75.8269 120.056 82.7303 123.836 89.6362 127.617C82.7925 131.709 75.9464 135.804 69.1027 139.897C62.1919 135.908 55.281 131.92 48.3701 127.931Z" stroke="black" stroke-width="0.17094" stroke-linecap="round" stroke-linejoin="round"/>
<path id="Vector_141" d="M79.5841 129.934L78.9344 129.81C78.9145 129.711 78.8771 129.609 78.8223 129.51L76.1785 124.811C76.0316 124.551 76.0092 124.239 76.1187 123.971L78.1128 119.115C78.3966 118.419 77.8066 117.646 77.117 117.81L72.3247 118.937C72.0658 118.999 71.7895 118.915 71.5853 118.709L67.978 115.072C67.7739 114.867 67.5224 114.802 67.2959 114.849C67.7266 114.602 68.1548 114.352 68.5855 114.104C68.8593 113.908 69.2452 113.911 69.539 114.208L73.1463 117.845C73.3504 118.048 73.6267 118.134 73.8856 118.072L78.6779 116.943C79.37 116.782 79.96 117.555 79.6737 118.248L77.6797 123.106C77.5701 123.371 77.5925 123.686 77.7394 123.946L80.3833 128.643C80.7567 129.305 80.2812 130.065 79.5841 129.934Z" fill="#383A37"/>
<path id="Vector_142" d="M79.5841 129.934L78.9344 129.81C78.9145 129.711 78.8771 129.609 78.8223 129.51L76.1785 124.811C76.0316 124.551 76.0092 124.239 76.1187 123.971L78.1128 119.115C78.3966 118.419 77.8066 117.646 77.117 117.81L72.3247 118.937C72.0658 118.999 71.7895 118.915 71.5853 118.709L67.978 115.072C67.7739 114.867 67.5224 114.802 67.2959 114.849C67.7266 114.602 68.1548 114.352 68.5855 114.104C68.8593 113.908 69.2452 113.911 69.539 114.208L73.1463 117.845C73.3504 118.048 73.6267 118.134 73.8856 118.072L78.6779 116.943C79.37 116.782 79.96 117.555 79.6737 118.248L77.6797 123.106C77.5701 123.371 77.5925 123.686 77.7394 123.946L80.3833 128.643C80.7567 129.305 80.2812 130.065 79.5841 129.934Z" stroke="black" stroke-width="0.17094" stroke-linecap="round" stroke-linejoin="round"/>
<path id="Vector_143" d="M62.3213 123.868L66.1028 121.514C66.3194 121.38 66.4538 121.13 66.4663 120.843L66.6829 115.65C66.7127 114.912 67.4795 114.57 67.9799 115.076L71.5872 118.712C71.7889 118.918 72.0677 119.002 72.3266 118.94L77.1189 117.811C77.8085 117.647 78.3985 118.42 78.1147 119.116L76.1206 123.974C76.0111 124.239 76.0335 124.554 76.1803 124.814L78.8242 129.511C79.1951 130.173 78.7221 130.933 78.0251 130.802L73.168 129.873C72.9041 129.823 72.6452 129.915 72.4785 130.118L69.5259 133.7C69.1226 134.191 68.3259 133.893 68.1766 133.2L67.1011 128.22C67.0414 127.943 66.8646 127.7 66.6281 127.576L62.4632 125.384C61.8881 125.082 61.8059 124.187 62.3213 123.865V123.868Z" fill="white"/>
<path id="Vector_144" d="M62.3213 123.868L66.1028 121.514C66.3194 121.38 66.4538 121.13 66.4663 120.843L66.6829 115.65C66.7127 114.912 67.4795 114.57 67.9799 115.076L71.5872 118.712C71.7889 118.918 72.0677 119.002 72.3266 118.94L77.1189 117.811C77.8085 117.647 78.3985 118.42 78.1147 119.116L76.1206 123.974C76.0111 124.239 76.0335 124.554 76.1803 124.814L78.8242 129.511C79.1951 130.173 78.7221 130.933 78.0251 130.802L73.168 129.873C72.9041 129.823 72.6452 129.915 72.4785 130.118L69.5259 133.7C69.1226 134.191 68.3259 133.893 68.1766 133.2L67.1011 128.22C67.0414 127.943 66.8646 127.7 66.6281 127.576L62.4632 125.384C61.8881 125.082 61.8059 124.187 62.3213 123.865V123.868Z" stroke="black" stroke-width="0.17094" stroke-linecap="round" stroke-linejoin="round"/>
<path id="Vector_145" d="M85.8236 127.523L81.3475 129.998C81.1085 130.129 80.9392 130.382 80.8944 130.674L80.0754 136.005C79.9583 136.766 79.1443 137.018 78.7061 136.439L77.0929 134.301L76.7046 133.785L76.0946 132.978L75.766 132.542C75.7436 132.512 75.7187 132.485 75.6938 132.463C75.542 132.311 75.3453 132.247 75.1461 132.284L71.1629 133.037C70.6301 133.136 70.2841 132.433 70.5704 131.848L72.6068 127.649C72.7213 127.414 72.7388 127.139 72.6516 126.916L71.1828 123.044C70.9862 122.524 71.4094 121.852 71.9048 121.902L75.6415 122.263C75.8581 122.283 76.0896 122.177 76.2564 121.976L79.3036 118.307C79.7418 117.782 80.4762 117.931 80.5484 118.57L80.9243 121.949L81.0712 123.279C81.101 123.549 81.2554 123.775 81.4819 123.879L81.8329 124.04L82.3458 124.277L83.4586 124.79L85.8286 125.888C86.4784 126.187 86.4784 127.161 85.8236 127.523Z" fill="white"/>
<path id="Vector_146" opacity="0.52" d="M83.4591 124.79C82.8492 126.772 81.7214 129.391 79.5705 131.893C78.7415 132.859 77.8926 133.652 77.0934 134.301L76.7051 133.785C78.1988 132.492 80.3771 130.208 81.6468 126.77C81.9729 125.89 82.1945 125.053 82.3463 124.277L83.4591 124.79Z" fill="#C0F761"/>
<path id="Vector_147" opacity="0.52" d="M81.8325 124.038C81.3844 126.223 80.3139 129.268 77.68 131.715C77.1547 132.206 76.6195 132.622 76.0942 132.976L75.7656 132.54C75.7432 132.511 75.7183 132.483 75.6934 132.461C76.8485 130.952 78.1007 129.03 79.1886 126.679C79.9704 124.987 80.5255 123.384 80.9238 121.947L81.0707 123.278C81.1006 123.548 81.2549 123.773 81.4815 123.877L81.8325 124.038Z" fill="#C0F761"/>
<path id="Vector_148" d="M70.5719 131.847L72.6083 127.648C72.7228 127.413 72.7378 127.138 72.6531 126.915L71.1843 123.043C70.9876 122.525 71.4109 121.851 71.9063 121.901L75.6405 122.263C75.8596 122.285 76.0911 122.176 76.2554 121.975L79.3026 118.306C79.7383 117.781 80.4752 117.932 80.5449 118.569L81.0702 123.278C81.1 123.548 81.2544 123.774 81.4809 123.878L85.8251 125.887C86.4749 126.187 86.4774 127.16 85.8226 127.522L81.3465 129.997C81.1075 130.128 80.9382 130.383 80.8934 130.673L80.0744 136.004C79.9574 136.765 79.1433 137.018 78.7051 136.438L75.7625 132.541C75.6082 132.335 75.3767 132.239 75.1426 132.283L71.1594 133.037C70.6267 133.138 70.2831 132.432 70.5669 131.847H70.5719Z" stroke="black" stroke-width="0.17094" stroke-linecap="round" stroke-linejoin="round"/>
<path id="Vector_149" d="M87.7683 128.081L83.2922 130.554C83.0507 130.688 82.8814 130.94 82.8366 131.233L82.0175 136.564C81.9354 137.106 81.4972 137.389 81.0939 137.295C81.0939 137.297 81.0939 137.3 81.0964 137.302C80.4591 137.119 79.8243 136.933 79.1895 136.747C79.5828 136.814 79.9961 136.532 80.0757 136.006L80.8923 130.675C80.9371 130.383 81.1064 130.13 81.3479 129.999L85.824 127.524C86.4787 127.162 86.4787 126.189 85.8265 125.889L81.4823 123.88C81.2557 123.773 81.1014 123.55 81.0715 123.28L80.5462 118.571C80.5188 118.316 80.3844 118.14 80.2052 118.051C80.8051 118.219 81.4051 118.388 82.0051 118.559C82.254 118.611 82.4557 118.809 82.4905 119.128L83.0158 123.835C83.0457 124.108 83.1976 124.331 83.4266 124.437L87.7708 126.446C88.4205 126.746 88.423 127.717 87.7683 128.081Z" fill="#383A37"/>
<path id="Vector_150" d="M87.7683 128.081L83.2922 130.554C83.0507 130.688 82.8814 130.94 82.8366 131.233L82.0175 136.564C81.9354 137.106 81.4972 137.389 81.0939 137.295C81.0939 137.297 81.0939 137.3 81.0964 137.302C80.4591 137.119 79.8243 136.933 79.1895 136.747C79.5828 136.814 79.9961 136.532 80.0757 136.006L80.8923 130.675C80.9371 130.383 81.1064 130.13 81.3479 129.999L85.824 127.524C86.4787 127.162 86.4787 126.189 85.8265 125.889L81.4823 123.88C81.2557 123.773 81.1014 123.55 81.0715 123.28L80.5462 118.571C80.5188 118.316 80.3844 118.14 80.2052 118.051C80.8051 118.219 81.4051 118.388 82.0051 118.559C82.254 118.611 82.4557 118.809 82.4905 119.128L83.0158 123.835C83.0457 124.108 83.1976 124.331 83.4266 124.437L87.7708 126.446C88.4205 126.746 88.423 127.717 87.7683 128.081Z" stroke="black" stroke-width="0.17094" stroke-linecap="round" stroke-linejoin="round"/>
<path id="Vector_151" d="M64.5581 131.648L60.5749 130.897C60.3434 130.852 60.1119 130.949 59.955 131.155L57.0124 135.052C56.5768 135.631 55.7627 135.379 55.6457 134.618L54.8266 129.287C54.7818 128.994 54.6125 128.742 54.3735 128.608L51.6923 127.129L51.4932 127.018L50.811 126.641L50.592 126.52L49.8949 126.136C49.2402 125.774 49.2427 124.8 49.8949 124.501L54.2391 122.492C54.4681 122.385 54.62 122.162 54.6524 121.892L55.1752 117.183C55.2474 116.543 55.9818 116.392 56.4174 116.918L57.7867 118.565L58.2173 119.083L58.6505 119.605L58.999 120.024L59.4671 120.589C59.6339 120.79 59.8629 120.896 60.082 120.874L63.8187 120.512C64.3141 120.465 64.7374 121.136 64.5407 121.657L63.0719 125.526C62.9847 125.752 63.0022 126.027 63.1167 126.26L65.1531 130.459C65.4394 131.046 65.0934 131.749 64.5606 131.648H64.5581Z" fill="white"/>
<path id="Vector_152" opacity="0.52" d="M58.2156 119.084C57.6032 120.665 56.3485 123.055 53.8565 124.938C52.7885 125.746 51.7255 126.283 50.8118 126.642L50.5928 126.521C52.5993 124.955 54.82 122.845 56.8091 120.035C57.1601 119.54 57.4837 119.049 57.7849 118.566L58.2156 119.084Z" fill="#C0F761"/>
<path id="Vector_153" opacity="0.52" d="M58.9965 120.024C58.5136 121.236 57.6198 122.915 55.9942 124.456C54.4681 125.905 52.8649 126.696 51.6923 127.129L51.4932 127.018C53.2557 126.032 55.6233 124.342 57.5053 121.565C57.9584 120.896 58.3343 120.235 58.648 119.605L58.9965 120.024Z" fill="#C0F761"/>
<path id="Vector_154" d="M65.1513 130.459L63.1149 126.26C63.0004 126.024 62.9855 125.749 63.0701 125.526L64.5389 121.654C64.7356 121.137 64.3124 120.463 63.8169 120.512L60.0827 120.874C59.8636 120.896 59.6321 120.787 59.4678 120.587L56.4206 116.918C55.9849 116.392 55.2481 116.544 55.1784 117.18L54.6531 121.89C54.6232 122.16 54.4688 122.385 54.2423 122.489L49.8981 124.498C49.2483 124.798 49.2458 125.772 49.9006 126.133L54.3767 128.608C54.6157 128.739 54.785 128.995 54.8298 129.284L55.6489 134.616C55.7659 135.376 56.5799 135.629 57.0181 135.049L59.9607 131.152C60.115 130.947 60.3466 130.85 60.5806 130.895L64.5638 131.648C65.0966 131.749 65.4401 131.043 65.1563 130.459H65.1513Z" stroke="black" stroke-width="0.17094" stroke-linecap="round" stroke-linejoin="round"/>
<path id="Vector_155" d="M59.9548 131.157L59.5913 131.638L62.6136 132.207C62.7679 132.237 62.9073 132.197 63.0194 132.111C63.577 131.962 64.1372 131.811 64.6948 131.66C64.65 131.665 64.6052 131.662 64.5579 131.652L60.5722 130.899C60.3407 130.855 60.1091 130.951 59.9548 131.157Z" stroke="black" stroke-width="0.17094" stroke-linecap="round" stroke-linejoin="round"/>
<path id="Vector_156" d="M47.9489 126.699L52.4251 129.171C52.6666 129.305 52.8358 129.557 52.8806 129.85L53.6997 135.181C53.7819 135.724 54.22 136.006 54.6233 135.912C54.6233 135.914 54.6233 135.917 54.6208 135.919C55.2581 135.736 55.893 135.55 56.5278 135.364C56.1344 135.431 55.7212 135.149 55.6415 134.624L54.8249 129.292C54.7801 129 54.6109 128.747 54.3694 128.616L49.8932 126.141C49.2385 125.78 49.2385 124.806 49.8907 124.506L54.2349 122.497C54.4615 122.391 54.6158 122.168 54.6457 121.898L55.171 117.188C55.1984 116.933 55.3328 116.757 55.5121 116.668C54.9121 116.836 54.3121 117.005 53.7121 117.176C53.4632 117.228 53.2615 117.426 53.2267 117.746L52.7014 122.453C52.6715 122.725 52.5197 122.948 52.2906 123.055L47.9464 125.064C47.2967 125.363 47.2942 126.334 47.9489 126.699Z" fill="#383A37"/>
<path id="Vector_157" d="M47.9489 126.699L52.4251 129.171C52.6666 129.305 52.8358 129.557 52.8806 129.85L53.6997 135.181C53.7819 135.724 54.22 136.006 54.6233 135.912C54.6233 135.914 54.6233 135.917 54.6208 135.919C55.2581 135.736 55.893 135.55 56.5278 135.364C56.1344 135.431 55.7212 135.149 55.6415 134.624L54.8249 129.292C54.7801 129 54.6109 128.747 54.3694 128.616L49.8932 126.141C49.2385 125.78 49.2385 124.806 49.8907 124.506L54.2349 122.497C54.4615 122.391 54.6158 122.168 54.6457 121.898L55.171 117.188C55.1984 116.933 55.3328 116.757 55.5121 116.668C54.9121 116.836 54.3121 117.005 53.7121 117.176C53.4632 117.228 53.2615 117.426 53.2267 117.746L52.7014 122.453C52.6715 122.725 52.5197 122.948 52.2906 123.055L47.9464 125.064C47.2967 125.363 47.2942 126.334 47.9489 126.699Z" stroke="black" stroke-width="0.17094" stroke-linecap="round" stroke-linejoin="round"/>
<path id="Vector_158" opacity="0.1" d="M55.149 132.56L58.9679 129.277C59.1795 129.094 59.2891 128.819 59.2592 128.541L58.7065 123.55C58.6294 122.851 59.3911 122.366 59.9961 122.73L64.3129 125.328C64.5544 125.472 64.8506 125.492 65.1046 125.375L69.7027 123.309C70.3475 123.02 71.047 123.592 70.8852 124.278L69.7351 129.166C69.6703 129.438 69.745 129.723 69.9342 129.931L73.3299 133.645C73.8054 134.165 73.4743 135.002 72.7698 135.062L67.741 135.483C67.4621 135.505 67.2107 135.666 67.0713 135.909L64.5693 140.269C64.2183 140.881 63.3146 140.827 63.0408 140.177L61.084 135.55C60.9745 135.292 60.7454 135.104 60.4716 135.047L55.5299 134.026C54.8378 133.883 54.6113 133.013 55.1465 132.552L55.149 132.56Z" fill="#0B1107"/>
<path id="Vector_159" d="M54.0059 133.976L57.8249 130.693C58.0365 130.51 58.146 130.235 58.1161 129.958L57.5635 124.966C57.4863 124.267 58.2481 123.782 58.853 124.146L63.1698 126.744C63.4113 126.888 63.7076 126.908 63.9615 126.791L68.5596 124.725C69.2044 124.436 69.904 125.008 69.7421 125.694L68.592 130.582C68.5273 130.854 68.602 131.139 68.7912 131.347L72.1868 135.061C72.6623 135.581 72.3312 136.418 71.6267 136.478L66.5979 136.899C66.3191 136.921 66.0676 137.082 65.9282 137.325L63.4263 141.685C63.0752 142.297 62.1715 142.243 61.8977 141.593L59.9409 136.966C59.8314 136.708 59.6024 136.52 59.3285 136.463L54.3869 135.442C53.6948 135.299 53.4682 134.429 54.0035 133.968L54.0059 133.976Z" fill="white"/>
<path id="Vector_160" opacity="0.1" d="M84.0048 136.854L78.7968 139.366C78.5055 139.505 78.3039 139.777 78.2541 140.097L77.3803 145.787C77.2608 146.585 76.2699 146.897 75.7073 146.315L71.6992 142.163C71.4777 141.93 71.154 141.821 70.8354 141.875L65.1244 142.807C64.3253 142.938 63.7228 142.096 64.1062 141.387L66.8347 136.311C66.9866 136.026 66.9891 135.689 66.8397 135.405L64.1834 130.286C63.81 129.57 64.4249 128.738 65.2265 128.879L68.2438 129.417L69.0653 129.566L70.92 129.895C71.2362 129.952 71.5623 129.85 71.7888 129.623L75.8567 125.527C76.4268 124.953 77.4126 125.277 77.5222 126.077L78.3138 131.783C78.3586 132.1 78.5553 132.377 78.8441 132.519L84.0148 135.105C84.7393 135.469 84.7318 136.5 84.0024 136.851L84.0048 136.854Z" fill="#0B1107"/>
<path id="Vector_161" d="M54.0059 133.976L57.8249 130.693C58.0365 130.51 58.146 130.235 58.1161 129.958L57.5635 124.966C57.4863 124.267 58.2481 123.782 58.853 124.146L63.1698 126.744C63.4113 126.888 63.7076 126.908 63.9615 126.791L68.5596 124.725C69.2044 124.436 69.904 125.008 69.7421 125.694L68.592 130.582C68.5273 130.854 68.602 131.139 68.7912 131.347L72.1868 135.061C72.6623 135.581 72.3312 136.418 71.6267 136.478L66.5979 136.899C66.3191 136.921 66.0676 137.082 65.9282 137.325L63.4263 141.685C63.0752 142.297 62.1715 142.243 61.8977 141.593L59.9409 136.966C59.8314 136.708 59.6024 136.52 59.3285 136.463L54.3869 135.442C53.6948 135.299 53.4682 134.429 54.0035 133.968L54.0059 133.976Z" stroke="black" stroke-width="0.17094" stroke-linecap="round" stroke-linejoin="round"/>
<path id="Vector_162" d="M80.5168 136.702L75.9759 138.892C75.722 139.014 75.5453 139.251 75.5029 139.529L74.7411 144.491C74.6366 145.187 73.7727 145.46 73.2823 144.952L69.787 141.332C69.5928 141.129 69.3115 141.035 69.0327 141.082L64.0537 141.895C63.3566 142.009 62.8313 141.275 63.1649 140.656L65.5449 136.229C65.6768 135.981 65.6793 135.687 65.5499 135.439L63.2346 130.977C62.9085 130.353 63.4462 129.627 64.1433 129.751L66.7747 130.219L67.4917 130.348L69.1099 130.635C69.3862 130.685 69.67 130.596 69.8667 130.398L73.4142 126.828C73.9121 126.327 74.771 126.61 74.8656 127.308L75.5552 132.283C75.595 132.56 75.7668 132.801 76.0182 132.924L80.5268 135.179C81.1591 135.496 81.1516 136.395 80.5168 136.702Z" fill="white"/>
<path id="Vector_163" opacity="0.52" d="M71.1689 142.009C69.7449 140.226 67.6761 137.072 66.9965 132.737C66.857 131.847 66.7923 131.005 66.7749 130.225L67.4919 130.353C67.6686 132.291 68.0819 134.669 68.998 137.268C69.6503 139.126 70.4245 140.711 71.1689 142.009Z" fill="#C0F761"/>
<path id="Vector_164" d="M63.1646 140.656L65.5446 136.229C65.6765 135.983 65.679 135.686 65.5496 135.438L63.2343 130.977C62.9107 130.352 63.4459 129.626 64.143 129.75L69.1096 130.635C69.3859 130.684 69.6697 130.595 69.8664 130.397L73.4139 126.827C73.9119 126.327 74.7707 126.612 74.8653 127.308L75.5549 132.282C75.5923 132.56 75.7665 132.8 76.018 132.924L80.5265 135.178C81.1588 135.495 81.1513 136.395 80.5165 136.702L75.9756 138.892C75.7217 139.013 75.5475 139.251 75.5051 139.528L74.7433 144.493C74.6363 145.189 73.7749 145.462 73.2845 144.954L69.7892 141.332C69.595 141.131 69.3137 141.037 69.0349 141.082L64.0559 141.894C63.3588 142.008 62.831 141.277 63.1646 140.656Z" stroke="black" stroke-width="0.17094" stroke-linecap="round" stroke-linejoin="round"/>
<path id="Vector_165" d="M89.6385 127.617C89.2776 133.501 89.2776 136.474 89.3647 138.104C89.4344 139.392 89.5041 140.678 89.5738 141.966C89.5962 142.384 89.6311 143.026 89.6609 143.613C89.6908 144.2 89.407 144.797 88.9016 145.137C86.4096 146.804 83.7284 148.489 80.8506 150.156C76.7976 152.507 72.8941 154.511 69.2195 156.225C69.1797 150.783 69.1424 145.34 69.1025 139.897C75.9462 135.805 82.7924 131.71 89.636 127.617H89.6385Z" fill="#C0F761"/>
<path id="Vector_166" d="M89.6385 127.617C89.2776 133.501 89.2776 136.474 89.3647 138.104C89.4344 139.392 89.5041 140.678 89.5738 141.966C89.5962 142.384 89.6311 143.026 89.6609 143.613C89.6908 144.2 89.407 144.797 88.9016 145.137C86.4096 146.804 83.7284 148.489 80.8506 150.156C76.7976 152.507 72.8941 154.511 69.2195 156.225C69.1797 150.783 69.1424 145.34 69.1025 139.897C75.9462 135.805 82.7924 131.71 89.636 127.617H89.6385Z" stroke="black" stroke-width="0.17094" stroke-linecap="round" stroke-linejoin="round"/>
<path id="Vector_167" d="M69.2206 156.227C65.6954 154.488 62.006 152.53 58.1995 150.328C54.9881 148.47 51.9733 146.597 49.1527 144.747C48.7469 144.482 48.5203 144.018 48.5552 143.538C48.6149 142.708 48.6672 141.648 48.6647 140.424C48.6597 138.395 48.5054 136.943 48.4307 136.123C48.2664 134.29 48.1419 131.577 48.3685 127.936C55.2793 131.924 62.1902 135.913 69.1011 139.901C69.1409 145.344 69.1783 150.786 69.2181 156.229L69.2206 156.227Z" fill="#508317"/>
<path id="Vector_168" d="M69.2206 156.227C65.6954 154.488 62.006 152.53 58.1995 150.328C54.9881 148.47 51.9733 146.597 49.1527 144.747C48.7469 144.482 48.5203 144.018 48.5552 143.538C48.6149 142.708 48.6672 141.648 48.6647 140.424C48.6597 138.395 48.5054 136.943 48.4307 136.123C48.2664 134.29 48.1419 131.577 48.3685 127.936C55.2793 131.924 62.1902 135.913 69.1011 139.901C69.1409 145.344 69.1783 150.786 69.2181 156.229L69.2206 156.227Z" stroke="black" stroke-width="0.17094" stroke-linecap="round" stroke-linejoin="round"/>
<path id="Vector_169" d="M48.3687 127.938L44.632 135.375C44.3905 135.856 44.5224 136.44 44.9531 136.767C45.6975 137.337 46.6858 138.058 47.8634 138.841C51.9885 141.581 54.4506 142.401 58.8471 144.898C60.0893 145.604 61.8444 146.647 63.9207 148.046C64.4983 148.435 65.2899 148.215 65.5812 147.583C66.7562 145.022 67.9288 142.463 69.1039 139.901C62.193 135.913 55.2821 131.924 48.3712 127.936L48.3687 127.938Z" fill="#8CBD2A"/>
<path id="Vector_170" d="M48.3687 127.938L44.632 135.375C44.3905 135.856 44.5224 136.44 44.9531 136.767C45.6975 137.337 46.6858 138.058 47.8634 138.841C51.9885 141.581 54.4506 142.401 58.8471 144.898C60.0893 145.604 61.8444 146.647 63.9207 148.046C64.4983 148.435 65.2899 148.215 65.5812 147.583C66.7562 145.022 67.9288 142.463 69.1039 139.901C62.193 135.913 55.2821 131.924 48.3712 127.936L48.3687 127.938Z" stroke="black" stroke-width="0.17094" stroke-linecap="round" stroke-linejoin="round"/>
<path id="Vector_171" d="M69.1025 139.898C70.4369 142.519 71.7738 145.138 73.1082 147.759C73.3073 148.15 73.7853 148.314 74.1836 148.123C76.1479 147.184 78.854 145.769 81.9235 143.755C83.4023 142.784 84.0795 142.257 85.5059 141.285C87.51 139.918 90.4202 138.065 94.2367 136.076C94.6649 135.853 94.8043 135.31 94.5354 134.911C92.9023 132.481 91.2692 130.051 89.636 127.623C82.7924 131.716 75.9462 135.811 69.1025 139.903V139.898Z" fill="#C0F761"/>
<path id="Vector_172" d="M69.1025 139.898C70.4369 142.519 71.7738 145.138 73.1082 147.759C73.3073 148.15 73.7853 148.314 74.1836 148.123C76.1479 147.184 78.854 145.769 81.9235 143.755C83.4023 142.784 84.0795 142.257 85.5059 141.285C87.51 139.918 90.4202 138.065 94.2367 136.076C94.6649 135.853 94.8043 135.31 94.5354 134.911C92.9023 132.481 91.2692 130.051 89.636 127.623C82.7924 131.716 75.9462 135.811 69.1025 139.903V139.898Z" stroke="black" stroke-width="0.17094" stroke-linecap="round" stroke-linejoin="round"/>
</g>
</g>
<defs>
<clipPath id="clip0_485_96866">
<rect width="213" height="180" fill="white" transform="translate(0.5)"/>
</clipPath>
</defs>
</svg>
