<svg width="52" height="53" viewBox="0 0 52 53" fill="none" xmlns="http://www.w3.org/2000/svg">
<circle cx="26" cy="26.5" r="26" fill="#E9E8D9"/>
<mask id="mask0_421_90145" style="mask-type:alpha" maskUnits="userSpaceOnUse" x="0" y="0" width="52" height="53">
<circle cx="26" cy="26.5" r="26" fill="#E9E8D9"/>
</mask>
<g mask="url(#mask0_421_90145)">
<g clip-path="url(#clip0_421_90145)">
<path opacity="0.1" d="M54.6966 19.5566C42.3985 28.5785 30.1026 37.6026 17.8067 46.6246C17.6476 46.7423 17.4885 46.8578 17.3294 46.9755C8.62567 41.8771 -0.0758362 36.7787 -8.77734 31.6803C7.59248 22.3358 23.9623 12.9912 40.3299 3.64453C40.755 3.89738 41.18 4.15023 41.6051 4.40308L54.6377 12.1651C54.6595 14.6282 54.677 17.0913 54.6966 19.5566Z" fill="#0B1107"/>
<mask id="mask1_421_90145" style="mask-type:luminance" maskUnits="userSpaceOnUse" x="9" y="27" width="19" height="15">
<path d="M27.3497 27.8438H9.9707V41.4824H27.3497V27.8438Z" fill="white"/>
</mask>
<g mask="url(#mask1_421_90145)">
<path d="M12.8594 29.2379C16.2903 27.3808 21.6765 27.5552 24.8785 29.5845C26.5198 30.6221 27.2784 31.9517 27.165 33.2508C27.165 33.3032 27.1563 33.3555 27.1476 33.41C27.1389 33.4601 27.1302 33.5102 27.1193 33.5625C27.1018 33.6563 27.08 33.75 27.0495 33.8394C27.0321 33.9091 27.0103 33.9745 26.9863 34.0399C26.9863 34.0486 26.9819 34.0573 26.9776 34.0639C26.9514 34.138 26.9209 34.2077 26.886 34.2775C26.886 34.2819 26.886 34.2862 26.8795 34.2928C26.849 34.3625 26.8163 34.4301 26.7792 34.502C26.7378 34.5783 26.6877 34.6546 26.6397 34.7309C26.6092 34.7832 26.5743 34.8333 26.5395 34.8835L26.461 34.9903C26.4218 35.0448 26.3782 35.0993 26.3324 35.1516C26.2735 35.2235 26.2103 35.2933 26.1471 35.3608C26.0861 35.4219 26.0272 35.4851 25.9662 35.5461C25.9575 35.5505 25.9509 35.5592 25.9444 35.5657C25.8725 35.6333 25.7962 35.7009 25.7221 35.7641C25.5847 35.8818 25.4343 35.9973 25.2752 36.1107C25.2469 36.1303 25.2185 36.1477 25.188 36.1695C25.1292 36.2087 25.0681 36.2502 25.0049 36.2894C24.8916 36.3635 24.7761 36.4354 24.654 36.503C21.3495 38.3689 15.9983 38.3122 12.6851 36.333C11.6257 35.6987 10.9086 34.9532 10.5271 34.1685C10.501 34.1162 10.4792 34.0617 10.4552 34.0094C10.429 33.944 10.4029 33.8764 10.3811 33.811C10.3397 33.7042 10.3091 33.5952 10.283 33.4819C10.2677 33.4187 10.2568 33.3555 10.2459 33.2944C10.2372 33.2356 10.2307 33.1811 10.2241 33.1244C10.2176 33.0677 10.2111 33.0154 10.2089 32.9609V32.9457C10.2002 32.8607 10.2023 32.7822 10.2089 32.6972C10.2089 32.5947 10.2198 32.4901 10.2372 32.3877C10.2438 32.3353 10.2547 32.2852 10.2634 32.2329C10.2852 32.1305 10.3091 32.0258 10.3418 31.9256C10.3593 31.8754 10.3745 31.8231 10.3942 31.773C10.429 31.6684 10.477 31.5659 10.5249 31.4656C10.5729 31.3697 10.6252 31.2695 10.6862 31.1714C10.7756 31.0188 10.8759 30.8771 10.9914 30.7354C11.0306 30.6853 11.0677 30.6417 11.1091 30.5959C11.1483 30.5501 11.1941 30.5022 11.2377 30.4542C11.2791 30.4106 11.3227 30.3649 11.3685 30.3213C11.3685 30.3213 11.3685 30.3213 11.3729 30.3147C11.7696 29.9246 12.2622 29.5627 12.8616 29.2423H12.8551L12.8594 29.2379Z" fill="#383A37"/>
<path d="M12.8594 29.2379C16.2903 27.3808 21.6765 27.5552 24.8785 29.5845C26.5198 30.6221 27.2784 31.9517 27.165 33.2508C27.165 33.3032 27.1563 33.3555 27.1476 33.41C27.1389 33.4601 27.1302 33.5102 27.1193 33.5625C27.1018 33.6563 27.08 33.75 27.0495 33.8394C27.0321 33.9091 27.0103 33.9745 26.9863 34.0399C26.9863 34.0486 26.9819 34.0573 26.9776 34.0639C26.9514 34.138 26.9209 34.2077 26.886 34.2775C26.886 34.2819 26.886 34.2862 26.8795 34.2928C26.849 34.3625 26.8163 34.4301 26.7792 34.502C26.7378 34.5783 26.6877 34.6546 26.6397 34.7309C26.6092 34.7832 26.5743 34.8333 26.5395 34.8835L26.461 34.9903C26.4218 35.0448 26.3782 35.0993 26.3324 35.1516C26.2735 35.2235 26.2103 35.2933 26.1471 35.3608C26.0861 35.4219 26.0272 35.4851 25.9662 35.5461C25.9575 35.5505 25.9509 35.5592 25.9444 35.5657C25.8725 35.6333 25.7962 35.7009 25.7221 35.7641C25.5847 35.8818 25.4343 35.9973 25.2752 36.1107C25.2469 36.1303 25.2185 36.1477 25.188 36.1695C25.1292 36.2087 25.0681 36.2502 25.0049 36.2894C24.8916 36.3635 24.7761 36.4354 24.654 36.503C21.3495 38.3689 15.9983 38.3122 12.6851 36.333C11.6257 35.6987 10.9086 34.9532 10.5271 34.1685C10.501 34.1162 10.4792 34.0617 10.4552 34.0094C10.429 33.944 10.4029 33.8764 10.3811 33.811C10.3397 33.7042 10.3091 33.5952 10.283 33.4819C10.2677 33.4187 10.2568 33.3555 10.2459 33.2944C10.2372 33.2356 10.2307 33.1811 10.2241 33.1244C10.2176 33.0677 10.2111 33.0154 10.2089 32.9609V32.9457C10.2002 32.8607 10.2023 32.7822 10.2089 32.6972C10.2089 32.5947 10.2198 32.4901 10.2372 32.3877C10.2438 32.3353 10.2547 32.2852 10.2634 32.2329C10.2852 32.1305 10.3091 32.0258 10.3418 31.9256C10.3593 31.8754 10.3745 31.8231 10.3942 31.773C10.429 31.6684 10.477 31.5659 10.5249 31.4656C10.5729 31.3697 10.6252 31.2695 10.6862 31.1714C10.7756 31.0188 10.8759 30.8771 10.9914 30.7354C11.0306 30.6853 11.0677 30.6417 11.1091 30.5959C11.1483 30.5501 11.1941 30.5022 11.2377 30.4542C11.2791 30.4106 11.3227 30.3649 11.3685 30.3213C11.3685 30.3213 11.3685 30.3213 11.3729 30.3147C11.7696 29.9246 12.2622 29.5627 12.8616 29.2423H12.8551L12.8594 29.2379Z" stroke="#231F20" stroke-width="0.219409" stroke-miterlimit="10"/>
<path d="M16.4123 31.4726C16.7175 31.3091 17.0619 31.1827 17.4281 31.0999C18.4438 30.8666 19.6187 30.9473 20.5429 31.32C20.7456 31.4029 20.9374 31.4966 21.1118 31.6077C21.9379 32.1309 22.1908 32.8502 21.8791 33.478C21.7265 33.7853 21.441 34.073 21.0246 34.3084C19.7342 35.0365 17.6439 35.0147 16.3469 34.2409C16.1311 34.1101 15.9524 33.9684 15.8063 33.8202C15.0761 33.0595 15.2832 32.0851 16.4145 31.4726H16.4123Z" fill="#F7D717"/>
<path d="M16.4123 31.4726C16.7175 31.3091 17.0619 31.1827 17.4281 31.0999C18.4438 30.8666 19.6187 30.9473 20.5429 31.32C20.7456 31.4029 20.9374 31.4966 21.1118 31.6077C21.9379 32.1309 22.1908 32.8502 21.8791 33.478C21.7265 33.7853 21.441 34.073 21.0246 34.3084C19.7342 35.0365 17.6439 35.0147 16.3469 34.2409C16.1311 34.1101 15.9524 33.9684 15.8063 33.8202C15.0761 33.0595 15.2832 32.0851 16.4145 31.4726H16.4123Z" stroke="#231F20" stroke-width="0.219409" stroke-miterlimit="10"/>
<path d="M17.5975 31.7428C18.0117 31.5445 18.4738 31.4464 18.9228 31.4704C19.4002 31.4987 19.8688 31.6643 20.2721 31.9303C20.9086 32.3553 21.3728 33.0267 21.4186 33.7852C21.2878 34.0512 21.0437 34.2975 20.684 34.498C19.5746 35.1258 17.7806 35.1062 16.6668 34.4413C16.4815 34.3302 16.3268 34.2081 16.2025 34.0795C16.1829 33.9444 16.1785 33.807 16.1894 33.6675C16.2483 32.7913 16.8434 32.1025 17.5997 31.7428H17.5975Z" fill="#E5E4D5"/>
<path d="M17.5975 31.7428C18.0117 31.5445 18.4738 31.4464 18.9228 31.4704C19.4002 31.4987 19.8688 31.6643 20.2721 31.9303C20.9086 32.3553 21.3728 33.0267 21.4186 33.7852C21.2878 34.0512 21.0437 34.2975 20.684 34.498C19.5746 35.1258 17.7806 35.1062 16.6668 34.4413C16.4815 34.3302 16.3268 34.2081 16.2025 34.0795C16.1829 33.9444 16.1785 33.807 16.1894 33.6675C16.2483 32.7913 16.8434 32.1025 17.5997 31.7428H17.5975Z" stroke="#231F20" stroke-width="0.219409" stroke-miterlimit="10"/>
<path d="M27.2448 34.8636C27.2404 35.4456 27.2143 35.9993 27.175 36.5202C27.175 36.6052 27.175 36.6881 27.1641 36.7709C27.1641 36.8232 27.1554 36.8755 27.1467 36.93C27.138 36.978 27.1293 37.0303 27.1184 37.0826C27.0988 37.1741 27.0791 37.2679 27.0486 37.3594C27.0312 37.4292 27.0072 37.4946 26.9854 37.56C26.9854 37.5687 26.981 37.5774 26.9767 37.5839C26.9505 37.658 26.92 37.7278 26.8851 37.7975C26.8851 37.8019 26.8851 37.8063 26.8786 37.8128C26.8481 37.8826 26.8154 37.9523 26.7762 38.0221C26.7347 38.0984 26.6846 38.1746 26.6345 38.2509C26.604 38.3032 26.5713 38.3534 26.5342 38.4035L26.4557 38.5103C26.4143 38.5626 26.3707 38.6193 26.3271 38.6716C26.2683 38.7436 26.2072 38.8133 26.1418 38.8809C26.083 38.9441 26.022 39.0051 25.9609 39.0662C25.9522 39.0705 25.9457 39.0771 25.9413 39.0858C25.8694 39.1533 25.7931 39.2209 25.719 39.2841C25.5817 39.4018 25.4313 39.5174 25.2721 39.6285C25.2416 39.6481 25.2155 39.6656 25.1849 39.6874C25.1261 39.7266 25.0651 39.768 25.0018 39.8051C24.8885 39.8792 24.773 39.9511 24.6509 40.0187C21.3464 41.8846 15.9952 41.8301 12.682 39.8487C11.6226 39.2144 10.9055 38.4689 10.524 37.6842C10.4979 37.6319 10.4761 37.5774 10.4521 37.5251C10.4259 37.4597 10.3998 37.3921 10.378 37.3289C10.3366 37.2221 10.3061 37.1131 10.2799 36.9998C10.2646 36.9366 10.2537 36.8733 10.245 36.8123C10.2363 36.7535 10.2298 36.699 10.2232 36.6423C10.1251 35.9535 10.0576 35.1448 10.075 34.2402C10.0903 33.6321 10.1382 33.0697 10.2123 32.5684C10.2123 32.612 10.2058 32.6577 10.2058 32.7013C10.1993 32.7863 10.1971 32.8648 10.2058 32.9498C10.2058 32.9542 10.2058 32.9585 10.2058 32.9651C10.2058 33.0196 10.2145 33.0719 10.2211 33.1285C10.2276 33.183 10.2363 33.2397 10.2429 33.2986C10.2559 33.3574 10.2668 33.4228 10.2777 33.4838C10.3061 33.595 10.3366 33.704 10.3758 33.813C10.3976 33.8784 10.4238 33.9438 10.4499 34.0092C10.4739 34.0637 10.4957 34.116 10.5219 34.1683C10.9033 34.953 11.6204 35.7028 12.6798 36.3328C15.9952 38.3141 21.3464 38.3708 24.6487 36.5028C24.773 36.433 24.8863 36.3633 24.9997 36.2892C25.0629 36.2521 25.1239 36.2085 25.1828 36.1715C25.2133 36.1518 25.2416 36.1322 25.27 36.1126C25.4269 35.9993 25.5773 35.8859 25.7168 35.7682C25.7953 35.705 25.8694 35.6374 25.9391 35.5699C25.9457 35.5633 25.9522 35.5546 25.9587 35.5502C25.9762 35.5328 25.9893 35.5175 26.0067 35.5001C26.0525 35.4543 26.0983 35.4086 26.1397 35.365C26.2051 35.2974 26.2683 35.2276 26.3249 35.1557C26.3685 35.1034 26.4121 35.0489 26.4536 34.9922L26.532 34.8854C26.5669 34.8396 26.6018 34.7873 26.6323 34.7328C26.6802 34.6565 26.7282 34.5803 26.774 34.504C26.811 34.4342 26.8437 34.3666 26.8764 34.2969C26.8764 34.2903 26.8808 34.286 26.883 34.2816C26.9157 34.2097 26.9484 34.1399 26.9745 34.0658C26.9789 34.0593 26.9832 34.0506 26.9832 34.044C27.0072 33.9765 27.029 33.9111 27.0464 33.8413C27.077 33.7498 27.0988 33.6582 27.1162 33.5645C27.1271 33.5122 27.1358 33.4621 27.1445 33.4119C27.1532 33.3574 27.1598 33.3051 27.162 33.2528C27.1729 33.1307 27.1772 33.0087 27.1707 32.8866C27.2165 33.5013 27.2448 34.1617 27.2404 34.8636L27.2448 34.868V34.8636Z" fill="#0B1107"/>
<path d="M27.2448 34.8636C27.2404 35.4456 27.2143 35.9993 27.175 36.5202C27.175 36.6052 27.175 36.6881 27.1641 36.7709C27.1641 36.8232 27.1554 36.8755 27.1467 36.93C27.138 36.978 27.1293 37.0303 27.1184 37.0826C27.0988 37.1741 27.0791 37.2679 27.0486 37.3594C27.0312 37.4292 27.0072 37.4946 26.9854 37.56C26.9854 37.5687 26.981 37.5774 26.9767 37.5839C26.9505 37.658 26.92 37.7278 26.8851 37.7975C26.8851 37.8019 26.8851 37.8063 26.8786 37.8128C26.8481 37.8826 26.8154 37.9523 26.7762 38.0221C26.7347 38.0984 26.6846 38.1746 26.6345 38.2509C26.604 38.3032 26.5713 38.3534 26.5342 38.4035L26.4557 38.5103C26.4143 38.5626 26.3707 38.6193 26.3271 38.6716C26.2683 38.7436 26.2072 38.8133 26.1418 38.8809C26.083 38.9441 26.022 39.0051 25.9609 39.0662C25.9522 39.0705 25.9457 39.0771 25.9413 39.0858C25.8694 39.1533 25.7931 39.2209 25.719 39.2841C25.5817 39.4018 25.4313 39.5174 25.2721 39.6285C25.2416 39.6481 25.2155 39.6656 25.1849 39.6874C25.1261 39.7266 25.0651 39.768 25.0018 39.8051C24.8885 39.8792 24.773 39.9511 24.6509 40.0187C21.3464 41.8846 15.9952 41.8301 12.682 39.8487C11.6226 39.2144 10.9055 38.4689 10.524 37.6842C10.4979 37.6319 10.4761 37.5774 10.4521 37.5251C10.4259 37.4597 10.3998 37.3921 10.378 37.3289C10.3366 37.2221 10.3061 37.1131 10.2799 36.9998C10.2646 36.9366 10.2537 36.8733 10.245 36.8123C10.2363 36.7535 10.2298 36.699 10.2232 36.6423C10.1251 35.9535 10.0576 35.1448 10.075 34.2402C10.0903 33.6321 10.1382 33.0697 10.2123 32.5684C10.2123 32.612 10.2058 32.6577 10.2058 32.7013C10.1993 32.7863 10.1971 32.8648 10.2058 32.9498C10.2058 32.9542 10.2058 32.9585 10.2058 32.9651C10.2058 33.0196 10.2145 33.0719 10.2211 33.1286C10.2276 33.183 10.2363 33.2397 10.2429 33.2986C10.2559 33.3574 10.2668 33.4228 10.2777 33.4838C10.3061 33.595 10.3366 33.704 10.3758 33.813C10.3976 33.8784 10.4238 33.9438 10.4499 34.0092C10.4739 34.0637 10.4957 34.116 10.5219 34.1683C10.9033 34.953 11.6204 35.7028 12.6798 36.3328C15.9952 38.3141 21.3464 38.3708 24.6487 36.5028C24.773 36.433 24.8863 36.3633 24.9997 36.2892C25.0629 36.2521 25.1239 36.2085 25.1828 36.1715C25.2133 36.1518 25.2416 36.1322 25.27 36.1126C25.4269 35.9993 25.5773 35.8859 25.7168 35.7682C25.7953 35.705 25.8694 35.6374 25.9391 35.5699C25.9457 35.5633 25.9522 35.5546 25.9588 35.5502C25.9762 35.5328 25.9893 35.5175 26.0067 35.5001C26.0525 35.4543 26.0983 35.4086 26.1397 35.365C26.2051 35.2974 26.2683 35.2276 26.3249 35.1557C26.3685 35.1034 26.4121 35.0489 26.4536 34.9922L26.532 34.8854C26.5669 34.8396 26.6018 34.7873 26.6323 34.7328C26.6802 34.6565 26.7282 34.5803 26.774 34.504C26.811 34.4342 26.8437 34.3666 26.8764 34.2969C26.8764 34.2903 26.8808 34.286 26.883 34.2816C26.9157 34.2097 26.9484 34.1399 26.9745 34.0658C26.9789 34.0593 26.9832 34.0506 26.9832 34.044C27.0072 33.9765 27.029 33.9111 27.0464 33.8413C27.077 33.7498 27.0988 33.6582 27.1162 33.5645C27.1271 33.5122 27.1358 33.4621 27.1445 33.4119C27.1532 33.3574 27.1598 33.3051 27.162 33.2528C27.1729 33.1307 27.1772 33.0087 27.1707 32.8866C27.2165 33.5013 27.2448 34.1617 27.2404 34.8636L27.2448 34.868V34.8636Z" stroke="#231F20" stroke-width="0.219409" stroke-miterlimit="10"/>
</g>
<path d="M54.7423 25.5462C54.751 26.6884 54.1472 27.7478 53.162 28.3232C48.36 31.1155 43.5602 33.9099 38.7605 36.7043C36.9295 37.768 35.1029 38.8317 33.2741 39.8954C31.8224 40.7412 30.375 41.5847 28.9233 42.4283C28.2672 42.8119 27.6111 43.1934 26.955 43.5748H26.9528C24.5551 44.972 22.153 46.3693 19.7553 47.7643C18.89 48.2678 17.8023 47.6422 17.8067 46.6395V46.6243C17.8263 37.9816 17.8481 29.3412 17.8699 20.7007C17.8742 19.0332 18.7679 17.4943 20.2153 16.6638C27.3452 12.5768 34.4751 8.48979 41.605 4.40279C42.2153 4.05403 42.8257 3.70309 43.436 3.35433C43.97 3.04699 44.5041 2.73965 45.0381 2.43666C46.1585 1.79364 47.2745 1.1528 48.3949 0.511957C49.5894 -0.17466 50.7882 -0.859097 51.9827 -1.54353C52.4579 -1.816 52.9854 -1.83344 53.4344 -1.66342C54.06 -1.42583 54.5396 -0.83512 54.5439 -0.0722125C54.5766 4.00607 54.6071 8.08436 54.6377 12.1648C54.6595 14.6279 54.6769 17.091 54.6965 19.5563C54.7118 21.553 54.727 23.5496 54.7423 25.5462Z" fill="#B9F061"/>
<path opacity="0.34" d="M53.434 -1.66384C51.6227 7.80711 48.292 19.1025 42.0711 30.8665C40.9921 32.9046 39.8848 34.8511 38.7579 36.7039C36.9291 37.7676 35.1003 38.8313 33.2715 39.8972C33.9646 38.3387 34.6534 36.7584 35.3401 35.1563C35.3401 35.1563 37.0119 31.2567 38.6598 27.1675C40.7131 22.08 44.2181 12.7333 48.3923 0.511537C49.5868 -0.172901 50.7857 -0.859518 51.9802 -1.54396C52.4553 -1.81642 52.9828 -1.83386 53.4319 -1.66166L53.434 -1.66384Z" fill="white"/>
<path d="M43.3404 25.7735C43.3317 26.9832 43.3251 28.1952 43.3164 29.4049C43.3164 29.7341 43.6695 29.939 43.9529 29.7755C46.4095 28.3587 48.866 26.944 51.3226 25.5272C51.7324 25.2918 51.9896 24.8558 51.9983 24.3828C52.0223 23.1164 52.0484 21.85 52.0724 20.5835C52.0789 20.25 51.7171 20.0408 51.4316 20.2108C48.9554 21.68 46.477 23.1513 44.0008 24.6204C43.5932 24.8624 43.3426 25.3005 43.3404 25.7735Z" fill="white"/>
<path d="M43.3404 25.7735C43.3317 26.9832 43.3251 28.1952 43.3164 29.4049C43.3164 29.7341 43.6695 29.939 43.9529 29.7755C46.4095 28.3587 48.866 26.944 51.3226 25.5272C51.7324 25.2918 51.9896 24.8558 51.9983 24.3828C52.0223 23.1164 52.0484 21.85 52.0724 20.5835C52.0789 20.25 51.7171 20.0408 51.4316 20.2108C48.9554 21.68 46.477 23.1513 44.0008 24.6204C43.5932 24.8624 43.3426 25.3005 43.3404 25.7735Z" stroke="#231F20" stroke-width="0.219409" stroke-linecap="round" stroke-linejoin="round"/>
<path d="M43.3404 17.8848C43.3317 19.0946 43.3251 20.3065 43.3164 21.5163C43.3164 21.8454 43.6695 22.0503 43.9529 21.8868C46.4095 20.47 48.866 19.0553 51.3226 17.6385C51.7324 17.4031 51.9896 16.9672 51.9983 16.4942C52.0223 15.2277 52.0484 13.9613 52.0724 12.6949C52.0789 12.3614 51.7171 12.1521 51.4316 12.3221C48.9554 13.7913 46.477 15.2626 44.0008 16.7317C43.5932 16.9737 43.3426 17.4118 43.3404 17.8848Z" fill="white"/>
<path d="M43.3404 17.8848C43.3317 19.0946 43.3251 20.3065 43.3164 21.5163C43.3164 21.8454 43.6695 22.0503 43.9529 21.8868C46.4095 20.47 48.866 19.0553 51.3226 17.6385C51.7324 17.4031 51.9896 16.9672 51.9983 16.4942C52.0223 15.2277 52.0484 13.9613 52.0724 12.6949C52.0789 12.3614 51.7171 12.1521 51.4316 12.3221C48.9554 13.7913 46.477 15.2626 44.0008 16.7317C43.5932 16.9737 43.3426 17.4118 43.3404 17.8848Z" stroke="#231F20" stroke-width="0.219409" stroke-linecap="round" stroke-linejoin="round"/>
<path d="M43.3404 9.48443C43.3317 10.6942 43.3251 11.9061 43.3164 13.1159C43.3164 13.445 43.6695 13.6499 43.9529 13.4864C46.4095 12.0696 48.866 10.655 51.3226 9.23812C51.7324 9.00271 51.9896 8.56676 51.9983 8.09376C52.0223 6.82733 52.0484 5.56091 52.0724 4.29448C52.0789 3.96098 51.7171 3.75173 51.4316 3.92175C48.9554 5.39089 46.477 6.86221 44.0008 8.33135C43.5932 8.5733 43.3426 9.01143 43.3404 9.48443Z" fill="white"/>
<path d="M43.3404 9.48443C43.3317 10.6942 43.3251 11.9061 43.3164 13.1159C43.3164 13.445 43.6695 13.6499 43.9529 13.4864C46.4095 12.0696 48.866 10.655 51.3226 9.23812C51.7324 9.00271 51.9896 8.56676 51.9983 8.09376C52.0223 6.82733 52.0484 5.56091 52.0724 4.29448C52.0789 3.96098 51.7171 3.75173 51.4316 3.92175C48.9554 5.39089 46.477 6.86221 44.0008 8.33135C43.5932 8.5733 43.3426 9.01143 43.3404 9.48443Z" stroke="#231F20" stroke-width="0.219409" stroke-linecap="round" stroke-linejoin="round"/>
<path opacity="0.34" d="M45.0382 2.43555C44.114 6.19123 42.9936 10.1104 41.6443 14.1582C37.9867 25.1222 33.4638 34.5518 28.9234 42.4272C28.2673 42.8108 27.6112 43.1923 26.9551 43.5737C30.277 36.276 33.5706 28.636 36.7922 20.6538C39.1616 14.775 41.374 9.00309 43.4382 3.35322C43.9723 3.04587 44.5063 2.74071 45.0382 2.43555Z" fill="white"/>
<path d="M51.983 -1.54586C41.3938 4.52253 30.8046 10.5931 20.2155 16.6615C18.7681 17.4898 17.8744 19.0287 17.8701 20.6962C17.8483 29.3432 17.8265 37.9902 17.8047 46.6372C17.8025 47.6399 18.888 48.2655 19.7556 47.762C30.8896 41.2816 42.0259 34.8012 53.16 28.3187C54.1474 27.7433 54.7512 26.6861 54.7425 25.5439C54.6771 17.0037 54.6117 8.46349 54.5442 -0.0745386C54.5333 -1.38456 53.1186 -2.1976 51.983 -1.54586Z" stroke="#231F20" stroke-width="0.219409" stroke-linecap="round" stroke-linejoin="round"/>
<path d="M41.1229 20.5225C41.1251 23.5218 40.094 26.859 38.4026 29.8801C36.5585 33.1759 33.9298 36.0989 30.9958 37.8057C28.2755 39.3882 25.8015 39.6345 23.9684 38.7517C21.9739 37.7948 20.7358 35.5039 20.7641 32.1558C20.8165 25.7692 25.4571 18.0355 31.0787 14.8814C36.6414 11.76 41.1163 14.2841 41.1207 20.5204L41.1229 20.5225Z" fill="#E5E1C3"/>
<path d="M40.436 20.9191C40.4381 23.537 39.5968 26.4295 38.1952 29.0997C38.0993 29.2806 38.0012 29.4637 37.9009 29.6425C36.1833 32.7137 33.7311 35.4406 30.9977 37.0318C28.4627 38.5074 26.1565 38.7341 24.4476 37.9146C24.3386 37.8622 24.2318 37.8056 24.1293 37.7445C22.4575 36.768 21.4374 34.7038 21.4614 31.7655C21.5093 25.8105 25.8383 18.6021 31.0783 15.6616C36.2661 12.7517 40.436 15.1058 40.4403 20.9191H40.436Z" fill="white"/>
<path d="M41.1229 20.5225C41.1251 23.5218 40.0941 26.859 38.4026 29.8801C36.5585 33.1759 33.9298 36.0989 30.9958 37.8057C28.2755 39.3882 25.8015 39.6345 23.9684 38.7517C21.9739 37.7948 20.7358 35.5039 20.7641 32.1558C20.8165 25.7692 25.4571 18.0355 31.0787 14.8814C36.6414 11.76 41.1163 14.2841 41.1207 20.5204L41.1229 20.5225Z" stroke="#231F20" stroke-width="0.219409" stroke-miterlimit="10"/>
<path d="M27.5256 23.8728C27.5059 26.2095 29.1822 27.1294 31.2464 25.9261C33.291 24.736 34.9323 21.922 34.9301 19.6398C34.9301 17.3707 33.3019 16.453 31.2769 17.5886C29.2323 18.7352 27.5452 21.5492 27.5256 23.8706V23.8728Z" fill="#A09B80"/>
<path d="M27.5256 23.8728C27.5059 26.2095 29.1822 27.1294 31.2464 25.9261C33.291 24.736 34.9323 21.922 34.9301 19.6398C34.9301 17.3707 33.3019 16.453 31.2769 17.5886C29.2323 18.7352 27.5452 21.5492 27.5256 23.8706V23.8728Z" stroke="#231F20" stroke-width="0.219409" stroke-miterlimit="10"/>
<path d="M38.1908 29.1002C38.0949 29.2811 37.9968 29.4642 37.8966 29.6429C36.1789 32.7142 33.7267 35.441 30.9934 37.0322C28.4583 38.5079 26.1522 38.7346 24.4432 37.915C24.3343 37.8627 24.2274 37.806 24.125 37.745C24.9271 33.6515 27.8698 29.3029 31.3269 27.3629C34.5441 25.5581 37.2536 26.3777 38.193 29.1002H38.1908Z" fill="#A09B80"/>
<path d="M38.1908 29.1002C38.0949 29.2811 37.9968 29.4642 37.8966 29.6429C36.1789 32.7142 33.7267 35.441 30.9934 37.0322C28.4583 38.5079 26.1522 38.7346 24.4432 37.915C24.3343 37.8627 24.2274 37.806 24.125 37.745C24.9271 33.6515 27.8698 29.3029 31.3269 27.3629C34.5441 25.5581 37.2536 26.3777 38.193 29.1002H38.1908Z" stroke="#231F20" stroke-width="0.219409" stroke-miterlimit="10"/>
<path d="M23.5753 38.5405C23.5273 38.51 23.4815 38.4817 23.4336 38.4512C23.4815 38.4817 23.5273 38.51 23.5753 38.5384V38.5405Z" stroke="#231F20" stroke-width="0.219409" stroke-linecap="round" stroke-linejoin="round"/>
<path d="M37.6631 13.8669C37.8833 14.002 38.1034 14.135 38.3214 14.2723C36.4969 13.165 33.9314 13.2827 31.0803 14.8826C25.4588 18.0367 20.8181 25.7682 20.7658 32.157C20.7418 35.1934 21.7576 37.3601 23.4338 38.4521C23.2049 38.3104 22.976 38.1687 22.7494 38.0271C22.6861 37.9878 22.6229 37.9486 22.5619 37.9094C22.5597 37.9094 22.5575 37.9072 22.5532 37.905C20.8879 36.8086 19.8786 34.6485 19.9048 31.623C19.9571 25.2364 24.5978 17.5027 30.2193 14.3486C32.9898 12.7944 35.4877 12.6397 37.2991 13.6445C37.2991 13.6445 37.3035 13.6445 37.3056 13.6467C37.4277 13.7143 37.5476 13.7884 37.6631 13.8669Z" fill="#508417"/>
<path d="M37.6631 13.8669C37.8833 14.002 38.1034 14.135 38.3214 14.2723C36.4969 13.165 33.9314 13.2827 31.0803 14.8826C25.4588 18.0367 20.8181 25.7682 20.7658 32.157C20.7418 35.1934 21.7576 37.3601 23.4338 38.4521C23.2049 38.3104 22.976 38.1687 22.7494 38.0271C22.6861 37.9878 22.6229 37.9486 22.5619 37.9094C22.5597 37.9094 22.5575 37.9072 22.5532 37.905C20.8879 36.8086 19.8786 34.6485 19.9048 31.623C19.9571 25.2364 24.5978 17.5027 30.2193 14.3486C32.9898 12.7944 35.4877 12.6397 37.2991 13.6445C37.2991 13.6445 37.3035 13.6445 37.3056 13.6467C37.4277 13.7143 37.5476 13.7884 37.6631 13.8669Z" stroke="#231F20" stroke-width="0.219409" stroke-linecap="round" stroke-linejoin="round"/>
<path d="M38.3768 14.3042C38.3593 14.2933 38.3397 14.2802 38.3223 14.2715C38.3397 14.2824 38.3593 14.2933 38.3768 14.3042Z" stroke="#231F20" stroke-width="0.219409" stroke-linecap="round" stroke-linejoin="round"/>
<path d="M53.5815 -1.59971C53.102 -1.83513 52.5134 -1.8482 51.9838 -1.54522C41.3946 4.52535 30.8054 10.5937 20.2163 16.6643C18.7711 17.4926 17.8752 19.0315 17.8709 20.699C17.8491 29.346 17.8273 37.993 17.8055 46.64C17.8055 47.076 18.0104 47.44 18.3112 47.6711C17.9494 47.4814 17.5897 47.2896 17.2279 47.0978C16.8268 46.8863 16.5391 46.4678 16.5391 45.9512C16.5609 37.3042 16.5827 28.6572 16.6023 20.0102C16.6066 18.3427 17.5003 16.8038 18.9477 15.9755C29.5412 9.90493 40.1304 3.83437 50.7195 -2.23402C50.9942 -2.39096 51.2841 -2.46289 51.5674 -2.46289C51.805 -2.46289 52.0383 -2.41276 52.2519 -2.31903C52.3434 -2.27979 52.4328 -2.23184 52.5156 -2.17735C52.8709 -1.98553 53.224 -1.79371 53.5815 -1.59971Z" fill="#508417"/>
<path d="M53.5815 -1.59971C53.102 -1.83513 52.5134 -1.8482 51.9838 -1.54522C41.3946 4.52535 30.8054 10.5937 20.2163 16.6643C18.7711 17.4926 17.8752 19.0315 17.8709 20.699C17.8491 29.346 17.8273 37.993 17.8055 46.64C17.8055 47.076 18.0104 47.44 18.3112 47.6711C17.9494 47.4814 17.5897 47.2896 17.2279 47.0978C16.8268 46.8863 16.5391 46.4678 16.5391 45.9512C16.5609 37.3042 16.5827 28.6572 16.6023 20.0102C16.6066 18.3427 17.5003 16.8038 18.9477 15.9755C29.5412 9.90493 40.1304 3.83437 50.7195 -2.23402C50.9942 -2.39096 51.2841 -2.46289 51.5674 -2.46289C51.805 -2.46289 52.0383 -2.41276 52.2519 -2.31903C52.3434 -2.27979 52.4328 -2.23184 52.5156 -2.17735C52.8709 -1.98553 53.224 -1.79371 53.5815 -1.59971Z" stroke="#231F20" stroke-width="0.219409" stroke-linecap="round" stroke-linejoin="round"/>
</g>
</g>
<defs>
<clipPath id="clip0_421_90145">
<rect width="63.6287" height="50.6222" fill="white" transform="translate(-8.77734 -2.57227)"/>
</clipPath>
</defs>
</svg>
