<svg width="52" height="52" viewBox="0 0 52 52" fill="none" xmlns="http://www.w3.org/2000/svg">
<circle cx="26" cy="26" r="26" fill="#E9E8D9"/>
<mask id="mask0_421_90228" style="mask-type:alpha" maskUnits="userSpaceOnUse" x="0" y="0" width="52" height="52">
<circle cx="26" cy="26" r="26" fill="#E9E8D9"/>
</mask>
<g mask="url(#mask0_421_90228)">
<g clip-path="url(#clip0_421_90228)">
<path opacity="0.1" d="M13.4991 17.2623C14.2158 17.6806 14.9325 18.0943 15.647 18.5104C17.1053 19.3559 18.9005 19.3605 20.3633 18.5217C24.5189 16.1364 28.6745 13.7511 32.8278 11.3681C33.0404 11.246 33.2732 11.1668 33.5174 11.1352C35.758 10.839 37.9986 10.5406 40.2392 10.2421C40.7886 10.1698 40.9333 9.44175 40.454 9.16365C39.8254 8.79964 39.1969 8.43563 38.5706 8.07162C34.6479 5.83104 30.7252 3.58819 26.8002 1.34534C25.5838 0.651235 24.0916 0.653496 22.8775 1.34986C19.5154 3.28522 16.1512 5.22058 12.7869 7.15594C12.5472 7.29386 12.3098 7.43178 12.0702 7.56743C10.4943 8.47407 8.92071 9.3807 7.34484 10.2873C6.03576 11.0402 6.0335 12.9281 7.33805 13.6855C8.94106 14.617 10.5463 15.5485 12.1516 16.48C12.5992 16.74 13.0492 17 13.4968 17.2601L13.4991 17.2623Z" fill="#0B1107"/>
<path d="M43.8951 9.52977C41.6545 9.82595 39.4139 10.1244 37.1734 10.4228C36.9292 10.4545 36.6963 10.5336 36.4838 10.6557C32.3282 13.041 28.1726 15.4263 24.0192 17.8093C22.5587 18.6481 20.7612 18.6436 19.3029 17.798C18.5862 17.382 17.8695 16.966 17.155 16.55C16.7074 16.29 16.2575 16.03 15.8098 15.7699C14.2045 14.8384 12.6015 13.9047 10.9963 12.9754C9.6917 12.218 9.69396 10.3301 11.003 9.57725C12.5789 8.67061 14.1525 7.76398 15.7284 6.85735C15.9681 6.72169 16.2055 6.58377 16.4451 6.44586C19.8071 4.5105 23.1714 2.57514 26.5357 0.639777C27.7498 -0.0565911 29.242 -0.061113 30.4584 0.635255C34.3811 2.87584 38.3038 5.11869 42.2288 7.36153C42.8573 7.72554 43.4859 8.08955 44.1122 8.45356C44.5915 8.73166 44.4468 9.45968 43.8974 9.53203L43.8951 9.52977Z" fill="#FAF5D9"/>
<path opacity="0.81" d="M17.1552 16.5494C16.7075 16.2894 16.2576 16.0294 15.8099 15.7694C15.8777 13.4655 15.8823 11.0395 15.7963 8.5005C15.7783 7.94657 15.7556 7.39943 15.7285 6.8568C15.9682 6.72115 16.2056 6.58323 16.4452 6.44531C16.7278 7.89005 16.9562 9.46818 17.0873 11.1661C17.2388 13.1219 17.2411 14.9283 17.1552 16.5494Z" fill="white"/>
<path d="M43.8951 9.52895C44.4445 9.4566 44.5892 8.72858 44.1099 8.45048C43.4814 8.08647 42.8528 7.72246 42.2265 7.35845C38.3038 5.1156 34.3811 2.87502 30.4584 0.632171C29.242 -0.0619356 27.7498 -0.0596747 26.5357 0.638954C21.3581 3.61887 16.1806 6.59652 11.003 9.57643C9.69396 10.3293 9.6917 12.2172 10.9963 12.9746C13.7659 14.5821 16.5333 16.1919 19.3029 17.7994C20.759 18.645 22.5564 18.6496 24.0192 17.8107C28.1748 15.4255 32.3304 13.0402 36.4838 10.6549C36.6963 10.5328 36.9292 10.4537 37.1734 10.422C39.4139 10.1258 41.6545 9.82739 43.8974 9.53121L43.8951 9.52895Z" stroke="#231F20" stroke-width="0.219409" stroke-linecap="round" stroke-linejoin="round"/>
<path d="M44.3993 8.97492V11.8214C44.3925 12.086 44.2116 12.346 43.8951 12.3867C41.6545 12.6829 39.4139 12.9813 37.1711 13.2797C36.9292 13.3114 36.6963 13.3905 36.4838 13.5126C32.3282 15.8979 28.1726 18.2832 24.0192 20.6662C22.5587 21.505 20.759 21.5005 19.3029 20.6549C16.5333 19.0474 13.7636 17.4376 10.994 15.8301C10.3655 15.4638 10.0421 14.8375 10.0195 14.2022V14.1728C10.0195 14.1434 10.0195 14.1118 10.0195 14.0824C10.0195 13.187 10.0195 12.2917 10.0218 11.3964C10.0602 12.0159 10.3835 12.615 10.994 12.97C13.7636 14.5798 16.5333 16.1873 19.3029 17.7948C20.759 18.6404 22.5564 18.6472 24.0192 17.8084C28.1748 15.4231 32.3304 13.0378 36.4838 10.6525C36.6963 10.5304 36.9292 10.4513 37.1711 10.4197C39.4117 10.1235 41.6523 9.82503 43.8951 9.52659C44.2071 9.48589 44.388 9.23266 44.3993 8.97266V8.97492Z" fill="#A49F81"/>
<path d="M44.3993 8.97492V11.8214C44.3925 12.086 44.2116 12.346 43.8951 12.3867C41.6545 12.6829 39.4139 12.9813 37.1711 13.2797C36.9292 13.3114 36.6963 13.3905 36.4838 13.5126C32.3282 15.8979 28.1726 18.2832 24.0192 20.6662C22.5587 21.505 20.759 21.5005 19.3029 20.6549C16.5333 19.0474 13.7636 17.4376 10.994 15.8301C10.3655 15.4638 10.0421 14.8375 10.0195 14.2022V14.1728C10.0195 14.1434 10.0195 14.1118 10.0195 14.0824C10.0195 13.187 10.0195 12.2917 10.0218 11.3964C10.0602 12.0159 10.3835 12.615 10.994 12.97C13.7636 14.5798 16.5333 16.1873 19.3029 17.7948C20.759 18.6404 22.5564 18.6472 24.0192 17.8084C28.1748 15.4231 32.3304 13.0378 36.4838 10.6525C36.6963 10.5304 36.9292 10.4513 37.1711 10.4197C39.4117 10.1235 41.6523 9.82503 43.8951 9.52659C44.2071 9.48589 44.388 9.23266 44.3993 8.97266V8.97492Z" stroke="#231F20" stroke-width="0.219409" stroke-linecap="round" stroke-linejoin="round"/>
<path d="M26.8393 4.99178L30.6467 2.79189L29.6225 2.19727L25.8105 4.39489L26.837 4.99178H26.8393Z" fill="white"/>
<path d="M13.7117 12.569L25.2131 5.92861L24.1866 5.33398L12.6875 11.9743L13.7117 12.569Z" fill="white"/>
<path d="M21.8523 11.3421L33.6476 4.53213L32.6234 3.9375L20.8281 10.7474L21.8523 11.3421Z" fill="white"/>
<path d="M19.5633 15.9397L31.3586 9.12978L30.3344 8.53516L18.5391 15.3451L19.5633 15.9397Z" fill="white"/>
<path d="M16.712 14.3116L20.49 12.132L19.4636 11.5352L15.6855 13.717L16.712 14.3116Z" fill="white"/>
<path d="M26.8393 4.99178L30.6467 2.79189L29.6225 2.19727L25.8105 4.39489L26.837 4.99178H26.8393Z" stroke="#231F20" stroke-width="0.219409" stroke-linecap="round" stroke-linejoin="round"/>
<path d="M13.7117 12.569L25.2131 5.92861L24.1866 5.33398L12.6875 11.9743L13.7117 12.569Z" stroke="#231F20" stroke-width="0.219409" stroke-linecap="round" stroke-linejoin="round"/>
<path d="M21.8523 11.3421L33.6476 4.53213L32.6234 3.9375L20.8281 10.7474L21.8523 11.3421Z" stroke="#231F20" stroke-width="0.219409" stroke-linecap="round" stroke-linejoin="round"/>
<path d="M19.5633 15.9397L31.3586 9.12978L30.3344 8.53516L18.5391 15.3451L19.5633 15.9397Z" stroke="#231F20" stroke-width="0.219409" stroke-linecap="round" stroke-linejoin="round"/>
<path d="M16.712 14.3116L20.49 12.132L19.4636 11.5352L15.6855 13.717L16.712 14.3116Z" stroke="#231F20" stroke-width="0.219409" stroke-linecap="round" stroke-linejoin="round"/>
<path opacity="0.1" d="M59.6741 18.3583L46.3594 10.7412C45.1023 10.0222 43.5581 10.0268 42.3078 10.7525C39.6105 12.3126 36.9155 13.8749 34.2182 15.4349C33.1443 16.0567 32.0703 16.6784 30.9986 17.3002C30.4922 17.5941 29.988 17.8858 29.4838 18.1774C29.2441 18.3153 29.0067 18.4533 28.7671 18.5912C22.8615 22.0097 16.9582 25.4282 11.0527 28.8468C9.77298 29.5861 9.77524 31.4356 11.0527 32.1749C17.4986 35.8986 23.9445 39.6247 30.3904 43.3529C30.6414 43.4976 30.8924 43.6423 31.1433 43.787C31.7425 44.1352 32.3416 44.4811 32.943 44.8271C33.3003 45.0328 33.6575 45.2408 34.0147 45.4466C34.6048 45.788 35.3555 45.424 35.4504 44.7479C35.8732 41.7952 36.2937 38.8446 36.7165 35.8896C36.7324 35.7811 36.755 35.6748 36.7889 35.5731C36.9381 35.0892 37.2637 34.6709 37.7091 34.4109C45.0368 30.1016 52.3622 25.7923 59.6899 21.4829C60.8882 20.7798 60.8769 19.0434 59.6718 18.3538L59.6741 18.3583Z" fill="#0B1107"/>
<path d="M65.6955 20.2778C58.3701 24.5872 51.0424 28.8965 43.7147 33.2059C43.2715 33.4659 42.9437 33.8819 42.7945 34.368C42.7628 34.4697 42.738 34.576 42.7221 34.6845C42.2993 37.6373 41.8788 40.5901 41.456 43.5429C41.3611 44.2189 40.6104 44.5829 40.0203 44.2415C39.6631 44.0357 39.3059 43.8277 38.9486 43.622C38.3495 43.2738 37.7503 42.9279 37.1489 42.582C36.898 42.4373 36.647 42.2926 36.396 42.1479C29.9524 38.4196 23.5042 34.6936 17.0583 30.9698C15.7786 30.2305 15.7763 28.381 17.0583 27.6417C22.9616 24.2232 28.8671 20.8024 34.7727 17.3861C35.0124 17.2482 35.2498 17.108 35.4894 16.9724C35.9936 16.6784 36.5 16.3868 37.0042 16.0951C38.0759 15.4734 39.1499 14.8516 40.2238 14.2298C42.9188 12.6698 45.6161 11.1075 48.3134 9.54744C49.5637 8.82168 51.1079 8.81716 52.365 9.53614L65.6797 17.1532C66.8847 17.8428 66.896 19.5792 65.6977 20.2824L65.6955 20.2778Z" fill="#C1F861"/>
<path opacity="0.38" d="M37.15 42.5803C36.899 42.4356 36.6481 42.2909 36.3971 42.1462C36.0602 39.051 35.764 35.8676 35.5176 32.6028C35.1219 27.3371 34.8823 22.259 34.7715 17.3845C35.0111 17.2465 35.2485 17.1064 35.4882 16.9707C36.3609 21.3863 37.0528 26.4598 37.2834 32.085C37.4371 35.8495 37.3648 39.3653 37.1522 42.5826L37.15 42.5803Z" fill="white"/>
<path opacity="0.38" d="M42.7964 34.3673C42.7648 34.469 42.7399 34.5753 42.7241 34.6838C42.3013 37.6366 41.8807 40.5894 41.4579 43.5421C41.363 44.2182 40.6124 44.5822 40.0223 44.2408C39.665 44.035 39.3078 43.827 38.9506 43.6213C38.9483 40.1146 38.8533 36.4541 38.6386 32.6512C38.3085 26.7796 37.7342 21.2471 37.0039 16.0899C38.0756 15.4681 39.1495 14.8464 40.2235 14.2246C41.424 18.8527 42.4166 24.3694 42.7105 30.6141C42.7693 31.8983 42.7964 33.1509 42.7964 34.3673Z" fill="white"/>
<path d="M65.6766 17.1493L52.3619 9.53223C51.1048 8.81326 49.5629 8.81778 48.3103 9.54354C37.8919 15.5757 27.4758 21.6079 17.0574 27.6401C15.7777 28.3816 15.7777 30.2288 17.0574 30.9682C24.7107 35.3928 32.3662 39.8175 40.0195 44.2421C40.6096 44.5835 41.3602 44.2195 41.4552 43.5435C41.878 40.5907 42.2985 37.6379 42.7213 34.6851C42.8095 34.0679 43.1735 33.523 43.7116 33.2065C51.0393 28.8971 58.3647 24.5878 65.6924 20.2785C66.8907 19.5753 66.8794 17.8389 65.6743 17.1493H65.6766Z" stroke="#231F20" stroke-width="0.219409" stroke-linecap="round" stroke-linejoin="round"/>
<path d="M28.5552 26.8279L31.3452 27.3886C31.5735 27.4338 31.8222 27.4135 32.0099 27.3321L34.2889 26.3508C34.7547 26.1496 35.442 26.3553 35.4533 26.6967L35.5098 28.3721C35.5143 28.51 35.6364 28.6411 35.8331 28.7225L38.2636 29.7128C38.7633 29.9163 38.6751 30.3595 38.1099 30.4612L35.3493 30.9609C35.1232 31.0016 34.9491 31.1056 34.8835 31.2412L34.0899 32.8985C33.9249 33.2421 33.1562 33.3145 32.7899 33.0183L31.0151 31.5894C30.8704 31.4741 30.6398 31.404 30.3956 31.4063L27.4134 31.4198C26.7962 31.4221 26.4299 31.0129 26.7916 30.728L28.5371 29.3533C28.6795 29.2425 28.7134 29.0956 28.632 28.9622L27.6418 27.3479C27.4383 27.0178 27.9786 26.708 28.5529 26.8233L28.5552 26.8279Z" fill="white"/>
<path d="M28.5552 26.8279L31.3452 27.3886C31.5735 27.4338 31.8222 27.4135 32.0099 27.3321L34.2889 26.3508C34.7547 26.1496 35.442 26.3553 35.4533 26.6967L35.5098 28.3721C35.5143 28.51 35.6364 28.6411 35.8331 28.7225L38.2636 29.7128C38.7633 29.9163 38.6751 30.3595 38.1099 30.4612L35.3493 30.9609C35.1232 31.0016 34.9491 31.1056 34.8835 31.2412L34.0899 32.8985C33.9249 33.2421 33.1562 33.3145 32.7899 33.0183L31.0151 31.5894C30.8704 31.4741 30.6398 31.404 30.3956 31.4063L27.4134 31.4198C26.7962 31.4221 26.4299 31.0129 26.7916 30.728L28.5371 29.3533C28.6795 29.2425 28.7134 29.0956 28.632 28.9622L27.6418 27.3479C27.4383 27.0178 27.9786 26.708 28.5529 26.8233L28.5552 26.8279Z" stroke="#231F20" stroke-width="0.219409" stroke-linecap="round" stroke-linejoin="round"/>
<path d="M27.603 27.2494C27.5985 27.2222 27.5985 27.1951 27.603 27.168V27.2494Z" stroke="#231F20" stroke-width="0.219409" stroke-linecap="round" stroke-linejoin="round"/>
<path d="M27.6445 28.3378C27.6151 28.2881 27.6016 28.2406 27.6016 28.1954C27.6016 28.1818 27.6016 28.1682 27.6061 28.1569V27.248C27.6106 27.282 27.6242 27.3159 27.6468 27.3521L28.6393 28.9664C28.7207 29.0998 28.6845 29.2445 28.5421 29.3552L28.359 29.4977L27.6468 28.3378H27.6445Z" fill="#383A37"/>
<path d="M27.6445 28.3378C27.6151 28.2881 27.6016 28.2406 27.6016 28.1954C27.6016 28.1818 27.6016 28.1682 27.6061 28.1569V27.248C27.6106 27.282 27.6242 27.3159 27.6468 27.3521L28.6393 28.9664C28.7207 29.0998 28.6845 29.2445 28.5421 29.3552L28.359 29.4977L27.6468 28.3378H27.6445Z" stroke="#231F20" stroke-width="0.219409" stroke-linecap="round" stroke-linejoin="round"/>
<path d="M38.1093 31.4481L35.351 31.9477C35.1226 31.9884 34.9485 32.0924 34.8852 32.2281L34.0917 33.8853C33.9266 34.229 33.1579 34.3014 32.7894 34.0052L31.0145 32.5785C30.8698 32.461 30.6369 32.3931 30.3973 32.3954L27.4151 32.409C26.9403 32.4112 26.617 32.1716 26.6554 31.9296C26.6554 31.6176 26.6554 31.3079 26.6532 30.9959C26.6667 31.2174 26.9788 31.4255 27.4174 31.4232L30.3995 31.4096C30.6415 31.4096 30.8743 31.4775 31.0168 31.5928L32.7916 33.0194C33.1579 33.3156 33.9289 33.2432 34.0939 32.8996L34.8875 31.2423C34.9508 31.1067 35.1249 31.0027 35.3533 30.962L38.1116 30.4623C38.3852 30.4126 38.548 30.2814 38.5864 30.1367C38.5864 30.4306 38.5886 30.7246 38.5886 31.0185C38.618 31.1994 38.453 31.3848 38.1116 31.4458L38.1093 31.4481Z" fill="#383A37"/>
<path d="M38.1093 31.4481L35.351 31.9477C35.1226 31.9884 34.9485 32.0924 34.8852 32.2281L34.0917 33.8853C33.9266 34.229 33.1579 34.3014 32.7894 34.0052L31.0145 32.5785C30.8698 32.461 30.6369 32.3931 30.3973 32.3954L27.4151 32.409C26.9403 32.4112 26.617 32.1716 26.6554 31.9296C26.6554 31.6176 26.6554 31.3079 26.6532 30.9959C26.6667 31.2174 26.9788 31.4255 27.4174 31.4232L30.3995 31.4096C30.6415 31.4096 30.8743 31.4775 31.0168 31.5928L32.7916 33.0194C33.1579 33.3156 33.9289 33.2432 34.0939 32.8996L34.8875 31.2423C34.9508 31.1067 35.1249 31.0027 35.3533 30.962L38.1116 30.4623C38.3852 30.4126 38.548 30.2814 38.5864 30.1367C38.5864 30.4306 38.5886 30.7246 38.5886 31.0185C38.618 31.1994 38.453 31.3848 38.1116 31.4458L38.1093 31.4481Z" stroke="#231F20" stroke-width="0.219409" stroke-linecap="round" stroke-linejoin="round"/>
<path d="M39.2017 19.8962L41.9916 20.4569C42.22 20.5022 42.4687 20.4818 42.6564 20.4004L44.9354 19.4192C45.4011 19.218 46.0885 19.4237 46.0998 19.7651L46.1563 21.4404C46.1608 21.5784 46.2829 21.7095 46.4796 21.7909L48.9101 22.7812C49.4098 22.9847 49.3216 23.4278 48.7564 23.5296L45.9958 24.0292C45.7697 24.0699 45.5956 24.1739 45.53 24.3096L44.7364 25.9668C44.5714 26.3105 43.8027 26.3829 43.4364 26.0867L41.6615 24.6578C41.5168 24.5425 41.2862 24.4724 41.0421 24.4746L38.0599 24.4882C37.4426 24.4904 37.0764 24.0812 37.4381 23.7963L39.1836 22.4217C39.326 22.3109 39.3599 22.1639 39.2785 22.0306L38.2882 20.4162C38.0848 20.0862 38.6251 19.7764 39.1994 19.8917L39.2017 19.8962Z" fill="white"/>
<path d="M39.2017 19.8962L41.9916 20.4569C42.22 20.5022 42.4687 20.4818 42.6564 20.4004L44.9354 19.4192C45.4011 19.218 46.0885 19.4237 46.0998 19.7651L46.1563 21.4405C46.1608 21.5784 46.2829 21.7095 46.4796 21.7909L48.9101 22.7812C49.4098 22.9847 49.3216 23.4278 48.7564 23.5296L45.9958 24.0292C45.7697 24.0699 45.5956 24.1739 45.53 24.3096L44.7364 25.9668C44.5714 26.3105 43.8027 26.3829 43.4364 26.0867L41.6615 24.6578C41.5168 24.5425 41.2862 24.4724 41.0421 24.4746L38.0599 24.4882C37.4426 24.4904 37.0764 24.0812 37.4381 23.7963L39.1836 22.4217C39.326 22.3109 39.3599 22.1639 39.2785 22.0306L38.2882 20.4162C38.0848 20.0862 38.6251 19.7764 39.1994 19.8917L39.2017 19.8962Z" stroke="#231F20" stroke-width="0.219409" stroke-linecap="round" stroke-linejoin="round"/>
<path d="M38.2495 20.3158C38.245 20.2886 38.245 20.2615 38.2495 20.2344V20.3158Z" stroke="#231F20" stroke-width="0.219409" stroke-linecap="round" stroke-linejoin="round"/>
<path d="M38.291 21.4062C38.2616 21.3564 38.248 21.309 38.248 21.2637C38.248 21.2502 38.248 21.2366 38.2526 21.2253V20.3164C38.2571 20.3503 38.2707 20.3842 38.2933 20.4204L39.2858 22.0347C39.3672 22.1681 39.331 22.3128 39.1886 22.4236L39.0055 22.566L38.2933 21.4062H38.291Z" fill="#383A37"/>
<path d="M38.291 21.4062C38.2616 21.3564 38.248 21.309 38.248 21.2637C38.248 21.2502 38.248 21.2366 38.2526 21.2253V20.3164C38.2571 20.3503 38.2707 20.3842 38.2933 20.4204L39.2858 22.0347C39.3672 22.1681 39.331 22.3128 39.1886 22.4236L39.0055 22.566L38.2933 21.4062H38.291Z" stroke="#231F20" stroke-width="0.219409" stroke-linecap="round" stroke-linejoin="round"/>
<path d="M48.7558 24.5145L45.9975 25.0141C45.7691 25.0548 45.595 25.1588 45.5317 25.2945L44.7381 26.9518C44.5731 27.2954 43.8044 27.3678 43.4358 27.0716L41.661 25.6449C41.5163 25.5274 41.2834 25.4595 41.0438 25.4618L38.0616 25.4754C37.5868 25.4776 37.2635 25.238 37.3019 24.996C37.3019 24.684 37.3019 24.3743 37.2997 24.0623C37.3132 24.2839 37.6252 24.4919 38.0639 24.4896L41.046 24.476C41.2879 24.476 41.5208 24.5439 41.6633 24.6592L43.4381 26.0858C43.8044 26.382 44.5754 26.3096 44.7404 25.966L45.534 24.3087C45.5973 24.1731 45.7714 24.0691 45.9997 24.0284L48.7581 23.5287C49.0317 23.479 49.1944 23.3478 49.2329 23.2031C49.2329 23.497 49.2351 23.791 49.2351 24.0849C49.2645 24.2658 49.0995 24.4512 48.7581 24.5122L48.7558 24.5145Z" fill="#383A37"/>
<path d="M48.7558 24.5145L45.9975 25.0141C45.7691 25.0548 45.595 25.1588 45.5317 25.2945L44.7381 26.9518C44.5731 27.2954 43.8044 27.3678 43.4358 27.0716L41.661 25.6449C41.5163 25.5274 41.2834 25.4595 41.0438 25.4618L38.0616 25.4754C37.5868 25.4776 37.2635 25.238 37.3019 24.996C37.3019 24.684 37.3019 24.3743 37.2997 24.0623C37.3132 24.2839 37.6252 24.4919 38.0639 24.4896L41.046 24.476C41.2879 24.476 41.5208 24.5439 41.6633 24.6592L43.4381 26.0858C43.8044 26.382 44.5754 26.3096 44.7404 25.966L45.534 24.3087C45.5973 24.1731 45.7714 24.0691 45.9997 24.0284L48.7581 23.5287C49.0317 23.479 49.1944 23.3478 49.2329 23.2031C49.2329 23.497 49.2351 23.791 49.2351 24.0849C49.2645 24.2658 49.0995 24.4512 48.7581 24.5122L48.7558 24.5145Z" stroke="#231F20" stroke-width="0.219409" stroke-linecap="round" stroke-linejoin="round"/>
<path d="M50.5493 13.6287L53.3393 14.1894C53.5677 14.2346 53.8164 14.2142 54.004 14.1328L56.283 13.1516C56.7488 12.9504 57.4361 13.1561 57.4474 13.4975L57.5039 15.1729C57.5085 15.3108 57.6306 15.4419 57.8273 15.5233L60.2578 16.5136C60.7574 16.7171 60.6693 17.1602 60.104 17.262L57.3434 17.7616C57.1173 17.8023 56.9432 17.9063 56.8777 18.042L56.0841 19.6993C55.919 20.0429 55.1503 20.1153 54.784 19.8191L53.0092 18.3902C52.8645 18.2749 52.6339 18.2048 52.3897 18.207L49.4075 18.2206C48.7903 18.2229 48.424 17.8136 48.7858 17.5288L50.5312 16.1541C50.6737 16.0433 50.7076 15.8964 50.6262 15.763L49.6359 14.1487C49.4324 13.8186 49.9728 13.5088 50.547 13.6241L50.5493 13.6287Z" fill="white"/>
<path d="M50.5493 13.6287L53.3393 14.1894C53.5677 14.2346 53.8164 14.2142 54.004 14.1328L56.283 13.1516C56.7488 12.9504 57.4361 13.1561 57.4474 13.4975L57.5039 15.1729C57.5085 15.3108 57.6306 15.4419 57.8273 15.5233L60.2578 16.5136C60.7574 16.7171 60.6693 17.1602 60.104 17.262L57.3434 17.7616C57.1173 17.8023 56.9432 17.9063 56.8777 18.042L56.0841 19.6993C55.919 20.0429 55.1503 20.1153 54.784 19.8191L53.0092 18.3902C52.8645 18.2749 52.6339 18.2048 52.3897 18.207L49.4075 18.2206C48.7903 18.2229 48.424 17.8136 48.7858 17.5288L50.5312 16.1541C50.6737 16.0433 50.7076 15.8964 50.6262 15.763L49.6359 14.1487C49.4324 13.8186 49.9728 13.5088 50.547 13.6241L50.5493 13.6287Z" stroke="#231F20" stroke-width="0.219409" stroke-linecap="round" stroke-linejoin="round"/>
<path d="M49.6367 15.1406C49.6073 15.0908 49.5938 15.0433 49.5938 14.9981C49.5938 14.9845 49.5937 14.971 49.5983 14.9597V14.0508C49.6028 14.0847 49.6164 14.1186 49.639 14.1548L50.6315 15.7691C50.7129 15.9025 50.6767 16.0472 50.5343 16.158L50.3512 16.3004L49.639 15.1406H49.6367Z" fill="#383A37"/>
<path d="M49.6367 15.1406C49.6073 15.0908 49.5938 15.0433 49.5938 14.9981C49.5938 14.9845 49.5937 14.971 49.5983 14.9597V14.0508C49.6028 14.0847 49.6164 14.1186 49.639 14.1548L50.6315 15.7691C50.7129 15.9025 50.6767 16.0472 50.5343 16.158L50.3512 16.3004L49.639 15.1406H49.6367Z" stroke="#231F20" stroke-width="0.219409" stroke-linecap="round" stroke-linejoin="round"/>
<path d="M60.1035 18.2508L57.3451 18.7505C57.1168 18.7912 56.9427 18.8952 56.8794 19.0308L56.0858 20.6881C55.9207 21.0317 55.152 21.1041 54.7835 20.8079L53.0087 19.3813C52.864 19.2637 52.6311 19.1959 52.3914 19.1981L49.4093 19.2117C48.9345 19.214 48.6111 18.9743 48.6496 18.7324C48.6496 18.4204 48.6496 18.1106 48.6473 17.7986C48.6609 18.0202 48.9729 18.2282 49.4115 18.2259L52.3937 18.2124C52.6356 18.2124 52.8685 18.2802 53.0109 18.3955L54.7858 19.8221C55.152 20.1183 55.923 20.046 56.0881 19.7023L56.8816 18.045C56.9449 17.9094 57.119 17.8054 57.3474 17.7647L60.1057 17.265C60.3793 17.2153 60.5421 17.0842 60.5805 16.9395C60.5805 17.2334 60.5828 17.5273 60.5828 17.8212C60.6122 18.0021 60.4471 18.1875 60.1057 18.2485L60.1035 18.2508Z" fill="#383A37"/>
<path d="M60.1035 18.2508L57.3451 18.7505C57.1168 18.7912 56.9427 18.8952 56.8794 19.0308L56.0858 20.6881C55.9207 21.0317 55.152 21.1041 54.7835 20.8079L53.0087 19.3813C52.864 19.2637 52.6311 19.1959 52.3914 19.1981L49.4093 19.2117C48.9345 19.214 48.6111 18.9743 48.6496 18.7324C48.6496 18.4204 48.6496 18.1106 48.6473 17.7986C48.6609 18.0202 48.9729 18.2282 49.4115 18.2259L52.3937 18.2124C52.6356 18.2124 52.8685 18.2802 53.0109 18.3955L54.7858 19.8221C55.152 20.1183 55.923 20.046 56.0881 19.7023L56.8816 18.045C56.9449 17.9094 57.119 17.8054 57.3474 17.7647L60.1057 17.265C60.3793 17.2153 60.5421 17.0842 60.5805 16.9395C60.5805 17.2334 60.5828 17.5273 60.5828 17.8212C60.6122 18.0021 60.4471 18.1875 60.1057 18.2485L60.1035 18.2508Z" stroke="#231F20" stroke-width="0.219409" stroke-linecap="round" stroke-linejoin="round"/>
<path d="M65.6935 24.9404C58.3658 29.252 51.0404 33.5613 43.7127 37.8707C43.1746 38.1872 42.8106 38.7298 42.7224 39.3493C42.2996 42.3021 41.8768 45.2526 41.4563 48.2077C41.3591 48.8837 40.6107 49.2477 40.0206 48.904C32.3673 44.4794 24.7118 40.0547 17.0586 35.6301C16.4187 35.2593 16.0977 34.6127 16.0977 33.9638C16.0977 33.8892 16.1022 33.8123 16.1112 33.7377C16.1112 32.3155 16.109 30.8934 16.1067 29.4713C16.1564 30.0591 16.473 30.6266 17.0586 30.9658C24.7118 35.3904 32.3651 39.8151 40.0206 44.2397C40.6107 44.5811 41.3591 44.2171 41.4563 43.5433C41.8768 40.5906 42.2996 37.6378 42.7224 34.685C42.8106 34.0655 43.1746 33.5229 43.7127 33.2064C51.0381 28.8947 58.3658 24.5854 65.6935 20.2761C66.2271 19.9641 66.5188 19.4463 66.573 18.9082C66.573 20.3575 66.5775 21.8067 66.5775 23.2582C66.5775 23.2582 66.5768 23.2582 66.5753 23.2582C66.6205 23.9049 66.3266 24.5696 65.6912 24.9426L65.6935 24.9404Z" fill="#508817"/>
<path d="M65.6935 24.9404C58.3658 29.252 51.0404 33.5613 43.7127 37.8707C43.1746 38.1872 42.8106 38.7298 42.7224 39.3493C42.2996 42.3021 41.8768 45.2526 41.4563 48.2077C41.3591 48.8837 40.6107 49.2477 40.0206 48.904C32.3673 44.4794 24.7118 40.0547 17.0586 35.6301C16.4187 35.2593 16.0977 34.6127 16.0977 33.9638C16.0977 33.8892 16.1022 33.8123 16.1112 33.7377C16.1112 32.3155 16.109 30.8934 16.1067 29.4713C16.1564 30.0591 16.473 30.6266 17.0586 30.9658C24.7118 35.3904 32.3651 39.8151 40.0206 44.2397C40.6107 44.5811 41.3591 44.2171 41.4563 43.5433C41.8768 40.5906 42.2996 37.6378 42.7224 34.685C42.8106 34.0655 43.1746 33.5229 43.7127 33.2064C51.0381 28.8948 58.3658 24.5854 65.6935 20.2761C66.2271 19.9641 66.5188 19.4463 66.573 18.9082C66.573 20.3575 66.5775 21.8067 66.5775 23.2582C66.5775 23.2582 66.5768 23.2582 66.5753 23.2582C66.6205 23.9049 66.3266 24.5696 65.6913 24.9426L65.6935 24.9404Z" stroke="#231F20" stroke-width="0.219409" stroke-linecap="round" stroke-linejoin="round"/>
</g>
</g>
<defs>
<clipPath id="clip0_421_90228">
<rect width="60.3376" height="49.1482" fill="white" transform="translate(6.36328)"/>
</clipPath>
</defs>
</svg>
