<svg width="80" height="80" viewBox="0 0 80 80" fill="none" xmlns="http://www.w3.org/2000/svg">
<rect width="80" height="80" rx="40" fill="#C2C2C2"/>
<g clip-path="url(#clip0_2540_320105)">
<path d="M35.5 26.5H44.5L47.5 29.5H53.5C53.8978 29.5 54.2794 29.658 54.5607 29.9393C54.842 30.2206 55 30.6022 55 31V52C55 52.3978 54.842 52.7794 54.5607 53.0607C54.2794 53.342 53.8978 53.5 53.5 53.5H26.5C26.1022 53.5 25.7206 53.342 25.4393 53.0607C25.158 52.7794 25 52.3978 25 52V31C25 30.6022 25.158 30.2206 25.4393 29.9393C25.7206 29.658 26.1022 29.5 26.5 29.5H32.5L35.5 26.5ZM40 50.5C42.3869 50.5 44.6761 49.5518 46.364 47.864C48.0518 46.1761 49 43.8869 49 41.5C49 39.1131 48.0518 36.8239 46.364 35.136C44.6761 33.4482 42.3869 32.5 40 32.5C37.6131 32.5 35.3239 33.4482 33.636 35.136C31.9482 36.8239 31 39.1131 31 41.5C31 43.8869 31.9482 46.1761 33.636 47.864C35.3239 49.5518 37.6131 50.5 40 50.5ZM40 47.5C38.4087 47.5 36.8826 46.8679 35.7574 45.7426C34.6321 44.6174 34 43.0913 34 41.5C34 39.9087 34.6321 38.3826 35.7574 37.2574C36.8826 36.1321 38.4087 35.5 40 35.5C41.5913 35.5 43.1174 36.1321 44.2426 37.2574C45.3679 38.3826 46 39.9087 46 41.5C46 43.0913 45.3679 44.6174 44.2426 45.7426C43.1174 46.8679 41.5913 47.5 40 47.5Z" fill="#F0F0F0"/>
</g>
<defs>
<clipPath id="clip0_2540_320105">
<rect width="36" height="36" fill="white" transform="translate(22 22)"/>
</clipPath>
</defs>
</svg>
