<svg xmlns="http://www.w3.org/2000/svg" width="52" height="53" viewBox="0 0 52 53" fill="none">
  <g clip-path="url(#clip0_411_42721)">
    <mask id="mask0_411_42721" style="mask-type:luminance" maskUnits="userSpaceOnUse" x="0" y="0" width="52" height="53">
      <path d="M26 52.5C40.3594 52.5 52 40.8594 52 26.5C52 12.1406 40.3594 0.5 26 0.5C11.6406 0.5 0 12.1406 0 26.5C0 40.8594 11.6406 52.5 26 52.5Z" fill="white"/>
    </mask>
    <g mask="url(#mask0_411_42721)">
      <path d="M52 0.5H0V52.5H52V0.5Z" fill="#E5E1C3"/>
      <path d="M50.8701 6.84038C52.0001 6.19038 52.9201 6.71038 52.9201 8.01038L52.9701 26.7404C52.9701 28.0404 52.0601 29.6204 50.9301 30.2704L22.9701 46.4104C21.8401 47.0604 20.9201 46.5404 20.9201 45.2404L20.8701 26.5104C20.8701 25.2104 21.7801 23.6304 22.9101 22.9804L50.8701 6.84038Z" fill="#C1F861"/>
      <path d="M51.6597 6.56953C51.6597 6.56953 51.6797 6.56953 51.6897 6.56953C51.8097 6.56953 51.9197 6.56953 52.0197 6.58953C52.0197 6.58953 52.0297 6.58953 52.0397 6.58953C52.1497 6.60953 52.2497 6.64953 52.3397 6.69953L41.8997 0.639531C41.8997 0.639531 41.8997 0.639531 41.8897 0.639531C41.8597 0.619531 41.8197 0.599531 41.7897 0.589531C41.7497 0.579531 41.7197 0.559531 41.6797 0.549531C41.6597 0.549531 41.6297 0.539531 41.6097 0.529531C41.6097 0.529531 41.5997 0.529531 41.5897 0.529531C41.5897 0.529531 41.5697 0.529531 41.5597 0.529531C41.5197 0.529531 41.4797 0.519531 41.4397 0.519531C41.3997 0.519531 41.3497 0.519531 41.2997 0.519531C41.2897 0.519531 41.2697 0.519531 41.2497 0.519531C41.2497 0.519531 41.2297 0.519531 41.2197 0.519531C41.1897 0.519531 41.1697 0.519531 41.1397 0.519531C41.0797 0.519531 41.0197 0.539531 40.9597 0.559531C40.9297 0.559531 40.9097 0.579531 40.8797 0.589531C40.8597 0.589531 40.8297 0.609531 40.8097 0.609531C40.7797 0.619531 40.7497 0.629531 40.7197 0.639531C40.6297 0.679531 40.5297 0.729531 40.4297 0.779531L12.4897 16.9295C12.3597 17.0095 12.2297 17.0995 12.1097 17.1995C12.0697 17.2295 12.0297 17.2695 11.9897 17.2995C11.9297 17.3495 11.8697 17.3995 11.8097 17.4595C11.7797 17.4895 11.7597 17.5195 11.7297 17.5395C11.7097 17.5595 11.6797 17.5895 11.6597 17.6095C11.6297 17.6395 11.6097 17.6595 11.5797 17.6895C11.5197 17.7595 11.4697 17.8195 11.4097 17.8895C11.3897 17.9095 11.3697 17.9395 11.3597 17.9595C11.3597 17.9695 11.3397 17.9895 11.3297 17.9995C11.3097 18.0195 11.2897 18.0495 11.2797 18.0695C11.2397 18.1295 11.1997 18.1895 11.1597 18.2495C11.1197 18.3095 11.0897 18.3595 11.0497 18.4195C11.0497 18.4195 11.0497 18.4195 11.0497 18.4295C11.0497 18.4295 11.0497 18.4295 11.0497 18.4395C11.0197 18.4895 10.9997 18.5395 10.9697 18.5795C10.9397 18.6395 10.9097 18.6995 10.8797 18.7495C10.8497 18.7995 10.8297 18.8595 10.8097 18.9095C10.7797 18.9695 10.7597 19.0295 10.7297 19.0895C10.7097 19.1495 10.6797 19.2195 10.6597 19.2795C10.6497 19.3095 10.6397 19.3395 10.6297 19.3795C10.6297 19.3895 10.6297 19.4095 10.6197 19.4195C10.6197 19.4395 10.6097 19.4695 10.5997 19.4895C10.5797 19.5695 10.5597 19.6495 10.5397 19.7195C10.5297 19.7695 10.5197 19.8095 10.5197 19.8595C10.5197 19.8795 10.5197 19.9095 10.5097 19.9295C10.5097 19.9495 10.5097 19.9795 10.4997 19.9995C10.4797 20.1395 10.4697 20.2695 10.4697 20.3995L10.5197 39.1295C10.5197 39.7695 10.7497 40.2295 11.1197 40.4395L21.5497 46.4995C21.1797 46.2895 20.9497 45.8295 20.9497 45.1895L20.8997 26.4595C20.8997 26.3095 20.9097 26.1495 20.9397 25.9895C20.9397 25.9695 20.9397 25.9395 20.9497 25.9195C20.9797 25.7695 21.0097 25.6195 21.0497 25.4695C21.0497 25.4595 21.0497 25.4395 21.0597 25.4295C21.1097 25.2695 21.1697 25.1095 21.2397 24.9495C21.3097 24.7895 21.3897 24.6295 21.4797 24.4695C21.4797 24.4695 21.4797 24.4695 21.4797 24.4595C21.5697 24.3095 21.6597 24.1595 21.7697 24.0195C21.7697 24.0095 21.7897 23.9895 21.7997 23.9795C21.8897 23.8495 21.9897 23.7295 22.0997 23.6195C22.1197 23.5995 22.1497 23.5695 22.1697 23.5495C22.2497 23.4595 22.3397 23.3895 22.4297 23.3095C22.4697 23.2795 22.5097 23.2395 22.5497 23.2095C22.6697 23.1095 22.7997 23.0195 22.9297 22.9395L50.8697 6.83953C50.9997 6.76953 51.1197 6.70953 51.2497 6.66953C51.2697 6.66953 51.2997 6.64953 51.3197 6.64953C51.4397 6.60953 51.5497 6.58953 51.6597 6.57953V6.56953Z" fill="#508C17"/>
      <path d="M50.8701 6.84038C52.0001 6.19038 52.9201 6.71038 52.9201 8.01038L52.9701 26.7404C52.9701 28.0404 52.0601 29.6204 50.9301 30.2704L22.9701 46.4104C21.8401 47.0604 20.9201 46.5404 20.9201 45.2404L20.8701 26.5104C20.8701 25.2104 21.7801 23.6304 22.9101 22.9804L50.8701 6.84038Z" stroke="#231F20" stroke-width="0.25" stroke-linecap="round" stroke-linejoin="round"/>
      <path d="M51.6597 6.56953C51.6597 6.56953 51.6797 6.56953 51.6897 6.56953C51.8097 6.56953 51.9197 6.56953 52.0197 6.58953C52.0197 6.58953 52.0297 6.58953 52.0397 6.58953C52.1497 6.60953 52.2497 6.64953 52.3397 6.69953L41.8997 0.639531C41.8997 0.639531 41.8997 0.639531 41.8897 0.639531C41.8597 0.619531 41.8197 0.599531 41.7897 0.589531C41.7497 0.579531 41.7197 0.559531 41.6797 0.549531C41.6597 0.549531 41.6297 0.539531 41.6097 0.529531C41.6097 0.529531 41.5997 0.529531 41.5897 0.529531C41.5897 0.529531 41.5697 0.529531 41.5597 0.529531C41.5197 0.529531 41.4797 0.519531 41.4397 0.519531C41.3997 0.519531 41.3497 0.519531 41.2997 0.519531C41.2897 0.519531 41.2697 0.519531 41.2497 0.519531C41.2497 0.519531 41.2297 0.519531 41.2197 0.519531C41.1897 0.519531 41.1697 0.519531 41.1397 0.519531C41.0797 0.519531 41.0197 0.539531 40.9597 0.559531C40.9297 0.559531 40.9097 0.579531 40.8797 0.589531C40.8597 0.589531 40.8297 0.609531 40.8097 0.609531C40.7797 0.619531 40.7497 0.629531 40.7197 0.639531C40.6297 0.679531 40.5297 0.729531 40.4297 0.779531L12.4897 16.9295C12.3597 17.0095 12.2297 17.0995 12.1097 17.1995C12.0697 17.2295 12.0297 17.2695 11.9897 17.2995C11.9297 17.3495 11.8697 17.3995 11.8097 17.4595C11.7797 17.4895 11.7597 17.5195 11.7297 17.5395C11.7097 17.5595 11.6797 17.5895 11.6597 17.6095C11.6297 17.6395 11.6097 17.6595 11.5797 17.6895C11.5197 17.7595 11.4697 17.8195 11.4097 17.8895C11.3897 17.9095 11.3697 17.9395 11.3597 17.9595C11.3597 17.9695 11.3397 17.9895 11.3297 17.9995C11.3097 18.0195 11.2897 18.0495 11.2797 18.0695C11.2397 18.1295 11.1997 18.1895 11.1597 18.2495C11.1197 18.3095 11.0897 18.3595 11.0497 18.4195C11.0497 18.4195 11.0497 18.4195 11.0497 18.4295C11.0497 18.4295 11.0497 18.4295 11.0497 18.4395C11.0197 18.4895 10.9997 18.5395 10.9697 18.5795C10.9397 18.6395 10.9097 18.6995 10.8797 18.7495C10.8497 18.7995 10.8297 18.8595 10.8097 18.9095C10.7797 18.9695 10.7597 19.0295 10.7297 19.0895C10.7097 19.1495 10.6797 19.2195 10.6597 19.2795C10.6497 19.3095 10.6397 19.3395 10.6297 19.3795C10.6297 19.3895 10.6297 19.4095 10.6197 19.4195C10.6197 19.4395 10.6097 19.4695 10.5997 19.4895C10.5797 19.5695 10.5597 19.6495 10.5397 19.7195C10.5297 19.7695 10.5197 19.8095 10.5197 19.8595C10.5197 19.8795 10.5197 19.9095 10.5097 19.9295C10.5097 19.9495 10.5097 19.9795 10.4997 19.9995C10.4797 20.1395 10.4697 20.2695 10.4697 20.3995L10.5197 39.1295C10.5197 39.7695 10.7497 40.2295 11.1197 40.4395L21.5497 46.4995C21.1797 46.2895 20.9497 45.8295 20.9497 45.1895L20.8997 26.4595C20.8997 26.3095 20.9097 26.1495 20.9397 25.9895C20.9397 25.9695 20.9397 25.9395 20.9497 25.9195C20.9797 25.7695 21.0097 25.6195 21.0497 25.4695C21.0497 25.4595 21.0497 25.4395 21.0597 25.4295C21.1097 25.2695 21.1697 25.1095 21.2397 24.9495C21.3097 24.7895 21.3897 24.6295 21.4797 24.4695C21.4797 24.4695 21.4797 24.4695 21.4797 24.4595C21.5697 24.3095 21.6597 24.1595 21.7697 24.0195C21.7697 24.0095 21.7897 23.9895 21.7997 23.9795C21.8897 23.8495 21.9897 23.7295 22.0997 23.6195C22.1197 23.5995 22.1497 23.5695 22.1697 23.5495C22.2497 23.4595 22.3397 23.3895 22.4297 23.3095C22.4697 23.2795 22.5097 23.2395 22.5497 23.2095C22.6697 23.1095 22.7997 23.0195 22.9297 22.9395L50.8697 6.83953C50.9997 6.76953 51.1197 6.70953 51.2497 6.66953C51.2697 6.66953 51.2997 6.64953 51.3197 6.64953C51.4397 6.60953 51.5497 6.58953 51.6597 6.57953V6.56953Z" stroke="#231F20" stroke-width="0.25" stroke-linecap="round" stroke-linejoin="round"/>
      <path d="M51.0105 15.2109L51.0205 17.7109L46.7705 20.1609V17.6609L51.0105 15.2109Z" fill="white"/>
      <path d="M46.7701 20.1594L45.8301 19.6094V17.1094L46.7701 17.6594V20.1594Z" fill="#E5E1C3"/>
      <path d="M46.7701 17.6602L45.8301 17.1102L50.0701 14.6602L51.0101 15.2102L46.7701 17.6602Z" fill="#E5E1C3"/>
      <path d="M51.0105 15.2109L51.0205 17.7109L46.7705 20.1609V17.6609L51.0105 15.2109Z" stroke="#231F20" stroke-width="0.25" stroke-linecap="round" stroke-linejoin="round"/>
      <path d="M46.7701 20.1594L45.8301 19.6094V17.1094L46.7701 17.6594V20.1594Z" stroke="#231F20" stroke-width="0.25" stroke-linecap="round" stroke-linejoin="round"/>
      <path d="M46.7701 17.6602L45.8301 17.1102L50.0701 14.6602L51.0101 15.2102L46.7701 17.6602Z" stroke="#231F20" stroke-width="0.25" stroke-linecap="round" stroke-linejoin="round"/>
      <path d="M51.0105 20.6992L51.0205 23.1992L46.7705 25.6492V23.1492L51.0105 20.6992Z" fill="white"/>
      <path d="M46.7701 25.6494L45.8301 25.1094V22.6094L46.7701 23.1494V25.6494Z" fill="#E5E1C3"/>
      <path d="M46.7701 23.1502L45.8301 22.6102L50.0701 20.1602L51.0101 20.7002L46.7701 23.1502Z" fill="#E5E1C3"/>
      <path d="M51.0105 20.6992L51.0205 23.1992L46.7705 25.6492V23.1492L51.0105 20.6992Z" stroke="#231F20" stroke-width="0.25" stroke-linecap="round" stroke-linejoin="round"/>
      <path d="M46.7701 25.6494L45.8301 25.1094V22.6094L46.7701 23.1494V25.6494Z" stroke="#231F20" stroke-width="0.25" stroke-linecap="round" stroke-linejoin="round"/>
      <path d="M46.7701 23.1502L45.8301 22.6102L50.0701 20.1602L51.0101 20.7002L46.7701 23.1502Z" stroke="#231F20" stroke-width="0.25" stroke-linecap="round" stroke-linejoin="round"/>
      <path d="M26.3099 33.9786C26.3299 33.7886 26.3499 33.5986 26.3799 33.4186C26.4099 33.2086 26.4499 32.9986 26.4899 32.7886C26.5199 32.6486 26.5399 32.5086 26.5699 32.3586C26.5999 32.2286 26.6299 32.0886 26.6699 31.9586C26.7199 31.7686 26.7699 31.5886 26.8199 31.3986C26.8499 31.2886 26.8799 31.1886 26.9199 31.0786C26.9899 30.8686 27.0599 30.6586 27.1299 30.4486C27.1599 30.3586 27.1899 30.2786 27.2199 30.1886C27.3299 29.8986 27.4399 29.6086 27.5699 29.3286C27.5799 29.2986 27.5999 29.2586 27.6199 29.2286C27.7299 28.9686 27.8499 28.7186 27.9799 28.4686C28.0199 28.3886 28.0599 28.3086 28.0999 28.2386C28.2199 27.9986 28.3499 27.7686 28.4799 27.5286C28.5099 27.4786 28.5299 27.4386 28.5599 27.3886C28.7199 27.1186 28.8799 26.8486 29.0499 26.5886C29.0999 26.5086 29.1499 26.4386 29.1999 26.3586C29.3299 26.1686 29.4599 25.9786 29.5899 25.7986C29.6599 25.6986 29.7299 25.5986 29.8099 25.4986C29.9299 25.3486 30.0399 25.1986 30.1599 25.0486C30.2599 24.9286 30.3599 24.7986 30.4599 24.6786C30.5599 24.5586 30.6599 24.4486 30.7599 24.3386C30.9299 24.1486 31.1099 23.9586 31.2799 23.7786C31.3899 23.6686 31.4999 23.5486 31.6099 23.4486C31.6999 23.3686 31.7899 23.2786 31.8799 23.1986C32.0299 23.0686 32.1699 22.9386 32.3199 22.8086C32.4099 22.7386 32.4999 22.6586 32.5899 22.5886C32.7499 22.4586 32.9199 22.3386 33.0799 22.2186C33.1599 22.1586 33.2399 22.0986 33.3199 22.0486C33.5699 21.8786 33.8199 21.7186 34.0699 21.5686C34.3099 21.4286 34.5499 21.3086 34.7899 21.1986C34.8499 21.1686 34.9099 21.1386 34.9799 21.1186C35.1099 21.0586 35.2399 21.0086 35.3699 20.9586C35.5599 20.8886 35.7399 20.8186 35.9199 20.7686C36.0399 20.7286 36.1499 20.6986 36.2699 20.6686C36.3799 20.6386 36.4799 20.6186 36.5899 20.5986C36.7299 20.5686 36.8699 20.5486 37.0099 20.5386C37.0899 20.5386 37.1699 20.5186 37.2499 20.5186C37.4199 20.5086 37.5899 20.4986 37.7499 20.5186C37.7899 20.5186 37.8299 20.5186 37.8599 20.5186C38.0599 20.5286 38.2499 20.5586 38.4399 20.5886C38.4899 20.5886 38.5299 20.6086 38.5799 20.6186C38.7299 20.6486 38.8699 20.6986 39.0099 20.7386C39.0499 20.7586 39.0999 20.7686 39.1399 20.7886C39.3199 20.8586 39.4899 20.9386 39.6499 21.0286L37.5899 19.8286C37.5899 19.8286 37.5599 19.8086 37.5499 19.8086C37.4199 19.7386 37.2899 19.6686 37.1599 19.6186C37.1299 19.6086 37.1099 19.5986 37.0799 19.5886C37.0399 19.5686 36.9899 19.5586 36.9499 19.5386C36.8799 19.5186 36.8199 19.4886 36.7499 19.4686C36.6799 19.4486 36.5999 19.4286 36.5199 19.4186C36.4699 19.4086 36.4299 19.3986 36.3799 19.3886C36.3499 19.3886 36.3299 19.3786 36.2999 19.3686C36.1499 19.3386 35.9899 19.3186 35.8299 19.3086C35.8199 19.3086 35.8099 19.3086 35.7999 19.3086C35.7599 19.3086 35.7199 19.3086 35.6899 19.3086C35.5699 19.3086 35.4399 19.3086 35.3199 19.3086C35.2799 19.3086 35.2299 19.3086 35.1899 19.3186C35.1099 19.3186 35.0299 19.3286 34.9499 19.3386C34.8799 19.3386 34.8099 19.3486 34.7299 19.3586C34.6699 19.3586 34.5999 19.3886 34.5299 19.3986C34.4199 19.4186 34.3199 19.4386 34.2099 19.4686C34.1499 19.4786 34.0999 19.4886 34.0399 19.5086C33.9799 19.5286 33.9199 19.5486 33.8599 19.5686C33.6799 19.6186 33.4899 19.6886 33.3099 19.7586C33.2399 19.7886 33.1799 19.7986 33.1199 19.8286C33.0599 19.8586 32.9899 19.8886 32.9299 19.9186C32.8699 19.9486 32.8099 19.9786 32.7399 19.9986C32.4999 20.1086 32.2599 20.2286 32.0199 20.3686C31.7699 20.5186 31.5199 20.6786 31.2699 20.8486C31.1899 20.8986 31.1099 20.9686 31.0299 21.0186C30.8599 21.1386 30.6999 21.2586 30.5399 21.3886C30.4499 21.4586 30.3599 21.5386 30.2699 21.6086C30.1199 21.7386 29.9699 21.8586 29.8299 21.9986C29.7399 22.0786 29.6499 22.1586 29.5599 22.2486C29.5099 22.2986 29.4499 22.3486 29.3899 22.3986C29.3299 22.4586 29.2799 22.5186 29.2199 22.5786C29.0399 22.7586 28.8699 22.9486 28.6999 23.1386C28.6499 23.1986 28.5899 23.2586 28.5299 23.3186C28.4799 23.3686 28.4399 23.4286 28.3999 23.4786C28.2999 23.5986 28.1999 23.7286 28.0999 23.8486C28.0299 23.9286 27.9599 24.0086 27.8999 24.0886C27.8499 24.1586 27.7999 24.2286 27.7499 24.2986C27.6799 24.3986 27.5999 24.4986 27.5299 24.5886C27.4799 24.6586 27.4299 24.7186 27.3799 24.7886C27.2999 24.9086 27.2199 25.0286 27.1399 25.1486C27.0899 25.2286 27.0399 25.2986 26.9899 25.3786C26.9699 25.4086 26.9499 25.4386 26.9299 25.4686C26.7899 25.6886 26.6599 25.9086 26.5199 26.1286C26.5199 26.1386 26.4999 26.1586 26.4999 26.1686C26.4699 26.2186 26.4499 26.2586 26.4199 26.3086C26.3299 26.4686 26.2399 26.6286 26.1499 26.7886C26.1099 26.8586 26.0699 26.9386 26.0399 27.0186C25.9999 27.0986 25.9599 27.1786 25.9199 27.2586C25.8899 27.3286 25.8499 27.3986 25.8199 27.4686C25.7299 27.6486 25.6499 27.8386 25.5699 28.0186C25.5499 28.0486 25.5399 28.0886 25.5199 28.1186C25.5199 28.1186 25.5199 28.1386 25.5099 28.1486C25.4099 28.3786 25.3099 28.6186 25.2199 28.8486C25.1999 28.8886 25.1899 28.9386 25.1699 28.9786C25.1399 29.0686 25.1099 29.1486 25.0799 29.2386C25.0399 29.3586 24.9899 29.4786 24.9499 29.5886C24.9199 29.6786 24.8899 29.7686 24.8699 29.8686C24.8399 29.9786 24.7999 30.0886 24.7699 30.1886C24.7499 30.2586 24.7299 30.3186 24.7099 30.3886C24.6799 30.5086 24.6499 30.6286 24.6199 30.7486C24.5899 30.8786 24.5499 31.0186 24.5199 31.1486C24.5099 31.1986 24.4999 31.2386 24.4899 31.2886C24.4699 31.3886 24.4599 31.4786 24.4399 31.5786C24.3999 31.7886 24.3599 31.9986 24.3299 32.2086C24.3299 32.2686 24.3099 32.3286 24.2999 32.3786C24.2799 32.5086 24.2699 32.6386 24.2599 32.7686C24.2599 32.8586 24.2399 32.9586 24.2299 33.0486C24.2099 33.3386 24.1899 33.6286 24.1999 33.9186C24.1999 36.3886 25.0799 38.1286 26.4899 38.9486L28.5499 40.1486C27.1399 39.3286 26.2699 37.5886 26.2599 35.1186C26.2599 34.8286 26.2699 34.5386 26.2899 34.2486C26.2899 34.1586 26.3099 34.0686 26.3199 33.9686L26.3099 33.9786Z" fill="#A8A385"/>
      <path d="M34.0801 21.5689C38.4201 19.0689 41.9401 21.0789 41.9501 26.0589C41.9601 31.0389 38.4701 37.0989 34.1301 39.6089C29.7901 42.1189 26.2701 40.1089 26.2501 35.1289C26.2301 30.1489 29.7401 24.0789 34.0701 21.5789L34.0801 21.5689Z" fill="#E5E1C3"/>
      <path d="M26.3099 33.9786C26.3299 33.7886 26.3499 33.5986 26.3799 33.4186C26.4099 33.2086 26.4499 32.9986 26.4899 32.7886C26.5199 32.6486 26.5399 32.5086 26.5699 32.3586C26.5999 32.2286 26.6299 32.0886 26.6699 31.9586C26.7199 31.7686 26.7699 31.5886 26.8199 31.3986C26.8499 31.2886 26.8799 31.1886 26.9199 31.0786C26.9899 30.8686 27.0599 30.6586 27.1299 30.4486C27.1599 30.3586 27.1899 30.2786 27.2199 30.1886C27.3299 29.8986 27.4399 29.6086 27.5699 29.3286C27.5799 29.2986 27.5999 29.2586 27.6199 29.2286C27.7299 28.9686 27.8499 28.7186 27.9799 28.4686C28.0199 28.3886 28.0599 28.3086 28.0999 28.2386C28.2199 27.9986 28.3499 27.7686 28.4799 27.5286C28.5099 27.4786 28.5299 27.4386 28.5599 27.3886C28.7199 27.1186 28.8799 26.8486 29.0499 26.5886C29.0999 26.5086 29.1499 26.4386 29.1999 26.3586C29.3299 26.1686 29.4599 25.9786 29.5899 25.7986C29.6599 25.6986 29.7299 25.5986 29.8099 25.4986C29.9299 25.3486 30.0399 25.1986 30.1599 25.0486C30.2599 24.9286 30.3599 24.7986 30.4599 24.6786C30.5599 24.5586 30.6599 24.4486 30.7599 24.3386C30.9299 24.1486 31.1099 23.9586 31.2799 23.7786C31.3899 23.6686 31.4999 23.5486 31.6099 23.4486C31.6999 23.3686 31.7899 23.2786 31.8799 23.1986C32.0299 23.0686 32.1699 22.9386 32.3199 22.8086C32.4099 22.7386 32.4999 22.6586 32.5899 22.5886C32.7499 22.4586 32.9199 22.3386 33.0799 22.2186C33.1599 22.1586 33.2399 22.0986 33.3199 22.0486C33.5699 21.8786 33.8199 21.7186 34.0699 21.5686C34.3099 21.4286 34.5499 21.3086 34.7899 21.1986C34.8499 21.1686 34.9099 21.1386 34.9799 21.1186C35.1099 21.0586 35.2399 21.0086 35.3699 20.9586C35.5599 20.8886 35.7399 20.8186 35.9199 20.7686C36.0399 20.7286 36.1499 20.6986 36.2699 20.6686C36.3799 20.6386 36.4799 20.6186 36.5899 20.5986C36.7299 20.5686 36.8699 20.5486 37.0099 20.5386C37.0899 20.5386 37.1699 20.5186 37.2499 20.5186C37.4199 20.5086 37.5899 20.4986 37.7499 20.5186C37.7899 20.5186 37.8299 20.5186 37.8599 20.5186C38.0599 20.5286 38.2499 20.5586 38.4399 20.5886C38.4899 20.5886 38.5299 20.6086 38.5799 20.6186C38.7299 20.6486 38.8699 20.6986 39.0099 20.7386C39.0499 20.7586 39.0999 20.7686 39.1399 20.7886C39.3199 20.8586 39.4899 20.9386 39.6499 21.0286L37.5899 19.8286C37.5899 19.8286 37.5599 19.8086 37.5499 19.8086C37.4199 19.7386 37.2899 19.6686 37.1599 19.6186C37.1299 19.6086 37.1099 19.5986 37.0799 19.5886C37.0399 19.5686 36.9899 19.5586 36.9499 19.5386C36.8799 19.5186 36.8199 19.4886 36.7499 19.4686C36.6799 19.4486 36.5999 19.4286 36.5199 19.4186C36.4699 19.4086 36.4299 19.3986 36.3799 19.3886C36.3499 19.3886 36.3299 19.3786 36.2999 19.3686C36.1499 19.3386 35.9899 19.3186 35.8299 19.3086C35.8199 19.3086 35.8099 19.3086 35.7999 19.3086C35.7599 19.3086 35.7199 19.3086 35.6899 19.3086C35.5699 19.3086 35.4399 19.3086 35.3199 19.3086C35.2799 19.3086 35.2299 19.3086 35.1899 19.3186C35.1099 19.3186 35.0299 19.3286 34.9499 19.3386C34.8799 19.3386 34.8099 19.3486 34.7299 19.3586C34.6699 19.3586 34.5999 19.3886 34.5299 19.3986C34.4199 19.4186 34.3199 19.4386 34.2099 19.4686C34.1499 19.4786 34.0999 19.4886 34.0399 19.5086C33.9799 19.5286 33.9199 19.5486 33.8599 19.5686C33.6799 19.6186 33.4899 19.6886 33.3099 19.7586C33.2399 19.7886 33.1799 19.7986 33.1199 19.8286C33.0599 19.8586 32.9899 19.8886 32.9299 19.9186C32.8699 19.9486 32.8099 19.9786 32.7399 19.9986C32.4999 20.1086 32.2599 20.2286 32.0199 20.3686C31.7699 20.5186 31.5199 20.6786 31.2699 20.8486C31.1899 20.8986 31.1099 20.9686 31.0299 21.0186C30.8599 21.1386 30.6999 21.2586 30.5399 21.3886C30.4499 21.4586 30.3599 21.5386 30.2699 21.6086C30.1199 21.7386 29.9699 21.8586 29.8299 21.9986C29.7399 22.0786 29.6499 22.1586 29.5599 22.2486C29.5099 22.2986 29.4499 22.3486 29.3899 22.3986C29.3299 22.4586 29.2799 22.5186 29.2199 22.5786C29.0399 22.7586 28.8699 22.9486 28.6999 23.1386C28.6499 23.1986 28.5899 23.2586 28.5299 23.3186C28.4799 23.3686 28.4399 23.4286 28.3999 23.4786C28.2999 23.5986 28.1999 23.7286 28.0999 23.8486C28.0299 23.9286 27.9599 24.0086 27.8999 24.0886C27.8499 24.1586 27.7999 24.2286 27.7499 24.2986C27.6799 24.3986 27.5999 24.4986 27.5299 24.5886C27.4799 24.6586 27.4299 24.7186 27.3799 24.7886C27.2999 24.9086 27.2199 25.0286 27.1399 25.1486C27.0899 25.2286 27.0399 25.2986 26.9899 25.3786C26.9699 25.4086 26.9499 25.4386 26.9299 25.4686C26.7899 25.6886 26.6599 25.9086 26.5199 26.1286C26.5199 26.1386 26.4999 26.1586 26.4999 26.1686C26.4699 26.2186 26.4499 26.2586 26.4199 26.3086C26.3299 26.4686 26.2399 26.6286 26.1499 26.7886C26.1099 26.8586 26.0699 26.9386 26.0399 27.0186C25.9999 27.0986 25.9599 27.1786 25.9199 27.2586C25.8899 27.3286 25.8499 27.3986 25.8199 27.4686C25.7299 27.6486 25.6499 27.8386 25.5699 28.0186C25.5499 28.0486 25.5399 28.0886 25.5199 28.1186C25.5199 28.1186 25.5199 28.1386 25.5099 28.1486C25.4099 28.3786 25.3099 28.6186 25.2199 28.8486C25.1999 28.8886 25.1899 28.9386 25.1699 28.9786C25.1399 29.0686 25.1099 29.1486 25.0799 29.2386C25.0399 29.3586 24.9899 29.4786 24.9499 29.5886C24.9199 29.6786 24.8899 29.7686 24.8699 29.8686C24.8399 29.9786 24.7999 30.0886 24.7699 30.1886C24.7499 30.2586 24.7299 30.3186 24.7099 30.3886C24.6799 30.5086 24.6499 30.6286 24.6199 30.7486C24.5899 30.8786 24.5499 31.0186 24.5199 31.1486C24.5099 31.1986 24.4999 31.2386 24.4899 31.2886C24.4699 31.3886 24.4599 31.4786 24.4399 31.5786C24.3999 31.7886 24.3599 31.9986 24.3299 32.2086C24.3299 32.2686 24.3099 32.3286 24.2999 32.3786C24.2799 32.5086 24.2699 32.6386 24.2599 32.7686C24.2599 32.8586 24.2399 32.9586 24.2299 33.0486C24.2099 33.3386 24.1899 33.6286 24.1999 33.9186C24.1999 36.3886 25.0799 38.1286 26.4899 38.9486L28.5499 40.1486C27.1399 39.3286 26.2699 37.5886 26.2599 35.1186C26.2599 34.8286 26.2699 34.5386 26.2899 34.2486C26.2899 34.1586 26.3099 34.0686 26.3199 33.9686L26.3099 33.9786Z" stroke="#231F20" stroke-width="0.25" stroke-linecap="round" stroke-linejoin="round"/>
      <path d="M34.0801 21.5689C38.4201 19.0689 41.9401 21.0789 41.9501 26.0589C41.9601 31.0389 38.4701 37.0989 34.1301 39.6089C29.7901 42.1189 26.2701 40.1089 26.2501 35.1289C26.2301 30.1489 29.7401 24.0789 34.0701 21.5789L34.0801 21.5689Z" stroke="#231F20" stroke-width="0.25" stroke-linecap="round" stroke-linejoin="round"/>
      <path d="M40.9697 26.4686C41.1197 26.4086 41.2697 26.3586 41.4197 26.3186C41.5097 26.2886 41.6097 26.2586 41.6997 26.2386C41.7897 26.2186 41.8697 26.1986 41.9597 26.1786C42.0697 26.1586 42.1897 26.1386 42.2997 26.1286C42.3597 26.1286 42.4297 26.1186 42.4897 26.1086C42.6297 26.1086 42.7597 26.0986 42.8997 26.1086C42.9297 26.1086 42.9597 26.1086 42.9897 26.1086C43.1497 26.1086 43.3097 26.1386 43.4597 26.1686C43.4997 26.1686 43.5297 26.1886 43.5697 26.1986C43.6897 26.2286 43.8097 26.2586 43.9197 26.2986C43.9597 26.3086 43.9897 26.3186 44.0297 26.3386C44.1697 26.3986 44.3097 26.4586 44.4497 26.5386L39.5597 23.4786C39.5597 23.4786 39.5397 23.4686 39.5297 23.4586C39.4297 23.3986 39.3197 23.3486 39.2097 23.2986C39.1897 23.2986 39.1697 23.2886 39.1497 23.2786C39.1097 23.2686 39.0797 23.2486 39.0397 23.2386C38.9797 23.2186 38.9297 23.1986 38.8697 23.1786C38.8097 23.1586 38.7497 23.1486 38.6897 23.1386C38.6497 23.1386 38.6197 23.1186 38.5797 23.1086C38.5597 23.1086 38.5397 23.0986 38.5197 23.0986C38.3897 23.0786 38.2697 23.0586 38.1397 23.0586H38.1197C38.0897 23.0586 38.0597 23.0586 38.0297 23.0586C37.9297 23.0586 37.8297 23.0586 37.7297 23.0586C37.6997 23.0586 37.6597 23.0586 37.6297 23.0686C37.5697 23.0686 37.4997 23.0786 37.4397 23.0886C37.3797 23.0886 37.3197 23.0886 37.2597 23.1086C37.2097 23.1086 37.1497 23.1286 37.0997 23.1386C37.0097 23.1586 36.9297 23.1686 36.8397 23.1986C36.7897 23.2086 36.7497 23.2186 36.6997 23.2286C36.6497 23.2386 36.5997 23.2586 36.5597 23.2786C36.4097 23.3186 36.2597 23.3786 36.1097 23.4286C36.0597 23.4486 36.0097 23.4586 35.9497 23.4786C35.8997 23.4986 35.8497 23.5286 35.7897 23.5486C35.7397 23.5686 35.6897 23.5986 35.6397 23.6186C35.4497 23.7086 35.2497 23.8086 35.0597 23.9186C34.8597 24.0386 34.6497 24.1686 34.4497 24.3086C34.3797 24.3486 34.3197 24.3986 34.2597 24.4486C34.1297 24.5486 33.9897 24.6486 33.8597 24.7486C33.7897 24.8086 33.7197 24.8686 33.6397 24.9286C33.5197 25.0286 33.3997 25.1386 33.2797 25.2386C33.2097 25.3086 33.1397 25.3686 33.0697 25.4386C33.0297 25.4786 32.9797 25.5186 32.9397 25.5686C32.8897 25.6186 32.8497 25.6686 32.7997 25.7186C32.6597 25.8686 32.5197 26.0186 32.3797 26.1686C32.3397 26.2186 32.2897 26.2586 32.2397 26.3086C32.1997 26.3486 32.1697 26.3986 32.1297 26.4386C32.0497 26.5386 31.9597 26.6386 31.8797 26.7386C31.8297 26.8086 31.7697 26.8686 31.7197 26.9386C31.6797 26.9986 31.6397 27.0486 31.5897 27.1086C31.5297 27.1886 31.4697 27.2686 31.4097 27.3486C31.3697 27.4086 31.3297 27.4586 31.2897 27.5186C31.2197 27.6086 31.1597 27.7086 31.0997 27.8086C31.0597 27.8686 31.0197 27.9286 30.9797 27.9886C30.9597 28.0186 30.9497 28.0386 30.9297 28.0686C30.8197 28.2486 30.7097 28.4286 30.5997 28.6086C30.5997 28.6186 30.5897 28.6286 30.5797 28.6486C30.5597 28.6886 30.5397 28.7186 30.5197 28.7586C30.4497 28.8886 30.3697 29.0186 30.2997 29.1486C30.2697 29.2086 30.2397 29.2686 30.2097 29.3286C30.1797 29.3886 30.1497 29.4586 30.1097 29.5186C30.0797 29.5786 30.0497 29.6286 30.0297 29.6886C29.9597 29.8386 29.8897 29.9886 29.8197 30.1386C29.8097 30.1686 29.7897 30.1886 29.7797 30.2186C29.7797 30.2186 29.7797 30.2286 29.7697 30.2386C29.6897 30.4286 29.6097 30.6186 29.5397 30.8086C29.5297 30.8486 29.5197 30.8786 29.4997 30.9186C29.4697 30.9886 29.4497 31.0586 29.4297 31.1286C29.3997 31.2286 29.3597 31.3186 29.3297 31.4186C29.3097 31.4886 29.2897 31.5686 29.2597 31.6386C29.2297 31.7286 29.2097 31.8086 29.1797 31.8986C29.1597 31.9486 29.1497 32.0086 29.1297 32.0586C29.0997 32.1586 29.0797 32.2486 29.0597 32.3486C29.0297 32.4586 28.9997 32.5686 28.9797 32.6786C28.9797 32.7186 28.9597 32.7586 28.9497 32.7886C28.9297 32.8686 28.9297 32.9386 28.9097 33.0186C28.8797 33.1886 28.8497 33.3586 28.8197 33.5286C28.8197 33.5786 28.7997 33.6186 28.7997 33.6686C28.7897 33.7786 28.7797 33.8786 28.7697 33.9886C28.7697 34.0686 28.7497 34.1386 28.7497 34.2186C28.7297 34.4586 28.7197 34.6886 28.7197 34.9186C28.7197 36.1686 28.9997 37.1886 29.4897 37.9386C29.7797 38.3886 30.1497 38.7386 30.5797 38.9886L35.4697 42.0486C34.3297 41.3886 33.6197 39.9786 33.6197 37.9686C33.6197 37.7386 33.6297 37.4986 33.6497 37.2686C33.6497 37.1986 33.6597 37.1186 33.6697 37.0486C33.6797 36.8986 33.6997 36.7486 33.7297 36.5886C33.7497 36.4186 33.7797 36.2486 33.8197 36.0786C33.8397 35.9586 33.8597 35.8486 33.8897 35.7286C33.9097 35.6186 33.9397 35.5086 33.9697 35.4086C34.0097 35.2586 34.0497 35.1086 34.0897 34.9586C34.1197 34.8686 34.1397 34.7886 34.1697 34.6986C34.2197 34.5286 34.2797 34.3586 34.3397 34.1886C34.3597 34.1186 34.3897 34.0486 34.4097 33.9786C34.4997 33.7486 34.5897 33.5086 34.6897 33.2786C34.6997 33.2486 34.7097 33.2286 34.7297 33.1986C34.8197 32.9886 34.9197 32.7886 35.0197 32.5786C35.0497 32.5186 35.0797 32.4486 35.1197 32.3886C35.2197 32.1986 35.3197 32.0086 35.4297 31.8186C35.4497 31.7786 35.4697 31.7486 35.4897 31.7086C35.6197 31.4886 35.7497 31.2686 35.8897 31.0586C35.9297 30.9986 35.9697 30.9386 36.0097 30.8786C36.1097 30.7286 36.2197 30.5686 36.3297 30.4286C36.3897 30.3486 36.4497 30.2686 36.5097 30.1886C36.5997 30.0686 36.6997 29.9386 36.7997 29.8186C36.8797 29.7186 36.9597 29.6186 37.0497 29.5186C37.1297 29.4286 37.2097 29.3386 37.2897 29.2386C37.4297 29.0886 37.5697 28.9386 37.7097 28.7886C37.7997 28.6986 37.8897 28.6086 37.9797 28.5186C38.0497 28.4486 38.1197 28.3886 38.1897 28.3186C38.3097 28.2086 38.4297 28.1086 38.5497 27.9986C38.6197 27.9386 38.6897 27.8786 38.7697 27.8186C38.8997 27.7186 39.0397 27.6186 39.1697 27.5186C39.2297 27.4686 39.2997 27.4186 39.3597 27.3786C39.5597 27.2386 39.7597 27.1086 39.9697 26.9886C40.1697 26.8786 40.3597 26.7786 40.5497 26.6886C40.5997 26.6686 40.6497 26.6386 40.6997 26.6186C40.8097 26.5686 40.9097 26.5286 41.0097 26.4886L40.9697 26.4686Z" fill="#E5E1C3"/>
      <path d="M44.4257 36.8801C46.9119 32.6016 46.9183 27.9657 44.4399 26.5256C41.9616 25.0854 37.9371 27.3865 35.4509 31.6651C32.9647 35.9436 32.9583 40.5795 35.4366 42.0196C37.915 43.4598 41.9395 41.1587 44.4257 36.8801Z" fill="white"/>
      <path d="M42.6531 35.8509C44.1598 33.258 44.1657 30.4497 42.6663 29.5784C41.1669 28.7071 38.7299 30.1028 37.2232 32.6957C35.7165 35.2886 35.7106 38.0969 37.21 38.9682C38.7095 39.8395 41.1464 38.4438 42.6531 35.8509Z" fill="#383A37"/>
      <path d="M42.6531 35.8509C44.1598 33.258 44.1657 30.4497 42.6663 29.5784C41.1669 28.7071 38.7299 30.1028 37.2232 32.6957C35.7165 35.2886 35.7106 38.0969 37.21 38.9682C38.7095 39.8395 41.1464 38.4438 42.6531 35.8509Z" stroke="#231F20" stroke-width="0.25" stroke-linecap="round" stroke-linejoin="round"/>
      <path d="M40.9697 26.4686C41.1197 26.4086 41.2697 26.3586 41.4197 26.3186C41.5097 26.2886 41.6097 26.2586 41.6997 26.2386C41.7897 26.2186 41.8697 26.1986 41.9597 26.1786C42.0697 26.1586 42.1897 26.1386 42.2997 26.1286C42.3597 26.1286 42.4297 26.1186 42.4897 26.1086C42.6297 26.1086 42.7597 26.0986 42.8997 26.1086C42.9297 26.1086 42.9597 26.1086 42.9897 26.1086C43.1497 26.1086 43.3097 26.1386 43.4597 26.1686C43.4997 26.1686 43.5297 26.1886 43.5697 26.1986C43.6897 26.2286 43.8097 26.2586 43.9197 26.2986C43.9597 26.3086 43.9897 26.3186 44.0297 26.3386C44.1697 26.3986 44.3097 26.4586 44.4497 26.5386L39.5597 23.4786C39.5597 23.4786 39.5397 23.4686 39.5297 23.4586C39.4297 23.3986 39.3197 23.3486 39.2097 23.2986C39.1897 23.2986 39.1697 23.2886 39.1497 23.2786C39.1097 23.2686 39.0797 23.2486 39.0397 23.2386C38.9797 23.2186 38.9297 23.1986 38.8697 23.1786C38.8097 23.1586 38.7497 23.1486 38.6897 23.1386C38.6497 23.1386 38.6197 23.1186 38.5797 23.1086C38.5597 23.1086 38.5397 23.0986 38.5197 23.0986C38.3897 23.0786 38.2697 23.0586 38.1397 23.0586H38.1197C38.0897 23.0586 38.0597 23.0586 38.0297 23.0586C37.9297 23.0586 37.8297 23.0586 37.7297 23.0586C37.6997 23.0586 37.6597 23.0586 37.6297 23.0686C37.5697 23.0686 37.4997 23.0786 37.4397 23.0886C37.3797 23.0886 37.3197 23.0886 37.2597 23.1086C37.2097 23.1086 37.1497 23.1286 37.0997 23.1386C37.0097 23.1586 36.9297 23.1686 36.8397 23.1986C36.7897 23.2086 36.7497 23.2186 36.6997 23.2286C36.6497 23.2386 36.5997 23.2586 36.5597 23.2786C36.4097 23.3186 36.2597 23.3786 36.1097 23.4286C36.0597 23.4486 36.0097 23.4586 35.9497 23.4786C35.8997 23.4986 35.8497 23.5286 35.7897 23.5486C35.7397 23.5686 35.6897 23.5986 35.6397 23.6186C35.4497 23.7086 35.2497 23.8086 35.0597 23.9186C34.8597 24.0386 34.6497 24.1686 34.4497 24.3086C34.3797 24.3486 34.3197 24.3986 34.2597 24.4486C34.1297 24.5486 33.9897 24.6486 33.8597 24.7486C33.7897 24.8086 33.7197 24.8686 33.6397 24.9286C33.5197 25.0286 33.3997 25.1386 33.2797 25.2386C33.2097 25.3086 33.1397 25.3686 33.0697 25.4386C33.0297 25.4786 32.9797 25.5186 32.9397 25.5686C32.8897 25.6186 32.8497 25.6686 32.7997 25.7186C32.6597 25.8686 32.5197 26.0186 32.3797 26.1686C32.3397 26.2186 32.2897 26.2586 32.2397 26.3086C32.1997 26.3486 32.1697 26.3986 32.1297 26.4386C32.0497 26.5386 31.9597 26.6386 31.8797 26.7386C31.8297 26.8086 31.7697 26.8686 31.7197 26.9386C31.6797 26.9986 31.6397 27.0486 31.5897 27.1086C31.5297 27.1886 31.4697 27.2686 31.4097 27.3486C31.3697 27.4086 31.3297 27.4586 31.2897 27.5186C31.2197 27.6086 31.1597 27.7086 31.0997 27.8086C31.0597 27.8686 31.0197 27.9286 30.9797 27.9886C30.9597 28.0186 30.9497 28.0386 30.9297 28.0686C30.8197 28.2486 30.7097 28.4286 30.5997 28.6086C30.5997 28.6186 30.5897 28.6286 30.5797 28.6486C30.5597 28.6886 30.5397 28.7186 30.5197 28.7586C30.4497 28.8886 30.3697 29.0186 30.2997 29.1486C30.2697 29.2086 30.2397 29.2686 30.2097 29.3286C30.1797 29.3886 30.1497 29.4586 30.1097 29.5186C30.0797 29.5786 30.0497 29.6286 30.0297 29.6886C29.9597 29.8386 29.8897 29.9886 29.8197 30.1386C29.8097 30.1686 29.7897 30.1886 29.7797 30.2186C29.7797 30.2186 29.7797 30.2286 29.7697 30.2386C29.6897 30.4286 29.6097 30.6186 29.5397 30.8086C29.5297 30.8486 29.5197 30.8786 29.4997 30.9186C29.4697 30.9886 29.4497 31.0586 29.4297 31.1286C29.3997 31.2286 29.3597 31.3186 29.3297 31.4186C29.3097 31.4886 29.2897 31.5686 29.2597 31.6386C29.2297 31.7286 29.2097 31.8086 29.1797 31.8986C29.1597 31.9486 29.1497 32.0086 29.1297 32.0586C29.0997 32.1586 29.0797 32.2486 29.0597 32.3486C29.0297 32.4586 28.9997 32.5686 28.9797 32.6786C28.9797 32.7186 28.9597 32.7586 28.9497 32.7886C28.9297 32.8686 28.9297 32.9386 28.9097 33.0186C28.8797 33.1886 28.8497 33.3586 28.8197 33.5286C28.8197 33.5786 28.7997 33.6186 28.7997 33.6686C28.7897 33.7786 28.7797 33.8786 28.7697 33.9886C28.7697 34.0686 28.7497 34.1386 28.7497 34.2186C28.7297 34.4586 28.7197 34.6886 28.7197 34.9186C28.7197 36.1686 28.9997 37.1886 29.4897 37.9386C29.7797 38.3886 30.1497 38.7386 30.5797 38.9886L35.4697 42.0486C34.3297 41.3886 33.6197 39.9786 33.6197 37.9686C33.6197 37.7386 33.6297 37.4986 33.6497 37.2686C33.6497 37.1986 33.6597 37.1186 33.6697 37.0486C33.6797 36.8986 33.6997 36.7486 33.7297 36.5886C33.7497 36.4186 33.7797 36.2486 33.8197 36.0786C33.8397 35.9586 33.8597 35.8486 33.8897 35.7286C33.9097 35.6186 33.9397 35.5086 33.9697 35.4086C34.0097 35.2586 34.0497 35.1086 34.0897 34.9586C34.1197 34.8686 34.1397 34.7886 34.1697 34.6986C34.2197 34.5286 34.2797 34.3586 34.3397 34.1886C34.3597 34.1186 34.3897 34.0486 34.4097 33.9786C34.4997 33.7486 34.5897 33.5086 34.6897 33.2786C34.6997 33.2486 34.7097 33.2286 34.7297 33.1986C34.8197 32.9886 34.9197 32.7886 35.0197 32.5786C35.0497 32.5186 35.0797 32.4486 35.1197 32.3886C35.2197 32.1986 35.3197 32.0086 35.4297 31.8186C35.4497 31.7786 35.4697 31.7486 35.4897 31.7086C35.6197 31.4886 35.7497 31.2686 35.8897 31.0586C35.9297 30.9986 35.9697 30.9386 36.0097 30.8786C36.1097 30.7286 36.2197 30.5686 36.3297 30.4286C36.3897 30.3486 36.4497 30.2686 36.5097 30.1886C36.5997 30.0686 36.6997 29.9386 36.7997 29.8186C36.8797 29.7186 36.9597 29.6186 37.0497 29.5186C37.1297 29.4286 37.2097 29.3386 37.2897 29.2386C37.4297 29.0886 37.5697 28.9386 37.7097 28.7886C37.7997 28.6986 37.8897 28.6086 37.9797 28.5186C38.0497 28.4486 38.1197 28.3886 38.1897 28.3186C38.3097 28.2086 38.4297 28.1086 38.5497 27.9986C38.6197 27.9386 38.6897 27.8786 38.7697 27.8186C38.8997 27.7186 39.0397 27.6186 39.1697 27.5186C39.2297 27.4686 39.2997 27.4186 39.3597 27.3786C39.5597 27.2386 39.7597 27.1086 39.9697 26.9886C40.1697 26.8786 40.3597 26.7786 40.5497 26.6886C40.5997 26.6686 40.6497 26.6386 40.6997 26.6186C40.8097 26.5686 40.9097 26.5286 41.0097 26.4886L40.9697 26.4686Z" stroke="#231F20" stroke-width="0.25" stroke-linecap="round" stroke-linejoin="round"/>
      <path d="M44.4257 36.8801C46.9119 32.6016 46.9183 27.9657 44.4399 26.5256C41.9616 25.0854 37.9371 27.3865 35.4509 31.6651C32.9647 35.9436 32.9583 40.5795 35.4366 42.0196C37.915 43.4598 41.9395 41.1587 44.4257 36.8801Z" stroke="#231F20" stroke-width="0.25" stroke-linecap="round" stroke-linejoin="round"/>
      <path d="M45.8396 3.89008C45.8396 3.89008 45.8396 3.91008 45.8396 3.92008C45.8096 4.01008 45.7596 4.10008 45.6996 4.19008C45.6896 4.21008 45.6796 4.22008 45.6696 4.24008C45.6096 4.33008 45.5296 4.41008 45.4396 4.49008C45.3796 4.54008 45.3096 4.59008 45.2396 4.64008C45.1796 4.68008 45.1296 4.73008 45.0596 4.77008C44.8896 4.87008 44.6896 4.95008 44.4896 5.02008C44.4196 5.04008 44.3396 5.07008 44.2696 5.09008C44.1696 5.12008 44.0796 5.14008 43.9796 5.16008C43.8596 5.18008 43.7496 5.21008 43.6296 5.22008C43.5996 5.22008 43.5696 5.22008 43.5396 5.23008C43.3796 5.25008 43.2096 5.26008 43.0496 5.26008C43.0196 5.26008 42.9996 5.26008 42.9696 5.26008C42.8096 5.26008 42.6496 5.26008 42.4896 5.23008C42.4696 5.23008 42.4396 5.23008 42.4196 5.23008C42.2596 5.21008 42.0996 5.18008 41.9496 5.15008C41.9196 5.15008 41.8996 5.14008 41.8696 5.13008C41.7296 5.10008 41.5996 5.05008 41.4696 5.01008C41.4496 5.01008 41.4196 4.99008 41.3996 4.99008C41.2396 4.93008 41.0996 4.86008 40.9596 4.78008C40.3896 4.45008 40.0996 4.01008 40.0996 3.58008V5.68008C40.0996 6.11008 40.3796 6.55008 40.9496 6.88008C41.0796 6.96008 41.2196 7.02008 41.3696 7.08008H41.3896C41.4096 7.08008 41.4396 7.10008 41.4596 7.10008C41.5396 7.13008 41.6296 7.16008 41.7096 7.19008C41.7596 7.20008 41.8096 7.21008 41.8596 7.23008C41.8896 7.23008 41.9096 7.24008 41.9396 7.25008C41.9596 7.25008 41.9896 7.26008 42.0096 7.27008C42.0996 7.29008 42.1996 7.31008 42.2996 7.32008C42.3396 7.32008 42.3696 7.32008 42.4096 7.33008C42.4296 7.33008 42.4596 7.33008 42.4796 7.33008C42.5096 7.33008 42.5496 7.33008 42.5796 7.34008C42.6796 7.34008 42.7696 7.35008 42.8696 7.36008C42.8996 7.36008 42.9296 7.36008 42.9596 7.36008C42.9896 7.36008 43.0096 7.36008 43.0396 7.36008C43.0796 7.36008 43.1296 7.36008 43.1696 7.36008C43.2796 7.36008 43.3896 7.35008 43.4896 7.34008C43.4996 7.34008 43.5096 7.34008 43.5296 7.34008C43.5596 7.34008 43.5896 7.34008 43.6196 7.33008C43.6996 7.32008 43.7896 7.31008 43.8696 7.30008C43.9096 7.30008 43.9396 7.28008 43.9696 7.27008C44.0696 7.25008 44.1696 7.22008 44.2596 7.20008C44.3096 7.19008 44.3596 7.18008 44.4096 7.16008C44.4296 7.16008 44.4496 7.14008 44.4696 7.13008C44.6696 7.06008 44.8696 6.98008 45.0396 6.88008C45.0496 6.88008 45.0596 6.87008 45.0796 6.86008C45.1396 6.83008 45.1796 6.79008 45.2296 6.75008C45.2996 6.70008 45.3696 6.65008 45.4296 6.60008C45.4296 6.60008 45.4396 6.60008 45.4496 6.59008C45.5196 6.53008 45.5796 6.46008 45.6296 6.40008C45.6396 6.38008 45.6496 6.37008 45.6596 6.35008C45.6696 6.33008 45.6796 6.32008 45.6896 6.30008C45.7096 6.27008 45.7296 6.25008 45.7396 6.22008C45.7696 6.17008 45.7996 6.11008 45.8196 6.05008C45.8196 6.05008 45.8196 6.03008 45.8196 6.02008C45.8196 6.01008 45.8196 6.00008 45.8196 5.99008C45.8296 5.95008 45.8396 5.92008 45.8496 5.88008C45.8596 5.82008 45.8696 5.77008 45.8696 5.71008C45.8696 5.71008 45.8696 5.69008 45.8696 5.68008V3.58008C45.8696 3.68008 45.8596 3.78008 45.8296 3.88008L45.8396 3.89008Z" fill="#E5E1C3"/>
      <path d="M45.0295 2.38969C46.1695 3.04969 46.1695 4.10969 45.0395 4.76969C43.9095 5.42969 42.0595 5.42969 40.9295 4.76969C39.7995 4.10969 39.7795 3.03969 40.9195 2.38969C42.0595 1.73969 43.8895 1.72969 45.0295 2.38969Z" fill="white"/>
      <path d="M45.8396 3.89008C45.8396 3.89008 45.8396 3.91008 45.8396 3.92008C45.8096 4.01008 45.7596 4.10008 45.6996 4.19008C45.6896 4.21008 45.6796 4.22008 45.6696 4.24008C45.6096 4.33008 45.5296 4.41008 45.4396 4.49008C45.3796 4.54008 45.3096 4.59008 45.2396 4.64008C45.1796 4.68008 45.1296 4.73008 45.0596 4.77008C44.8896 4.87008 44.6896 4.95008 44.4896 5.02008C44.4196 5.04008 44.3396 5.07008 44.2696 5.09008C44.1696 5.12008 44.0796 5.14008 43.9796 5.16008C43.8596 5.18008 43.7496 5.21008 43.6296 5.22008C43.5996 5.22008 43.5696 5.22008 43.5396 5.23008C43.3796 5.25008 43.2096 5.26008 43.0496 5.26008C43.0196 5.26008 42.9996 5.26008 42.9696 5.26008C42.8096 5.26008 42.6496 5.26008 42.4896 5.23008C42.4696 5.23008 42.4396 5.23008 42.4196 5.23008C42.2596 5.21008 42.0996 5.18008 41.9496 5.15008C41.9196 5.15008 41.8996 5.14008 41.8696 5.13008C41.7296 5.10008 41.5996 5.05008 41.4696 5.01008C41.4496 5.01008 41.4196 4.99008 41.3996 4.99008C41.2396 4.93008 41.0996 4.86008 40.9596 4.78008C40.3896 4.45008 40.0996 4.01008 40.0996 3.58008V5.68008C40.0996 6.11008 40.3796 6.55008 40.9496 6.88008C41.0796 6.96008 41.2196 7.02008 41.3696 7.08008H41.3896C41.4096 7.08008 41.4396 7.10008 41.4596 7.10008C41.5396 7.13008 41.6296 7.16008 41.7096 7.19008C41.7596 7.20008 41.8096 7.21008 41.8596 7.23008C41.8896 7.23008 41.9096 7.24008 41.9396 7.25008C41.9596 7.25008 41.9896 7.26008 42.0096 7.27008C42.0996 7.29008 42.1996 7.31008 42.2996 7.32008C42.3396 7.32008 42.3696 7.32008 42.4096 7.33008C42.4296 7.33008 42.4596 7.33008 42.4796 7.33008C42.5096 7.33008 42.5496 7.33008 42.5796 7.34008C42.6796 7.34008 42.7696 7.35008 42.8696 7.36008C42.8996 7.36008 42.9296 7.36008 42.9596 7.36008C42.9896 7.36008 43.0096 7.36008 43.0396 7.36008C43.0796 7.36008 43.1296 7.36008 43.1696 7.36008C43.2796 7.36008 43.3896 7.35008 43.4896 7.34008C43.4996 7.34008 43.5096 7.34008 43.5296 7.34008C43.5596 7.34008 43.5896 7.34008 43.6196 7.33008C43.6996 7.32008 43.7896 7.31008 43.8696 7.30008C43.9096 7.30008 43.9396 7.28008 43.9696 7.27008C44.0696 7.25008 44.1696 7.22008 44.2596 7.20008C44.3096 7.19008 44.3596 7.18008 44.4096 7.16008C44.4296 7.16008 44.4496 7.14008 44.4696 7.13008C44.6696 7.06008 44.8696 6.98008 45.0396 6.88008C45.0496 6.88008 45.0596 6.87008 45.0796 6.86008C45.1396 6.83008 45.1796 6.79008 45.2296 6.75008C45.2996 6.70008 45.3696 6.65008 45.4296 6.60008C45.4296 6.60008 45.4396 6.60008 45.4496 6.59008C45.5196 6.53008 45.5796 6.46008 45.6296 6.40008C45.6396 6.38008 45.6496 6.37008 45.6596 6.35008C45.6696 6.33008 45.6796 6.32008 45.6896 6.30008C45.7096 6.27008 45.7296 6.25008 45.7396 6.22008C45.7696 6.17008 45.7996 6.11008 45.8196 6.05008C45.8196 6.05008 45.8196 6.03008 45.8196 6.02008C45.8196 6.01008 45.8196 6.00008 45.8196 5.99008C45.8296 5.95008 45.8396 5.92008 45.8496 5.88008C45.8596 5.82008 45.8696 5.77008 45.8696 5.71008C45.8696 5.71008 45.8696 5.69008 45.8696 5.68008V3.58008C45.8696 3.68008 45.8596 3.78008 45.8296 3.88008L45.8396 3.89008Z" stroke="#231F20" stroke-width="0.25" stroke-linecap="round" stroke-linejoin="round"/>
      <path d="M45.0295 2.38969C46.1695 3.04969 46.1695 4.10969 45.0395 4.76969C43.9095 5.42969 42.0595 5.42969 40.9295 4.76969C39.7995 4.10969 39.7795 3.03969 40.9195 2.38969C42.0595 1.73969 43.8895 1.72969 45.0295 2.38969Z" stroke="#231F20" stroke-width="0.25" stroke-linecap="round" stroke-linejoin="round"/>
      <path d="M39.7703 7.07953C39.7703 7.07953 39.7703 7.09953 39.7703 7.10953C39.7403 7.19953 39.6903 7.28953 39.6303 7.37953C39.6203 7.39953 39.6103 7.40953 39.6003 7.42953C39.5403 7.51953 39.4603 7.59953 39.3703 7.67953C39.3103 7.72953 39.2403 7.77953 39.1703 7.82953C39.1103 7.86953 39.0603 7.91953 38.9903 7.95953C38.8203 8.05953 38.6203 8.13953 38.4203 8.20953C38.3503 8.22953 38.2703 8.25953 38.2003 8.27953C38.1003 8.30953 38.0103 8.32953 37.9103 8.34953C37.7903 8.36953 37.6803 8.39953 37.5603 8.40953C37.5303 8.40953 37.5003 8.40953 37.4703 8.41953C37.3103 8.43953 37.1403 8.44953 36.9803 8.44953C36.9503 8.44953 36.9303 8.44953 36.9003 8.44953C36.7403 8.44953 36.5803 8.44953 36.4203 8.41953C36.4003 8.41953 36.3703 8.41953 36.3503 8.41953C36.1903 8.39953 36.0303 8.36953 35.8803 8.33953C35.8503 8.33953 35.8303 8.32953 35.8003 8.31953C35.6603 8.28953 35.5303 8.23953 35.4003 8.19953C35.3803 8.19953 35.3503 8.17953 35.3303 8.17953C35.1703 8.11953 35.0303 8.04953 34.8903 7.96953C34.3203 7.63953 34.0303 7.19953 34.0303 6.76953V8.86953C34.0303 9.29953 34.3103 9.73953 34.8803 10.0695C35.0103 10.1495 35.1503 10.2095 35.3003 10.2695H35.3203C35.3403 10.2695 35.3703 10.2895 35.3903 10.2895C35.4703 10.3195 35.5603 10.3495 35.6403 10.3795C35.6903 10.3895 35.7403 10.3995 35.7903 10.4195C35.8203 10.4195 35.8403 10.4295 35.8703 10.4395C35.8903 10.4395 35.9203 10.4495 35.9403 10.4595C36.0303 10.4795 36.1303 10.4995 36.2303 10.5095C36.2703 10.5095 36.3003 10.5095 36.3403 10.5195C36.3603 10.5195 36.3903 10.5195 36.4103 10.5195C36.4403 10.5195 36.4803 10.5195 36.5103 10.5295C36.6103 10.5295 36.7003 10.5395 36.8003 10.5495C36.8303 10.5495 36.8603 10.5495 36.8903 10.5495C36.9203 10.5495 36.9403 10.5495 36.9703 10.5495C37.0103 10.5495 37.0603 10.5495 37.1003 10.5495C37.2103 10.5495 37.3203 10.5395 37.4203 10.5295C37.4303 10.5295 37.4403 10.5295 37.4603 10.5295C37.4903 10.5295 37.5203 10.5295 37.5503 10.5195C37.6303 10.5095 37.7203 10.4995 37.8003 10.4895C37.8403 10.4895 37.8703 10.4695 37.9003 10.4595C38.0003 10.4395 38.1003 10.4095 38.1903 10.3895C38.2403 10.3795 38.2903 10.3695 38.3403 10.3495C38.3603 10.3495 38.3803 10.3295 38.4003 10.3195C38.6003 10.2495 38.8003 10.1695 38.9703 10.0695C38.9803 10.0695 38.9903 10.0595 39.0103 10.0495C39.0703 10.0195 39.1103 9.97953 39.1603 9.93953C39.2303 9.88953 39.3003 9.83953 39.3603 9.78953C39.3603 9.78953 39.3703 9.78953 39.3803 9.77953C39.4503 9.71953 39.5103 9.64953 39.5603 9.58953C39.5703 9.56953 39.5803 9.55953 39.5903 9.53953C39.6003 9.51953 39.6103 9.50953 39.6203 9.48953C39.6403 9.45953 39.6603 9.43953 39.6703 9.40953C39.7003 9.35953 39.7303 9.29953 39.7503 9.23953C39.7503 9.23953 39.7503 9.21953 39.7503 9.20953C39.7503 9.19953 39.7503 9.18953 39.7503 9.17953C39.7603 9.13953 39.7703 9.10953 39.7803 9.06953C39.7903 9.00953 39.8003 8.95953 39.8003 8.89953C39.8003 8.89953 39.8003 8.87953 39.8003 8.86953V6.76953C39.8003 6.86953 39.7903 6.96953 39.7603 7.06953L39.7703 7.07953Z" fill="#E5E1C3"/>
      <path d="M38.9602 5.58891C40.1002 6.24891 40.1002 7.30891 38.9702 7.96891C37.8402 8.62891 35.9902 8.62891 34.8602 7.96891C33.7302 7.30891 33.7102 6.23891 34.8502 5.58891C35.9902 4.93891 37.8202 4.92891 38.9602 5.58891Z" fill="white"/>
      <path d="M39.7703 7.07953C39.7703 7.07953 39.7703 7.09953 39.7703 7.10953C39.7403 7.19953 39.6903 7.28953 39.6303 7.37953C39.6203 7.39953 39.6103 7.40953 39.6003 7.42953C39.5403 7.51953 39.4603 7.59953 39.3703 7.67953C39.3103 7.72953 39.2403 7.77953 39.1703 7.82953C39.1103 7.86953 39.0603 7.91953 38.9903 7.95953C38.8203 8.05953 38.6203 8.13953 38.4203 8.20953C38.3503 8.22953 38.2703 8.25953 38.2003 8.27953C38.1003 8.30953 38.0103 8.32953 37.9103 8.34953C37.7903 8.36953 37.6803 8.39953 37.5603 8.40953C37.5303 8.40953 37.5003 8.40953 37.4703 8.41953C37.3103 8.43953 37.1403 8.44953 36.9803 8.44953C36.9503 8.44953 36.9303 8.44953 36.9003 8.44953C36.7403 8.44953 36.5803 8.44953 36.4203 8.41953C36.4003 8.41953 36.3703 8.41953 36.3503 8.41953C36.1903 8.39953 36.0303 8.36953 35.8803 8.33953C35.8503 8.33953 35.8303 8.32953 35.8003 8.31953C35.6603 8.28953 35.5303 8.23953 35.4003 8.19953C35.3803 8.19953 35.3503 8.17953 35.3303 8.17953C35.1703 8.11953 35.0303 8.04953 34.8903 7.96953C34.3203 7.63953 34.0303 7.19953 34.0303 6.76953V8.86953C34.0303 9.29953 34.3103 9.73953 34.8803 10.0695C35.0103 10.1495 35.1503 10.2095 35.3003 10.2695H35.3203C35.3403 10.2695 35.3703 10.2895 35.3903 10.2895C35.4703 10.3195 35.5603 10.3495 35.6403 10.3795C35.6903 10.3895 35.7403 10.3995 35.7903 10.4195C35.8203 10.4195 35.8403 10.4295 35.8703 10.4395C35.8903 10.4395 35.9203 10.4495 35.9403 10.4595C36.0303 10.4795 36.1303 10.4995 36.2303 10.5095C36.2703 10.5095 36.3003 10.5095 36.3403 10.5195C36.3603 10.5195 36.3903 10.5195 36.4103 10.5195C36.4403 10.5195 36.4803 10.5195 36.5103 10.5295C36.6103 10.5295 36.7003 10.5395 36.8003 10.5495C36.8303 10.5495 36.8603 10.5495 36.8903 10.5495C36.9203 10.5495 36.9403 10.5495 36.9703 10.5495C37.0103 10.5495 37.0603 10.5495 37.1003 10.5495C37.2103 10.5495 37.3203 10.5395 37.4203 10.5295C37.4303 10.5295 37.4403 10.5295 37.4603 10.5295C37.4903 10.5295 37.5203 10.5295 37.5503 10.5195C37.6303 10.5095 37.7203 10.4995 37.8003 10.4895C37.8403 10.4895 37.8703 10.4695 37.9003 10.4595C38.0003 10.4395 38.1003 10.4095 38.1903 10.3895C38.2403 10.3795 38.2903 10.3695 38.3403 10.3495C38.3603 10.3495 38.3803 10.3295 38.4003 10.3195C38.6003 10.2495 38.8003 10.1695 38.9703 10.0695C38.9803 10.0695 38.9903 10.0595 39.0103 10.0495C39.0703 10.0195 39.1103 9.97953 39.1603 9.93953C39.2303 9.88953 39.3003 9.83953 39.3603 9.78953C39.3603 9.78953 39.3703 9.78953 39.3803 9.77953C39.4503 9.71953 39.5103 9.64953 39.5603 9.58953C39.5703 9.56953 39.5803 9.55953 39.5903 9.53953C39.6003 9.51953 39.6103 9.50953 39.6203 9.48953C39.6403 9.45953 39.6603 9.43953 39.6703 9.40953C39.7003 9.35953 39.7303 9.29953 39.7503 9.23953C39.7503 9.23953 39.7503 9.21953 39.7503 9.20953C39.7503 9.19953 39.7503 9.18953 39.7503 9.17953C39.7603 9.13953 39.7703 9.10953 39.7803 9.06953C39.7903 9.00953 39.8003 8.95953 39.8003 8.89953C39.8003 8.89953 39.8003 8.87953 39.8003 8.86953V6.76953C39.8003 6.86953 39.7903 6.96953 39.7603 7.06953L39.7703 7.07953Z" stroke="#231F20" stroke-width="0.25" stroke-linecap="round" stroke-linejoin="round"/>
      <path d="M38.9602 5.58891C40.1002 6.24891 40.1002 7.30891 38.9702 7.96891C37.8402 8.62891 35.9902 8.62891 34.8602 7.96891C33.7302 7.30891 33.7102 6.23891 34.8502 5.58891C35.9902 4.93891 37.8202 4.92891 38.9602 5.58891Z" stroke="#231F20" stroke-width="0.25" stroke-linecap="round" stroke-linejoin="round"/>
      <path d="M33.399 6.23047L33.419 13.4905L21.979 20.0905L21.959 12.8305L33.399 6.23047Z" fill="white"/>
      <path d="M23.0791 13.4799L32.2791 8.16992L32.2991 12.8399L23.0891 18.1599L23.0791 13.4799Z" fill="#383A37"/>
      <path d="M21.9793 20.0898L18.5493 18.0998L18.5293 10.8398L21.9593 12.8298L21.9793 20.0898Z" fill="#A8A385"/>
      <path d="M21.9593 12.8305L18.5293 10.8405L29.9693 4.23047L33.3993 6.23047L21.9593 12.8305Z" fill="#E5E1C3"/>
      <path d="M33.399 6.23047L33.419 13.4905L21.979 20.0905L21.959 12.8305L33.399 6.23047Z" stroke="#231F20" stroke-width="0.25" stroke-linecap="round" stroke-linejoin="round"/>
      <path d="M23.0791 13.4799L32.2791 8.16992L32.2991 12.8399L23.0891 18.1599L23.0791 13.4799Z" stroke="#231F20" stroke-width="0.25" stroke-linecap="round" stroke-linejoin="round"/>
      <path d="M21.9793 20.0898L18.5493 18.0998L18.5293 10.8398L21.9593 12.8298L21.9793 20.0898Z" stroke="#231F20" stroke-width="0.25" stroke-linecap="round" stroke-linejoin="round"/>
      <path d="M21.9593 12.8305L18.5293 10.8405L29.9693 4.23047L33.3993 6.23047L21.9593 12.8305Z" stroke="#231F20" stroke-width="0.25" stroke-linecap="round" stroke-linejoin="round"/>
    </g>
  </g>
  <defs>
    <clipPath id="clip0_411_42721">
      <rect width="52" height="52" fill="white" transform="translate(0 0.5)"/>
    </clipPath>
  </defs>
</svg>