<svg xmlns="http://www.w3.org/2000/svg" width="52" height="53" viewBox="0 0 52 53" fill="none">
  <mask id="mask0_585_4529" style="mask-type:luminance" maskUnits="userSpaceOnUse" x="0" y="0" width="52" height="53">
    <path d="M26 52.5C40.3594 52.5 52 40.8594 52 26.5C52 12.1406 40.3594 0.5 26 0.5C11.6406 0.5 0 12.1406 0 26.5C0 40.8594 11.6406 52.5 26 52.5Z" fill="white"/>
  </mask>
  <g mask="url(#mask0_585_4529)">
    <path d="M52 0.5H0V52.5H52V0.5Z" fill="#E5E1C3"/>
    <path d="M31.8594 38.1211C31.8794 38.7311 31.9094 39.3411 31.9294 39.9511C32.8494 40.2411 33.7794 40.5411 34.6994 40.8311C34.7994 40.6511 35.1794 39.9111 34.8994 39.1811C34.5394 38.2711 33.2494 37.7011 31.8594 38.1211Z" fill="#383A37"/>
    <path d="M61.7492 23.7395V25.4495C61.7492 25.4495 61.3492 25.6895 60.6292 26.1095C60.4792 25.6495 60.2292 25.3095 59.8992 25.0995C59.6892 23.7095 58.6092 23.1495 57.2792 23.7495C57.2292 23.7695 57.1692 23.7995 57.1192 23.8295C57.0592 23.8595 56.9992 23.8895 56.9392 23.9295C55.2992 24.8795 53.9992 27.1595 54.0092 29.0195C54.0092 29.3695 54.0592 29.6795 54.1492 29.9495C53.6992 30.2195 53.2492 30.4795 52.7792 30.7595C46.2592 34.6195 38.1192 39.4395 35.4592 41.0095C35.3192 40.4895 35.0392 40.0995 34.6692 39.8795C34.4492 38.4995 33.3792 37.9395 32.0492 38.5395C31.9392 38.5895 31.8292 38.6395 31.7192 38.7095C30.0792 39.6595 28.7792 41.9395 28.7892 43.7995C28.7892 44.1495 28.8392 44.4595 28.9292 44.7295C28.4492 44.9195 27.9592 45.0595 27.4692 45.1695C26.9992 45.2695 26.5292 45.3295 26.0492 45.3595C24.3492 45.4595 22.6192 45.0895 21.0692 44.2495L10.5292 38.5795C6.32924 36.3195 5.12924 31.2595 7.12924 27.4495C7.55924 26.6195 8.14924 25.8495 8.88924 25.1895C9.15924 24.9495 9.44924 24.7095 9.75924 24.4995C10.5692 23.9395 11.3792 23.3895 12.1892 22.8295C12.6292 22.5295 12.9692 22.0995 13.1692 21.5995C13.2092 21.4895 13.2592 21.3695 13.2992 21.2595C13.9292 19.6495 14.5592 18.0395 15.1792 16.4295C15.5992 15.3495 16.1292 14.3095 16.7592 13.3495C16.9892 12.9995 17.2392 12.6295 17.5292 12.2495C17.8392 11.8395 18.1592 11.4695 18.4692 11.1195C18.5292 11.0495 18.5892 10.9895 18.6492 10.9195C18.6892 10.8795 18.7192 10.8395 18.7592 10.8095C18.8092 10.7595 18.8592 10.7095 18.9092 10.6595C18.9492 10.6195 18.9792 10.5795 19.0192 10.5495L19.0692 10.4995C20.0592 9.5095 21.1792 8.6395 22.3992 7.9095C23.9292 6.9995 25.4492 6.0895 26.9792 5.1795C27.1292 5.0895 27.3092 4.9995 27.4992 4.9095C30.0292 3.7595 36.0092 2.9395 42.6692 5.1095C47.1292 6.5595 50.1692 8.9695 51.7892 10.4595C51.9992 10.5795 52.2092 10.6995 52.4192 10.8195C53.3492 11.3495 54.2792 11.8895 55.2092 12.4295C59.2492 14.7595 61.7392 19.0695 61.7392 23.7295L61.7492 23.7395Z" fill="#C1F861"/>
    <path d="M27.44 36.4401L27.41 36.6101C27.1 36.9501 26.82 37.3101 26.58 37.7001C26.58 37.7101 26.57 37.7201 26.56 37.7301C25.8 38.9601 25.38 40.3901 25.4 41.8801C25.41 43.0401 25.42 44.2101 25.44 45.3701C23.94 45.3601 22.44 44.9901 21.08 44.2501L10.54 38.5801C6.33998 36.3201 5.13998 31.2601 7.13998 27.4501C7.48998 26.7801 7.93998 26.1501 8.48998 25.5801C7.66998 26.4401 7.88998 27.8401 8.94998 28.4001C14.05 31.0901 19.15 33.7801 24.26 36.4701C25.27 37.0001 26.47 36.9801 27.44 36.4301V36.4401Z" fill="#508C17"/>
    <path opacity="0.45" d="M51.8794 11.6005C51.8194 11.6805 51.7394 11.7505 51.6394 11.8105C51.5494 11.8605 51.4594 11.9205 51.3694 11.9705C51.3194 12.0005 51.2694 12.0305 51.2194 12.0605C47.6394 14.1705 44.0594 16.2905 40.4794 18.4005C38.4494 19.6005 35.9394 19.6405 33.8594 18.5205C29.7294 16.2805 25.6094 14.0405 21.4794 11.7905C20.2694 11.1305 20.1694 9.43046 21.2994 8.63046C21.6594 8.37045 22.0294 8.13046 22.4194 7.90046C23.4894 7.26046 24.5494 6.63046 25.6194 5.99046C26.0794 5.72046 26.5394 5.44046 26.9994 5.17046C27.1494 5.08046 27.3294 4.99046 27.5194 4.90046C28.1794 4.60046 29.2394 4.28046 30.5894 4.05046C33.5194 3.56046 37.8594 3.51046 42.6894 5.10046C48.1394 6.90046 51.0894 9.73046 51.8094 10.4505H51.8194C52.1394 10.7805 52.1394 11.2605 51.8894 11.5905L51.8794 11.6005Z" fill="white"/>
    <path opacity="0.45" d="M33.4992 32.38C31.9792 33.36 30.4692 34.33 28.9492 35.31C28.6092 35.53 28.2892 35.77 27.9892 36.04C26.9592 36.96 25.4692 37.11 24.2492 36.47C19.1492 33.78 14.0392 31.09 8.93921 28.4C7.88921 27.84 7.65921 26.43 8.48921 25.57C8.86921 25.18 9.29921 24.82 9.76921 24.49C10.5792 23.93 11.3892 23.38 12.1992 22.82C12.6392 22.52 12.9792 22.09 13.1792 21.59C13.2192 21.48 13.2692 21.36 13.3092 21.25C13.5592 21.53 13.8692 21.87 14.2292 22.23C15.0392 23.04 17.5592 25.48 22.7492 28.19C25.2692 29.51 28.8792 31.12 33.4892 32.37L33.4992 32.38Z" fill="white"/>
    <path d="M19.0295 10.551C25.0795 13.811 31.1395 17.071 37.1895 20.341C36.7895 21.651 36.3895 22.961 35.9895 24.271C29.5795 20.631 23.1795 16.991 16.7695 13.351C16.9995 13.001 17.2495 12.631 17.5395 12.251C18.0395 11.591 18.5495 11.031 19.0295 10.541V10.551Z" fill="#508C17"/>
    <path d="M43.8701 18.0999C42.0801 19.1599 40.2801 20.2099 38.4901 21.2699C37.9901 21.5699 37.6401 22.0599 37.5201 22.6399C36.9201 25.6999 36.3201 28.7699 35.7201 31.8299C35.6301 32.2899 35.5801 32.7599 35.5801 33.2299C35.5801 35.7999 35.5801 38.3699 35.5801 40.9499C38.6901 39.1099 41.7901 37.2699 44.9001 35.4299C44.9001 29.8499 44.9001 24.2699 44.9001 18.6899C44.9001 18.1599 44.3301 17.8399 43.8701 18.0999Z" stroke="#231F20" stroke-width="0.25" stroke-linecap="round" stroke-linejoin="round"/>
    <path d="M56.0293 19.4604C54.6793 17.7904 53.3293 16.1204 51.9893 14.4404C51.6693 14.0404 51.1093 13.9404 50.6693 14.2004C49.2093 15.0604 47.7493 15.9204 46.2893 16.7804C45.9793 16.9704 45.7793 17.3004 45.7793 17.6704L45.8293 34.8704C48.2193 33.4604 50.5993 32.0404 52.9893 30.6304V26.4804C52.9893 24.4404 53.8993 22.5104 55.4793 21.2204L55.8893 20.8904C56.3293 20.5304 56.3993 19.8904 56.0393 19.4504L56.0293 19.4604Z" stroke="#231F20" stroke-width="0.25" stroke-linecap="round" stroke-linejoin="round"/>
    <path d="M61.75 23.7395V25.4495C61.75 25.4495 61.35 25.6895 60.63 26.1095C60.48 25.6495 60.23 25.3095 59.9 25.0995C59.69 23.7095 58.61 23.1495 57.28 23.7495C57.23 23.7695 57.17 23.7995 57.12 23.8295C57.06 23.8595 57 23.8895 56.94 23.9295C55.3 24.8795 54 27.1595 54.01 29.0195C54.01 29.3695 54.06 29.6795 54.15 29.9495C53.7 30.2195 53.25 30.4795 52.78 30.7595C46.26 34.6195 38.12 39.4395 35.46 41.0095C35.32 40.4895 35.04 40.0995 34.67 39.8795C34.45 38.4995 33.38 37.9395 32.05 38.5395C31.94 38.5895 31.83 38.6395 31.72 38.7095C30.08 39.6595 28.78 41.9395 28.79 43.7995C28.79 44.1495 28.84 44.4595 28.93 44.7295C28.45 44.9195 27.96 45.0595 27.47 45.1695C26.93 45.2795 26.39 45.3495 25.84 45.3695C24.2 45.4295 22.55 45.0595 21.06 44.2495L10.52 38.5795C6.32997 36.3295 5.11997 31.2795 7.09997 27.4795C7.69997 26.3395 8.57997 25.3095 9.74997 24.4995C10.56 23.9395 11.37 23.3895 12.18 22.8295C12.62 22.5295 12.96 22.0995 13.16 21.5995C13.83 19.8795 14.5 18.1495 15.17 16.4295C15.59 15.3495 16.12 14.3095 16.75 13.3495C18.18 11.1395 20.1 9.2695 22.39 7.9095C23.92 6.9995 25.44 6.0895 26.97 5.1795C27.12 5.0895 27.3 4.9995 27.49 4.9095C30.02 3.7595 36 2.9395 42.66 5.1095C47.12 6.5595 50.16 8.9695 51.78 10.4595C52.92 11.1195 54.06 11.7795 55.2 12.4295C59.24 14.7595 61.73 19.0695 61.73 23.7295L61.75 23.7395Z" stroke="#231F20" stroke-width="0.25" stroke-linecap="round" stroke-linejoin="round"/>
    <path d="M35.2598 40.4805C35.3098 40.5605 35.3498 40.6405 35.3798 40.7305C35.3398 40.6405 35.2998 40.5605 35.2598 40.4805Z" stroke="#231F20" stroke-width="0.25" stroke-linecap="round" stroke-linejoin="round"/>
    <path d="M43.8395 20.2604C43.8195 22.0204 43.8095 23.7804 43.7895 25.5404C43.7895 26.0604 43.5095 26.5404 43.0595 26.8104C42.8395 26.9404 42.6195 27.0704 42.3995 27.2004C41.9795 27.4504 41.5695 27.7004 41.1495 27.9504C40.8695 28.1204 40.5795 28.2904 40.2995 28.4604C40.1495 28.5504 39.9995 28.6404 39.8495 28.7304C39.1795 29.1304 38.5195 29.5304 37.8495 29.9204C37.5295 30.1104 37.1295 29.8404 37.1995 29.4704C37.4995 27.8204 37.7995 26.1604 38.0895 24.5104C38.3095 23.2904 39.0495 22.2304 40.1295 21.6104C40.6295 21.3204 41.1295 21.0304 41.6395 20.7404C41.6995 20.7004 41.7695 20.6704 41.8295 20.6304C42.0295 20.5204 42.2295 20.4004 42.4295 20.2904C42.6695 20.1504 42.9095 20.0104 43.1495 19.8704C43.2595 19.8104 43.3795 19.7904 43.4895 19.8204C43.6895 19.8704 43.8395 20.0404 43.8395 20.2704V20.2604Z" fill="#383A37"/>
    <path opacity="0.15" d="M43.4794 19.8104C43.4394 21.6104 43.2294 23.7104 42.6994 26.0004C42.5994 26.4104 42.4994 26.8204 42.3994 27.2104C41.9794 27.4604 41.5694 27.7104 41.1494 27.9604C41.3894 27.2504 41.6094 26.4804 41.7994 25.6604C42.2694 23.6304 42.4094 21.8004 42.4194 20.2904C42.6594 20.1504 42.8994 20.0104 43.1394 19.8704C43.2494 19.8104 43.3694 19.7904 43.4794 19.8204V19.8104Z" fill="white"/>
    <path opacity="0.15" d="M41.8297 20.6211C41.8097 21.8511 41.6796 23.3211 41.3396 24.9511C41.0596 26.2811 40.6896 27.4511 40.2996 28.4611C40.2296 28.5011 40.1497 28.5511 40.0797 28.5911C39.8497 28.7311 39.6196 28.8611 39.3896 28.9811C39.8696 27.7711 40.2096 26.7211 40.4496 25.8911C40.8196 24.6511 41.0396 23.6611 41.2096 22.8611C41.3996 22.0011 41.5396 21.2711 41.6396 20.7311C41.6996 20.6911 41.7697 20.6611 41.8297 20.6211Z" fill="white"/>
    <path d="M43.1495 19.8612C42.1395 20.4412 41.1395 21.0212 40.1295 21.6012C39.0595 22.2212 38.3095 23.2812 38.0895 24.5012C37.7895 26.1512 37.4895 27.8112 37.1995 29.4612C37.1295 29.8312 37.5295 30.1112 37.8495 29.9112C39.5795 28.8712 41.3195 27.8412 43.0495 26.8012C43.4995 26.5312 43.7795 26.0512 43.7795 25.5312C43.7995 23.7712 43.8095 22.0112 43.8295 20.2512C43.8295 19.8912 43.4495 19.6712 43.1395 19.8512L43.1495 19.8612Z" stroke="#231F20" stroke-width="0.25" stroke-linecap="round" stroke-linejoin="round"/>
    <path d="M54.0194 20.2699C52.9494 20.9099 51.8894 21.5399 50.8294 22.1799C50.4194 22.4199 50.0094 22.6699 49.5994 22.9099C49.3194 23.0799 49.0494 23.2399 48.7694 23.4099C48.4694 23.5899 48.1794 23.7599 47.8794 23.9399C47.8694 23.9399 47.8594 23.9499 47.8494 23.9599C47.4494 24.1699 46.9494 23.8799 46.9494 23.4199C46.9194 21.9299 46.8994 20.4399 46.8694 18.9499C46.8594 18.3199 47.1894 17.7299 47.7294 17.4099L49.9594 16.0999C49.9594 16.0999 49.9594 16.0999 49.9694 16.0999C50.0394 16.0599 50.0994 16.0299 50.1694 15.9999C50.3594 15.9199 50.5594 15.8699 50.7594 15.8499C51.1094 15.8199 51.4694 15.8999 51.7794 16.0699C51.9894 16.1799 52.1794 16.3399 52.3394 16.5399C52.9794 17.3399 53.6194 18.1399 54.2594 18.9399C54.6094 19.3699 54.4894 20.0099 54.0194 20.2899V20.2699Z" fill="#383A37"/>
    <path opacity="0.15" d="M51.7798 16.0504C51.6898 17.6204 51.4798 19.3804 51.0398 21.2804C50.9698 21.5804 50.8998 21.8804 50.8198 22.1704C50.4098 22.4104 49.9998 22.6604 49.5898 22.9004C49.7898 22.2904 49.9698 21.6304 50.1298 20.9304C50.5698 19.0304 50.7298 17.2904 50.7498 15.8304C51.0998 15.8004 51.4598 15.8804 51.7698 16.0504H51.7798Z" fill="white"/>
    <path opacity="0.15" d="M50.1696 15.9805C50.1396 17.1905 50.0196 18.6405 49.6796 20.2305C49.4296 21.4105 49.1096 22.4705 48.7696 23.4005C48.4696 23.5805 48.1796 23.7505 47.8796 23.9305C47.8696 23.9305 47.8596 23.9405 47.8496 23.9505C48.2596 22.8705 48.5696 21.9305 48.7896 21.1805C49.1596 19.9405 49.3796 18.9505 49.5496 18.1505C49.7296 17.3305 49.8696 16.6205 49.9696 16.0805C50.0396 16.0405 50.0996 16.0105 50.1696 15.9805Z" fill="white"/>
    <path d="M49.9496 16.08L47.7196 17.39C47.1796 17.71 46.8496 18.3 46.8596 18.93C46.8896 20.42 46.9096 21.91 46.9396 23.4C46.9396 23.88 47.4696 24.17 47.8796 23.92C49.9296 22.7 51.9696 21.48 54.0196 20.25C54.4896 19.97 54.6096 19.33 54.2596 18.9C53.6196 18.1 52.9796 17.3 52.3396 16.5C51.7596 15.78 50.7496 15.59 49.9496 16.06V16.08Z" stroke="#231F20" stroke-width="0.25" stroke-linecap="round" stroke-linejoin="round"/>
    <path d="M51.7892 11.7012C46.9292 14.5812 42.0592 17.4612 37.1992 20.3412C35.9692 24.3612 34.7492 28.3712 33.5192 32.3912C30.9492 31.6512 28.7592 30.8712 27.0192 30.1712C24.1492 29.0212 22.1392 27.9912 21.6492 27.7412C20.4192 27.1012 19.3692 26.5612 18.1092 25.7312C16.8192 24.8812 15.0592 23.5712 13.1992 21.6212" stroke="#231F20" stroke-width="0.25" stroke-linecap="round" stroke-linejoin="round"/>
    <path d="M25.4396 45.4311C25.4396 45.4311 25.4396 45.3911 25.4396 45.3711C25.4296 44.2111 25.4196 43.0411 25.3996 41.8811C25.3896 40.3911 25.7996 38.9611 26.5596 37.7311C26.5596 37.7211 26.5696 37.7111 26.5796 37.7011C26.8196 37.3111 27.0996 36.9511 27.4096 36.6111C27.8496 36.1211 28.3596 35.6911 28.9296 35.3211C30.4496 34.3411 31.9796 33.3611 33.4996 32.3811L33.5196 32.3711" stroke="#231F20" stroke-width="0.25" stroke-linecap="round" stroke-linejoin="round"/>
    <path d="M35.9995 24.2713C35.1695 26.9813 34.3495 29.6813 33.5195 32.3813C30.8295 31.5813 28.5495 30.7513 26.7495 30.0313C22.9295 28.4913 20.5795 27.1813 19.9995 26.8613C19.3095 26.4713 18.6595 26.1013 17.8395 25.5513C15.7195 24.1313 14.1895 22.6813 13.1895 21.6113C13.8595 19.8913 14.5295 18.1613 15.1995 16.4413C15.6195 15.3613 16.1495 14.3213 16.7795 13.3613C19.2995 14.7913 21.8095 16.2213 24.3295 17.6513C26.1095 18.6613 27.8895 19.6713 29.6695 20.6813C31.7795 21.8813 33.8895 23.0813 35.9995 24.2813V24.2713Z" fill="#0B1107"/>
    <path d="M34.44 24.05C34.97 24.36 35.19 25 34.97 25.57C34.61 26.5 34.27 27.49 33.94 28.55C33.76 29.15 33.6 29.74 33.45 30.31C33.27 31.01 32.53 31.4 31.85 31.17C29.74 30.45 27.93 29.76 26.48 29.16C23.3 27.86 21.63 26.98 20.55 26.37C19.94 26.03 19.37 25.7 18.65 25.22C16.88 24.04 15.56 22.8 14.64 21.81C14.34 21.49 14.24 21.05 14.35 20.63C14.65 19.55 15.06 18.36 15.62 17.1C15.89 16.5 16.16 15.94 16.44 15.42C16.76 14.82 17.51 14.59 18.11 14.91C20.68 16.26 22.8 17.42 24.35 18.28C25.78 19.08 26.92 19.73 29.04 20.94C31.18 22.17 33.02 23.23 34.43 24.05H34.44Z" fill="#383A37"/>
    <path d="M35.9995 24.2713C35.1695 26.9813 34.3495 29.6813 33.5195 32.3813C30.8295 31.5813 28.5495 30.7513 26.7495 30.0313C22.9295 28.4913 20.5795 27.1813 19.9995 26.8613C19.3095 26.4713 18.6595 26.1013 17.8395 25.5513C15.7195 24.1313 14.1895 22.6813 13.1895 21.6113C13.8595 19.8913 14.5295 18.1613 15.1995 16.4413C15.6195 15.3613 16.1495 14.3213 16.7795 13.3613C19.2995 14.7913 21.8095 16.2213 24.3295 17.6513C26.1095 18.6613 27.8895 19.6713 29.6695 20.6813C31.7795 21.8813 33.8895 23.0813 35.9995 24.2813V24.2713Z" stroke="#231F20" stroke-width="0.25" stroke-linecap="round" stroke-linejoin="round"/>
    <path d="M14.4193 33.8511C15.4493 34.4511 16.4793 35.0511 17.5093 35.6511C18.8893 36.4511 19.7293 37.9311 19.7193 39.5311C19.7193 40.8511 19.6993 42.1811 19.6993 43.5011C16.8593 41.9711 14.0193 40.4511 11.1793 38.9211L11.1293 35.7711C11.0993 34.0711 12.9493 32.9911 14.4193 33.8511Z" fill="#E9E8D9"/>
    <path d="M14.4193 33.8511C15.4493 34.4511 16.4793 35.0511 17.5093 35.6511C18.8893 36.4511 19.7293 37.9311 19.7193 39.5311C19.7193 40.8511 19.6993 42.1811 19.6993 43.5011C16.8593 41.9711 14.0193 40.4511 11.1793 38.9211L11.1293 35.7711C11.0993 34.0711 12.9493 32.9911 14.4193 33.8511Z" stroke="#231F20" stroke-width="0.25" stroke-linecap="round" stroke-linejoin="round"/>
    <path d="M22.7794 42.5007C23.3994 42.5007 23.9094 41.7707 23.9094 40.8607C23.9094 39.9507 23.3994 39.2207 22.7794 39.2207C22.1594 39.2207 21.6494 39.9507 21.6494 40.8607C21.6494 41.7707 22.1594 42.5007 22.7794 42.5007Z" fill="#E9E8D9"/>
    <path d="M22.7794 42.5007C23.3994 42.5007 23.9094 41.7707 23.9094 40.8607C23.9094 39.9507 23.3994 39.2207 22.7794 39.2207C22.1594 39.2207 21.6494 39.9507 21.6494 40.8607C21.6494 41.7707 22.1594 42.5007 22.7794 42.5007Z" stroke="#231F20" stroke-width="0.25" stroke-linecap="round" stroke-linejoin="round"/>
    <path d="M9.14953 34.9499C9.76953 34.9499 10.2795 34.2199 10.2795 33.3099C10.2795 32.3999 9.76953 31.6699 9.14953 31.6699C8.52953 31.6699 8.01953 32.3999 8.01953 33.3099C8.01953 34.2199 8.52953 34.9499 9.14953 34.9499Z" fill="#E9E8D9"/>
    <path d="M9.14953 34.9499C9.76953 34.9499 10.2795 34.2199 10.2795 33.3099C10.2795 32.3999 9.76953 31.6699 9.14953 31.6699C8.52953 31.6699 8.01953 32.3999 8.01953 33.3099C8.01953 34.2199 8.52953 34.9499 9.14953 34.9499Z" stroke="#231F20" stroke-width="0.25" stroke-linecap="round" stroke-linejoin="round"/>
    <path d="M35.5901 41.9497C35.5701 43.9797 34.1201 46.3897 32.3901 47.3297C31.5001 47.8097 30.7101 47.8197 30.1401 47.4397C30.1201 47.4297 30.0901 47.4097 30.0701 47.3897C30.0501 47.3697 30.0301 47.3597 30.0101 47.3397C29.9701 47.3097 29.9301 47.2697 29.9001 47.2397C29.8701 47.2097 29.8501 47.1897 29.8201 47.1597C29.7901 47.1297 29.7701 47.0997 29.7401 47.0597C29.7201 47.0297 29.6901 46.9997 29.6701 46.9597C29.6501 46.9197 29.6201 46.8797 29.6001 46.8397C29.5801 46.8097 29.5701 46.7797 29.5601 46.7597L29.5301 46.6997C29.5301 46.6997 29.5001 46.6297 29.4901 46.5997C29.4701 46.5597 29.4601 46.5097 29.4401 46.4597C29.4301 46.4197 29.4101 46.3697 29.4001 46.3297C29.4001 46.3297 29.4001 46.3297 29.4001 46.3197C29.3901 46.2697 29.3801 46.2197 29.3701 46.1697C29.3501 46.0797 29.3401 45.9797 29.3301 45.8797C29.3301 45.8597 29.3301 45.8497 29.3301 45.8297C29.3301 45.7897 29.3301 45.7497 29.3301 45.7197C29.3301 45.6497 29.3301 45.5797 29.3301 45.5097C29.3201 43.5297 30.7001 41.1097 32.4401 40.1097C33.0001 39.7897 33.5201 39.6497 33.9701 39.6797C34.0001 39.6797 34.0301 39.6797 34.0601 39.6797C34.1001 39.6797 34.1301 39.6797 34.1701 39.6997C34.2301 39.6997 34.2901 39.7197 34.3401 39.7397C34.3701 39.7397 34.4001 39.7597 34.4301 39.7697C34.4601 39.7797 34.4901 39.7897 34.5101 39.7997C34.5401 39.8097 34.5601 39.8197 34.5901 39.8297C34.6301 39.8497 34.6701 39.8697 34.7001 39.8897C34.7501 39.9197 34.7901 39.9497 34.8301 39.9797C34.8501 39.9997 34.8701 40.0097 34.8901 40.0297C34.9301 40.0597 34.9701 40.0997 35.0101 40.1397C35.0301 40.1597 35.0501 40.1797 35.0701 40.1997C35.1101 40.2397 35.1401 40.2897 35.1801 40.3397C35.2101 40.3897 35.2401 40.4397 35.2701 40.4897C35.3201 40.5697 35.3601 40.6497 35.3901 40.7397C35.4001 40.7697 35.4101 40.7997 35.4201 40.8297C35.4301 40.8597 35.4401 40.8897 35.4501 40.9197C35.4501 40.9497 35.4701 40.9797 35.4801 41.0097C35.5601 41.2897 35.6001 41.6097 35.5901 41.9597V41.9497Z" fill="#383A37"/>
    <path d="M35.5901 41.9497C35.5701 43.9797 34.1201 46.3897 32.3901 47.3297C31.5001 47.8097 30.7101 47.8197 30.1401 47.4397C30.1201 47.4297 30.0901 47.4097 30.0701 47.3897C30.0501 47.3697 30.0301 47.3597 30.0101 47.3397C29.9701 47.3097 29.9301 47.2697 29.9001 47.2397C29.8701 47.2097 29.8501 47.1897 29.8201 47.1597C29.7901 47.1297 29.7701 47.0997 29.7401 47.0597C29.7201 47.0297 29.6901 46.9997 29.6701 46.9597C29.6501 46.9197 29.6201 46.8797 29.6001 46.8397C29.5801 46.8097 29.5701 46.7797 29.5601 46.7597L29.5301 46.6997C29.5301 46.6997 29.5001 46.6297 29.4901 46.5997C29.4701 46.5597 29.4601 46.5097 29.4401 46.4597C29.4301 46.4197 29.4101 46.3697 29.4001 46.3297C29.4001 46.3297 29.4001 46.3297 29.4001 46.3197C29.3901 46.2697 29.3801 46.2197 29.3701 46.1697C29.3501 46.0797 29.3401 45.9797 29.3301 45.8797C29.3301 45.8597 29.3301 45.8497 29.3301 45.8297C29.3301 45.7897 29.3301 45.7497 29.3301 45.7197C29.3301 45.6497 29.3301 45.5797 29.3301 45.5097C29.3201 43.5297 30.7001 41.1097 32.4401 40.1097C33.0001 39.7897 33.5201 39.6497 33.9701 39.6797C34.0001 39.6797 34.0301 39.6797 34.0601 39.6797C34.1001 39.6797 34.1301 39.6797 34.1701 39.6997C34.2301 39.6997 34.2901 39.7197 34.3401 39.7397C34.3701 39.7397 34.4001 39.7597 34.4301 39.7697C34.4601 39.7797 34.4901 39.7897 34.5101 39.7997C34.5401 39.8097 34.5601 39.8197 34.5901 39.8297C34.6301 39.8497 34.6701 39.8697 34.7001 39.8897C34.7501 39.9197 34.7901 39.9497 34.8301 39.9797C34.8501 39.9997 34.8701 40.0097 34.8901 40.0297C34.9301 40.0597 34.9701 40.0997 35.0101 40.1397C35.0301 40.1597 35.0501 40.1797 35.0701 40.1997C35.1101 40.2397 35.1401 40.2897 35.1801 40.3397C35.2101 40.3897 35.2401 40.4397 35.2701 40.4897C35.3201 40.5697 35.3601 40.6497 35.3901 40.7397C35.4001 40.7697 35.4101 40.7997 35.4201 40.8297C35.4301 40.8597 35.4401 40.8897 35.4501 40.9197C35.4501 40.9497 35.4701 40.9797 35.4801 41.0097C35.5601 41.2897 35.6001 41.6097 35.5901 41.9597V41.9497Z" stroke="#231F20" stroke-width="0.25" stroke-linecap="round" stroke-linejoin="round"/>
    <path d="M33.67 43.0007C33.67 43.1807 33.64 43.3707 33.58 43.5607C33.43 44.0807 33.1 44.6007 32.69 44.9207C32.6 44.9907 32.51 45.0507 32.42 45.1007C31.97 45.3407 31.58 45.2807 31.37 44.9807C31.27 44.8307 31.21 44.6307 31.21 44.3807C31.21 43.6107 31.74 42.6607 32.42 42.2707C32.53 42.2007 32.64 42.1607 32.75 42.1307C33.28 41.9907 33.67 42.3307 33.66 43.0007H33.67Z" fill="#FBDB17"/>
    <path d="M33.67 43.0007C33.67 43.1807 33.64 43.3707 33.58 43.5607C33.43 44.0807 33.1 44.6007 32.69 44.9207C32.6 44.9907 32.51 45.0507 32.42 45.1007C31.97 45.3407 31.58 45.2807 31.37 44.9807C31.27 44.8307 31.21 44.6307 31.21 44.3807C31.21 43.6107 31.74 42.6607 32.42 42.2707C32.53 42.2007 32.64 42.1607 32.75 42.1307C33.28 41.9907 33.67 42.3307 33.66 43.0007H33.67Z" stroke="#231F20" stroke-width="0.25" stroke-linecap="round" stroke-linejoin="round"/>
    <path d="M34.5695 39.8095C34.5695 39.8095 34.5195 39.7895 34.4895 39.7795C34.4595 39.7695 34.4395 39.7595 34.4095 39.7495C34.3795 39.7495 34.3495 39.7295 34.3195 39.7195C34.2595 39.6995 34.2095 39.6895 34.1495 39.6795C34.1195 39.6795 34.0795 39.6695 34.0395 39.6595C34.0095 39.6595 33.9795 39.6595 33.9495 39.6595C33.4995 39.6295 32.9695 39.7695 32.4195 40.0895C30.6795 41.0995 29.2995 43.5195 29.3095 45.4895C29.3095 45.5595 29.3095 45.6295 29.3095 45.6995C29.3095 45.7395 29.3095 45.7795 29.3095 45.8095C29.3095 45.8295 29.3095 45.8495 29.3095 45.8595C29.3195 45.9595 29.3395 46.0595 29.3495 46.1495C29.3495 46.1995 29.3695 46.2495 29.3795 46.2995C29.3795 46.2995 29.3795 46.2995 29.3795 46.3095C29.3895 46.3495 29.4095 46.3995 29.4195 46.4395C29.4295 46.4895 29.4495 46.5295 29.4695 46.5795C29.4795 46.6095 29.4995 46.6495 29.5095 46.6795L29.5395 46.7395C29.5395 46.7395 29.5695 46.7995 29.5795 46.8195C29.5995 46.8595 29.6195 46.8995 29.6495 46.9395C29.6695 46.9695 29.6895 47.0095 29.7195 47.0395C29.7395 47.0695 29.7695 47.1095 29.7995 47.1395C29.8195 47.1695 29.8495 47.1895 29.8795 47.2195C29.9095 47.2595 29.9495 47.2895 29.9895 47.3195C30.0095 47.3395 30.0295 47.3495 30.0495 47.3695C30.0695 47.3895 30.0895 47.3995 30.1195 47.4195C30.1395 47.4295 30.1495 47.4395 30.1695 47.4495C29.5395 47.0795 28.9095 46.7195 28.2795 46.3495C27.9995 46.1795 27.7795 45.9195 27.6295 45.5895C27.5695 45.4595 27.5195 45.3095 27.4795 45.1495C27.9795 45.0395 28.4595 44.8995 28.9395 44.7095C28.8495 44.4395 28.7995 44.1295 28.7995 43.7795C28.7895 41.9195 30.0895 39.6395 31.7295 38.6895C31.8395 38.6195 31.9495 38.5695 32.0595 38.5195C32.3095 38.5395 32.5395 38.6095 32.7395 38.7295C33.3395 39.0795 33.9395 39.4295 34.5395 39.7895L34.5695 39.8095Z" fill="#0B1107"/>
    <path d="M34.5695 39.8095C34.5695 39.8095 34.5195 39.7895 34.4895 39.7795C34.4595 39.7695 34.4395 39.7595 34.4095 39.7495C34.3795 39.7495 34.3495 39.7295 34.3195 39.7195C34.2595 39.6995 34.2095 39.6895 34.1495 39.6795C34.1195 39.6795 34.0795 39.6695 34.0395 39.6595C34.0095 39.6595 33.9795 39.6595 33.9495 39.6595C33.4995 39.6295 32.9695 39.7695 32.4195 40.0895C30.6795 41.0995 29.2995 43.5195 29.3095 45.4895C29.3095 45.5595 29.3095 45.6295 29.3095 45.6995C29.3095 45.7395 29.3095 45.7795 29.3095 45.8095C29.3095 45.8295 29.3095 45.8495 29.3095 45.8595C29.3195 45.9595 29.3395 46.0595 29.3495 46.1495C29.3495 46.1995 29.3695 46.2495 29.3795 46.2995C29.3795 46.2995 29.3795 46.2995 29.3795 46.3095C29.3895 46.3495 29.4095 46.3995 29.4195 46.4395C29.4295 46.4895 29.4495 46.5295 29.4695 46.5795C29.4795 46.6095 29.4995 46.6495 29.5095 46.6795L29.5395 46.7395C29.5395 46.7395 29.5695 46.7995 29.5795 46.8195C29.5995 46.8595 29.6195 46.8995 29.6495 46.9395C29.6695 46.9695 29.6895 47.0095 29.7195 47.0395C29.7395 47.0695 29.7695 47.1095 29.7995 47.1395C29.8195 47.1695 29.8495 47.1895 29.8795 47.2195C29.9095 47.2595 29.9495 47.2895 29.9895 47.3195C30.0095 47.3395 30.0295 47.3495 30.0495 47.3695C30.0695 47.3895 30.0895 47.3995 30.1195 47.4195C30.1395 47.4295 30.1495 47.4395 30.1695 47.4495C29.5395 47.0795 28.9095 46.7195 28.2795 46.3495C27.9995 46.1795 27.7795 45.9195 27.6295 45.5895C27.5695 45.4595 27.5195 45.3095 27.4795 45.1495C27.9795 45.0395 28.4595 44.8995 28.9395 44.7095C28.8495 44.4395 28.7995 44.1295 28.7995 43.7795C28.7895 41.9195 30.0895 39.6395 31.7295 38.6895C31.8395 38.6195 31.9495 38.5695 32.0595 38.5195C32.3095 38.5395 32.5395 38.6095 32.7395 38.7295C33.3395 39.0795 33.9395 39.4295 34.5395 39.7895L34.5695 39.8095Z" stroke="#231F20" stroke-width="0.25" stroke-linecap="round" stroke-linejoin="round"/>
    <path d="M33.2497 43.4702C33.2397 43.7102 33.1597 43.9402 33.0397 44.1402C32.9097 44.3502 32.7097 44.5202 32.4897 44.6402C32.1397 44.8202 31.7097 44.8602 31.3597 44.6902C31.2697 44.5602 31.2197 44.3902 31.2197 44.1702C31.2197 43.5102 31.6797 42.6902 32.2597 42.3602C32.3597 42.3002 32.4497 42.2602 32.5397 42.2402C32.6097 42.2702 32.6697 42.3002 32.7297 42.3402C33.1097 42.5902 33.2797 43.0302 33.2497 43.4702Z" fill="#E9E8D9"/>
    <path d="M33.2497 43.4702C33.2397 43.7102 33.1597 43.9402 33.0397 44.1402C32.9097 44.3502 32.7097 44.5202 32.4897 44.6402C32.1397 44.8202 31.7097 44.8602 31.3597 44.6902C31.2697 44.5602 31.2197 44.3902 31.2197 44.1702C31.2197 43.5102 31.6797 42.6902 32.2597 42.3602C32.3597 42.3002 32.4497 42.2602 32.5397 42.2402C32.6097 42.2702 32.6697 42.3002 32.7297 42.3402C33.1097 42.5902 33.2797 43.0302 33.2497 43.4702Z" stroke="#231F20" stroke-width="0.25" stroke-linecap="round" stroke-linejoin="round"/>
    <path d="M51.7998 10.4609C52.9898 11.6809 54.2798 13.1509 55.5398 14.8909C56.4698 16.1709 57.2498 17.4009 57.9098 18.5509" stroke="#231F20" stroke-width="0.25" stroke-linecap="round" stroke-linejoin="round"/>
    <path d="M9.37988 28.7109C14.3499 31.3209 19.3299 33.9409 24.2999 36.5509" stroke="#231F20" stroke-width="0.25" stroke-linecap="round" stroke-linejoin="round"/>
    <path d="M20.5293 11.3301C25.4793 14.0101 30.4293 16.6901 35.3793 19.3701" stroke="#231F20" stroke-width="0.25" stroke-linecap="round" stroke-linejoin="round"/>
    <g opacity="0.43">
      <path d="M32.8296 24.6305C32.8296 24.6305 32.8096 24.6305 32.7996 24.6305L17.9496 16.5905C17.9496 16.5905 17.9096 16.5305 17.9196 16.5005C17.9396 16.4705 17.9796 16.4605 18.0096 16.4705L32.8596 24.5105C32.8596 24.5105 32.8996 24.5705 32.8896 24.6005C32.8796 24.6205 32.8596 24.6305 32.8296 24.6305Z" fill="#FFF8DC"/>
    </g>
    <g opacity="0.43">
      <path d="M32.4797 25.8811C32.4797 25.8811 32.4597 25.8811 32.4497 25.8811C29.7997 24.5511 27.1297 23.1511 24.5197 21.7311C22.2097 20.4711 19.8797 19.1611 17.5997 17.8411C17.5697 17.8211 17.5597 17.7811 17.5797 17.7511C17.5997 17.7211 17.6397 17.7111 17.6697 17.7311C19.9497 19.0511 22.2797 20.3611 24.5897 21.6211C27.1997 23.0411 29.8697 24.4411 32.5197 25.7711C32.5497 25.7911 32.5597 25.8211 32.5497 25.8611C32.5397 25.8811 32.5197 25.8911 32.4897 25.8911L32.4797 25.8811Z" fill="#FFF8DC"/>
    </g>
    <g opacity="0.43">
      <path d="M32.02 27.2913C32.02 27.2913 32 27.2913 31.99 27.2913C29.22 26.0813 26.46 24.7213 23.81 23.2713C21.54 22.0213 19.29 20.6713 17.13 19.2513C17.1 19.2313 17.09 19.1913 17.11 19.1613C17.13 19.1313 17.17 19.1213 17.2 19.1413C19.36 20.5613 21.61 21.9113 23.87 23.1513C26.52 24.6113 29.27 25.9613 32.04 27.1713C32.07 27.1813 32.09 27.2213 32.07 27.2513C32.06 27.2713 32.04 27.2913 32.01 27.2913H32.02Z" fill="#FFF8DC"/>
    </g>
    <g opacity="0.43">
      <path d="M31.7197 28.7811H31.6997C28.1597 27.4011 24.7197 25.7211 21.4797 23.7811C19.8997 22.8311 18.3297 21.8111 16.8297 20.7311C16.7997 20.7111 16.7997 20.6711 16.8097 20.6411C16.8297 20.6111 16.8697 20.6111 16.8997 20.6311C18.3997 21.7011 19.9597 22.7311 21.5397 23.6711C24.7797 25.6111 28.2097 27.2811 31.7397 28.6611C31.7697 28.6711 31.7897 28.7111 31.7797 28.7411C31.7797 28.7711 31.7497 28.7811 31.7197 28.7811Z" fill="#FFF8DC"/>
    </g>
    <g opacity="0.43">
      <path d="M31.3593 30.1405C31.3593 30.1405 31.3493 30.1405 31.3393 30.1405C27.1093 28.6605 23.1093 26.6705 19.4493 24.2305C18.4393 23.5505 17.4393 22.8305 16.4693 22.0905C16.4393 22.0705 16.4393 22.0305 16.4593 22.0005C16.4793 21.9705 16.5193 21.9705 16.5493 21.9905C17.5093 22.7305 18.5093 23.4505 19.5193 24.1205C23.1693 26.5505 27.1593 28.5405 31.3793 30.0105C31.4093 30.0205 31.4293 30.0605 31.4193 30.0905C31.4193 30.1205 31.3893 30.1305 31.3593 30.1305V30.1405Z" fill="#FFF8DC"/>
    </g>
    <path d="M39.0092 34.2006L36.5792 32.8106C36.1592 32.5706 35.9092 32.1306 35.9092 31.6506V29.8806C35.9192 29.0806 36.7892 28.5806 37.4892 28.9806L39.1692 29.9506C40.1292 30.5106 40.7292 31.5406 40.7292 32.6506V33.2006C40.7292 34.0806 39.7792 34.6306 39.0192 34.1906L39.0092 34.2006Z" fill="#508C17"/>
    <path d="M39.0092 34.2006L36.5792 32.8106C36.1592 32.5706 35.9092 32.1306 35.9092 31.6506V29.8806C35.9192 29.0806 36.7892 28.5806 37.4892 28.9806L39.1692 29.9506C40.1292 30.5106 40.7292 31.5406 40.7292 32.6506V33.2006C40.7292 34.0806 39.7792 34.6306 39.0192 34.1906L39.0092 34.2006Z" stroke="#231F20" stroke-width="0.25" stroke-linecap="round" stroke-linejoin="round"/>
    <path d="M11.8197 20.1406L9.38973 18.7506C8.96973 18.5106 8.71973 18.0706 8.71973 17.5906C8.71973 17.3906 8.71973 17.1906 8.71973 16.9906C8.71973 15.6706 10.1597 14.8406 11.3097 15.5106L12.9397 16.4606C13.3097 16.6706 13.5297 17.0606 13.5297 17.4806V19.1506C13.5297 20.0306 12.5797 20.5806 11.8197 20.1406Z" stroke="#231F20" stroke-width="0.25" stroke-linecap="round" stroke-linejoin="round"/>
    <path d="M11.8197 20.1406L9.38973 18.7506C8.96973 18.5106 8.71973 18.0706 8.71973 17.5906C8.71973 17.3906 8.71973 17.1906 8.71973 16.9906C8.71973 15.6706 10.1597 14.8406 11.3097 15.5106L12.9397 16.4606C13.3097 16.6706 13.5297 17.0606 13.5297 17.4806V19.1506C13.5297 20.0306 12.5797 20.5806 11.8197 20.1406Z" fill="#508C17"/>
    <path d="M11.8197 20.1406L9.38973 18.7506C8.96973 18.5106 8.71973 18.0706 8.71973 17.5906C8.71973 17.3906 8.71973 17.1906 8.71973 16.9906C8.71973 15.6706 10.1597 14.8406 11.3097 15.5106L12.9397 16.4606C13.3097 16.6706 13.5297 17.0606 13.5297 17.4806V19.1506C13.5297 20.0306 12.5797 20.5806 11.8197 20.1406Z" stroke="#231F20" stroke-width="0.25" stroke-linecap="round" stroke-linejoin="round"/>
    <path d="M12.8299 18.3303C13.3199 18.4803 13.7999 18.6303 14.2899 18.7803C14.0899 19.2903 13.8899 19.8103 13.6899 20.3203C13.2599 20.0903 12.8199 19.8503 12.3899 19.6103C12.1199 19.3903 12.0299 19.0203 12.1699 18.7203C12.2899 18.4803 12.5499 18.3203 12.8299 18.3203V18.3303Z" fill="#508C17"/>
    <path d="M12.8299 18.3303C13.3199 18.4803 13.7999 18.6303 14.2899 18.7803C14.0899 19.2903 13.8899 19.8103 13.6899 20.3203C13.2599 20.0903 12.8199 19.8503 12.3899 19.6103C12.1199 19.3903 12.0299 19.0203 12.1699 18.7203C12.2899 18.4803 12.5499 18.3203 12.8299 18.3203V18.3303Z" stroke="#231F20" stroke-width="0.25" stroke-linecap="round" stroke-linejoin="round"/>
    <path d="M35.2992 29.551C35.6992 29.751 36.1092 29.951 36.5092 30.141C36.4292 30.241 36.2392 30.481 36.1892 30.851C36.1392 31.201 36.2392 31.481 36.2892 31.591C35.7892 31.461 35.2792 31.321 34.7792 31.181C34.7492 31.141 34.4592 30.751 34.6092 30.251C34.7592 29.721 35.2692 29.551 35.3092 29.541L35.2992 29.551Z" fill="#508C17"/>
    <path d="M35.2992 29.551C35.6992 29.751 36.1092 29.951 36.5092 30.141C36.4292 30.241 36.2392 30.481 36.1892 30.851C36.1392 31.201 36.2392 31.481 36.2892 31.591C35.7892 31.461 35.2792 31.321 34.7792 31.181C34.7492 31.141 34.4592 30.751 34.6092 30.251C34.7592 29.721 35.2692 29.551 35.3092 29.541L35.2992 29.551Z" stroke="#231F20" stroke-width="0.25" stroke-linecap="round" stroke-linejoin="round"/>
    <path opacity="0.37" d="M51.8801 11.6005C51.4101 11.1705 50.8601 10.6905 50.2301 10.2105C46.2401 7.13046 42.3401 6.04046 39.6801 5.32046C36.3801 4.43046 33.3001 4.10046 30.5801 4.05046C33.5101 3.56046 37.8501 3.51046 42.6801 5.10046C48.1301 6.90046 51.0801 9.73046 51.8001 10.4505H51.8101C52.1301 10.7805 52.1301 11.2705 51.8801 11.5905V11.6005Z" fill="white"/>
    <path opacity="0.37" d="M51.3701 11.9806C51.3201 12.0106 51.2701 12.0406 51.2201 12.0706C48.3601 10.6906 44.9201 9.30063 40.9201 8.20063C35.1001 6.59063 29.8401 6.07063 25.6201 6.00063C26.0801 5.73063 26.5401 5.45063 27.0001 5.18063C29.4501 5.03063 32.3801 5.08063 35.6401 5.62063C42.6801 6.79063 48.0201 9.70063 51.3701 11.9806Z" fill="white"/>
    <path d="M6.39941 33.0898C6.06941 33.2898 5.72941 33.4898 5.39941 33.6898C11.6394 37.8698 17.8694 42.0498 24.1094 46.2298C24.7494 45.9698 25.3894 45.7098 26.0394 45.4398C26.1594 44.9398 26.2794 44.4398 26.3994 43.9298C26.1394 43.7598 25.8894 43.5998 25.6294 43.4298C25.3094 43.5698 24.9894 43.7098 24.6794 43.8598C18.6594 40.4598 12.6394 37.0698 6.61941 33.6698C6.54941 33.4698 6.47941 33.2798 6.40941 33.0898H6.39941Z" fill="#E9E8D9"/>
    <path d="M6.39941 33.0898C6.06941 33.2898 5.72941 33.4898 5.39941 33.6898C11.6394 37.8698 17.8694 42.0498 24.1094 46.2298C24.7494 45.9698 25.3894 45.7098 26.0394 45.4398C26.1594 44.9398 26.2794 44.4398 26.3994 43.9298C26.1394 43.7598 25.8894 43.5998 25.6294 43.4298C25.3094 43.5698 24.9894 43.7098 24.6794 43.8598C18.6594 40.4598 12.6394 37.0698 6.61941 33.6698C6.54941 33.4698 6.47941 33.2798 6.40941 33.0898H6.39941Z" stroke="#231F20" stroke-width="0.25" stroke-linecap="round" stroke-linejoin="round"/>
    <path d="M5.39965 33.6914C5.39965 34.3814 5.39965 35.0714 5.39965 35.7714C11.7596 39.4814 18.1096 43.1814 24.4596 46.8914C25.0996 46.5914 25.7396 46.2914 26.3896 45.9914V43.9514C25.8096 44.2014 25.2396 44.4514 24.6596 44.7014C18.3996 41.1614 12.1596 37.6014 5.92965 34.0214C5.86965 33.9914 5.44965 33.7414 5.38965 33.7114L5.39965 33.6914Z" fill="#383A37"/>
    <path d="M5.39965 33.6914C5.39965 34.3814 5.39965 35.0714 5.39965 35.7714C11.7596 39.4814 18.1096 43.1814 24.4596 46.8914C25.0996 46.5914 25.7396 46.2914 26.3896 45.9914V43.9514C25.8096 44.2014 25.2396 44.4514 24.6596 44.7014C18.3996 41.1614 12.1596 37.6014 5.92965 34.0214C5.86965 33.9914 5.44965 33.7414 5.38965 33.7114L5.39965 33.6914Z" stroke="#231F20" stroke-width="0.25" stroke-linecap="round" stroke-linejoin="round"/>
  </g>
</svg>